%TF.GenerationSoftware,KiCad,Pcbnew,9.0.2-9.0.2-0~ubuntu24.04.1*%
%TF.CreationDate,2025-06-12T20:24:44+02:00*%
%TF.ProjectId,PCB_Robot,5043425f-526f-4626-9f74-2e6b69636164,rev?*%
%TF.SameCoordinates,Original*%
%TF.FileFunction,Copper,L1,Top*%
%TF.FilePolarity,Positive*%
%FSLAX46Y46*%
G04 Gerber Fmt 4.6, Leading zero omitted, Abs format (unit mm)*
G04 Created by KiCad (PCBNEW 9.0.2-9.0.2-0~ubuntu24.04.1) date 2025-06-12 20:24:44*
%MOMM*%
%LPD*%
G01*
G04 APERTURE LIST*
G04 Aperture macros list*
%AMRoundRect*
0 Rectangle with rounded corners*
0 $1 Rounding radius*
0 $2 $3 $4 $5 $6 $7 $8 $9 X,Y pos of 4 corners*
0 Add a 4 corners polygon primitive as box body*
4,1,4,$2,$3,$4,$5,$6,$7,$8,$9,$2,$3,0*
0 Add four circle primitives for the rounded corners*
1,1,$1+$1,$2,$3*
1,1,$1+$1,$4,$5*
1,1,$1+$1,$6,$7*
1,1,$1+$1,$8,$9*
0 Add four rect primitives between the rounded corners*
20,1,$1+$1,$2,$3,$4,$5,0*
20,1,$1+$1,$4,$5,$6,$7,0*
20,1,$1+$1,$6,$7,$8,$9,0*
20,1,$1+$1,$8,$9,$2,$3,0*%
G04 Aperture macros list end*
%TA.AperFunction,ComponentPad*%
%ADD10C,5.600000*%
%TD*%
%TA.AperFunction,SMDPad,CuDef*%
%ADD11R,1.500000X0.900000*%
%TD*%
%TA.AperFunction,SMDPad,CuDef*%
%ADD12R,0.900000X1.500000*%
%TD*%
%TA.AperFunction,SMDPad,CuDef*%
%ADD13R,0.900000X0.900000*%
%TD*%
%TA.AperFunction,ComponentPad*%
%ADD14C,1.700000*%
%TD*%
%TA.AperFunction,ComponentPad*%
%ADD15R,1.700000X1.700000*%
%TD*%
%TA.AperFunction,SMDPad,CuDef*%
%ADD16RoundRect,0.600000X-1.900000X-1.400000X1.900000X-1.400000X1.900000X1.400000X-1.900000X1.400000X0*%
%TD*%
%TA.AperFunction,SMDPad,CuDef*%
%ADD17RoundRect,0.250000X0.475000X-0.337500X0.475000X0.337500X-0.475000X0.337500X-0.475000X-0.337500X0*%
%TD*%
%TA.AperFunction,SMDPad,CuDef*%
%ADD18RoundRect,0.250000X0.450000X-0.350000X0.450000X0.350000X-0.450000X0.350000X-0.450000X-0.350000X0*%
%TD*%
%TA.AperFunction,SMDPad,CuDef*%
%ADD19RoundRect,0.250000X-0.550000X1.050000X-0.550000X-1.050000X0.550000X-1.050000X0.550000X1.050000X0*%
%TD*%
%TA.AperFunction,SMDPad,CuDef*%
%ADD20RoundRect,0.250000X-1.050000X-0.550000X1.050000X-0.550000X1.050000X0.550000X-1.050000X0.550000X0*%
%TD*%
%TA.AperFunction,SMDPad,CuDef*%
%ADD21RoundRect,0.250000X-0.475000X0.337500X-0.475000X-0.337500X0.475000X-0.337500X0.475000X0.337500X0*%
%TD*%
%TA.AperFunction,SMDPad,CuDef*%
%ADD22R,1.750000X0.450000*%
%TD*%
%TA.AperFunction,ViaPad*%
%ADD23C,0.600000*%
%TD*%
%TA.AperFunction,ViaPad*%
%ADD24C,0.800000*%
%TD*%
%TA.AperFunction,Conductor*%
%ADD25C,0.200000*%
%TD*%
%TA.AperFunction,Conductor*%
%ADD26C,1.000000*%
%TD*%
G04 APERTURE END LIST*
D10*
%TO.P,REF\u002A\u002A,1*%
%TO.N,N/C*%
X116230400Y-136804400D03*
%TD*%
%TO.P,REF\u002A\u002A,1*%
%TO.N,N/C*%
X149758400Y-74828400D03*
%TD*%
%TO.P,REF\u002A\u002A,1*%
%TO.N,N/C*%
X117195600Y-74930000D03*
%TD*%
D11*
%TO.P,U1,1,GND*%
%TO.N,GND*%
X124200000Y-82000000D03*
%TO.P,U1,2,3V3*%
%TO.N,+3V3*%
X124200000Y-83270000D03*
%TO.P,U1,3,EN/CHIP_PU*%
%TO.N,Net-(U1-EN{slash}CHIP_PU)*%
X124200000Y-84540000D03*
%TO.P,U1,4,SENSOR_VP/GPIO36/ADC1_CH0*%
%TO.N,unconnected-(U1-SENSOR_VP{slash}GPIO36{slash}ADC1_CH0-Pad4)*%
X124200000Y-85810000D03*
%TO.P,U1,5,SENSOR_VN/GPIO39/ADC1_CH3*%
%TO.N,unconnected-(U1-SENSOR_VN{slash}GPIO39{slash}ADC1_CH3-Pad5)*%
X124200000Y-87080000D03*
%TO.P,U1,6,GPIO34/ADC1_CH6*%
%TO.N,unconnected-(U1-GPIO34{slash}ADC1_CH6-Pad6)*%
X124200000Y-88350000D03*
%TO.P,U1,7,GPIO35/ADC1_CH7*%
%TO.N,unconnected-(U1-GPIO35{slash}ADC1_CH7-Pad7)*%
X124200000Y-89620000D03*
%TO.P,U1,8,32K_XP/GPIO32/ADC1_CH4*%
%TO.N,/MT_PWMB*%
X124200000Y-90890000D03*
%TO.P,U1,9,32K_XN/GPIO33/ADC1_CH5*%
%TO.N,/MT_BIN2*%
X124200000Y-92160000D03*
%TO.P,U1,10,DAC_1/ADC2_CH8/GPIO25*%
%TO.N,/MT_BIN1*%
X124200000Y-93430000D03*
%TO.P,U1,11,DAC_2/ADC2_CH9/GPIO26*%
%TO.N,/MT_STBY*%
X124200000Y-94700000D03*
%TO.P,U1,12,ADC2_CH7/GPIO27*%
%TO.N,/MT_AIN1*%
X124200000Y-95970000D03*
%TO.P,U1,13,MTMS/GPIO14/ADC2_CH6*%
%TO.N,/MT_AIN2*%
X124200000Y-97240000D03*
%TO.P,U1,14,MTDI/GPIO12/ADC2_CH5*%
%TO.N,/MT_PWMA*%
X124200000Y-98510000D03*
D12*
%TO.P,U1,15,GND*%
%TO.N,GND*%
X127230000Y-99760000D03*
%TO.P,U1,16,MTCK/GPIO13/ADC2_CH4*%
%TO.N,unconnected-(U1-MTCK{slash}GPIO13{slash}ADC2_CH4-Pad16)*%
X128500000Y-99760000D03*
%TO.P,U1,17*%
%TO.N,N/C*%
X129770000Y-99760000D03*
%TO.P,U1,18*%
X131040000Y-99760000D03*
%TO.P,U1,19*%
X132310000Y-99760000D03*
%TO.P,U1,20*%
X133580000Y-99760000D03*
%TO.P,U1,21*%
X134850000Y-99760000D03*
%TO.P,U1,22*%
X136120000Y-99760000D03*
%TO.P,U1,23,MTDO/GPIO15/ADC2_CH3*%
%TO.N,unconnected-(U1-MTDO{slash}GPIO15{slash}ADC2_CH3-Pad23)*%
X137390000Y-99760000D03*
%TO.P,U1,24,ADC2_CH2/GPIO2*%
%TO.N,unconnected-(U1-ADC2_CH2{slash}GPIO2-Pad24)*%
X138660000Y-99760000D03*
D11*
%TO.P,U1,25,GPIO0/BOOT/ADC2_CH1*%
%TO.N,Net-(JP1-C)*%
X141700000Y-98510000D03*
%TO.P,U1,26,ADC2_CH0/GPIO4*%
%TO.N,unconnected-(U1-ADC2_CH0{slash}GPIO4-Pad26)*%
X141700000Y-97240000D03*
%TO.P,U1,27,GPIO16*%
%TO.N,/BMI_SCK*%
X141700000Y-95970000D03*
%TO.P,U1,28,GPIO17*%
%TO.N,/BMI_MOSI*%
X141700000Y-94700000D03*
%TO.P,U1,29,GPIO5*%
%TO.N,/BMI_CS*%
X141700000Y-93430000D03*
%TO.P,U1,30,GPIO18*%
%TO.N,/BMI_MISO*%
X141700000Y-92160000D03*
%TO.P,U1,31,GPIO19*%
%TO.N,unconnected-(U1-GPIO19-Pad31)*%
X141700000Y-90890000D03*
%TO.P,U1,32*%
%TO.N,N/C*%
X141700000Y-89620000D03*
%TO.P,U1,33,GPIO21*%
%TO.N,unconnected-(U1-GPIO21-Pad33)*%
X141700000Y-88350000D03*
%TO.P,U1,34,U0RXD/GPIO3*%
%TO.N,Net-(J1-Pin_4)*%
X141700000Y-87080000D03*
%TO.P,U1,35,U0TXD/GPIO1*%
%TO.N,Net-(J1-Pin_3)*%
X141700000Y-85810000D03*
%TO.P,U1,36,GPIO22*%
%TO.N,unconnected-(U1-GPIO22-Pad36)*%
X141700000Y-84540000D03*
%TO.P,U1,37,GPIO23*%
%TO.N,unconnected-(U1-GPIO23-Pad37)*%
X141700000Y-83270000D03*
%TO.P,U1,38,GND*%
%TO.N,GND*%
X141700000Y-82000000D03*
D13*
%TO.P,U1,39,GND_THERMAL*%
X130050000Y-88320000D03*
X130050000Y-88320000D03*
X130050000Y-89720000D03*
X130050000Y-91120000D03*
X130050000Y-91120000D03*
X131450000Y-88320000D03*
X131450000Y-89720000D03*
X131450000Y-91120000D03*
X131450000Y-91120000D03*
X132850000Y-88320000D03*
X132850000Y-89720000D03*
X132850000Y-91120000D03*
%TD*%
D14*
%TO.P,J1,4,Pin_4*%
%TO.N,Net-(J1-Pin_4)*%
X148250000Y-88790000D03*
%TO.P,J1,3,Pin_3*%
%TO.N,Net-(J1-Pin_3)*%
X148250000Y-86250000D03*
%TO.P,J1,2,Pin_2*%
%TO.N,GND*%
X148250000Y-83710000D03*
D15*
%TO.P,J1,1,Pin_1*%
%TO.N,+3V3*%
X148250000Y-81170000D03*
%TD*%
D16*
%TO.P,U4,1,Vin*%
%TO.N,/V_MOTOR*%
X127553000Y-126601000D03*
%TO.P,U4,2,GND*%
%TO.N,GND*%
X127553000Y-135745000D03*
%TO.P,U4,3,GND*%
X143047000Y-135999000D03*
%TO.P,U4,4,3v3*%
%TO.N,+3V3*%
X143047000Y-126855000D03*
%TD*%
D15*
%TO.P,JP1,1,A*%
%TO.N,+3V3*%
X148300000Y-92770000D03*
D14*
%TO.P,JP1,2,C*%
%TO.N,Net-(JP1-C)*%
X148300000Y-95310000D03*
%TO.P,JP1,3,B*%
%TO.N,GND*%
X148300000Y-97850000D03*
%TD*%
%TO.P,U3,1,Vin*%
%TO.N,unconnected-(U3-Vin-Pad1)*%
X140920000Y-104980000D03*
%TO.P,U3,2,3v3*%
%TO.N,+3V3*%
X140920000Y-107520000D03*
%TO.P,U3,3,GND*%
%TO.N,GND*%
X140920000Y-110060000D03*
%TO.P,U3,4,SCL/SCK*%
%TO.N,/BMI_SCK*%
X140920000Y-112600000D03*
%TO.P,U3,5,SDA/MOSI*%
%TO.N,/BMI_MOSI*%
X140920000Y-115140000D03*
%TO.P,U3,6,CS/CSB*%
%TO.N,/BMI_CS*%
X140920000Y-117680000D03*
%TO.P,U3,7,SA0/MISO*%
%TO.N,/BMI_MISO*%
X140920000Y-120220000D03*
%TO.P,U3,8,CSO*%
%TO.N,unconnected-(U3-CSO-Pad8)*%
X151080000Y-107520000D03*
%TO.P,U3,9,INT2*%
%TO.N,unconnected-(U3-INT2-Pad9)*%
X151080000Y-110060000D03*
%TO.P,U3,10,INT1*%
%TO.N,unconnected-(U3-INT1-Pad10)*%
X151080000Y-112600000D03*
%TO.P,U3,11,SCX*%
%TO.N,unconnected-(U3-SCX-Pad11)*%
X151080000Y-115140000D03*
%TO.P,U3,12,SDX*%
%TO.N,unconnected-(U3-SDX-Pad12)*%
X151080000Y-117680000D03*
%TD*%
D17*
%TO.P,C5,1*%
%TO.N,/V_MOTOR*%
X132200000Y-117137500D03*
%TO.P,C5,2*%
%TO.N,GND*%
X132200000Y-115062500D03*
%TD*%
D15*
%TO.P,J3,1,Pin_1*%
%TO.N,Net-(J3-Pin_1)*%
X117600000Y-107325000D03*
D14*
%TO.P,J3,2,Pin_2*%
%TO.N,Net-(J3-Pin_2)*%
X117600000Y-109865000D03*
%TD*%
D15*
%TO.P,J2,1,Pin_1*%
%TO.N,/V_MOTOR*%
X121000000Y-129700000D03*
D14*
%TO.P,J2,2,Pin_2*%
%TO.N,GND*%
X121000000Y-132240000D03*
%TD*%
D18*
%TO.P,R1,1*%
%TO.N,+3V3*%
X120900000Y-88150000D03*
%TO.P,R1,2*%
%TO.N,Net-(U1-EN{slash}CHIP_PU)*%
X120900000Y-86150000D03*
%TD*%
D15*
%TO.P,J4,1,Pin_1*%
%TO.N,Net-(J4-Pin_1)*%
X117600000Y-117140000D03*
D14*
%TO.P,J4,2,Pin_2*%
%TO.N,Net-(J4-Pin_2)*%
X117600000Y-114600000D03*
%TD*%
D17*
%TO.P,C1,1*%
%TO.N,Net-(U1-EN{slash}CHIP_PU)*%
X120900000Y-84337500D03*
%TO.P,C1,2*%
%TO.N,GND*%
X120900000Y-82262500D03*
%TD*%
D19*
%TO.P,C2,1*%
%TO.N,+3V3*%
X135800000Y-110600000D03*
%TO.P,C2,2*%
%TO.N,GND*%
X135800000Y-114200000D03*
%TD*%
D20*
%TO.P,C4,1*%
%TO.N,/V_MOTOR*%
X126900000Y-119600000D03*
%TO.P,C4,2*%
%TO.N,GND*%
X130500000Y-119600000D03*
%TD*%
D21*
%TO.P,C3,1*%
%TO.N,+3V3*%
X132200000Y-111225000D03*
%TO.P,C3,2*%
%TO.N,GND*%
X132200000Y-113300000D03*
%TD*%
D22*
%TO.P,U2,1,AO1*%
%TO.N,Net-(J3-Pin_1)*%
X121890000Y-108965000D03*
%TO.P,U2,2,AO1*%
X121890000Y-109615000D03*
%TO.P,U2,3,PGND1*%
%TO.N,GND*%
X121890000Y-110265000D03*
%TO.P,U2,4,PGND1*%
X121890000Y-110915000D03*
%TO.P,U2,5,AO2*%
%TO.N,Net-(J3-Pin_2)*%
X121890000Y-111565000D03*
%TO.P,U2,6,AO2*%
X121890000Y-112215000D03*
%TO.P,U2,7,BO2*%
%TO.N,Net-(J4-Pin_2)*%
X121890000Y-112865000D03*
%TO.P,U2,8,BO2*%
X121890000Y-113515000D03*
%TO.P,U2,9,PGND2*%
%TO.N,GND*%
X121890000Y-114165000D03*
%TO.P,U2,10,PGND2*%
X121890000Y-114815000D03*
%TO.P,U2,11,BO1*%
%TO.N,Net-(J4-Pin_1)*%
X121890000Y-115465000D03*
%TO.P,U2,12,BO1*%
X121890000Y-116115000D03*
%TO.P,U2,13,VM2*%
%TO.N,/V_MOTOR*%
X129090000Y-116115000D03*
%TO.P,U2,14,VM3*%
X129090000Y-115465000D03*
%TO.P,U2,15,PWMB*%
%TO.N,/MT_PWMB*%
X129090000Y-114815000D03*
%TO.P,U2,16,BIN2*%
%TO.N,/MT_BIN2*%
X129090000Y-114165000D03*
%TO.P,U2,17,BIN1*%
%TO.N,/MT_BIN1*%
X129090000Y-113515000D03*
%TO.P,U2,18,GND*%
%TO.N,GND*%
X129090000Y-112865000D03*
%TO.P,U2,19,STBY*%
%TO.N,/MT_STBY*%
X129090000Y-112215000D03*
%TO.P,U2,20,VCC*%
%TO.N,+3V3*%
X129090000Y-111565000D03*
%TO.P,U2,21,AIN1*%
%TO.N,/MT_AIN1*%
X129090000Y-110915000D03*
%TO.P,U2,22,AIN2*%
%TO.N,/MT_AIN2*%
X129090000Y-110265000D03*
%TO.P,U2,23,PWMA*%
%TO.N,/MT_PWMA*%
X129090000Y-109615000D03*
%TO.P,U2,24,VM1*%
%TO.N,/V_MOTOR*%
X129090000Y-108965000D03*
%TD*%
D23*
%TO.N,GND*%
X139750800Y-138785600D03*
X120396000Y-136652000D03*
X120396000Y-135382000D03*
X121666000Y-135382000D03*
X144322800Y-139039600D03*
X123698000Y-114808000D03*
X130810000Y-113538000D03*
X142798800Y-139039600D03*
X144068800Y-133197600D03*
X130810000Y-114808000D03*
X121666000Y-134112000D03*
X137668000Y-114300000D03*
X120396000Y-137922000D03*
X123444000Y-132842000D03*
X128270000Y-88138000D03*
X123444000Y-110998000D03*
X127762000Y-131826000D03*
X147116800Y-135737600D03*
X129032000Y-132842000D03*
X121666000Y-137922000D03*
X143510000Y-82042000D03*
X138480800Y-137515600D03*
X129032000Y-131826000D03*
X147116800Y-138531600D03*
X132842000Y-119380000D03*
X123190000Y-136652000D03*
X134366000Y-89154000D03*
X123190000Y-135382000D03*
X138988800Y-135991600D03*
X134366000Y-88138000D03*
X127502235Y-112527765D03*
X123444000Y-114046000D03*
X125984000Y-82042000D03*
X141528800Y-139293600D03*
X139496800Y-134975600D03*
X126238000Y-132842000D03*
X123190000Y-137922000D03*
X123190000Y-134112000D03*
X124968000Y-132842000D03*
X128524000Y-91440000D03*
X134112000Y-114554000D03*
X126238000Y-131826000D03*
X138734800Y-133197600D03*
X145846800Y-139039600D03*
X141782800Y-133197600D03*
X123444000Y-131826000D03*
X140258800Y-133197600D03*
X123698000Y-110236000D03*
X133604000Y-113538000D03*
X133604000Y-115570000D03*
X147116800Y-134213600D03*
X130810000Y-112522000D03*
X135890000Y-116332000D03*
X134620000Y-91186000D03*
X121666000Y-136652000D03*
X124968000Y-131826000D03*
X120396000Y-134112000D03*
X128524000Y-89154000D03*
X146608800Y-133197600D03*
X127762000Y-132842000D03*
X147116800Y-137261600D03*
X134366000Y-90170000D03*
X138734800Y-134213600D03*
X127254000Y-98044000D03*
X128524000Y-90424000D03*
X140208000Y-82042000D03*
%TO.N,/V_MOTOR*%
X130700000Y-109000000D03*
X130700000Y-107600000D03*
X129900000Y-107600000D03*
D24*
X128900000Y-107700000D03*
D23*
X126300000Y-116600000D03*
X130700000Y-108300000D03*
X129900000Y-108300000D03*
%TO.N,Net-(JP1-C)*%
X142650000Y-99950000D03*
%TD*%
D25*
%TO.N,Net-(U1-EN{slash}CHIP_PU)*%
X121337500Y-84337500D02*
X121540000Y-84540000D01*
X120900000Y-86150000D02*
X120900000Y-84337500D01*
X121540000Y-84540000D02*
X124200000Y-84540000D01*
X120900000Y-84337500D02*
X121337500Y-84337500D01*
%TO.N,GND*%
X124200000Y-82000000D02*
X125942000Y-82000000D01*
X140250000Y-82000000D02*
X140208000Y-82042000D01*
X130500000Y-119600000D02*
X132622000Y-119600000D01*
X127230000Y-99760000D02*
X127230000Y-98068000D01*
X132200000Y-113300000D02*
X131048000Y-113300000D01*
X141700000Y-82000000D02*
X140250000Y-82000000D01*
X130467000Y-112865000D02*
X130810000Y-112522000D01*
X132622000Y-119600000D02*
X132842000Y-119380000D01*
X121890000Y-110915000D02*
X123361000Y-110915000D01*
X127230000Y-98068000D02*
X127254000Y-98044000D01*
X131064500Y-115062500D02*
X130810000Y-114808000D01*
X125942000Y-82000000D02*
X125984000Y-82042000D01*
X137568000Y-114200000D02*
X137668000Y-114300000D01*
X141700000Y-82000000D02*
X143468000Y-82000000D01*
X121890000Y-110265000D02*
X123669000Y-110265000D01*
X135800000Y-114200000D02*
X137568000Y-114200000D01*
X123325000Y-114165000D02*
X123444000Y-114046000D01*
X121890000Y-114815000D02*
X123691000Y-114815000D01*
X129090000Y-112865000D02*
X127839470Y-112865000D01*
X129090000Y-112865000D02*
X130467000Y-112865000D01*
X132200000Y-115062500D02*
X131064500Y-115062500D01*
X135800000Y-114200000D02*
X134466000Y-114200000D01*
X133366000Y-113300000D02*
X133604000Y-113538000D01*
X123937500Y-82262500D02*
X124200000Y-82000000D01*
X123669000Y-110265000D02*
X123698000Y-110236000D01*
X135800000Y-114200000D02*
X135800000Y-116242000D01*
X133096500Y-115062500D02*
X133604000Y-115570000D01*
X123361000Y-110915000D02*
X123444000Y-110998000D01*
X120900000Y-82262500D02*
X123937500Y-82262500D01*
X123691000Y-114815000D02*
X123698000Y-114808000D01*
X132200000Y-113300000D02*
X133366000Y-113300000D01*
X132200000Y-115062500D02*
X133096500Y-115062500D01*
X127839470Y-112865000D02*
X127502235Y-112527765D01*
X131048000Y-113300000D02*
X130810000Y-113538000D01*
X121890000Y-114165000D02*
X123325000Y-114165000D01*
X134466000Y-114200000D02*
X134112000Y-114554000D01*
X143468000Y-82000000D02*
X143510000Y-82042000D01*
X135800000Y-116242000D02*
X135890000Y-116332000D01*
%TO.N,+3V3*%
X132200000Y-111225000D02*
X131040000Y-111225000D01*
D26*
X132307500Y-111332500D02*
X132200000Y-111225000D01*
D25*
X131040000Y-111225000D02*
X130700000Y-111565000D01*
X129090000Y-111565000D02*
X130700000Y-111565000D01*
D26*
%TO.N,/V_MOTOR*%
X126900000Y-119600000D02*
X126900000Y-117200000D01*
X127553000Y-120253000D02*
X126900000Y-119600000D01*
X127553000Y-126601000D02*
X127553000Y-120253000D01*
X127306000Y-128252000D02*
X127306000Y-128106000D01*
X126900000Y-117200000D02*
X126300000Y-116600000D01*
D25*
%TO.N,Net-(J1-Pin_4)*%
X146540000Y-87080000D02*
X148250000Y-88790000D01*
X141700000Y-87080000D02*
X146540000Y-87080000D01*
%TO.N,Net-(J1-Pin_3)*%
X141700000Y-85810000D02*
X144410000Y-85810000D01*
X144800000Y-86200000D02*
X148200000Y-86200000D01*
X148200000Y-86200000D02*
X148250000Y-86250000D01*
X144410000Y-85810000D02*
X144800000Y-86200000D01*
%TO.N,Net-(JP1-C)*%
X141900000Y-100000000D02*
X141700000Y-99800000D01*
X142650000Y-99950000D02*
X142600000Y-100000000D01*
X141700000Y-99800000D02*
X141700000Y-98510000D01*
X142600000Y-100000000D02*
X141900000Y-100000000D01*
%TO.N,/MT_AIN2*%
X122904000Y-97596000D02*
X123260000Y-97240000D01*
X129090000Y-110265000D02*
X128015000Y-110265000D01*
X126975000Y-109225000D02*
X126975000Y-105226000D01*
X122904000Y-101155000D02*
X122904000Y-97596000D01*
X126975000Y-105226000D02*
X122904000Y-101155000D01*
X123260000Y-97240000D02*
X124200000Y-97240000D01*
X128015000Y-110265000D02*
X126975000Y-109225000D01*
%TO.N,/MT_PWMA*%
X127550000Y-109127000D02*
X127550000Y-104950000D01*
X128038000Y-109615000D02*
X127550000Y-109127000D01*
X127550000Y-104950000D02*
X124200000Y-101600000D01*
X129090000Y-109615000D02*
X128038000Y-109615000D01*
X124200000Y-101600000D02*
X124200000Y-98510000D01*
%TO.N,/MT_BIN1*%
X125600000Y-106200000D02*
X121701000Y-102301000D01*
X123250000Y-93430000D02*
X124200000Y-93430000D01*
X121701000Y-102301000D02*
X121701000Y-94979000D01*
X121701000Y-94979000D02*
X123250000Y-93430000D01*
X129090000Y-113515000D02*
X127485000Y-113515000D01*
X127485000Y-113515000D02*
X125600000Y-111630000D01*
X125600000Y-111630000D02*
X125600000Y-106200000D01*
%TO.N,/MT_BIN2*%
X121300000Y-102800000D02*
X121300000Y-93800000D01*
X125199000Y-111935900D02*
X125199000Y-106699000D01*
X122940000Y-92160000D02*
X124200000Y-92160000D01*
X125199000Y-106699000D02*
X121300000Y-102800000D01*
X121300000Y-93800000D02*
X122940000Y-92160000D01*
X127428100Y-114165000D02*
X125199000Y-111935900D01*
X129090000Y-114165000D02*
X127428100Y-114165000D01*
%TO.N,/MT_STBY*%
X122102000Y-95848000D02*
X123250000Y-94700000D01*
X122102000Y-101802000D02*
X122102000Y-95848000D01*
X126049000Y-110226000D02*
X126049000Y-105749000D01*
X123250000Y-94700000D02*
X124200000Y-94700000D01*
X126049000Y-105749000D02*
X122102000Y-101802000D01*
X128038000Y-112215000D02*
X126049000Y-110226000D01*
X129090000Y-112215000D02*
X128038000Y-112215000D01*
%TO.N,/MT_PWMB*%
X120799000Y-102866100D02*
X120799000Y-102533200D01*
X120797000Y-102531200D02*
X120797000Y-93343000D01*
X127511000Y-114815000D02*
X124600000Y-111904000D01*
X120800000Y-103000000D02*
X120800000Y-102867100D01*
X129090000Y-114815000D02*
X127511000Y-114815000D01*
X120797000Y-93343000D02*
X123250000Y-90890000D01*
X120800000Y-102867100D02*
X120799000Y-102866100D01*
X124600000Y-106800000D02*
X120800000Y-103000000D01*
X123250000Y-90890000D02*
X124200000Y-90890000D01*
X124600000Y-111904000D02*
X124600000Y-106800000D01*
X120799000Y-102533200D02*
X120797000Y-102531200D01*
%TO.N,/MT_AIN1*%
X122503000Y-101603000D02*
X122503000Y-96717000D01*
X122503000Y-96717000D02*
X123250000Y-95970000D01*
X123250000Y-95970000D02*
X124200000Y-95970000D01*
X128015000Y-110915000D02*
X126450000Y-109350000D01*
X129090000Y-110915000D02*
X128015000Y-110915000D01*
X126450000Y-109350000D02*
X126450000Y-105550000D01*
X126450000Y-105550000D02*
X122503000Y-101603000D01*
%TO.N,/BMI_MOSI*%
X143800000Y-95850000D02*
X142650000Y-94700000D01*
X140920000Y-115140000D02*
X143800000Y-112260000D01*
X142650000Y-94700000D02*
X141700000Y-94700000D01*
X143800000Y-112260000D02*
X143800000Y-95850000D01*
%TO.N,/BMI_SCK*%
X143399000Y-96719000D02*
X142650000Y-95970000D01*
X140920000Y-112600000D02*
X143399000Y-110121000D01*
X142650000Y-95970000D02*
X141700000Y-95970000D01*
X143399000Y-110121000D02*
X143399000Y-96719000D01*
%TO.N,/BMI_CS*%
X144400000Y-95200000D02*
X142630000Y-93430000D01*
X142630000Y-93430000D02*
X141700000Y-93430000D01*
X144400000Y-114200000D02*
X144400000Y-95200000D01*
X140920000Y-117680000D02*
X144400000Y-114200000D01*
%TO.N,/BMI_MISO*%
X144900000Y-116240000D02*
X144900000Y-94400000D01*
X140920000Y-120220000D02*
X144900000Y-116240000D01*
X144900000Y-94400000D02*
X142660000Y-92160000D01*
X142660000Y-92160000D02*
X141700000Y-92160000D01*
%TD*%
%TA.AperFunction,Conductor*%
%TO.N,Net-(J3-Pin_2)*%
G36*
X122800000Y-112200000D02*
G01*
X120600000Y-112200000D01*
X120600000Y-111600000D01*
X122800000Y-111600000D01*
X122800000Y-112200000D01*
G37*
%TD.AperFunction*%
%TD*%
%TA.AperFunction,Conductor*%
%TO.N,GND*%
G36*
X135071039Y-87395685D02*
G01*
X135116794Y-87448489D01*
X135128000Y-87500000D01*
X135128000Y-92078000D01*
X135108315Y-92145039D01*
X135055511Y-92190794D01*
X135004000Y-92202000D01*
X127886000Y-92202000D01*
X127818961Y-92182315D01*
X127773206Y-92129511D01*
X127762000Y-92078000D01*
X127762000Y-91589702D01*
X129400000Y-91589702D01*
X129411602Y-91648033D01*
X129411603Y-91648034D01*
X129455808Y-91714191D01*
X129521965Y-91758396D01*
X129521966Y-91758397D01*
X129580297Y-91769999D01*
X129580301Y-91770000D01*
X129700000Y-91770000D01*
X130400000Y-91770000D01*
X130519699Y-91770000D01*
X130519702Y-91769999D01*
X130578033Y-91758397D01*
X130578034Y-91758396D01*
X130644191Y-91714192D01*
X130646896Y-91710144D01*
X130700507Y-91665337D01*
X130769832Y-91656628D01*
X130832860Y-91686781D01*
X130853104Y-91710144D01*
X130855808Y-91714192D01*
X130921965Y-91758396D01*
X130921966Y-91758397D01*
X130980297Y-91769999D01*
X130980301Y-91770000D01*
X131100000Y-91770000D01*
X131800000Y-91770000D01*
X131919699Y-91770000D01*
X131919702Y-91769999D01*
X131978033Y-91758397D01*
X131978034Y-91758396D01*
X132044191Y-91714192D01*
X132046896Y-91710144D01*
X132100507Y-91665337D01*
X132169832Y-91656628D01*
X132232860Y-91686781D01*
X132253104Y-91710144D01*
X132255808Y-91714192D01*
X132321965Y-91758396D01*
X132321966Y-91758397D01*
X132380297Y-91769999D01*
X132380301Y-91770000D01*
X132500000Y-91770000D01*
X133200000Y-91770000D01*
X133319699Y-91770000D01*
X133319702Y-91769999D01*
X133378033Y-91758397D01*
X133378034Y-91758396D01*
X133444191Y-91714191D01*
X133488396Y-91648034D01*
X133488397Y-91648033D01*
X133499999Y-91589702D01*
X133500000Y-91589699D01*
X133500000Y-91470000D01*
X133200000Y-91470000D01*
X133200000Y-91770000D01*
X132500000Y-91770000D01*
X132500000Y-91470000D01*
X131800000Y-91470000D01*
X131800000Y-91770000D01*
X131100000Y-91770000D01*
X131100000Y-91470000D01*
X130400000Y-91470000D01*
X130400000Y-91770000D01*
X129700000Y-91770000D01*
X129700000Y-91470000D01*
X129400000Y-91470000D01*
X129400000Y-91589702D01*
X127762000Y-91589702D01*
X127762000Y-90189702D01*
X129400000Y-90189702D01*
X129411602Y-90248033D01*
X129411603Y-90248034D01*
X129455807Y-90314190D01*
X129459859Y-90316898D01*
X129504663Y-90370511D01*
X129513370Y-90439836D01*
X129483215Y-90502863D01*
X129459859Y-90523102D01*
X129455807Y-90525809D01*
X129411603Y-90591965D01*
X129411602Y-90591966D01*
X129400000Y-90650297D01*
X129400000Y-90770000D01*
X129700000Y-90770000D01*
X130400000Y-90770000D01*
X131100000Y-90770000D01*
X131800000Y-90770000D01*
X132500000Y-90770000D01*
X133200000Y-90770000D01*
X133500000Y-90770000D01*
X133500000Y-90650301D01*
X133499999Y-90650297D01*
X133488397Y-90591966D01*
X133488396Y-90591965D01*
X133444192Y-90525808D01*
X133440144Y-90523104D01*
X133395337Y-90469493D01*
X133386628Y-90400168D01*
X133416781Y-90337140D01*
X133440144Y-90316896D01*
X133444192Y-90314191D01*
X133488396Y-90248034D01*
X133488397Y-90248033D01*
X133499999Y-90189702D01*
X133500000Y-90189699D01*
X133500000Y-90070000D01*
X133200000Y-90070000D01*
X133200000Y-90770000D01*
X132500000Y-90770000D01*
X132500000Y-90070000D01*
X131800000Y-90070000D01*
X131800000Y-90770000D01*
X131100000Y-90770000D01*
X131100000Y-90070000D01*
X130400000Y-90070000D01*
X130400000Y-90770000D01*
X129700000Y-90770000D01*
X129700000Y-90070000D01*
X129400000Y-90070000D01*
X129400000Y-90189702D01*
X127762000Y-90189702D01*
X127762000Y-88789702D01*
X129400000Y-88789702D01*
X129411602Y-88848033D01*
X129411603Y-88848034D01*
X129455807Y-88914190D01*
X129459859Y-88916898D01*
X129504663Y-88970511D01*
X129513370Y-89039836D01*
X129483215Y-89102863D01*
X129459859Y-89123102D01*
X129455807Y-89125809D01*
X129411603Y-89191965D01*
X129411602Y-89191966D01*
X129400000Y-89250297D01*
X129400000Y-89370000D01*
X129700000Y-89370000D01*
X130400000Y-89370000D01*
X131100000Y-89370000D01*
X131800000Y-89370000D01*
X132500000Y-89370000D01*
X133200000Y-89370000D01*
X133500000Y-89370000D01*
X133500000Y-89250301D01*
X133499999Y-89250297D01*
X133488397Y-89191966D01*
X133488396Y-89191965D01*
X133444192Y-89125808D01*
X133440144Y-89123104D01*
X133395337Y-89069493D01*
X133386628Y-89000168D01*
X133416781Y-88937140D01*
X133440144Y-88916896D01*
X133444192Y-88914191D01*
X133488396Y-88848034D01*
X133488397Y-88848033D01*
X133499999Y-88789702D01*
X133500000Y-88789699D01*
X133500000Y-88670000D01*
X133200000Y-88670000D01*
X133200000Y-89370000D01*
X132500000Y-89370000D01*
X132500000Y-88670000D01*
X131800000Y-88670000D01*
X131800000Y-89370000D01*
X131100000Y-89370000D01*
X131100000Y-88670000D01*
X130400000Y-88670000D01*
X130400000Y-89370000D01*
X129700000Y-89370000D01*
X129700000Y-88670000D01*
X129400000Y-88670000D01*
X129400000Y-88789702D01*
X127762000Y-88789702D01*
X127762000Y-87850297D01*
X129400000Y-87850297D01*
X129400000Y-87970000D01*
X129700000Y-87970000D01*
X130400000Y-87970000D01*
X131100000Y-87970000D01*
X131800000Y-87970000D01*
X132500000Y-87970000D01*
X133200000Y-87970000D01*
X133500000Y-87970000D01*
X133500000Y-87850301D01*
X133499999Y-87850297D01*
X133488397Y-87791966D01*
X133488396Y-87791965D01*
X133444191Y-87725808D01*
X133378034Y-87681603D01*
X133378033Y-87681602D01*
X133319702Y-87670000D01*
X133200000Y-87670000D01*
X133200000Y-87970000D01*
X132500000Y-87970000D01*
X132500000Y-87670000D01*
X132380297Y-87670000D01*
X132321966Y-87681602D01*
X132321965Y-87681603D01*
X132255809Y-87725807D01*
X132253102Y-87729859D01*
X132199489Y-87774663D01*
X132130164Y-87783370D01*
X132067137Y-87753215D01*
X132046898Y-87729859D01*
X132044190Y-87725807D01*
X131978034Y-87681603D01*
X131978033Y-87681602D01*
X131919702Y-87670000D01*
X131800000Y-87670000D01*
X131800000Y-87970000D01*
X131100000Y-87970000D01*
X131100000Y-87670000D01*
X130980297Y-87670000D01*
X130921966Y-87681602D01*
X130921965Y-87681603D01*
X130855809Y-87725807D01*
X130853102Y-87729859D01*
X130799489Y-87774663D01*
X130730164Y-87783370D01*
X130667137Y-87753215D01*
X130646898Y-87729859D01*
X130644190Y-87725807D01*
X130578034Y-87681603D01*
X130578033Y-87681602D01*
X130519702Y-87670000D01*
X130400000Y-87670000D01*
X130400000Y-87970000D01*
X129700000Y-87970000D01*
X129700000Y-87670000D01*
X129580297Y-87670000D01*
X129521966Y-87681602D01*
X129521965Y-87681603D01*
X129455808Y-87725808D01*
X129411603Y-87791965D01*
X129411602Y-87791966D01*
X129400000Y-87850297D01*
X127762000Y-87850297D01*
X127762000Y-87500000D01*
X127781685Y-87432961D01*
X127834489Y-87387206D01*
X127886000Y-87376000D01*
X135004000Y-87376000D01*
X135071039Y-87395685D01*
G37*
%TD.AperFunction*%
%TD*%
%TA.AperFunction,Conductor*%
%TO.N,/V_MOTOR*%
G36*
X127990677Y-115219685D02*
G01*
X128011319Y-115236319D01*
X128015000Y-115240000D01*
X128164664Y-115240000D01*
X128165583Y-115240003D01*
X128180330Y-115240112D01*
X128184737Y-115241560D01*
X128193330Y-115242664D01*
X128228286Y-115240500D01*
X128232634Y-115240500D01*
X128966000Y-115240500D01*
X129033039Y-115260185D01*
X129078794Y-115312989D01*
X129090000Y-115364500D01*
X129090000Y-115465000D01*
X129191000Y-115465000D01*
X129258039Y-115484685D01*
X129303794Y-115537489D01*
X129315000Y-115589000D01*
X129315000Y-115890000D01*
X130165000Y-115890000D01*
X130165000Y-115870301D01*
X130164999Y-115870300D01*
X130153839Y-115814192D01*
X130151881Y-115779743D01*
X130165425Y-115616561D01*
X130176232Y-115588564D01*
X130184685Y-115559779D01*
X130188681Y-115556315D01*
X130190587Y-115551380D01*
X130214818Y-115533668D01*
X130237489Y-115514024D01*
X130242723Y-115513271D01*
X130246995Y-115510149D01*
X130276952Y-115508349D01*
X130306647Y-115504080D01*
X130311458Y-115506277D01*
X130316739Y-115505960D01*
X130342909Y-115520640D01*
X130370203Y-115533105D01*
X130376287Y-115539364D01*
X130377676Y-115540143D01*
X130378437Y-115541575D01*
X130384966Y-115548292D01*
X131000000Y-116300000D01*
X131289101Y-116300000D01*
X131356140Y-116319685D01*
X131401895Y-116372489D01*
X131411839Y-116441647D01*
X131388871Y-116497634D01*
X131322653Y-116587354D01*
X131277850Y-116715395D01*
X131277850Y-116715399D01*
X131275000Y-116745793D01*
X131275000Y-116787500D01*
X132076000Y-116787500D01*
X132143039Y-116807185D01*
X132188794Y-116859989D01*
X132200000Y-116911500D01*
X132200000Y-117137500D01*
X132426000Y-117137500D01*
X132493039Y-117157185D01*
X132538794Y-117209989D01*
X132550000Y-117261500D01*
X132550000Y-117924999D01*
X132729196Y-117924999D01*
X132759606Y-117922148D01*
X132887645Y-117877346D01*
X133002366Y-117792678D01*
X133067995Y-117768707D01*
X133136165Y-117784022D01*
X133185234Y-117833762D01*
X133200000Y-117892448D01*
X133200000Y-118076000D01*
X133180315Y-118143039D01*
X133127511Y-118188794D01*
X133076000Y-118200000D01*
X129199999Y-118200000D01*
X128700000Y-118699999D01*
X128700000Y-121000000D01*
X130875395Y-123966448D01*
X130899166Y-124032150D01*
X130899388Y-124041600D01*
X130801812Y-130676737D01*
X130781143Y-130743480D01*
X130727672Y-130788454D01*
X130676728Y-130798909D01*
X122169379Y-130723622D01*
X122102516Y-130703345D01*
X122057230Y-130650138D01*
X122047899Y-130580895D01*
X122048859Y-130575434D01*
X122050000Y-130569698D01*
X122050000Y-130050000D01*
X121357106Y-130050000D01*
X121400099Y-130007007D01*
X121465925Y-129892993D01*
X121500000Y-129765826D01*
X121500000Y-129634174D01*
X121465925Y-129507007D01*
X121400099Y-129392993D01*
X121357106Y-129350000D01*
X122050000Y-129350000D01*
X122050000Y-128830303D01*
X122044171Y-128800999D01*
X125847973Y-128800999D01*
X125847974Y-128801000D01*
X129258026Y-128801000D01*
X129258026Y-128800999D01*
X127553000Y-127095974D01*
X125847973Y-128800999D01*
X122044171Y-128800999D01*
X122043196Y-128796095D01*
X122043196Y-128796092D01*
X122038396Y-128771966D01*
X122038396Y-128771965D01*
X121994191Y-128705808D01*
X121928034Y-128661603D01*
X121928033Y-128661602D01*
X121869702Y-128650000D01*
X121350000Y-128650000D01*
X121350000Y-129342894D01*
X121307007Y-129299901D01*
X121192993Y-129234075D01*
X121065826Y-129200000D01*
X120934174Y-129200000D01*
X120807007Y-129234075D01*
X120692993Y-129299901D01*
X120650000Y-129342894D01*
X120650000Y-128650000D01*
X120130297Y-128650000D01*
X120071966Y-128661602D01*
X120071965Y-128661603D01*
X120005808Y-128705808D01*
X119961603Y-128771965D01*
X119961602Y-128771966D01*
X119950000Y-128830297D01*
X119950000Y-129350000D01*
X120642894Y-129350000D01*
X120599901Y-129392993D01*
X120534075Y-129507007D01*
X120500000Y-129634174D01*
X120500000Y-129765826D01*
X120534075Y-129892993D01*
X120599901Y-130007007D01*
X120642894Y-130050000D01*
X119950000Y-130050000D01*
X119950000Y-130575790D01*
X119947993Y-130575790D01*
X119946792Y-130582113D01*
X119948881Y-130597614D01*
X119940408Y-130615739D01*
X119936678Y-130635393D01*
X119925918Y-130646741D01*
X119919295Y-130660911D01*
X119902368Y-130671578D01*
X119888605Y-130686095D01*
X119872621Y-130690325D01*
X119860185Y-130698164D01*
X119825207Y-130702877D01*
X119622903Y-130701087D01*
X119556040Y-130680810D01*
X119510754Y-130627603D01*
X119500000Y-130577092D01*
X119500000Y-125156069D01*
X124853000Y-125156069D01*
X124853000Y-128045930D01*
X124868122Y-128180141D01*
X124927663Y-128350301D01*
X125023577Y-128502948D01*
X125089827Y-128569198D01*
X127058026Y-126601000D01*
X127058026Y-126600999D01*
X127058025Y-126600998D01*
X128047974Y-126600998D01*
X128047974Y-126601001D01*
X130016171Y-128569198D01*
X130016173Y-128569198D01*
X130082420Y-128502951D01*
X130178336Y-128350301D01*
X130237877Y-128180141D01*
X130252999Y-128045930D01*
X130253000Y-128045930D01*
X130253000Y-125156070D01*
X130252999Y-125156069D01*
X130237877Y-125021858D01*
X130178336Y-124851698D01*
X130082422Y-124699051D01*
X130016172Y-124632801D01*
X130016171Y-124632801D01*
X128047974Y-126600998D01*
X127058025Y-126600998D01*
X125089827Y-124632801D01*
X125023577Y-124699051D01*
X124927663Y-124851698D01*
X124868122Y-125021858D01*
X124853000Y-125156069D01*
X119500000Y-125156069D01*
X119500000Y-124908802D01*
X119517833Y-124844736D01*
X119785605Y-124401000D01*
X125847973Y-124401000D01*
X127553000Y-126106026D01*
X129258026Y-124401000D01*
X125847973Y-124401000D01*
X119785605Y-124401000D01*
X119806708Y-124366029D01*
X122318159Y-120204196D01*
X125400001Y-120204196D01*
X125402851Y-120234606D01*
X125447653Y-120362645D01*
X125528207Y-120471792D01*
X125637354Y-120552346D01*
X125765397Y-120597149D01*
X125795792Y-120599999D01*
X126549999Y-120599999D01*
X127250000Y-120599999D01*
X128004196Y-120599999D01*
X128034606Y-120597148D01*
X128162645Y-120552346D01*
X128271792Y-120471792D01*
X128352346Y-120362645D01*
X128397149Y-120234604D01*
X128397149Y-120234600D01*
X128400000Y-120204206D01*
X128400000Y-119950000D01*
X127250000Y-119950000D01*
X127250000Y-120599999D01*
X126549999Y-120599999D01*
X126550000Y-120599998D01*
X126550000Y-119950000D01*
X125400001Y-119950000D01*
X125400001Y-120204196D01*
X122318159Y-120204196D01*
X122541208Y-119834572D01*
X123047368Y-118995793D01*
X125400000Y-118995793D01*
X125400000Y-119250000D01*
X126550000Y-119250000D01*
X127250000Y-119250000D01*
X128399999Y-119250000D01*
X128399999Y-118995803D01*
X128397148Y-118965393D01*
X128352346Y-118837354D01*
X128271792Y-118728207D01*
X128162645Y-118647653D01*
X128034602Y-118602850D01*
X128004207Y-118600000D01*
X127250000Y-118600000D01*
X127250000Y-119250000D01*
X126550000Y-119250000D01*
X126550000Y-118600000D01*
X125795803Y-118600000D01*
X125765393Y-118602851D01*
X125637354Y-118647653D01*
X125528207Y-118728207D01*
X125447653Y-118837354D01*
X125402850Y-118965395D01*
X125402850Y-118965399D01*
X125400000Y-118995793D01*
X123047368Y-118995793D01*
X123087775Y-118928832D01*
X123932383Y-117529196D01*
X131275001Y-117529196D01*
X131277851Y-117559606D01*
X131322653Y-117687645D01*
X131403207Y-117796792D01*
X131512354Y-117877346D01*
X131640397Y-117922149D01*
X131670792Y-117924999D01*
X131849999Y-117924999D01*
X131850000Y-117924998D01*
X131850000Y-117487500D01*
X131275001Y-117487500D01*
X131275001Y-117529196D01*
X123932383Y-117529196D01*
X124027199Y-117372072D01*
X124638112Y-116359702D01*
X128015000Y-116359702D01*
X128026602Y-116418033D01*
X128026603Y-116418034D01*
X128070808Y-116484191D01*
X128136965Y-116528396D01*
X128136966Y-116528397D01*
X128195297Y-116539999D01*
X128195301Y-116540000D01*
X128865000Y-116540000D01*
X129315000Y-116540000D01*
X129984699Y-116540000D01*
X129984702Y-116539999D01*
X130043033Y-116528397D01*
X130043034Y-116528396D01*
X130109191Y-116484191D01*
X130153396Y-116418034D01*
X130153397Y-116418033D01*
X130164999Y-116359702D01*
X130165000Y-116359699D01*
X130165000Y-116340000D01*
X129315000Y-116340000D01*
X129315000Y-116540000D01*
X128865000Y-116540000D01*
X128865000Y-116340000D01*
X128015000Y-116340000D01*
X128015000Y-116359702D01*
X124638112Y-116359702D01*
X124719656Y-116224572D01*
X124933439Y-115870303D01*
X128015000Y-115870303D01*
X128015000Y-115890000D01*
X128865000Y-115890000D01*
X128865000Y-115690000D01*
X128020091Y-115690000D01*
X128028050Y-115778949D01*
X128026161Y-115788444D01*
X128026161Y-115814190D01*
X128015000Y-115870303D01*
X124933439Y-115870303D01*
X124967300Y-115814190D01*
X125301766Y-115259931D01*
X125353255Y-115212705D01*
X125407932Y-115200000D01*
X127923638Y-115200000D01*
X127990677Y-115219685D01*
G37*
%TD.AperFunction*%
%TD*%
%TA.AperFunction,Conductor*%
%TO.N,+3V3*%
G36*
X120882939Y-80425685D02*
G01*
X120928694Y-80478489D01*
X120939900Y-80530000D01*
X120939900Y-80583892D01*
X120940832Y-80587370D01*
X120974008Y-80711187D01*
X121006954Y-80768250D01*
X121039900Y-80825314D01*
X121133086Y-80918500D01*
X121247214Y-80984392D01*
X121374508Y-81018500D01*
X121374510Y-81018500D01*
X145506290Y-81018500D01*
X145506292Y-81018500D01*
X145633586Y-80984392D01*
X145747714Y-80918500D01*
X145840900Y-80825314D01*
X145906792Y-80711186D01*
X145940900Y-80583892D01*
X145940900Y-80530000D01*
X145960585Y-80462961D01*
X146013389Y-80417206D01*
X146064900Y-80406000D01*
X147076000Y-80406000D01*
X147143039Y-80425685D01*
X147188794Y-80478489D01*
X147200000Y-80530000D01*
X147200000Y-80820000D01*
X147892894Y-80820000D01*
X147849901Y-80862993D01*
X147784075Y-80977007D01*
X147750000Y-81104174D01*
X147750000Y-81235826D01*
X147784075Y-81362993D01*
X147849901Y-81477007D01*
X147892894Y-81520000D01*
X147200000Y-81520000D01*
X147200000Y-82039702D01*
X147211602Y-82098033D01*
X147211603Y-82098034D01*
X147255808Y-82164191D01*
X147321965Y-82208396D01*
X147321966Y-82208397D01*
X147380297Y-82219999D01*
X147380301Y-82220000D01*
X147900000Y-82220000D01*
X147900000Y-81527106D01*
X147942993Y-81570099D01*
X148057007Y-81635925D01*
X148184174Y-81670000D01*
X148315826Y-81670000D01*
X148442993Y-81635925D01*
X148557007Y-81570099D01*
X148600000Y-81527106D01*
X148600000Y-82220000D01*
X149119699Y-82220000D01*
X149119702Y-82219999D01*
X149178033Y-82208397D01*
X149178034Y-82208396D01*
X149244191Y-82164191D01*
X149288396Y-82098034D01*
X149288397Y-82098033D01*
X149299999Y-82039702D01*
X149300000Y-82039699D01*
X149300000Y-81520000D01*
X148607106Y-81520000D01*
X148650099Y-81477007D01*
X148715925Y-81362993D01*
X148750000Y-81235826D01*
X148750000Y-81104174D01*
X148715925Y-80977007D01*
X148650099Y-80862993D01*
X148607106Y-80820000D01*
X149300000Y-80820000D01*
X149300000Y-80530000D01*
X149319685Y-80462961D01*
X149372489Y-80417206D01*
X149424000Y-80406000D01*
X149679149Y-80406000D01*
X149685233Y-80406149D01*
X149689774Y-80406372D01*
X150091887Y-80426126D01*
X150103995Y-80427318D01*
X150503718Y-80486612D01*
X150515636Y-80488983D01*
X150907624Y-80587170D01*
X150919268Y-80590703D01*
X151299726Y-80726834D01*
X151310967Y-80731490D01*
X151509341Y-80825313D01*
X151676272Y-80904265D01*
X151686989Y-80909993D01*
X152011760Y-81104654D01*
X152033588Y-81117737D01*
X152043706Y-81124497D01*
X152368280Y-81365218D01*
X152377686Y-81372938D01*
X152677100Y-81644310D01*
X152685689Y-81652899D01*
X152809768Y-81789799D01*
X152957061Y-81952313D01*
X152964781Y-81961719D01*
X153205502Y-82286293D01*
X153212262Y-82296411D01*
X153228841Y-82324071D01*
X153416802Y-82637665D01*
X153419999Y-82642998D01*
X153425736Y-82653731D01*
X153598509Y-83019032D01*
X153603165Y-83030273D01*
X153739296Y-83410731D01*
X153742829Y-83422377D01*
X153841014Y-83814355D01*
X153843388Y-83826289D01*
X153902680Y-84226003D01*
X153903873Y-84238113D01*
X153923851Y-84644765D01*
X153924000Y-84650850D01*
X153924000Y-137879461D01*
X153923882Y-137884870D01*
X153923014Y-137904750D01*
X153922071Y-137915526D01*
X153872249Y-138293957D01*
X153870371Y-138304610D01*
X153787754Y-138677272D01*
X153784954Y-138687721D01*
X153670175Y-139051755D01*
X153666475Y-139061921D01*
X153520402Y-139414572D01*
X153515830Y-139424376D01*
X153339583Y-139762942D01*
X153334175Y-139772310D01*
X153129081Y-140094244D01*
X153122876Y-140103105D01*
X152890510Y-140405930D01*
X152883557Y-140414217D01*
X152658545Y-140659773D01*
X152598742Y-140695901D01*
X152567124Y-140700000D01*
X119126706Y-140700000D01*
X119121297Y-140699882D01*
X118693627Y-140681209D01*
X118682851Y-140680266D01*
X118261133Y-140624746D01*
X118250479Y-140622868D01*
X117835185Y-140530799D01*
X117824737Y-140527999D01*
X117419063Y-140400091D01*
X117408897Y-140396391D01*
X117015907Y-140233609D01*
X117006103Y-140229037D01*
X116764189Y-140103105D01*
X116628792Y-140032621D01*
X116619446Y-140027226D01*
X116585676Y-140005711D01*
X116539713Y-139953090D01*
X116529496Y-139883971D01*
X116558270Y-139820301D01*
X116616898Y-139782295D01*
X116638419Y-139777913D01*
X116649813Y-139776629D01*
X116733780Y-139767169D01*
X116733786Y-139767167D01*
X116733794Y-139767167D01*
X117062354Y-139692176D01*
X117380451Y-139580869D01*
X117684086Y-139434646D01*
X117969439Y-139255346D01*
X118232923Y-139045225D01*
X118471225Y-138806923D01*
X118681346Y-138543439D01*
X118860646Y-138258086D01*
X119006869Y-137954451D01*
X119118176Y-137636354D01*
X119193167Y-137307794D01*
X119230900Y-136972904D01*
X119230900Y-136635896D01*
X119193167Y-136301006D01*
X119118176Y-135972446D01*
X119006869Y-135654349D01*
X118860646Y-135350714D01*
X118681346Y-135065361D01*
X118471225Y-134801877D01*
X118232923Y-134563575D01*
X117969439Y-134353454D01*
X117684086Y-134174154D01*
X117684083Y-134174152D01*
X117380454Y-134027932D01*
X117062365Y-133916627D01*
X117062353Y-133916623D01*
X116733797Y-133841633D01*
X116733781Y-133841631D01*
X116398908Y-133803900D01*
X116398904Y-133803900D01*
X116061896Y-133803900D01*
X116061891Y-133803900D01*
X115727018Y-133841631D01*
X115727002Y-133841633D01*
X115398446Y-133916623D01*
X115398434Y-133916627D01*
X115080345Y-134027932D01*
X114776716Y-134174152D01*
X114491358Y-134353455D01*
X114491356Y-134353456D01*
X114325312Y-134485872D01*
X114260626Y-134512281D01*
X114191930Y-134499524D01*
X114141037Y-134451653D01*
X114124000Y-134388925D01*
X114124000Y-109327846D01*
X116102089Y-109327846D01*
X116103671Y-109353154D01*
X116117838Y-109579832D01*
X116121931Y-109645310D01*
X116122129Y-109648165D01*
X116122377Y-109651414D01*
X116122378Y-109651423D01*
X116136051Y-109711035D01*
X116136052Y-109711037D01*
X116161633Y-109776055D01*
X116161639Y-109776068D01*
X116161642Y-109776075D01*
X116172250Y-109798840D01*
X116172252Y-109798844D01*
X116237271Y-109872730D01*
X116236342Y-109873547D01*
X116269043Y-109927083D01*
X116267445Y-109996935D01*
X116239035Y-110044771D01*
X116239042Y-110044777D01*
X116239014Y-110044807D01*
X116238892Y-110045014D01*
X116237810Y-110046144D01*
X116220950Y-110064862D01*
X116181370Y-110147306D01*
X116181368Y-110147312D01*
X116165906Y-110215436D01*
X116165905Y-110215440D01*
X116161208Y-110273751D01*
X116188442Y-110709500D01*
X116188441Y-110709500D01*
X116192541Y-110775090D01*
X116192698Y-110777430D01*
X116192855Y-110779596D01*
X116192858Y-110779616D01*
X116206021Y-110838525D01*
X116206021Y-110838526D01*
X116231105Y-110903731D01*
X116231109Y-110903741D01*
X116259663Y-110954784D01*
X117499530Y-112576149D01*
X117499535Y-112576154D01*
X117523513Y-112602439D01*
X117523519Y-112602445D01*
X117554897Y-112631361D01*
X117556523Y-112632843D01*
X117636340Y-112677490D01*
X117703379Y-112697175D01*
X117761277Y-112705500D01*
X119419870Y-112705500D01*
X119486909Y-112725185D01*
X119532664Y-112777989D01*
X119542608Y-112847147D01*
X119513583Y-112910703D01*
X119469572Y-112943104D01*
X118831858Y-113222104D01*
X118782156Y-113232500D01*
X116710000Y-113232500D01*
X116709991Y-113232500D01*
X116709990Y-113232501D01*
X116645064Y-113239481D01*
X116645052Y-113239483D01*
X116593546Y-113250688D01*
X116555345Y-113261644D01*
X116555341Y-113261646D01*
X116458431Y-113318323D01*
X116458428Y-113318325D01*
X116405623Y-113364081D01*
X116405612Y-113364091D01*
X116363451Y-113408807D01*
X116363445Y-113408816D01*
X116312560Y-113508890D01*
X116292877Y-113575921D01*
X116292876Y-113575928D01*
X116280500Y-113662000D01*
X116280500Y-115446000D01*
X116280501Y-115446009D01*
X116287481Y-115510935D01*
X116287483Y-115510947D01*
X116298688Y-115562453D01*
X116309644Y-115600654D01*
X116309646Y-115600658D01*
X116366323Y-115697568D01*
X116366325Y-115697571D01*
X116412081Y-115750376D01*
X116412082Y-115750377D01*
X116450284Y-115786397D01*
X116485556Y-115846710D01*
X116482622Y-115916518D01*
X116446421Y-115970329D01*
X116405625Y-116005679D01*
X116405612Y-116005691D01*
X116363451Y-116050407D01*
X116363445Y-116050416D01*
X116312560Y-116150490D01*
X116292877Y-116217521D01*
X116292876Y-116217528D01*
X116280500Y-116303600D01*
X116280500Y-118189200D01*
X116280501Y-118189209D01*
X116287481Y-118254135D01*
X116287483Y-118254147D01*
X116298688Y-118305653D01*
X116309644Y-118343854D01*
X116309646Y-118343858D01*
X116366323Y-118440768D01*
X116366325Y-118440771D01*
X116412081Y-118493576D01*
X116412091Y-118493587D01*
X116456807Y-118535748D01*
X116456809Y-118535749D01*
X116456813Y-118535753D01*
X116556889Y-118586639D01*
X116600688Y-118599500D01*
X116622211Y-118605820D01*
X116623928Y-118606324D01*
X116710000Y-118618700D01*
X116710003Y-118618700D01*
X118720891Y-118618700D01*
X118722403Y-118618628D01*
X118749650Y-118617343D01*
X118772894Y-118615145D01*
X118776020Y-118614833D01*
X118883624Y-118582798D01*
X118945785Y-118550896D01*
X119016708Y-118500587D01*
X120888483Y-116722399D01*
X120950644Y-116690498D01*
X120973888Y-116688300D01*
X122710390Y-116688300D01*
X122710400Y-116688300D01*
X122775341Y-116681318D01*
X122826852Y-116670112D01*
X122865058Y-116659154D01*
X122961971Y-116602475D01*
X123014775Y-116556720D01*
X123014782Y-116556712D01*
X123014787Y-116556708D01*
X123056948Y-116511992D01*
X123056953Y-116511987D01*
X123107839Y-116411911D01*
X123127524Y-116344872D01*
X123139900Y-116258800D01*
X123139900Y-115464499D01*
X123132918Y-115399559D01*
X123121712Y-115348047D01*
X123121116Y-115345968D01*
X123121188Y-115334160D01*
X123116831Y-115323180D01*
X123121398Y-115299862D01*
X123121544Y-115276105D01*
X123127991Y-115266206D01*
X123130262Y-115254614D01*
X123146709Y-115237468D01*
X123159677Y-115217560D01*
X123170452Y-115212718D01*
X123178631Y-115204193D01*
X123201737Y-115198661D01*
X123223410Y-115188924D01*
X123236810Y-115190265D01*
X123246581Y-115187927D01*
X123281217Y-115194712D01*
X123365972Y-115224334D01*
X123487096Y-115266668D01*
X123497281Y-115271338D01*
X123497305Y-115271281D01*
X123504808Y-115274389D01*
X123504814Y-115274392D01*
X123519123Y-115278226D01*
X123527929Y-115280940D01*
X123559003Y-115291801D01*
X123572375Y-115295969D01*
X123573915Y-115296392D01*
X123573957Y-115296403D01*
X123574007Y-115296417D01*
X123575139Y-115296720D01*
X123576383Y-115297053D01*
X123576743Y-115297064D01*
X123604977Y-115301229D01*
X123632108Y-115308500D01*
X123763890Y-115308500D01*
X123763892Y-115308500D01*
X123891186Y-115274392D01*
X124005314Y-115208500D01*
X124098500Y-115115314D01*
X124164392Y-115001186D01*
X124198500Y-114873892D01*
X124198500Y-114742108D01*
X124164392Y-114614814D01*
X124098500Y-114500686D01*
X124005314Y-114407500D01*
X123966451Y-114385062D01*
X123918236Y-114334496D01*
X123905013Y-114265889D01*
X123908677Y-114245582D01*
X123910389Y-114239189D01*
X123910392Y-114239186D01*
X123944500Y-114111892D01*
X123944500Y-113980108D01*
X123910392Y-113852814D01*
X123844500Y-113738686D01*
X123751314Y-113645500D01*
X123679247Y-113603892D01*
X123637187Y-113579608D01*
X123573539Y-113562554D01*
X123509892Y-113545500D01*
X123378108Y-113545500D01*
X123270593Y-113574308D01*
X123200743Y-113572645D01*
X123142881Y-113533482D01*
X123115377Y-113469253D01*
X123114500Y-113454533D01*
X123114500Y-112864509D01*
X123114500Y-112864499D01*
X123107518Y-112799559D01*
X123096312Y-112748047D01*
X123085354Y-112709838D01*
X123081629Y-112703469D01*
X123028676Y-112612929D01*
X123028675Y-112612928D01*
X123028674Y-112612927D01*
X123028673Y-112612925D01*
X122992257Y-112570900D01*
X122963233Y-112507348D01*
X122962015Y-112486398D01*
X122962295Y-112475856D01*
X122965500Y-112459748D01*
X122965500Y-112355542D01*
X122965544Y-112353890D01*
X122975792Y-112322137D01*
X122981446Y-112302885D01*
X122979087Y-112301749D01*
X122985145Y-112289167D01*
X122985149Y-112289163D01*
X123005500Y-112200000D01*
X123005500Y-111600000D01*
X123000348Y-111554272D01*
X123000347Y-111554270D01*
X123000021Y-111551376D01*
X123000203Y-111550333D01*
X122999809Y-111549349D01*
X123006223Y-111515965D01*
X123012075Y-111482554D01*
X123012792Y-111481775D01*
X123012992Y-111480735D01*
X123036408Y-111456148D01*
X123059423Y-111431174D01*
X123060448Y-111430906D01*
X123061179Y-111430140D01*
X123094164Y-111422117D01*
X123127033Y-111413549D01*
X123128378Y-111413796D01*
X123129069Y-111413628D01*
X123163730Y-111420287D01*
X123167947Y-111421743D01*
X123167953Y-111421747D01*
X123179143Y-111425613D01*
X123200629Y-111435418D01*
X123250814Y-111464392D01*
X123378108Y-111498500D01*
X123378110Y-111498500D01*
X123509890Y-111498500D01*
X123509892Y-111498500D01*
X123637186Y-111464392D01*
X123751314Y-111398500D01*
X123844500Y-111305314D01*
X123910392Y-111191186D01*
X123944500Y-111063892D01*
X123944500Y-110932108D01*
X123910392Y-110804814D01*
X123910390Y-110804811D01*
X123908677Y-110798417D01*
X123910340Y-110728567D01*
X123948272Y-110671733D01*
X123956779Y-110664521D01*
X124005314Y-110636500D01*
X124091433Y-110550380D01*
X124095320Y-110547086D01*
X124122782Y-110534903D01*
X124149142Y-110520510D01*
X124154383Y-110520884D01*
X124159187Y-110518754D01*
X124188867Y-110523350D01*
X124218834Y-110525494D01*
X124223041Y-110528643D01*
X124228234Y-110529448D01*
X124250721Y-110549365D01*
X124274767Y-110567366D01*
X124276603Y-110572288D01*
X124280538Y-110575774D01*
X124288688Y-110604691D01*
X124299184Y-110632830D01*
X124299500Y-110641676D01*
X124299500Y-111943562D01*
X124310474Y-111984518D01*
X124317971Y-112012498D01*
X124319979Y-112019989D01*
X124340544Y-112055608D01*
X124357031Y-112084166D01*
X124359539Y-112088509D01*
X124359541Y-112088512D01*
X127053848Y-114782819D01*
X127087333Y-114844142D01*
X127082349Y-114913834D01*
X127040477Y-114969767D01*
X126975013Y-114994184D01*
X126966167Y-114994500D01*
X125407931Y-114994500D01*
X125361432Y-114999831D01*
X125361416Y-114999833D01*
X125306742Y-115012538D01*
X125293818Y-115015988D01*
X125293812Y-115015990D01*
X125214348Y-115061259D01*
X125162860Y-115108485D01*
X125125820Y-115153755D01*
X125125816Y-115153761D01*
X124757492Y-115764128D01*
X124462165Y-116253527D01*
X123756436Y-117423021D01*
X123593518Y-117693000D01*
X122871421Y-118889618D01*
X122799709Y-119008455D01*
X122142212Y-120098021D01*
X122085774Y-120191547D01*
X119609658Y-124294824D01*
X119421578Y-124606500D01*
X119392311Y-124655000D01*
X119341884Y-124738563D01*
X119319858Y-124789629D01*
X119302025Y-124853698D01*
X119294500Y-124908805D01*
X119294500Y-130577092D01*
X119299005Y-130619888D01*
X119309759Y-130670399D01*
X119311968Y-130679707D01*
X119354261Y-130760794D01*
X119354265Y-130760800D01*
X119399541Y-130813996D01*
X119399543Y-130813998D01*
X119399549Y-130814004D01*
X119416982Y-130832115D01*
X119496402Y-130877466D01*
X119563265Y-130897743D01*
X119610439Y-130904952D01*
X119673736Y-130934538D01*
X119710989Y-130993647D01*
X119710685Y-131062464D01*
X119690827Y-131130092D01*
X119690826Y-131130098D01*
X119690825Y-131130102D01*
X119684133Y-131176644D01*
X119682500Y-131188003D01*
X119682500Y-131667762D01*
X119682574Y-131673324D01*
X119682750Y-131679907D01*
X119694381Y-131742760D01*
X119694383Y-131742769D01*
X119711602Y-131791581D01*
X119717628Y-131808663D01*
X119717630Y-131808667D01*
X119727424Y-131831809D01*
X119785353Y-131902581D01*
X119785355Y-131902583D01*
X119828491Y-131936092D01*
X119840530Y-131945444D01*
X119855720Y-131955820D01*
X119861282Y-131959619D01*
X119861283Y-131959619D01*
X119861284Y-131959620D01*
X119872343Y-131963207D01*
X119930039Y-132002615D01*
X119957270Y-132066959D01*
X119955703Y-132105345D01*
X119949500Y-132136533D01*
X119949500Y-132343464D01*
X119955780Y-132375039D01*
X119949551Y-132444630D01*
X119906687Y-132499807D01*
X119892477Y-132508660D01*
X119825916Y-132544129D01*
X119825913Y-132544131D01*
X119773104Y-132589890D01*
X119755160Y-132607472D01*
X119755154Y-132607479D01*
X119710511Y-132687289D01*
X119710509Y-132687294D01*
X119690826Y-132754326D01*
X119682500Y-132812233D01*
X119682500Y-138306007D01*
X119687197Y-138349686D01*
X119698397Y-138401174D01*
X119700342Y-138409133D01*
X119700890Y-138411373D01*
X119743900Y-138492085D01*
X119752298Y-138501777D01*
X119789660Y-138544895D01*
X119807242Y-138562839D01*
X119807246Y-138562843D01*
X119807247Y-138562844D01*
X119807249Y-138562845D01*
X119815625Y-138567530D01*
X119887063Y-138607490D01*
X119954102Y-138627175D01*
X120012000Y-138635500D01*
X120012004Y-138635500D01*
X130427643Y-138635500D01*
X130427651Y-138635500D01*
X130474788Y-138630021D01*
X130530156Y-138616973D01*
X130543682Y-138613294D01*
X130622864Y-138567530D01*
X130674060Y-138519983D01*
X130691400Y-138501779D01*
X130696393Y-138492083D01*
X130733266Y-138420477D01*
X130733270Y-138420466D01*
X130750627Y-138352807D01*
X130750631Y-138352792D01*
X130756955Y-138294645D01*
X130706304Y-136825772D01*
X130703800Y-136800109D01*
X130698851Y-136769447D01*
X130668855Y-136691091D01*
X130631081Y-136632313D01*
X130616222Y-136612036D01*
X130543571Y-136556485D01*
X130498006Y-136535676D01*
X130480014Y-136527459D01*
X130456549Y-136518434D01*
X130456546Y-136518433D01*
X130367393Y-136511143D01*
X130302181Y-136486060D01*
X130260882Y-136429703D01*
X130253500Y-136387556D01*
X130253500Y-134356134D01*
X130273185Y-134289095D01*
X130325989Y-134243340D01*
X130355636Y-134234077D01*
X130367968Y-134231868D01*
X130392393Y-134225930D01*
X130471575Y-134180166D01*
X130522771Y-134132619D01*
X130540111Y-134114415D01*
X130543878Y-134107099D01*
X130581977Y-134033113D01*
X130581981Y-134033102D01*
X130583308Y-134027931D01*
X130599342Y-133965428D01*
X130605666Y-133907281D01*
X130559175Y-132559014D01*
X137767300Y-132559014D01*
X137767300Y-139677607D01*
X137771997Y-139721286D01*
X137783197Y-139772774D01*
X137785142Y-139780733D01*
X137785524Y-139782295D01*
X137785690Y-139782972D01*
X137785691Y-139782975D01*
X137828699Y-139863683D01*
X137828701Y-139863686D01*
X137874460Y-139916495D01*
X137892042Y-139934439D01*
X137892046Y-139934443D01*
X137892047Y-139934444D01*
X137892049Y-139934445D01*
X137971859Y-139979088D01*
X137971863Y-139979090D01*
X138038902Y-139998775D01*
X138096800Y-140007100D01*
X138096804Y-140007100D01*
X148516791Y-140007100D01*
X148516800Y-140007100D01*
X148560484Y-140002403D01*
X148589675Y-139996052D01*
X148611974Y-139991202D01*
X148611990Y-139991198D01*
X148611995Y-139991197D01*
X148622173Y-139988710D01*
X148702885Y-139945700D01*
X148755689Y-139899945D01*
X148773643Y-139882354D01*
X148818290Y-139802537D01*
X148837975Y-139735498D01*
X148846300Y-139677600D01*
X148846300Y-132509392D01*
X148841499Y-132465233D01*
X148830047Y-132413185D01*
X148827405Y-132402537D01*
X148784011Y-132322031D01*
X148784009Y-132322029D01*
X148784009Y-132322028D01*
X148738013Y-132269455D01*
X148738009Y-132269450D01*
X148720332Y-132251580D01*
X148720331Y-132251579D01*
X148720330Y-132251578D01*
X148640301Y-132207311D01*
X148640300Y-132207310D01*
X148640299Y-132207310D01*
X148591073Y-132193110D01*
X148573169Y-132187945D01*
X148573167Y-132187944D01*
X148573165Y-132187944D01*
X148515234Y-132179895D01*
X148515231Y-132179895D01*
X144049515Y-132201160D01*
X138095225Y-132229514D01*
X138052046Y-132234313D01*
X138001119Y-132245520D01*
X137991426Y-132247901D01*
X137991423Y-132247902D01*
X137910716Y-132290910D01*
X137910713Y-132290912D01*
X137857904Y-132336671D01*
X137839960Y-132354253D01*
X137839954Y-132354260D01*
X137795311Y-132434070D01*
X137795309Y-132434075D01*
X137775626Y-132501107D01*
X137775625Y-132501112D01*
X137775625Y-132501113D01*
X137767323Y-132558855D01*
X137767300Y-132559014D01*
X130559175Y-132559014D01*
X130544364Y-132129501D01*
X130511506Y-131176642D01*
X130507200Y-131144447D01*
X130517823Y-131075391D01*
X130564095Y-131023039D01*
X130631202Y-131004014D01*
X130674909Y-131004401D01*
X130718041Y-131000214D01*
X130768985Y-130989759D01*
X130778613Y-130987540D01*
X130859949Y-130945722D01*
X130913420Y-130900748D01*
X130931629Y-130883423D01*
X130977446Y-130804271D01*
X130998115Y-130737528D01*
X131007290Y-130679759D01*
X131031184Y-129054999D01*
X141341973Y-129054999D01*
X141341974Y-129055000D01*
X144752026Y-129055000D01*
X144752026Y-129054999D01*
X143047000Y-127349974D01*
X141341973Y-129054999D01*
X131031184Y-129054999D01*
X131084786Y-125410069D01*
X140347000Y-125410069D01*
X140347000Y-128299930D01*
X140362122Y-128434141D01*
X140421663Y-128604301D01*
X140517577Y-128756948D01*
X140583827Y-128823198D01*
X142552026Y-126855000D01*
X142552026Y-126854999D01*
X143541974Y-126854999D01*
X143541974Y-126855001D01*
X145510171Y-128823198D01*
X145510173Y-128823198D01*
X145576420Y-128756951D01*
X145672336Y-128604301D01*
X145731877Y-128434141D01*
X145746999Y-128299930D01*
X145747000Y-128299930D01*
X145747000Y-125410070D01*
X145746999Y-125410069D01*
X145731877Y-125275858D01*
X145672336Y-125105698D01*
X145576422Y-124953051D01*
X145510172Y-124886801D01*
X145510171Y-124886801D01*
X143541974Y-126854999D01*
X142552026Y-126854999D01*
X140583827Y-124886801D01*
X140517577Y-124953051D01*
X140421663Y-125105698D01*
X140362122Y-125275858D01*
X140347000Y-125410069D01*
X131084786Y-125410069D01*
X131095890Y-124655000D01*
X141341973Y-124655000D01*
X143047000Y-126360026D01*
X144752026Y-124655000D01*
X141341973Y-124655000D01*
X131095890Y-124655000D01*
X131104866Y-124044622D01*
X131104831Y-124036774D01*
X131104609Y-124027324D01*
X131092407Y-123962235D01*
X131068636Y-123896533D01*
X131068635Y-123896531D01*
X131068634Y-123896528D01*
X131041111Y-123844922D01*
X128929506Y-120965460D01*
X128905735Y-120899758D01*
X128905500Y-120892131D01*
X128905500Y-120547707D01*
X128925185Y-120480668D01*
X128977989Y-120434913D01*
X129047147Y-120424969D01*
X129110703Y-120453994D01*
X129123087Y-120467387D01*
X129127848Y-120472148D01*
X129127849Y-120472148D01*
X129127850Y-120472150D01*
X129237118Y-120552793D01*
X129279845Y-120567744D01*
X129365299Y-120597646D01*
X129395730Y-120600500D01*
X129395734Y-120600500D01*
X131604270Y-120600500D01*
X131634699Y-120597646D01*
X131634701Y-120597646D01*
X131720154Y-120567744D01*
X131762882Y-120552793D01*
X131832294Y-120501563D01*
X131847661Y-120492540D01*
X131847534Y-120492320D01*
X131852807Y-120489269D01*
X131852813Y-120489267D01*
X132658256Y-119911140D01*
X132675392Y-119905137D01*
X132690209Y-119894626D01*
X132723581Y-119888255D01*
X132724193Y-119888041D01*
X132724566Y-119888022D01*
X132885734Y-119880630D01*
X132891416Y-119880500D01*
X132907890Y-119880500D01*
X132907892Y-119880500D01*
X132910281Y-119879859D01*
X132910284Y-119879859D01*
X132916035Y-119878317D01*
X132916752Y-119878226D01*
X132917658Y-119877882D01*
X132920446Y-119877135D01*
X132952591Y-119868522D01*
X133035183Y-119846393D01*
X133035183Y-119846392D01*
X133035186Y-119846392D01*
X133149314Y-119780500D01*
X133242500Y-119687314D01*
X133308392Y-119573186D01*
X133342500Y-119445892D01*
X133342500Y-119314108D01*
X133308392Y-119186814D01*
X133242500Y-119072686D01*
X133149314Y-118979500D01*
X133092250Y-118946554D01*
X133035187Y-118913608D01*
X132945653Y-118889618D01*
X132907892Y-118879500D01*
X132776108Y-118879500D01*
X132648812Y-118913608D01*
X132534686Y-118979500D01*
X132480676Y-119033509D01*
X132419352Y-119066993D01*
X132349660Y-119062007D01*
X132320690Y-119046562D01*
X131852815Y-118710733D01*
X131852814Y-118710732D01*
X131839823Y-118703126D01*
X131833989Y-118699489D01*
X131831376Y-118697757D01*
X131762882Y-118647207D01*
X131746354Y-118641423D01*
X131733443Y-118632869D01*
X131720512Y-118617518D01*
X131704202Y-118605820D01*
X131698462Y-118591341D01*
X131688430Y-118579431D01*
X131685851Y-118559526D01*
X131678455Y-118540867D01*
X131681454Y-118525583D01*
X131679454Y-118510140D01*
X131688045Y-118492003D01*
X131691911Y-118472305D01*
X131702697Y-118461069D01*
X131709364Y-118446996D01*
X131726399Y-118436381D01*
X131740299Y-118421903D01*
X131756595Y-118417565D01*
X131768664Y-118410046D01*
X131784043Y-118410261D01*
X131801933Y-118405500D01*
X133075991Y-118405500D01*
X133076000Y-118405500D01*
X133119684Y-118400803D01*
X133148875Y-118394452D01*
X133171174Y-118389602D01*
X133171190Y-118389598D01*
X133171195Y-118389597D01*
X133181373Y-118387110D01*
X133262085Y-118344100D01*
X133314889Y-118298345D01*
X133332843Y-118280754D01*
X133377490Y-118200937D01*
X133397175Y-118133898D01*
X133405500Y-118076000D01*
X133405500Y-117892448D01*
X133399289Y-117842305D01*
X133384523Y-117783619D01*
X133384477Y-117783465D01*
X133379658Y-117767208D01*
X133331530Y-117689445D01*
X133331529Y-117689444D01*
X133331528Y-117689442D01*
X133282459Y-117639702D01*
X133263744Y-117622920D01*
X133196079Y-117590618D01*
X133144060Y-117543972D01*
X133125500Y-117478715D01*
X133125500Y-116745730D01*
X133122646Y-116715300D01*
X133122646Y-116715298D01*
X133083167Y-116602476D01*
X133077793Y-116587118D01*
X132997150Y-116477850D01*
X132887882Y-116397207D01*
X132887880Y-116397206D01*
X132759700Y-116352353D01*
X132729270Y-116349500D01*
X132729266Y-116349500D01*
X131691092Y-116349500D01*
X131624053Y-116329815D01*
X131581660Y-116283815D01*
X131572226Y-116266111D01*
X131557201Y-116237915D01*
X131511446Y-116185111D01*
X131511440Y-116185104D01*
X131493858Y-116167160D01*
X131493857Y-116167159D01*
X131493855Y-116167157D01*
X131493853Y-116167156D01*
X131493851Y-116167154D01*
X131414041Y-116122511D01*
X131414036Y-116122509D01*
X131347004Y-116102826D01*
X131347000Y-116102825D01*
X131346999Y-116102825D01*
X131289101Y-116094500D01*
X131289097Y-116094500D01*
X131156144Y-116094500D01*
X131123748Y-116084987D01*
X131091149Y-116076102D01*
X131089966Y-116075067D01*
X131089105Y-116074815D01*
X131087318Y-116072753D01*
X131060173Y-116049022D01*
X130940901Y-115903246D01*
X130616734Y-115507042D01*
X130589519Y-115442695D01*
X130601414Y-115373845D01*
X130648643Y-115322356D01*
X130716212Y-115304574D01*
X130738263Y-115307186D01*
X130739374Y-115307420D01*
X130743625Y-115308436D01*
X130744105Y-115308499D01*
X130744108Y-115308500D01*
X130744111Y-115308500D01*
X130746806Y-115308855D01*
X130753896Y-115309244D01*
X130894470Y-115324722D01*
X130958950Y-115351623D01*
X130960421Y-115352834D01*
X131409054Y-115728278D01*
X131416188Y-115732673D01*
X131417359Y-115733395D01*
X131425942Y-115739193D01*
X131489135Y-115785831D01*
X131512118Y-115802793D01*
X131560387Y-115819683D01*
X131640299Y-115847646D01*
X131670730Y-115850500D01*
X131670734Y-115850500D01*
X132729270Y-115850500D01*
X132759689Y-115847647D01*
X132759689Y-115847646D01*
X132759699Y-115847646D01*
X132814514Y-115828464D01*
X132814589Y-115828439D01*
X132824717Y-115824958D01*
X132849115Y-115821056D01*
X133014954Y-115759582D01*
X133016321Y-115759113D01*
X133049790Y-115757592D01*
X133083223Y-115755269D01*
X133084577Y-115756012D01*
X133086119Y-115755942D01*
X133115097Y-115772757D01*
X133144479Y-115788878D01*
X133145649Y-115790485D01*
X133146551Y-115791009D01*
X133147793Y-115793432D01*
X133166899Y-115819683D01*
X133169676Y-115825084D01*
X133170541Y-115826623D01*
X133172304Y-115829697D01*
X133176618Y-115835522D01*
X133176597Y-115835537D01*
X133189097Y-115852367D01*
X133203497Y-115877310D01*
X133203499Y-115877313D01*
X133203500Y-115877314D01*
X133296686Y-115970500D01*
X133410814Y-116036392D01*
X133538108Y-116070500D01*
X133538110Y-116070500D01*
X133669890Y-116070500D01*
X133669892Y-116070500D01*
X133797186Y-116036392D01*
X133911314Y-115970500D01*
X134004500Y-115877314D01*
X134070392Y-115763186D01*
X134104500Y-115635892D01*
X134104500Y-115504108D01*
X134070392Y-115376814D01*
X134004500Y-115262686D01*
X134004495Y-115262681D01*
X133999553Y-115256240D01*
X134001676Y-115254610D01*
X133974510Y-115204858D01*
X133979494Y-115135166D01*
X134021366Y-115079233D01*
X134086830Y-115054816D01*
X134095676Y-115054500D01*
X134177890Y-115054500D01*
X134177892Y-115054500D01*
X134305186Y-115020392D01*
X134419314Y-114954500D01*
X134419317Y-114954496D01*
X134424085Y-114951744D01*
X134491985Y-114935271D01*
X134558012Y-114958123D01*
X134573391Y-114971076D01*
X134711969Y-115108485D01*
X134762809Y-115158896D01*
X134796554Y-115220077D01*
X134799500Y-115246948D01*
X134799500Y-115304269D01*
X134802353Y-115334699D01*
X134802353Y-115334701D01*
X134847206Y-115462880D01*
X134847207Y-115462882D01*
X134901809Y-115536866D01*
X134911442Y-115552858D01*
X134913679Y-115556535D01*
X134913682Y-115556539D01*
X134913683Y-115556541D01*
X135351560Y-116138811D01*
X135368377Y-116161173D01*
X135392937Y-116226584D01*
X135389976Y-116257977D01*
X135390561Y-116258054D01*
X135389500Y-116266105D01*
X135389500Y-116266108D01*
X135389500Y-116397892D01*
X135396634Y-116424515D01*
X135423608Y-116525187D01*
X135441807Y-116556708D01*
X135489500Y-116639314D01*
X135582686Y-116732500D01*
X135696814Y-116798392D01*
X135824108Y-116832500D01*
X135824110Y-116832500D01*
X135955890Y-116832500D01*
X135955892Y-116832500D01*
X136083186Y-116798392D01*
X136197314Y-116732500D01*
X136290500Y-116639314D01*
X136356392Y-116525186D01*
X136390500Y-116397892D01*
X136390500Y-116266108D01*
X136356392Y-116138814D01*
X136344725Y-116118607D01*
X136328253Y-116050708D01*
X136351105Y-115984681D01*
X136354454Y-115980196D01*
X136683649Y-115559763D01*
X136694634Y-115542270D01*
X136699857Y-115534605D01*
X136752793Y-115462882D01*
X136778375Y-115389772D01*
X136797646Y-115334701D01*
X136797646Y-115334699D01*
X136800500Y-115304269D01*
X136800500Y-115153891D01*
X136820185Y-115086852D01*
X136842845Y-115060572D01*
X136849423Y-115054816D01*
X137226888Y-114724533D01*
X137244643Y-114716321D01*
X137259730Y-114703865D01*
X137275702Y-114701955D01*
X137290303Y-114695202D01*
X137309680Y-114697892D01*
X137329105Y-114695570D01*
X137350610Y-114703575D01*
X137359509Y-114704811D01*
X137362724Y-114706316D01*
X137367961Y-114708860D01*
X137385040Y-114719241D01*
X137404336Y-114726529D01*
X137409405Y-114728992D01*
X137410430Y-114729924D01*
X137417225Y-114733143D01*
X137474808Y-114766389D01*
X137474809Y-114766389D01*
X137474814Y-114766392D01*
X137602108Y-114800500D01*
X137602110Y-114800500D01*
X137733890Y-114800500D01*
X137733892Y-114800500D01*
X137861186Y-114766392D01*
X137975314Y-114700500D01*
X138068500Y-114607314D01*
X138134392Y-114493186D01*
X138168500Y-114365892D01*
X138168500Y-114234108D01*
X138134392Y-114106814D01*
X138068500Y-113992686D01*
X137975314Y-113899500D01*
X137894452Y-113852814D01*
X137861187Y-113833608D01*
X137793605Y-113815500D01*
X137733892Y-113799500D01*
X137602108Y-113799500D01*
X137602106Y-113799500D01*
X137602098Y-113799501D01*
X137594974Y-113801410D01*
X137582760Y-113804031D01*
X137571867Y-113805799D01*
X137561442Y-113805627D01*
X137465287Y-113823101D01*
X137464124Y-113823290D01*
X137430564Y-113819084D01*
X137396946Y-113815513D01*
X137395649Y-113814708D01*
X137394796Y-113814602D01*
X137392831Y-113812961D01*
X137362599Y-113794211D01*
X136842845Y-113339425D01*
X136805355Y-113280465D01*
X136800500Y-113246106D01*
X136800500Y-113095730D01*
X136797646Y-113065300D01*
X136797646Y-113065298D01*
X136764006Y-112969163D01*
X136752793Y-112937118D01*
X136672150Y-112827850D01*
X136562882Y-112747207D01*
X136562880Y-112747206D01*
X136434700Y-112702353D01*
X136404270Y-112699500D01*
X136404266Y-112699500D01*
X135195734Y-112699500D01*
X135195730Y-112699500D01*
X135165300Y-112702353D01*
X135165298Y-112702353D01*
X135037119Y-112747206D01*
X135037117Y-112747207D01*
X134927850Y-112827850D01*
X134847207Y-112937117D01*
X134847206Y-112937119D01*
X134802353Y-113065298D01*
X134802353Y-113065300D01*
X134799500Y-113095730D01*
X134799500Y-113354570D01*
X134779815Y-113421609D01*
X134764905Y-113440492D01*
X134263692Y-113962022D01*
X134251042Y-113969873D01*
X134243416Y-113979043D01*
X134211614Y-113994349D01*
X134157344Y-114011480D01*
X134087488Y-114012888D01*
X134027960Y-113976307D01*
X133997660Y-113913349D01*
X134006207Y-113844004D01*
X134012631Y-113831230D01*
X134017216Y-113823290D01*
X134070392Y-113731186D01*
X134104500Y-113603892D01*
X134104500Y-113472108D01*
X134070392Y-113344814D01*
X134004500Y-113230686D01*
X133911314Y-113137500D01*
X133842202Y-113097598D01*
X133797187Y-113071608D01*
X133733539Y-113054554D01*
X133669892Y-113037500D01*
X133669891Y-113037500D01*
X133665840Y-113037500D01*
X133656078Y-113037115D01*
X133643310Y-113036106D01*
X133518769Y-113026270D01*
X133453488Y-113001368D01*
X133451386Y-112999734D01*
X132986871Y-112630593D01*
X132977654Y-112625152D01*
X132967058Y-112618141D01*
X132958142Y-112611561D01*
X132887882Y-112559707D01*
X132759699Y-112514854D01*
X132759698Y-112514853D01*
X132759696Y-112514853D01*
X132729270Y-112512000D01*
X132729266Y-112512000D01*
X131670734Y-112512000D01*
X131670730Y-112512000D01*
X131640303Y-112514853D01*
X131512118Y-112559707D01*
X131508132Y-112562649D01*
X131442502Y-112586619D01*
X131374332Y-112571301D01*
X131325265Y-112521560D01*
X131310500Y-112462877D01*
X131310500Y-112456110D01*
X131310500Y-112456108D01*
X131276392Y-112328814D01*
X131210500Y-112214686D01*
X131117314Y-112121500D01*
X131043735Y-112079019D01*
X131003187Y-112055608D01*
X130906118Y-112029599D01*
X130875892Y-112021500D01*
X130744108Y-112021500D01*
X130616812Y-112055608D01*
X130502686Y-112121500D01*
X130409498Y-112214687D01*
X130396885Y-112236533D01*
X130346317Y-112284747D01*
X130277709Y-112297968D01*
X130212845Y-112271998D01*
X130172319Y-112215083D01*
X130165500Y-112174530D01*
X130165500Y-111970249D01*
X130154094Y-111912910D01*
X130154094Y-111864526D01*
X130164999Y-111809699D01*
X130165000Y-111809699D01*
X130165000Y-111790000D01*
X129995916Y-111790000D01*
X129990839Y-111788509D01*
X129990839Y-111789500D01*
X128268710Y-111789500D01*
X128250417Y-111788143D01*
X128246011Y-111787486D01*
X128229858Y-111788976D01*
X128220272Y-111789487D01*
X128219378Y-111789500D01*
X128195252Y-111789500D01*
X128193349Y-111789878D01*
X128185887Y-111789987D01*
X128185655Y-111789922D01*
X128184084Y-111790000D01*
X128089333Y-111790000D01*
X128022294Y-111770315D01*
X128001652Y-111753681D01*
X127864667Y-111616696D01*
X131275001Y-111616696D01*
X131277851Y-111647106D01*
X131322653Y-111775145D01*
X131403207Y-111884292D01*
X131512354Y-111964846D01*
X131640397Y-112009649D01*
X131670792Y-112012499D01*
X131849999Y-112012499D01*
X132550000Y-112012499D01*
X132729196Y-112012499D01*
X132759606Y-112009648D01*
X132887645Y-111964846D01*
X132996792Y-111884292D01*
X133077346Y-111775145D01*
X133102172Y-111704196D01*
X134800001Y-111704196D01*
X134802851Y-111734606D01*
X134847653Y-111862645D01*
X134928207Y-111971792D01*
X135037354Y-112052346D01*
X135165397Y-112097149D01*
X135195792Y-112099999D01*
X135449999Y-112099999D01*
X136150000Y-112099999D01*
X136404196Y-112099999D01*
X136434606Y-112097148D01*
X136562645Y-112052346D01*
X136671792Y-111971792D01*
X136752346Y-111862645D01*
X136797149Y-111734604D01*
X136797149Y-111734600D01*
X136800000Y-111704206D01*
X136800000Y-110950000D01*
X136150000Y-110950000D01*
X136150000Y-112099999D01*
X135449999Y-112099999D01*
X135450000Y-112099998D01*
X135450000Y-110950000D01*
X134800001Y-110950000D01*
X134800001Y-111704196D01*
X133102172Y-111704196D01*
X133122149Y-111647104D01*
X133122149Y-111647100D01*
X133125000Y-111616706D01*
X133125000Y-111575000D01*
X132550000Y-111575000D01*
X132550000Y-112012499D01*
X131849999Y-112012499D01*
X131850000Y-112012498D01*
X131850000Y-111575000D01*
X131275001Y-111575000D01*
X131275001Y-111616696D01*
X127864667Y-111616696D01*
X126385819Y-110137848D01*
X126371115Y-110110920D01*
X126354523Y-110085102D01*
X126353631Y-110078901D01*
X126352334Y-110076525D01*
X126349500Y-110050167D01*
X126349500Y-109973833D01*
X126369185Y-109906794D01*
X126421989Y-109861039D01*
X126491147Y-109851095D01*
X126554703Y-109880120D01*
X126561181Y-109886152D01*
X127774540Y-111099511D01*
X127830489Y-111155460D01*
X127830491Y-111155461D01*
X127830495Y-111155464D01*
X127892370Y-111191187D01*
X127899011Y-111195021D01*
X127912460Y-111198624D01*
X127939928Y-111209642D01*
X127950572Y-111215473D01*
X127999910Y-111264942D01*
X128015000Y-111324225D01*
X128015000Y-111340000D01*
X128184084Y-111340000D01*
X128194262Y-111340500D01*
X128195252Y-111340500D01*
X129985738Y-111340500D01*
X129995916Y-111340000D01*
X130165000Y-111340000D01*
X130165000Y-111320301D01*
X130164999Y-111320297D01*
X130154094Y-111265471D01*
X130154094Y-111217089D01*
X130165500Y-111159748D01*
X130165500Y-110833293D01*
X131275000Y-110833293D01*
X131275000Y-110875000D01*
X131850000Y-110875000D01*
X132550000Y-110875000D01*
X133124999Y-110875000D01*
X133124999Y-110833303D01*
X133122148Y-110802893D01*
X133077346Y-110674854D01*
X132996792Y-110565707D01*
X132887645Y-110485153D01*
X132759602Y-110440350D01*
X132729207Y-110437500D01*
X132550000Y-110437500D01*
X132550000Y-110875000D01*
X131850000Y-110875000D01*
X131850000Y-110437500D01*
X131670804Y-110437500D01*
X131640393Y-110440351D01*
X131512354Y-110485153D01*
X131403207Y-110565707D01*
X131322653Y-110674854D01*
X131277850Y-110802895D01*
X131277850Y-110802899D01*
X131275000Y-110833293D01*
X130165500Y-110833293D01*
X130165500Y-110670252D01*
X130153867Y-110611769D01*
X130152914Y-110610344D01*
X130152162Y-110596970D01*
X130154349Y-110587602D01*
X130154349Y-110565808D01*
X130165500Y-110509750D01*
X130165500Y-110020249D01*
X130154349Y-109964192D01*
X130154349Y-109915808D01*
X130165500Y-109859750D01*
X130165500Y-109629500D01*
X130185185Y-109562461D01*
X130237989Y-109516706D01*
X130289500Y-109505500D01*
X131375991Y-109505500D01*
X131376000Y-109505500D01*
X131419684Y-109500803D01*
X131442711Y-109495793D01*
X134800000Y-109495793D01*
X134800000Y-110250000D01*
X135450000Y-110250000D01*
X136150000Y-110250000D01*
X136799999Y-110250000D01*
X136799999Y-109956530D01*
X139869500Y-109956530D01*
X139869500Y-110163469D01*
X139909868Y-110366412D01*
X139909870Y-110366420D01*
X139973696Y-110520510D01*
X139989059Y-110557598D01*
X140020525Y-110604691D01*
X140104024Y-110729657D01*
X140250342Y-110875975D01*
X140250345Y-110875977D01*
X140422402Y-110990941D01*
X140613580Y-111070130D01*
X140777950Y-111102825D01*
X140816530Y-111110499D01*
X140816534Y-111110500D01*
X140816535Y-111110500D01*
X141023466Y-111110500D01*
X141023467Y-111110499D01*
X141226420Y-111070130D01*
X141417598Y-110990941D01*
X141589655Y-110875977D01*
X141735977Y-110729655D01*
X141850941Y-110557598D01*
X141930130Y-110366420D01*
X141970500Y-110163465D01*
X141970500Y-109956535D01*
X141930130Y-109753580D01*
X141850941Y-109562402D01*
X141735977Y-109390345D01*
X141735975Y-109390342D01*
X141589657Y-109244024D01*
X141445426Y-109147653D01*
X141417598Y-109129059D01*
X141405657Y-109124113D01*
X141226420Y-109049870D01*
X141226412Y-109049868D01*
X141023469Y-109009500D01*
X141023465Y-109009500D01*
X140816535Y-109009500D01*
X140816530Y-109009500D01*
X140613587Y-109049868D01*
X140613579Y-109049870D01*
X140422403Y-109129058D01*
X140250342Y-109244024D01*
X140104024Y-109390342D01*
X139989058Y-109562403D01*
X139909870Y-109753579D01*
X139909868Y-109753587D01*
X139869500Y-109956530D01*
X136799999Y-109956530D01*
X136799999Y-109495803D01*
X136797148Y-109465393D01*
X136752346Y-109337354D01*
X136671792Y-109228207D01*
X136562645Y-109147653D01*
X136434602Y-109102850D01*
X136404207Y-109100000D01*
X136150000Y-109100000D01*
X136150000Y-110250000D01*
X135450000Y-110250000D01*
X135450000Y-109100000D01*
X135195804Y-109100000D01*
X135165393Y-109102851D01*
X135037354Y-109147653D01*
X134928207Y-109228207D01*
X134847653Y-109337354D01*
X134802850Y-109465395D01*
X134802850Y-109465399D01*
X134800000Y-109495793D01*
X131442711Y-109495793D01*
X131448875Y-109494452D01*
X131471174Y-109489602D01*
X131471190Y-109489598D01*
X131471195Y-109489597D01*
X131481373Y-109487110D01*
X131562085Y-109444100D01*
X131614889Y-109398345D01*
X131632843Y-109380754D01*
X131677490Y-109300937D01*
X131697175Y-109233898D01*
X131705500Y-109176000D01*
X131705500Y-107416579D01*
X139870000Y-107416579D01*
X139870000Y-107623420D01*
X139910348Y-107826265D01*
X139910351Y-107826277D01*
X139971388Y-107973635D01*
X140420000Y-107525025D01*
X140420000Y-107585826D01*
X140454075Y-107712993D01*
X140519901Y-107827007D01*
X140612993Y-107920099D01*
X140727007Y-107985925D01*
X140854174Y-108020000D01*
X140914974Y-108020000D01*
X140466362Y-108468609D01*
X140613725Y-108529649D01*
X140613733Y-108529651D01*
X140816579Y-108569999D01*
X140816583Y-108570000D01*
X141023417Y-108570000D01*
X141023420Y-108569999D01*
X141226266Y-108529651D01*
X141226274Y-108529649D01*
X141373636Y-108468609D01*
X140925027Y-108020000D01*
X140985826Y-108020000D01*
X141112993Y-107985925D01*
X141227007Y-107920099D01*
X141320099Y-107827007D01*
X141385925Y-107712993D01*
X141420000Y-107585826D01*
X141420000Y-107525027D01*
X141868609Y-107973636D01*
X141929649Y-107826274D01*
X141929651Y-107826266D01*
X141969999Y-107623420D01*
X141970000Y-107623417D01*
X141970000Y-107416583D01*
X141969999Y-107416579D01*
X141929651Y-107213733D01*
X141929649Y-107213725D01*
X141868609Y-107066362D01*
X141420000Y-107514972D01*
X141420000Y-107454174D01*
X141385925Y-107327007D01*
X141320099Y-107212993D01*
X141227007Y-107119901D01*
X141112993Y-107054075D01*
X140985826Y-107020000D01*
X140925027Y-107020000D01*
X141373636Y-106571388D01*
X141226277Y-106510351D01*
X141226265Y-106510348D01*
X141023420Y-106470000D01*
X140816579Y-106470000D01*
X140613734Y-106510348D01*
X140613722Y-106510351D01*
X140466362Y-106571389D01*
X140914974Y-107020000D01*
X140854174Y-107020000D01*
X140727007Y-107054075D01*
X140612993Y-107119901D01*
X140519901Y-107212993D01*
X140454075Y-107327007D01*
X140420000Y-107454174D01*
X140420000Y-107514973D01*
X139971389Y-107066362D01*
X139910351Y-107213722D01*
X139910348Y-107213734D01*
X139870000Y-107416579D01*
X131705500Y-107416579D01*
X131705500Y-107224000D01*
X131700803Y-107180316D01*
X131696897Y-107162364D01*
X131689602Y-107128825D01*
X131689348Y-107127789D01*
X131687110Y-107118627D01*
X131644100Y-107037915D01*
X131598345Y-106985111D01*
X131598339Y-106985104D01*
X131580757Y-106967160D01*
X131580756Y-106967159D01*
X131580754Y-106967157D01*
X131580752Y-106967156D01*
X131580750Y-106967154D01*
X131500940Y-106922511D01*
X131500935Y-106922509D01*
X131433903Y-106902826D01*
X131433899Y-106902825D01*
X131433898Y-106902825D01*
X131376000Y-106894500D01*
X128224000Y-106894500D01*
X128223992Y-106894500D01*
X128180313Y-106899197D01*
X128128825Y-106910397D01*
X128118627Y-106912890D01*
X128118624Y-106912891D01*
X128032815Y-106958618D01*
X128028973Y-106959412D01*
X128026011Y-106961980D01*
X127995035Y-106966433D01*
X127964394Y-106972773D01*
X127960735Y-106971365D01*
X127956853Y-106971924D01*
X127928385Y-106958923D01*
X127899182Y-106947691D01*
X127896864Y-106944528D01*
X127893297Y-106942899D01*
X127876375Y-106916569D01*
X127857883Y-106891333D01*
X127857030Y-106886466D01*
X127855523Y-106884121D01*
X127850500Y-106849186D01*
X127850500Y-104910439D01*
X127850500Y-104910438D01*
X127841414Y-104876530D01*
X139869500Y-104876530D01*
X139869500Y-105083469D01*
X139909868Y-105286412D01*
X139909870Y-105286420D01*
X139989058Y-105477596D01*
X140104024Y-105649657D01*
X140250342Y-105795975D01*
X140250345Y-105795977D01*
X140422402Y-105910941D01*
X140613580Y-105990130D01*
X140816530Y-106030499D01*
X140816534Y-106030500D01*
X140816535Y-106030500D01*
X141023466Y-106030500D01*
X141023467Y-106030499D01*
X141226420Y-105990130D01*
X141417598Y-105910941D01*
X141589655Y-105795977D01*
X141735977Y-105649655D01*
X141850941Y-105477598D01*
X141930130Y-105286420D01*
X141970500Y-105083465D01*
X141970500Y-104876535D01*
X141930130Y-104673580D01*
X141850941Y-104482402D01*
X141735977Y-104310345D01*
X141735975Y-104310342D01*
X141589657Y-104164024D01*
X141503626Y-104106541D01*
X141417598Y-104049059D01*
X141226420Y-103969870D01*
X141226412Y-103969868D01*
X141023469Y-103929500D01*
X141023465Y-103929500D01*
X140816535Y-103929500D01*
X140816530Y-103929500D01*
X140613587Y-103969868D01*
X140613579Y-103969870D01*
X140422403Y-104049058D01*
X140250342Y-104164024D01*
X140104024Y-104310342D01*
X139989058Y-104482403D01*
X139909870Y-104673579D01*
X139909868Y-104673587D01*
X139869500Y-104876530D01*
X127841414Y-104876530D01*
X127830021Y-104834011D01*
X127830017Y-104834004D01*
X127790464Y-104765495D01*
X127790458Y-104765487D01*
X124536819Y-101511848D01*
X124503334Y-101450525D01*
X124500500Y-101424167D01*
X124500500Y-99284500D01*
X124520185Y-99217461D01*
X124572989Y-99171706D01*
X124624500Y-99160500D01*
X124969750Y-99160500D01*
X124969751Y-99160499D01*
X124984568Y-99157552D01*
X125028229Y-99148868D01*
X125028229Y-99148867D01*
X125028231Y-99148867D01*
X125094552Y-99104552D01*
X125138867Y-99038231D01*
X125138867Y-99038229D01*
X125138868Y-99038229D01*
X125148412Y-98990247D01*
X126579500Y-98990247D01*
X126579500Y-100529752D01*
X126591131Y-100588229D01*
X126591132Y-100588230D01*
X126635447Y-100654552D01*
X126701769Y-100698867D01*
X126701770Y-100698868D01*
X126760247Y-100710499D01*
X126760250Y-100710500D01*
X126760252Y-100710500D01*
X127699750Y-100710500D01*
X127699751Y-100710499D01*
X127714568Y-100707552D01*
X127758229Y-100698868D01*
X127758231Y-100698867D01*
X127796108Y-100673558D01*
X127862785Y-100652679D01*
X127930165Y-100671163D01*
X127933892Y-100673558D01*
X127971768Y-100698867D01*
X127971770Y-100698868D01*
X128030247Y-100710499D01*
X128030250Y-100710500D01*
X128030252Y-100710500D01*
X128969750Y-100710500D01*
X128969751Y-100710499D01*
X128984568Y-100707552D01*
X129028229Y-100698868D01*
X129028231Y-100698867D01*
X129066108Y-100673558D01*
X129132785Y-100652679D01*
X129200165Y-100671163D01*
X129203892Y-100673558D01*
X129241768Y-100698867D01*
X129241770Y-100698868D01*
X129300247Y-100710499D01*
X129300250Y-100710500D01*
X129300252Y-100710500D01*
X130239750Y-100710500D01*
X130239751Y-100710499D01*
X130254568Y-100707552D01*
X130298229Y-100698868D01*
X130298231Y-100698867D01*
X130336108Y-100673558D01*
X130402785Y-100652679D01*
X130470165Y-100671163D01*
X130473892Y-100673558D01*
X130511768Y-100698867D01*
X130511770Y-100698868D01*
X130570247Y-100710499D01*
X130570250Y-100710500D01*
X130570252Y-100710500D01*
X131509750Y-100710500D01*
X131509751Y-100710499D01*
X131524568Y-100707552D01*
X131568229Y-100698868D01*
X131568231Y-100698867D01*
X131606108Y-100673558D01*
X131672785Y-100652679D01*
X131740165Y-100671163D01*
X131743892Y-100673558D01*
X131781768Y-100698867D01*
X131781770Y-100698868D01*
X131840247Y-100710499D01*
X131840250Y-100710500D01*
X131840252Y-100710500D01*
X132779750Y-100710500D01*
X132779751Y-100710499D01*
X132794568Y-100707552D01*
X132838229Y-100698868D01*
X132838231Y-100698867D01*
X132876108Y-100673558D01*
X132942785Y-100652679D01*
X133010165Y-100671163D01*
X133013892Y-100673558D01*
X133051768Y-100698867D01*
X133051770Y-100698868D01*
X133110247Y-100710499D01*
X133110250Y-100710500D01*
X133110252Y-100710500D01*
X134049750Y-100710500D01*
X134049751Y-100710499D01*
X134064568Y-100707552D01*
X134108229Y-100698868D01*
X134108231Y-100698867D01*
X134146108Y-100673558D01*
X134212785Y-100652679D01*
X134280165Y-100671163D01*
X134283892Y-100673558D01*
X134321768Y-100698867D01*
X134321770Y-100698868D01*
X134380247Y-100710499D01*
X134380250Y-100710500D01*
X134380252Y-100710500D01*
X135319750Y-100710500D01*
X135319751Y-100710499D01*
X135334568Y-100707552D01*
X135378229Y-100698868D01*
X135378231Y-100698867D01*
X135416108Y-100673558D01*
X135482785Y-100652679D01*
X135550165Y-100671163D01*
X135553892Y-100673558D01*
X135591768Y-100698867D01*
X135591770Y-100698868D01*
X135650247Y-100710499D01*
X135650250Y-100710500D01*
X135650252Y-100710500D01*
X136589750Y-100710500D01*
X136589751Y-100710499D01*
X136604568Y-100707552D01*
X136648229Y-100698868D01*
X136648231Y-100698867D01*
X136686108Y-100673558D01*
X136752785Y-100652679D01*
X136820165Y-100671163D01*
X136823892Y-100673558D01*
X136861768Y-100698867D01*
X136861770Y-100698868D01*
X136920247Y-100710499D01*
X136920250Y-100710500D01*
X136920252Y-100710500D01*
X137859750Y-100710500D01*
X137859751Y-100710499D01*
X137874568Y-100707552D01*
X137918229Y-100698868D01*
X137918231Y-100698867D01*
X137956108Y-100673558D01*
X138022785Y-100652679D01*
X138090165Y-100671163D01*
X138093892Y-100673558D01*
X138131768Y-100698867D01*
X138131770Y-100698868D01*
X138190247Y-100710499D01*
X138190250Y-100710500D01*
X138190252Y-100710500D01*
X139129750Y-100710500D01*
X139129751Y-100710499D01*
X139144568Y-100707552D01*
X139188229Y-100698868D01*
X139188229Y-100698867D01*
X139188231Y-100698867D01*
X139254552Y-100654552D01*
X139298867Y-100588231D01*
X139298867Y-100588229D01*
X139298868Y-100588229D01*
X139310499Y-100529752D01*
X139310500Y-100529750D01*
X139310500Y-98990249D01*
X139310499Y-98990247D01*
X139298868Y-98931770D01*
X139298867Y-98931769D01*
X139254552Y-98865447D01*
X139188230Y-98821132D01*
X139188229Y-98821131D01*
X139129752Y-98809500D01*
X139129748Y-98809500D01*
X138190252Y-98809500D01*
X138190247Y-98809500D01*
X138131770Y-98821131D01*
X138131769Y-98821132D01*
X138093891Y-98846442D01*
X138027213Y-98867320D01*
X137959833Y-98848835D01*
X137956109Y-98846442D01*
X137918230Y-98821132D01*
X137918229Y-98821131D01*
X137859752Y-98809500D01*
X137859748Y-98809500D01*
X136920252Y-98809500D01*
X136920247Y-98809500D01*
X136861770Y-98821131D01*
X136861769Y-98821132D01*
X136823891Y-98846442D01*
X136757213Y-98867320D01*
X136689833Y-98848835D01*
X136686109Y-98846442D01*
X136648230Y-98821132D01*
X136648229Y-98821131D01*
X136589752Y-98809500D01*
X136589748Y-98809500D01*
X135650252Y-98809500D01*
X135650247Y-98809500D01*
X135591770Y-98821131D01*
X135591769Y-98821132D01*
X135553891Y-98846442D01*
X135487213Y-98867320D01*
X135419833Y-98848835D01*
X135416109Y-98846442D01*
X135378230Y-98821132D01*
X135378229Y-98821131D01*
X135319752Y-98809500D01*
X135319748Y-98809500D01*
X134380252Y-98809500D01*
X134380247Y-98809500D01*
X134321770Y-98821131D01*
X134321769Y-98821132D01*
X134283891Y-98846442D01*
X134217213Y-98867320D01*
X134149833Y-98848835D01*
X134146109Y-98846442D01*
X134108230Y-98821132D01*
X134108229Y-98821131D01*
X134049752Y-98809500D01*
X134049748Y-98809500D01*
X133110252Y-98809500D01*
X133110247Y-98809500D01*
X133051770Y-98821131D01*
X133051769Y-98821132D01*
X133013891Y-98846442D01*
X132947213Y-98867320D01*
X132879833Y-98848835D01*
X132876109Y-98846442D01*
X132838230Y-98821132D01*
X132838229Y-98821131D01*
X132779752Y-98809500D01*
X132779748Y-98809500D01*
X131840252Y-98809500D01*
X131840247Y-98809500D01*
X131781770Y-98821131D01*
X131781769Y-98821132D01*
X131743891Y-98846442D01*
X131677213Y-98867320D01*
X131609833Y-98848835D01*
X131606109Y-98846442D01*
X131568230Y-98821132D01*
X131568229Y-98821131D01*
X131509752Y-98809500D01*
X131509748Y-98809500D01*
X130570252Y-98809500D01*
X130570247Y-98809500D01*
X130511770Y-98821131D01*
X130511769Y-98821132D01*
X130473891Y-98846442D01*
X130407213Y-98867320D01*
X130339833Y-98848835D01*
X130336109Y-98846442D01*
X130298230Y-98821132D01*
X130298229Y-98821131D01*
X130239752Y-98809500D01*
X130239748Y-98809500D01*
X129300252Y-98809500D01*
X129300247Y-98809500D01*
X129241770Y-98821131D01*
X129241769Y-98821132D01*
X129203891Y-98846442D01*
X129137213Y-98867320D01*
X129069833Y-98848835D01*
X129066109Y-98846442D01*
X129028230Y-98821132D01*
X129028229Y-98821131D01*
X128969752Y-98809500D01*
X128969748Y-98809500D01*
X128030252Y-98809500D01*
X128030247Y-98809500D01*
X127971770Y-98821131D01*
X127971769Y-98821132D01*
X127933891Y-98846442D01*
X127867213Y-98867320D01*
X127830305Y-98862387D01*
X127811976Y-98857045D01*
X127758231Y-98821133D01*
X127699748Y-98809500D01*
X127648838Y-98809500D01*
X127631843Y-98804547D01*
X127616722Y-98794872D01*
X127599499Y-98789815D01*
X127587904Y-98776434D01*
X127572989Y-98766891D01*
X127565498Y-98750576D01*
X127553744Y-98737011D01*
X127551224Y-98719485D01*
X127543836Y-98703394D01*
X127546354Y-98685621D01*
X127543800Y-98667853D01*
X127551701Y-98638718D01*
X127579757Y-98569848D01*
X127699817Y-98275132D01*
X127707266Y-98259919D01*
X127720391Y-98237187D01*
X127720392Y-98237186D01*
X127730221Y-98200499D01*
X127733221Y-98193138D01*
X127739616Y-98175072D01*
X127740249Y-98172978D01*
X127742362Y-98165476D01*
X127742725Y-98153834D01*
X127754500Y-98109892D01*
X127754500Y-97978108D01*
X127720392Y-97850814D01*
X127654500Y-97736686D01*
X127561314Y-97643500D01*
X127504250Y-97610554D01*
X127447187Y-97577608D01*
X127383539Y-97560554D01*
X127319892Y-97543500D01*
X127188108Y-97543500D01*
X127060812Y-97577608D01*
X126946686Y-97643500D01*
X126946683Y-97643502D01*
X126853502Y-97736683D01*
X126853500Y-97736686D01*
X126787608Y-97850812D01*
X126753500Y-97978108D01*
X126753500Y-98109895D01*
X126762818Y-98144670D01*
X126766276Y-98162986D01*
X126767863Y-98177188D01*
X126892640Y-98569847D01*
X126892640Y-98569848D01*
X126917458Y-98647945D01*
X126919002Y-98717798D01*
X126882535Y-98777396D01*
X126819636Y-98807818D01*
X126799282Y-98809500D01*
X126760247Y-98809500D01*
X126701770Y-98821131D01*
X126701769Y-98821132D01*
X126635447Y-98865447D01*
X126591132Y-98931769D01*
X126591131Y-98931770D01*
X126579500Y-98990247D01*
X125148412Y-98990247D01*
X125150499Y-98979752D01*
X125150500Y-98979750D01*
X125150500Y-98040249D01*
X125150499Y-98040247D01*
X125138868Y-97981770D01*
X125138867Y-97981768D01*
X125113558Y-97943892D01*
X125092679Y-97877215D01*
X125111163Y-97809835D01*
X125113558Y-97806108D01*
X125138867Y-97768231D01*
X125138868Y-97768229D01*
X125150499Y-97709752D01*
X125150500Y-97709750D01*
X125150500Y-96770249D01*
X125150499Y-96770247D01*
X125138868Y-96711770D01*
X125138867Y-96711768D01*
X125113558Y-96673892D01*
X125092679Y-96607215D01*
X125111163Y-96539835D01*
X125113558Y-96536108D01*
X125138867Y-96498231D01*
X125138868Y-96498229D01*
X125150499Y-96439752D01*
X125150500Y-96439750D01*
X125150500Y-95500249D01*
X125150499Y-95500247D01*
X125138868Y-95441770D01*
X125138867Y-95441768D01*
X125113558Y-95403892D01*
X125092679Y-95337215D01*
X125111163Y-95269835D01*
X125113558Y-95266108D01*
X125138867Y-95228231D01*
X125138868Y-95228229D01*
X125150499Y-95169752D01*
X125150500Y-95169750D01*
X125150500Y-94230249D01*
X125150499Y-94230247D01*
X125138868Y-94171770D01*
X125138867Y-94171768D01*
X125113558Y-94133892D01*
X125092679Y-94067215D01*
X125111163Y-93999835D01*
X125113558Y-93996108D01*
X125138867Y-93958231D01*
X125138868Y-93958229D01*
X125150499Y-93899752D01*
X125150500Y-93899750D01*
X125150500Y-92960249D01*
X125150499Y-92960247D01*
X125138868Y-92901770D01*
X125138867Y-92901768D01*
X125113558Y-92863892D01*
X125092679Y-92797215D01*
X125111163Y-92729835D01*
X125113558Y-92726108D01*
X125138867Y-92688231D01*
X125138868Y-92688229D01*
X125150499Y-92629752D01*
X125150500Y-92629750D01*
X125150500Y-91690249D01*
X125150499Y-91690247D01*
X125138868Y-91631770D01*
X125138867Y-91631768D01*
X125113558Y-91593892D01*
X125092679Y-91527215D01*
X125111163Y-91459835D01*
X125113558Y-91456108D01*
X125138867Y-91418231D01*
X125138868Y-91418229D01*
X125150499Y-91359752D01*
X125150500Y-91359750D01*
X125150500Y-90420249D01*
X125150499Y-90420247D01*
X125138868Y-90361770D01*
X125138867Y-90361768D01*
X125113558Y-90323892D01*
X125092679Y-90257215D01*
X125111163Y-90189835D01*
X125113558Y-90186108D01*
X125138867Y-90148231D01*
X125138868Y-90148229D01*
X125150499Y-90089752D01*
X125150500Y-90089750D01*
X125150500Y-89150249D01*
X125150499Y-89150247D01*
X125138868Y-89091770D01*
X125138867Y-89091768D01*
X125113558Y-89053892D01*
X125092679Y-88987215D01*
X125111163Y-88919835D01*
X125113558Y-88916108D01*
X125138867Y-88878231D01*
X125138868Y-88878229D01*
X125150499Y-88819752D01*
X125150500Y-88819750D01*
X125150500Y-87880249D01*
X125150499Y-87880247D01*
X125138868Y-87821770D01*
X125138867Y-87821768D01*
X125113558Y-87783892D01*
X125092679Y-87717215D01*
X125096755Y-87683394D01*
X125102039Y-87663346D01*
X125138867Y-87608231D01*
X125150500Y-87549748D01*
X125150500Y-87500003D01*
X127556500Y-87500003D01*
X127556500Y-92078007D01*
X127561197Y-92121686D01*
X127572397Y-92173174D01*
X127574890Y-92183372D01*
X127574891Y-92183375D01*
X127617899Y-92264083D01*
X127617901Y-92264086D01*
X127663660Y-92316895D01*
X127681242Y-92334839D01*
X127681246Y-92334843D01*
X127681247Y-92334844D01*
X127681249Y-92334845D01*
X127743920Y-92369901D01*
X127761063Y-92379490D01*
X127828102Y-92399175D01*
X127886000Y-92407500D01*
X127886004Y-92407500D01*
X135003991Y-92407500D01*
X135004000Y-92407500D01*
X135047684Y-92402803D01*
X135076875Y-92396452D01*
X135099174Y-92391602D01*
X135099190Y-92391598D01*
X135099195Y-92391597D01*
X135109373Y-92389110D01*
X135190085Y-92346100D01*
X135242889Y-92300345D01*
X135260843Y-92282754D01*
X135305490Y-92202937D01*
X135325175Y-92135898D01*
X135333500Y-92078000D01*
X135333500Y-87500000D01*
X135328803Y-87456316D01*
X135320211Y-87416819D01*
X135317602Y-87404825D01*
X135315849Y-87397653D01*
X135315110Y-87394627D01*
X135272100Y-87313915D01*
X135226345Y-87261111D01*
X135226339Y-87261104D01*
X135208757Y-87243160D01*
X135208756Y-87243159D01*
X135208754Y-87243157D01*
X135208752Y-87243156D01*
X135208750Y-87243154D01*
X135128940Y-87198511D01*
X135128935Y-87198509D01*
X135061903Y-87178826D01*
X135061899Y-87178825D01*
X135061898Y-87178825D01*
X135004000Y-87170500D01*
X127886000Y-87170500D01*
X127885992Y-87170500D01*
X127842313Y-87175197D01*
X127790825Y-87186397D01*
X127780627Y-87188890D01*
X127780624Y-87188891D01*
X127699916Y-87231899D01*
X127699913Y-87231901D01*
X127647104Y-87277660D01*
X127629160Y-87295242D01*
X127629154Y-87295249D01*
X127584511Y-87375059D01*
X127584509Y-87375064D01*
X127564826Y-87442096D01*
X127564825Y-87442101D01*
X127564825Y-87442102D01*
X127556502Y-87499992D01*
X127556500Y-87500003D01*
X125150500Y-87500003D01*
X125150500Y-86610252D01*
X125150500Y-86610249D01*
X125150499Y-86610247D01*
X125138868Y-86551770D01*
X125138867Y-86551768D01*
X125113558Y-86513892D01*
X125092679Y-86447215D01*
X125111163Y-86379835D01*
X125113558Y-86376108D01*
X125138867Y-86338231D01*
X125138868Y-86338229D01*
X125150499Y-86279752D01*
X125150500Y-86279750D01*
X125150500Y-85340249D01*
X125150499Y-85340247D01*
X125138868Y-85281770D01*
X125138867Y-85281768D01*
X125113558Y-85243892D01*
X125092679Y-85177215D01*
X125111163Y-85109835D01*
X125113558Y-85106108D01*
X125138867Y-85068231D01*
X125138868Y-85068229D01*
X125150499Y-85009752D01*
X125150500Y-85009750D01*
X125150500Y-84070249D01*
X125150499Y-84070247D01*
X125138868Y-84011770D01*
X125138867Y-84011769D01*
X125113257Y-83973441D01*
X125092379Y-83906764D01*
X125110863Y-83839384D01*
X125113257Y-83835660D01*
X125138395Y-83798037D01*
X125138397Y-83798033D01*
X125149999Y-83739702D01*
X125150000Y-83739699D01*
X125150000Y-83620000D01*
X123250000Y-83620000D01*
X123250000Y-83739702D01*
X123261602Y-83798033D01*
X123261604Y-83798037D01*
X123286743Y-83835660D01*
X123307621Y-83902337D01*
X123303184Y-83937498D01*
X123297865Y-83956796D01*
X123261133Y-84011769D01*
X123249500Y-84070252D01*
X123249500Y-84132276D01*
X123245043Y-84148448D01*
X123235121Y-84164466D01*
X123229815Y-84182539D01*
X123217108Y-84193549D01*
X123208253Y-84207847D01*
X123191246Y-84215958D01*
X123177011Y-84228294D01*
X123155635Y-84232944D01*
X123145189Y-84237927D01*
X123137318Y-84236928D01*
X123125500Y-84239500D01*
X122346466Y-84239500D01*
X122279427Y-84219815D01*
X122262502Y-84206747D01*
X122104065Y-84060956D01*
X121725839Y-83712920D01*
X121710033Y-83695306D01*
X121697153Y-83677853D01*
X121697151Y-83677851D01*
X121697150Y-83677850D01*
X121587882Y-83597207D01*
X121587880Y-83597206D01*
X121459700Y-83552353D01*
X121429270Y-83549500D01*
X121429266Y-83549500D01*
X120370734Y-83549500D01*
X120370730Y-83549500D01*
X120340300Y-83552353D01*
X120340298Y-83552353D01*
X120212119Y-83597206D01*
X120212117Y-83597207D01*
X120102850Y-83677850D01*
X120022207Y-83787117D01*
X120022206Y-83787119D01*
X119977353Y-83915298D01*
X119977353Y-83915300D01*
X119974500Y-83945730D01*
X119974500Y-84729269D01*
X119977353Y-84759699D01*
X119977353Y-84759701D01*
X120012515Y-84860185D01*
X120022207Y-84887882D01*
X120102850Y-84997150D01*
X120102852Y-84997151D01*
X120102855Y-84997155D01*
X120158173Y-85037981D01*
X120181882Y-85060936D01*
X120262088Y-85162575D01*
X120288165Y-85227396D01*
X120275057Y-85296025D01*
X120263329Y-85314606D01*
X120163590Y-85445331D01*
X120138644Y-85469883D01*
X120127849Y-85477849D01*
X120047207Y-85587118D01*
X120047206Y-85587119D01*
X120002353Y-85715298D01*
X120002353Y-85715300D01*
X119999500Y-85745730D01*
X119999500Y-86554269D01*
X120002353Y-86584699D01*
X120002353Y-86584701D01*
X120047206Y-86712880D01*
X120047207Y-86712882D01*
X120127850Y-86822150D01*
X120237118Y-86902793D01*
X120279845Y-86917744D01*
X120365299Y-86947646D01*
X120395730Y-86950500D01*
X120395734Y-86950500D01*
X121404270Y-86950500D01*
X121434699Y-86947646D01*
X121434701Y-86947646D01*
X121514687Y-86919657D01*
X121562882Y-86902793D01*
X121672150Y-86822150D01*
X121752793Y-86712882D01*
X121788706Y-86610249D01*
X121797646Y-86584701D01*
X121797646Y-86584699D01*
X121800500Y-86554269D01*
X121800500Y-85745730D01*
X121797646Y-85715300D01*
X121797646Y-85715298D01*
X121752793Y-85587119D01*
X121752793Y-85587118D01*
X121672150Y-85477850D01*
X121661355Y-85469883D01*
X121636406Y-85445329D01*
X121536668Y-85314606D01*
X121511653Y-85249368D01*
X121525879Y-85180962D01*
X121537903Y-85162583D01*
X121584560Y-85103458D01*
X121640051Y-85063550D01*
X122241880Y-84847775D01*
X122283729Y-84840500D01*
X123125500Y-84840500D01*
X123192539Y-84860185D01*
X123238294Y-84912989D01*
X123245068Y-84931646D01*
X123249500Y-84947775D01*
X123249500Y-85009748D01*
X123261133Y-85068231D01*
X123297589Y-85122791D01*
X123302908Y-85142146D01*
X123302634Y-85157823D01*
X123307320Y-85172787D01*
X123302038Y-85192040D01*
X123301690Y-85212005D01*
X123292982Y-85225047D01*
X123288835Y-85240167D01*
X123286442Y-85243891D01*
X123261132Y-85281769D01*
X123261131Y-85281770D01*
X123249500Y-85340247D01*
X123249500Y-86279752D01*
X123261131Y-86338229D01*
X123261132Y-86338230D01*
X123286442Y-86376109D01*
X123307320Y-86442787D01*
X123288835Y-86510167D01*
X123286442Y-86513891D01*
X123261132Y-86551769D01*
X123261131Y-86551770D01*
X123249500Y-86610247D01*
X123249500Y-87549752D01*
X123261131Y-87608229D01*
X123261132Y-87608230D01*
X123286442Y-87646109D01*
X123307320Y-87712787D01*
X123288835Y-87780167D01*
X123286442Y-87783891D01*
X123261132Y-87821769D01*
X123261131Y-87821770D01*
X123249500Y-87880247D01*
X123249500Y-88819752D01*
X123261131Y-88878229D01*
X123261132Y-88878230D01*
X123286442Y-88916109D01*
X123307320Y-88982787D01*
X123288835Y-89050167D01*
X123286442Y-89053891D01*
X123261132Y-89091769D01*
X123261131Y-89091770D01*
X123249500Y-89150247D01*
X123249500Y-90089752D01*
X123261131Y-90148229D01*
X123261132Y-90148230D01*
X123286442Y-90186109D01*
X123307320Y-90252787D01*
X123303561Y-90285380D01*
X123298321Y-90306113D01*
X123261133Y-90361769D01*
X123249500Y-90420252D01*
X123249500Y-90499310D01*
X123245721Y-90514265D01*
X123235487Y-90531606D01*
X123229815Y-90550924D01*
X123218094Y-90561079D01*
X123210211Y-90574439D01*
X123192225Y-90583495D01*
X123177011Y-90596679D01*
X123157596Y-90603659D01*
X123134013Y-90609978D01*
X123134008Y-90609980D01*
X123088262Y-90636392D01*
X123065492Y-90649538D01*
X123065486Y-90649542D01*
X120556541Y-93158487D01*
X120556535Y-93158495D01*
X120516982Y-93227004D01*
X120516979Y-93227009D01*
X120496500Y-93303439D01*
X120496500Y-102570762D01*
X120497439Y-102577894D01*
X120498500Y-102594081D01*
X120498500Y-102906139D01*
X120499500Y-102921385D01*
X120499500Y-103039562D01*
X120513152Y-103090513D01*
X120519979Y-103115990D01*
X120519982Y-103115995D01*
X120559535Y-103184504D01*
X120559541Y-103184512D01*
X124263181Y-106888152D01*
X124296666Y-106949475D01*
X124299500Y-106975833D01*
X124299500Y-109830324D01*
X124279815Y-109897363D01*
X124227011Y-109943118D01*
X124157853Y-109953062D01*
X124094297Y-109924037D01*
X124087819Y-109918005D01*
X124005316Y-109835502D01*
X124005314Y-109835500D01*
X123923863Y-109788474D01*
X123891187Y-109769608D01*
X123827539Y-109752554D01*
X123763892Y-109735500D01*
X123632108Y-109735500D01*
X123504814Y-109769608D01*
X123504812Y-109769608D01*
X123504812Y-109769609D01*
X123472136Y-109788474D01*
X123457100Y-109795849D01*
X123447557Y-109799753D01*
X123443322Y-109800608D01*
X123335416Y-109845641D01*
X123335017Y-109845805D01*
X123300650Y-109849350D01*
X123266365Y-109853129D01*
X123265962Y-109852928D01*
X123265516Y-109852975D01*
X123234723Y-109837395D01*
X123203802Y-109822021D01*
X123203571Y-109821635D01*
X123203172Y-109821433D01*
X123185694Y-109791686D01*
X123167990Y-109762027D01*
X123167977Y-109761532D01*
X123167777Y-109761191D01*
X123167895Y-109758239D01*
X123166589Y-109706105D01*
X123174692Y-109666633D01*
X123179877Y-109579832D01*
X123109913Y-108740257D01*
X123098578Y-108679508D01*
X123084510Y-108631627D01*
X123084508Y-108631619D01*
X123072263Y-108597555D01*
X123072262Y-108597552D01*
X123009877Y-108504209D01*
X122961040Y-108454242D01*
X122961037Y-108454239D01*
X122892033Y-108401342D01*
X122892025Y-108401336D01*
X118877726Y-106149413D01*
X118813842Y-106123644D01*
X118805503Y-106120280D01*
X118805501Y-106120279D01*
X118805500Y-106120279D01*
X118744832Y-106104425D01*
X118667594Y-106094500D01*
X116724000Y-106094500D01*
X116723991Y-106094500D01*
X116723990Y-106094501D01*
X116659064Y-106101481D01*
X116659052Y-106101483D01*
X116607546Y-106112688D01*
X116569345Y-106123644D01*
X116569341Y-106123646D01*
X116472431Y-106180323D01*
X116472428Y-106180325D01*
X116419623Y-106226081D01*
X116419612Y-106226091D01*
X116377451Y-106270807D01*
X116377445Y-106270816D01*
X116326560Y-106370890D01*
X116306877Y-106437921D01*
X116306876Y-106437928D01*
X116294500Y-106524000D01*
X116294500Y-108276000D01*
X116294501Y-108276009D01*
X116301481Y-108340935D01*
X116301483Y-108340947D01*
X116312688Y-108392453D01*
X116323644Y-108430654D01*
X116323646Y-108430658D01*
X116380323Y-108527568D01*
X116380325Y-108527571D01*
X116426081Y-108580376D01*
X116426091Y-108580387D01*
X116470807Y-108622548D01*
X116470809Y-108622549D01*
X116470813Y-108622553D01*
X116570889Y-108673439D01*
X116637928Y-108693124D01*
X116724000Y-108705500D01*
X117035692Y-108705500D01*
X117102731Y-108725185D01*
X117148486Y-108777989D01*
X117158430Y-108847147D01*
X117129405Y-108910703D01*
X117104582Y-108932603D01*
X117102404Y-108934058D01*
X117102402Y-108934059D01*
X117060928Y-108961771D01*
X116931808Y-109048045D01*
X116865130Y-109068922D01*
X116797750Y-109050437D01*
X116781036Y-109038062D01*
X116761733Y-109021088D01*
X116761732Y-109021087D01*
X116761727Y-109021083D01*
X116741871Y-109005670D01*
X116741870Y-109005669D01*
X116656754Y-108972217D01*
X116656749Y-108972216D01*
X116587676Y-108961771D01*
X116529181Y-108961345D01*
X116386428Y-108980810D01*
X116386422Y-108980812D01*
X116350870Y-108988925D01*
X116350867Y-108988926D01*
X116309145Y-109002438D01*
X116306376Y-109003357D01*
X116306369Y-109003361D01*
X116228500Y-109051319D01*
X116178667Y-109100265D01*
X116178661Y-109100271D01*
X116178654Y-109100279D01*
X116161833Y-109118956D01*
X116161832Y-109118957D01*
X116161832Y-109118958D01*
X116122252Y-109201400D01*
X116122249Y-109201406D01*
X116106787Y-109269532D01*
X116106786Y-109269536D01*
X116102089Y-109327846D01*
X114124000Y-109327846D01*
X114124000Y-88554196D01*
X120000001Y-88554196D01*
X120002851Y-88584606D01*
X120047653Y-88712645D01*
X120128207Y-88821792D01*
X120237354Y-88902346D01*
X120365397Y-88947149D01*
X120395792Y-88949999D01*
X120549999Y-88949999D01*
X121250000Y-88949999D01*
X121404196Y-88949999D01*
X121434606Y-88947148D01*
X121562645Y-88902346D01*
X121671792Y-88821792D01*
X121752346Y-88712645D01*
X121797149Y-88584604D01*
X121797149Y-88584600D01*
X121800000Y-88554206D01*
X121800000Y-88500000D01*
X121250000Y-88500000D01*
X121250000Y-88949999D01*
X120549999Y-88949999D01*
X120550000Y-88949998D01*
X120550000Y-88500000D01*
X120000001Y-88500000D01*
X120000001Y-88554196D01*
X114124000Y-88554196D01*
X114124000Y-87745793D01*
X120000000Y-87745793D01*
X120000000Y-87800000D01*
X120550000Y-87800000D01*
X121250000Y-87800000D01*
X121799999Y-87800000D01*
X121799999Y-87745803D01*
X121797148Y-87715393D01*
X121752346Y-87587354D01*
X121671792Y-87478207D01*
X121562645Y-87397653D01*
X121434602Y-87352850D01*
X121404207Y-87350000D01*
X121250000Y-87350000D01*
X121250000Y-87800000D01*
X120550000Y-87800000D01*
X120550000Y-87350000D01*
X120395804Y-87350000D01*
X120365393Y-87352851D01*
X120237354Y-87397653D01*
X120128207Y-87478207D01*
X120047653Y-87587354D01*
X120002850Y-87715395D01*
X120002850Y-87715399D01*
X120000000Y-87745793D01*
X114124000Y-87745793D01*
X114124000Y-84067446D01*
X114124170Y-84060956D01*
X114130640Y-83937498D01*
X114143700Y-83688298D01*
X114145057Y-83675392D01*
X114155963Y-83606534D01*
X114202924Y-83310030D01*
X114205617Y-83297355D01*
X114301366Y-82940018D01*
X114305370Y-82927696D01*
X114437945Y-82582325D01*
X114443209Y-82570503D01*
X114611168Y-82240864D01*
X114617634Y-82229666D01*
X114819119Y-81919406D01*
X114826734Y-81908925D01*
X114857664Y-81870730D01*
X119974500Y-81870730D01*
X119974500Y-82654269D01*
X119977353Y-82684699D01*
X119977353Y-82684701D01*
X120022206Y-82812880D01*
X120022207Y-82812882D01*
X120102850Y-82922150D01*
X120212118Y-83002793D01*
X120254845Y-83017744D01*
X120340299Y-83047646D01*
X120370730Y-83050500D01*
X120370734Y-83050500D01*
X121429270Y-83050500D01*
X121459699Y-83047646D01*
X121459701Y-83047646D01*
X121545154Y-83017744D01*
X121587882Y-83002793D01*
X121610519Y-82986085D01*
X121617906Y-82981036D01*
X122249539Y-82582155D01*
X122315749Y-82563000D01*
X123150155Y-82563000D01*
X123217194Y-82582685D01*
X123262949Y-82635489D01*
X123272893Y-82704647D01*
X123264714Y-82734457D01*
X123261602Y-82741967D01*
X123250000Y-82800297D01*
X123250000Y-82920000D01*
X125150000Y-82920000D01*
X125150000Y-82800301D01*
X125149999Y-82800297D01*
X125138397Y-82741966D01*
X125138396Y-82741964D01*
X125113257Y-82704342D01*
X125092378Y-82637665D01*
X125096815Y-82602502D01*
X125102133Y-82583205D01*
X125138867Y-82528231D01*
X125150500Y-82469748D01*
X125150500Y-82407722D01*
X125154957Y-82391552D01*
X125164877Y-82375534D01*
X125170185Y-82357461D01*
X125182892Y-82346449D01*
X125191748Y-82332153D01*
X125208752Y-82324042D01*
X125222989Y-82311706D01*
X125244364Y-82307055D01*
X125254811Y-82302073D01*
X125262681Y-82303071D01*
X125274500Y-82300500D01*
X125308202Y-82300500D01*
X125358874Y-82311326D01*
X125724356Y-82474971D01*
X125725248Y-82475215D01*
X125726523Y-82475747D01*
X125728843Y-82476579D01*
X125728800Y-82476698D01*
X125754498Y-82487424D01*
X125754717Y-82487551D01*
X125790811Y-82508391D01*
X125790813Y-82508391D01*
X125790814Y-82508392D01*
X125918108Y-82542500D01*
X125918110Y-82542500D01*
X126049890Y-82542500D01*
X126049892Y-82542500D01*
X126177186Y-82508392D01*
X126291314Y-82442500D01*
X126384500Y-82349314D01*
X126450392Y-82235186D01*
X126484500Y-82107892D01*
X126484500Y-81976108D01*
X139707500Y-81976108D01*
X139707500Y-82107891D01*
X139741608Y-82235187D01*
X139744886Y-82240864D01*
X139807500Y-82349314D01*
X139900686Y-82442500D01*
X140014814Y-82508392D01*
X140142108Y-82542500D01*
X140142110Y-82542500D01*
X140273890Y-82542500D01*
X140273892Y-82542500D01*
X140401186Y-82508392D01*
X140437297Y-82487542D01*
X140449811Y-82481234D01*
X140460398Y-82476627D01*
X140467643Y-82474972D01*
X140586034Y-82421962D01*
X140586655Y-82421692D01*
X140620654Y-82417426D01*
X140654684Y-82412791D01*
X140655304Y-82413079D01*
X140655981Y-82412995D01*
X140686906Y-82427796D01*
X140718023Y-82442287D01*
X140718387Y-82442864D01*
X140719004Y-82443159D01*
X140737034Y-82472357D01*
X140755361Y-82501343D01*
X140755635Y-82502478D01*
X140755715Y-82502607D01*
X140755711Y-82502793D01*
X140757745Y-82511202D01*
X140761132Y-82528230D01*
X140786442Y-82566109D01*
X140807320Y-82632787D01*
X140788835Y-82700167D01*
X140786442Y-82703891D01*
X140761132Y-82741769D01*
X140761131Y-82741770D01*
X140749500Y-82800247D01*
X140749500Y-83739752D01*
X140761131Y-83798229D01*
X140761132Y-83798230D01*
X140786442Y-83836109D01*
X140807320Y-83902787D01*
X140788835Y-83970167D01*
X140786442Y-83973891D01*
X140761132Y-84011769D01*
X140761131Y-84011770D01*
X140749500Y-84070247D01*
X140749500Y-85009752D01*
X140761131Y-85068229D01*
X140761132Y-85068230D01*
X140786442Y-85106109D01*
X140807320Y-85172787D01*
X140788835Y-85240167D01*
X140786442Y-85243891D01*
X140761132Y-85281769D01*
X140761131Y-85281770D01*
X140749500Y-85340247D01*
X140749500Y-86279752D01*
X140761131Y-86338229D01*
X140761132Y-86338230D01*
X140786442Y-86376109D01*
X140807320Y-86442787D01*
X140788835Y-86510167D01*
X140786442Y-86513891D01*
X140761132Y-86551769D01*
X140761131Y-86551770D01*
X140749500Y-86610247D01*
X140749500Y-87549752D01*
X140761131Y-87608229D01*
X140761132Y-87608230D01*
X140786442Y-87646109D01*
X140807320Y-87712787D01*
X140788835Y-87780167D01*
X140786442Y-87783891D01*
X140761132Y-87821769D01*
X140761131Y-87821770D01*
X140749500Y-87880247D01*
X140749500Y-88819752D01*
X140761131Y-88878229D01*
X140761132Y-88878230D01*
X140786442Y-88916109D01*
X140807320Y-88982787D01*
X140788835Y-89050167D01*
X140786442Y-89053891D01*
X140761132Y-89091769D01*
X140761131Y-89091770D01*
X140749500Y-89150247D01*
X140749500Y-90089752D01*
X140761131Y-90148229D01*
X140761132Y-90148230D01*
X140786442Y-90186109D01*
X140807320Y-90252787D01*
X140788835Y-90320167D01*
X140786442Y-90323891D01*
X140761132Y-90361769D01*
X140761131Y-90361770D01*
X140749500Y-90420247D01*
X140749500Y-91359752D01*
X140761131Y-91418229D01*
X140761132Y-91418230D01*
X140786442Y-91456109D01*
X140807320Y-91522787D01*
X140788835Y-91590167D01*
X140786442Y-91593891D01*
X140761132Y-91631769D01*
X140761131Y-91631770D01*
X140749500Y-91690247D01*
X140749500Y-92629752D01*
X140761131Y-92688229D01*
X140761132Y-92688230D01*
X140786442Y-92726109D01*
X140807320Y-92792787D01*
X140788835Y-92860167D01*
X140786442Y-92863891D01*
X140761132Y-92901769D01*
X140761131Y-92901770D01*
X140749500Y-92960247D01*
X140749500Y-93899752D01*
X140761131Y-93958229D01*
X140761132Y-93958230D01*
X140786442Y-93996109D01*
X140807320Y-94062787D01*
X140788835Y-94130167D01*
X140786442Y-94133891D01*
X140761132Y-94171769D01*
X140761131Y-94171770D01*
X140749500Y-94230247D01*
X140749500Y-95169752D01*
X140761131Y-95228229D01*
X140761132Y-95228230D01*
X140786442Y-95266109D01*
X140807320Y-95332787D01*
X140788835Y-95400167D01*
X140786442Y-95403891D01*
X140761132Y-95441769D01*
X140761131Y-95441770D01*
X140749500Y-95500247D01*
X140749500Y-96439752D01*
X140761131Y-96498229D01*
X140761132Y-96498230D01*
X140786442Y-96536109D01*
X140807320Y-96602787D01*
X140788835Y-96670167D01*
X140786442Y-96673891D01*
X140761132Y-96711769D01*
X140761131Y-96711770D01*
X140749500Y-96770247D01*
X140749500Y-97709752D01*
X140761131Y-97768229D01*
X140761132Y-97768230D01*
X140786442Y-97806109D01*
X140807320Y-97872787D01*
X140788835Y-97940167D01*
X140786442Y-97943891D01*
X140761132Y-97981769D01*
X140761131Y-97981770D01*
X140749500Y-98040247D01*
X140749500Y-98979752D01*
X140761131Y-99038229D01*
X140761132Y-99038230D01*
X140805447Y-99104552D01*
X140871769Y-99148867D01*
X140871770Y-99148868D01*
X140930247Y-99160499D01*
X140930250Y-99160500D01*
X140930252Y-99160500D01*
X141275500Y-99160500D01*
X141342539Y-99180185D01*
X141388294Y-99232989D01*
X141399500Y-99284500D01*
X141399500Y-99839562D01*
X141413152Y-99890513D01*
X141419979Y-99915990D01*
X141419980Y-99915991D01*
X141436446Y-99944511D01*
X141459540Y-99984511D01*
X141715489Y-100240460D01*
X141784012Y-100280022D01*
X141860438Y-100300500D01*
X141993613Y-100300500D01*
X142025851Y-100304764D01*
X142131690Y-100333260D01*
X142526008Y-100439427D01*
X142532337Y-100441024D01*
X142533059Y-100441194D01*
X142535499Y-100441240D01*
X142565233Y-100445442D01*
X142584108Y-100450500D01*
X142584109Y-100450500D01*
X142715890Y-100450500D01*
X142715892Y-100450500D01*
X142843186Y-100416392D01*
X142912499Y-100376373D01*
X142980399Y-100359900D01*
X143046426Y-100382752D01*
X143089617Y-100437673D01*
X143098500Y-100483760D01*
X143098500Y-109945166D01*
X143078815Y-110012205D01*
X143062181Y-110032847D01*
X141960192Y-111134835D01*
X141911643Y-111164817D01*
X140699103Y-111568079D01*
X140694393Y-111570090D01*
X140694173Y-111569575D01*
X140666856Y-111579272D01*
X140613585Y-111589868D01*
X140613579Y-111589870D01*
X140422403Y-111669058D01*
X140250342Y-111784024D01*
X140104024Y-111930342D01*
X139989058Y-112102403D01*
X139909870Y-112293579D01*
X139909868Y-112293587D01*
X139869500Y-112496530D01*
X139869500Y-112703469D01*
X139909868Y-112906412D01*
X139909870Y-112906420D01*
X139978293Y-113071608D01*
X139989059Y-113097598D01*
X140015722Y-113137502D01*
X140104024Y-113269657D01*
X140250342Y-113415975D01*
X140250345Y-113415977D01*
X140422402Y-113530941D01*
X140613580Y-113610130D01*
X140791398Y-113645500D01*
X140816530Y-113650499D01*
X140816534Y-113650500D01*
X140816535Y-113650500D01*
X141023466Y-113650500D01*
X141023467Y-113650499D01*
X141226420Y-113610130D01*
X141417598Y-113530941D01*
X141589655Y-113415977D01*
X141735977Y-113269655D01*
X141850941Y-113097598D01*
X141930130Y-112906420D01*
X141935061Y-112881625D01*
X141940659Y-112853489D01*
X141950558Y-112826947D01*
X141949443Y-112826450D01*
X141951920Y-112820892D01*
X141951921Y-112820891D01*
X142355181Y-111608351D01*
X142385159Y-111559810D01*
X143287820Y-110657150D01*
X143349142Y-110623666D01*
X143418834Y-110628650D01*
X143474767Y-110670522D01*
X143499184Y-110735986D01*
X143499500Y-110744832D01*
X143499500Y-112084166D01*
X143479815Y-112151205D01*
X143463181Y-112171847D01*
X141960192Y-113674835D01*
X141911643Y-113704817D01*
X140699103Y-114108079D01*
X140694393Y-114110090D01*
X140694173Y-114109575D01*
X140666856Y-114119272D01*
X140613585Y-114129868D01*
X140613579Y-114129870D01*
X140422403Y-114209058D01*
X140250342Y-114324024D01*
X140104024Y-114470342D01*
X139989058Y-114642403D01*
X139909870Y-114833579D01*
X139909868Y-114833587D01*
X139869500Y-115036530D01*
X139869500Y-115243469D01*
X139909868Y-115446412D01*
X139909870Y-115446420D01*
X139989058Y-115637596D01*
X140104024Y-115809657D01*
X140250342Y-115955975D01*
X140250345Y-115955977D01*
X140422402Y-116070941D01*
X140613580Y-116150130D01*
X140816530Y-116190499D01*
X140816534Y-116190500D01*
X140816535Y-116190500D01*
X141023466Y-116190500D01*
X141023467Y-116190499D01*
X141226420Y-116150130D01*
X141417598Y-116070941D01*
X141589655Y-115955977D01*
X141735977Y-115809655D01*
X141850941Y-115637598D01*
X141930130Y-115446420D01*
X141935751Y-115418162D01*
X141940659Y-115393489D01*
X141950558Y-115366947D01*
X141949443Y-115366450D01*
X141951920Y-115360892D01*
X141951921Y-115360891D01*
X142355181Y-114148351D01*
X142385159Y-114099810D01*
X143887821Y-112597149D01*
X143949142Y-112563666D01*
X144018834Y-112568650D01*
X144074767Y-112610522D01*
X144099184Y-112675986D01*
X144099500Y-112684832D01*
X144099500Y-114024166D01*
X144079815Y-114091205D01*
X144063181Y-114111847D01*
X141960192Y-116214835D01*
X141911643Y-116244817D01*
X140699103Y-116648079D01*
X140694393Y-116650090D01*
X140694173Y-116649575D01*
X140666856Y-116659272D01*
X140613585Y-116669868D01*
X140613579Y-116669870D01*
X140422403Y-116749058D01*
X140250342Y-116864024D01*
X140104024Y-117010342D01*
X139989058Y-117182403D01*
X139909870Y-117373579D01*
X139909868Y-117373587D01*
X139869500Y-117576530D01*
X139869500Y-117783469D01*
X139899341Y-117933489D01*
X139909870Y-117986420D01*
X139989059Y-118177598D01*
X139996811Y-118189200D01*
X140104024Y-118349657D01*
X140250342Y-118495975D01*
X140250345Y-118495977D01*
X140422402Y-118610941D01*
X140613580Y-118690130D01*
X140816530Y-118730499D01*
X140816534Y-118730500D01*
X140816535Y-118730500D01*
X141023466Y-118730500D01*
X141023467Y-118730499D01*
X141226420Y-118690130D01*
X141417598Y-118610941D01*
X141589655Y-118495977D01*
X141735977Y-118349655D01*
X141850941Y-118177598D01*
X141930130Y-117986420D01*
X141935061Y-117961625D01*
X141940659Y-117933489D01*
X141950558Y-117906947D01*
X141949443Y-117906450D01*
X141951920Y-117900892D01*
X141951921Y-117900891D01*
X142355181Y-116688351D01*
X142385159Y-116639810D01*
X144387820Y-114637149D01*
X144449142Y-114603666D01*
X144518834Y-114608650D01*
X144574767Y-114650522D01*
X144599184Y-114715986D01*
X144599500Y-114724832D01*
X144599500Y-116064166D01*
X144579815Y-116131205D01*
X144563181Y-116151847D01*
X141960192Y-118754835D01*
X141911643Y-118784817D01*
X140699103Y-119188079D01*
X140694393Y-119190090D01*
X140694173Y-119189575D01*
X140666856Y-119199272D01*
X140613585Y-119209868D01*
X140613579Y-119209870D01*
X140422403Y-119289058D01*
X140250342Y-119404024D01*
X140104024Y-119550342D01*
X139989058Y-119722403D01*
X139909870Y-119913579D01*
X139909868Y-119913587D01*
X139869500Y-120116530D01*
X139869500Y-120323469D01*
X139909868Y-120526412D01*
X139909870Y-120526420D01*
X139989058Y-120717596D01*
X140104024Y-120889657D01*
X140250342Y-121035975D01*
X140250345Y-121035977D01*
X140422402Y-121150941D01*
X140613580Y-121230130D01*
X140816530Y-121270499D01*
X140816534Y-121270500D01*
X140816535Y-121270500D01*
X141023466Y-121270500D01*
X141023467Y-121270499D01*
X141226420Y-121230130D01*
X141417598Y-121150941D01*
X141589655Y-121035977D01*
X141735977Y-120889655D01*
X141850941Y-120717598D01*
X141930130Y-120526420D01*
X141937521Y-120489264D01*
X141940659Y-120473489D01*
X141950558Y-120446947D01*
X141949443Y-120446450D01*
X141951920Y-120440892D01*
X141951921Y-120440891D01*
X142355181Y-119228351D01*
X142385159Y-119179810D01*
X143651172Y-117913798D01*
X143988441Y-117576530D01*
X150029500Y-117576530D01*
X150029500Y-117783469D01*
X150059341Y-117933489D01*
X150069870Y-117986420D01*
X150149059Y-118177598D01*
X150156811Y-118189200D01*
X150264024Y-118349657D01*
X150410342Y-118495975D01*
X150410345Y-118495977D01*
X150582402Y-118610941D01*
X150773580Y-118690130D01*
X150976530Y-118730499D01*
X150976534Y-118730500D01*
X150976535Y-118730500D01*
X151183466Y-118730500D01*
X151183467Y-118730499D01*
X151386420Y-118690130D01*
X151577598Y-118610941D01*
X151749655Y-118495977D01*
X151895977Y-118349655D01*
X152010941Y-118177598D01*
X152090130Y-117986420D01*
X152130500Y-117783465D01*
X152130500Y-117576535D01*
X152090130Y-117373580D01*
X152010941Y-117182402D01*
X151895977Y-117010345D01*
X151895975Y-117010342D01*
X151749657Y-116864024D01*
X151651429Y-116798391D01*
X151577598Y-116749059D01*
X151569561Y-116745730D01*
X151386420Y-116669870D01*
X151386412Y-116669868D01*
X151183469Y-116629500D01*
X151183465Y-116629500D01*
X150976535Y-116629500D01*
X150976530Y-116629500D01*
X150773587Y-116669868D01*
X150773579Y-116669870D01*
X150582403Y-116749058D01*
X150410342Y-116864024D01*
X150264024Y-117010342D01*
X150149058Y-117182403D01*
X150069870Y-117373579D01*
X150069868Y-117373587D01*
X150029500Y-117576530D01*
X143988441Y-117576530D01*
X144082209Y-117482762D01*
X145140456Y-116424515D01*
X145140456Y-116424514D01*
X145140460Y-116424511D01*
X145147452Y-116412400D01*
X145180021Y-116355989D01*
X145200500Y-116279562D01*
X145200500Y-115036530D01*
X150029500Y-115036530D01*
X150029500Y-115243469D01*
X150069868Y-115446412D01*
X150069870Y-115446420D01*
X150149058Y-115637596D01*
X150264024Y-115809657D01*
X150410342Y-115955975D01*
X150410345Y-115955977D01*
X150582402Y-116070941D01*
X150773580Y-116150130D01*
X150976530Y-116190499D01*
X150976534Y-116190500D01*
X150976535Y-116190500D01*
X151183466Y-116190500D01*
X151183467Y-116190499D01*
X151386420Y-116150130D01*
X151577598Y-116070941D01*
X151749655Y-115955977D01*
X151895977Y-115809655D01*
X152010941Y-115637598D01*
X152090130Y-115446420D01*
X152130500Y-115243465D01*
X152130500Y-115036535D01*
X152090130Y-114833580D01*
X152010941Y-114642402D01*
X151895977Y-114470345D01*
X151895975Y-114470342D01*
X151749657Y-114324024D01*
X151632259Y-114245582D01*
X151577598Y-114209059D01*
X151537901Y-114192616D01*
X151386420Y-114129870D01*
X151386412Y-114129868D01*
X151183469Y-114089500D01*
X151183465Y-114089500D01*
X150976535Y-114089500D01*
X150976530Y-114089500D01*
X150773587Y-114129868D01*
X150773579Y-114129870D01*
X150582403Y-114209058D01*
X150410342Y-114324024D01*
X150264024Y-114470342D01*
X150149058Y-114642403D01*
X150069870Y-114833579D01*
X150069868Y-114833587D01*
X150029500Y-115036530D01*
X145200500Y-115036530D01*
X145200500Y-112496530D01*
X150029500Y-112496530D01*
X150029500Y-112703469D01*
X150069868Y-112906412D01*
X150069870Y-112906420D01*
X150138293Y-113071608D01*
X150149059Y-113097598D01*
X150175722Y-113137502D01*
X150264024Y-113269657D01*
X150410342Y-113415975D01*
X150410345Y-113415977D01*
X150582402Y-113530941D01*
X150773580Y-113610130D01*
X150951398Y-113645500D01*
X150976530Y-113650499D01*
X150976534Y-113650500D01*
X150976535Y-113650500D01*
X151183466Y-113650500D01*
X151183467Y-113650499D01*
X151386420Y-113610130D01*
X151577598Y-113530941D01*
X151749655Y-113415977D01*
X151895977Y-113269655D01*
X152010941Y-113097598D01*
X152090130Y-112906420D01*
X152130500Y-112703465D01*
X152130500Y-112496535D01*
X152090130Y-112293580D01*
X152010941Y-112102402D01*
X151895977Y-111930345D01*
X151895975Y-111930342D01*
X151749657Y-111784024D01*
X151663626Y-111726541D01*
X151577598Y-111669059D01*
X151524594Y-111647104D01*
X151386420Y-111589870D01*
X151386412Y-111589868D01*
X151183469Y-111549500D01*
X151183465Y-111549500D01*
X150976535Y-111549500D01*
X150976530Y-111549500D01*
X150773587Y-111589868D01*
X150773579Y-111589870D01*
X150582403Y-111669058D01*
X150410342Y-111784024D01*
X150264024Y-111930342D01*
X150149058Y-112102403D01*
X150069870Y-112293579D01*
X150069868Y-112293587D01*
X150029500Y-112496530D01*
X145200500Y-112496530D01*
X145200500Y-109956530D01*
X150029500Y-109956530D01*
X150029500Y-110163469D01*
X150069868Y-110366412D01*
X150069870Y-110366420D01*
X150133696Y-110520510D01*
X150149059Y-110557598D01*
X150180525Y-110604691D01*
X150264024Y-110729657D01*
X150410342Y-110875975D01*
X150410345Y-110875977D01*
X150582402Y-110990941D01*
X150773580Y-111070130D01*
X150937950Y-111102825D01*
X150976530Y-111110499D01*
X150976534Y-111110500D01*
X150976535Y-111110500D01*
X151183466Y-111110500D01*
X151183467Y-111110499D01*
X151386420Y-111070130D01*
X151577598Y-110990941D01*
X151749655Y-110875977D01*
X151895977Y-110729655D01*
X152010941Y-110557598D01*
X152090130Y-110366420D01*
X152130500Y-110163465D01*
X152130500Y-109956535D01*
X152090130Y-109753580D01*
X152010941Y-109562402D01*
X151895977Y-109390345D01*
X151895975Y-109390342D01*
X151749657Y-109244024D01*
X151605426Y-109147653D01*
X151577598Y-109129059D01*
X151565657Y-109124113D01*
X151386420Y-109049870D01*
X151386412Y-109049868D01*
X151183469Y-109009500D01*
X151183465Y-109009500D01*
X150976535Y-109009500D01*
X150976530Y-109009500D01*
X150773587Y-109049868D01*
X150773579Y-109049870D01*
X150582403Y-109129058D01*
X150410342Y-109244024D01*
X150264024Y-109390342D01*
X150149058Y-109562403D01*
X150069870Y-109753579D01*
X150069868Y-109753587D01*
X150029500Y-109956530D01*
X145200500Y-109956530D01*
X145200500Y-107416530D01*
X150029500Y-107416530D01*
X150029500Y-107623469D01*
X150069868Y-107826412D01*
X150069870Y-107826420D01*
X150149058Y-108017596D01*
X150264024Y-108189657D01*
X150410342Y-108335975D01*
X150410345Y-108335977D01*
X150582402Y-108450941D01*
X150773580Y-108530130D01*
X150974016Y-108569999D01*
X150976530Y-108570499D01*
X150976534Y-108570500D01*
X150976535Y-108570500D01*
X151183466Y-108570500D01*
X151183467Y-108570499D01*
X151386420Y-108530130D01*
X151577598Y-108450941D01*
X151749655Y-108335977D01*
X151895977Y-108189655D01*
X152010941Y-108017598D01*
X152090130Y-107826420D01*
X152130500Y-107623465D01*
X152130500Y-107416535D01*
X152090130Y-107213580D01*
X152010941Y-107022402D01*
X151895977Y-106850345D01*
X151895975Y-106850342D01*
X151749657Y-106704024D01*
X151663626Y-106646541D01*
X151577598Y-106589059D01*
X151420537Y-106524002D01*
X151386420Y-106509870D01*
X151386412Y-106509868D01*
X151183469Y-106469500D01*
X151183465Y-106469500D01*
X150976535Y-106469500D01*
X150976530Y-106469500D01*
X150773587Y-106509868D01*
X150773579Y-106509870D01*
X150582403Y-106589058D01*
X150410342Y-106704024D01*
X150264024Y-106850342D01*
X150149058Y-107022403D01*
X150069870Y-107213579D01*
X150069868Y-107213587D01*
X150029500Y-107416530D01*
X145200500Y-107416530D01*
X145200500Y-97746530D01*
X147249500Y-97746530D01*
X147249500Y-97953469D01*
X147289868Y-98156412D01*
X147289870Y-98156420D01*
X147369058Y-98347596D01*
X147484024Y-98519657D01*
X147630342Y-98665975D01*
X147630345Y-98665977D01*
X147802402Y-98780941D01*
X147993580Y-98860130D01*
X148196530Y-98900499D01*
X148196534Y-98900500D01*
X148196535Y-98900500D01*
X148403466Y-98900500D01*
X148403467Y-98900499D01*
X148606420Y-98860130D01*
X148797598Y-98780941D01*
X148969655Y-98665977D01*
X149115977Y-98519655D01*
X149230941Y-98347598D01*
X149310130Y-98156420D01*
X149350500Y-97953465D01*
X149350500Y-97746535D01*
X149310130Y-97543580D01*
X149230941Y-97352402D01*
X149115977Y-97180345D01*
X149115975Y-97180342D01*
X148969657Y-97034024D01*
X148858841Y-96959980D01*
X148797598Y-96919059D01*
X148784467Y-96913620D01*
X148606420Y-96839870D01*
X148606412Y-96839868D01*
X148403469Y-96799500D01*
X148403465Y-96799500D01*
X148196535Y-96799500D01*
X148196530Y-96799500D01*
X147993587Y-96839868D01*
X147993579Y-96839870D01*
X147802403Y-96919058D01*
X147630342Y-97034024D01*
X147484024Y-97180342D01*
X147369058Y-97352403D01*
X147289870Y-97543579D01*
X147289868Y-97543587D01*
X147249500Y-97746530D01*
X145200500Y-97746530D01*
X145200500Y-95206530D01*
X147249500Y-95206530D01*
X147249500Y-95413469D01*
X147289868Y-95616412D01*
X147289870Y-95616420D01*
X147369058Y-95807596D01*
X147484024Y-95979657D01*
X147630342Y-96125975D01*
X147630345Y-96125977D01*
X147802402Y-96240941D01*
X147993580Y-96320130D01*
X148196530Y-96360499D01*
X148196534Y-96360500D01*
X148196535Y-96360500D01*
X148403466Y-96360500D01*
X148403467Y-96360499D01*
X148606420Y-96320130D01*
X148797598Y-96240941D01*
X148969655Y-96125977D01*
X149115977Y-95979655D01*
X149230941Y-95807598D01*
X149310130Y-95616420D01*
X149350500Y-95413465D01*
X149350500Y-95206535D01*
X149310130Y-95003580D01*
X149230941Y-94812402D01*
X149115977Y-94640345D01*
X149115975Y-94640342D01*
X148969657Y-94494024D01*
X148858844Y-94419982D01*
X148797598Y-94379059D01*
X148778400Y-94371107D01*
X148606420Y-94299870D01*
X148606412Y-94299868D01*
X148403469Y-94259500D01*
X148403465Y-94259500D01*
X148196535Y-94259500D01*
X148196530Y-94259500D01*
X147993587Y-94299868D01*
X147993579Y-94299870D01*
X147802403Y-94379058D01*
X147630342Y-94494024D01*
X147484024Y-94640342D01*
X147369058Y-94812403D01*
X147289870Y-95003579D01*
X147289868Y-95003587D01*
X147249500Y-95206530D01*
X145200500Y-95206530D01*
X145200500Y-94360438D01*
X145180021Y-94284011D01*
X145165870Y-94259500D01*
X145140464Y-94215495D01*
X145140458Y-94215487D01*
X142844513Y-91919542D01*
X142844511Y-91919540D01*
X142821738Y-91906392D01*
X142811181Y-91900297D01*
X147250000Y-91900297D01*
X147250000Y-92420000D01*
X147942894Y-92420000D01*
X147899901Y-92462993D01*
X147834075Y-92577007D01*
X147800000Y-92704174D01*
X147800000Y-92835826D01*
X147834075Y-92962993D01*
X147899901Y-93077007D01*
X147942894Y-93120000D01*
X147250000Y-93120000D01*
X147250000Y-93639702D01*
X147261602Y-93698033D01*
X147261603Y-93698034D01*
X147305808Y-93764191D01*
X147371965Y-93808396D01*
X147371966Y-93808397D01*
X147430297Y-93819999D01*
X147430301Y-93820000D01*
X147950000Y-93820000D01*
X147950000Y-93127106D01*
X147992993Y-93170099D01*
X148107007Y-93235925D01*
X148234174Y-93270000D01*
X148365826Y-93270000D01*
X148492993Y-93235925D01*
X148607007Y-93170099D01*
X148650000Y-93127106D01*
X148650000Y-93820000D01*
X149169699Y-93820000D01*
X149169702Y-93819999D01*
X149228033Y-93808397D01*
X149228034Y-93808396D01*
X149294191Y-93764191D01*
X149338396Y-93698034D01*
X149338397Y-93698033D01*
X149349999Y-93639702D01*
X149350000Y-93639699D01*
X149350000Y-93120000D01*
X148657106Y-93120000D01*
X148700099Y-93077007D01*
X148765925Y-92962993D01*
X148800000Y-92835826D01*
X148800000Y-92704174D01*
X148765925Y-92577007D01*
X148700099Y-92462993D01*
X148657106Y-92420000D01*
X149350000Y-92420000D01*
X149350000Y-91900301D01*
X149349999Y-91900297D01*
X149338397Y-91841966D01*
X149338396Y-91841965D01*
X149294191Y-91775808D01*
X149228034Y-91731603D01*
X149228033Y-91731602D01*
X149169702Y-91720000D01*
X148650000Y-91720000D01*
X148650000Y-92412894D01*
X148607007Y-92369901D01*
X148492993Y-92304075D01*
X148365826Y-92270000D01*
X148234174Y-92270000D01*
X148107007Y-92304075D01*
X147992993Y-92369901D01*
X147950000Y-92412894D01*
X147950000Y-91720000D01*
X147430297Y-91720000D01*
X147371966Y-91731602D01*
X147371965Y-91731603D01*
X147305808Y-91775808D01*
X147261603Y-91841965D01*
X147261602Y-91841966D01*
X147250000Y-91900297D01*
X142811181Y-91900297D01*
X142775989Y-91879979D01*
X142772976Y-91879171D01*
X142742404Y-91870979D01*
X142682744Y-91834613D01*
X142654365Y-91781924D01*
X142650500Y-91766808D01*
X142650500Y-91690252D01*
X142638867Y-91631769D01*
X142601776Y-91576259D01*
X142596524Y-91555719D01*
X142597038Y-91541136D01*
X142592679Y-91527215D01*
X142598245Y-91506924D01*
X142598987Y-91485892D01*
X142607303Y-91473902D01*
X142611163Y-91459835D01*
X142613558Y-91456108D01*
X142638867Y-91418231D01*
X142638868Y-91418229D01*
X142650499Y-91359752D01*
X142650500Y-91359750D01*
X142650500Y-90420249D01*
X142650499Y-90420247D01*
X142638868Y-90361770D01*
X142638867Y-90361768D01*
X142613558Y-90323892D01*
X142592679Y-90257215D01*
X142611163Y-90189835D01*
X142613558Y-90186108D01*
X142638867Y-90148231D01*
X142638868Y-90148229D01*
X142650499Y-90089752D01*
X142650500Y-90089750D01*
X142650500Y-89150249D01*
X142650499Y-89150247D01*
X142638868Y-89091770D01*
X142638867Y-89091768D01*
X142613558Y-89053892D01*
X142592679Y-88987215D01*
X142611163Y-88919835D01*
X142613558Y-88916108D01*
X142638867Y-88878231D01*
X142638868Y-88878229D01*
X142650499Y-88819752D01*
X142650500Y-88819750D01*
X142650500Y-87880249D01*
X142650499Y-87880247D01*
X142638868Y-87821770D01*
X142638867Y-87821768D01*
X142613558Y-87783892D01*
X142592679Y-87717215D01*
X142597091Y-87682145D01*
X142602408Y-87662794D01*
X142638867Y-87608231D01*
X142650500Y-87549748D01*
X142650500Y-87487774D01*
X142654932Y-87471645D01*
X142664864Y-87455580D01*
X142670185Y-87437461D01*
X142682855Y-87426482D01*
X142691675Y-87412217D01*
X142708718Y-87404071D01*
X142722989Y-87391706D01*
X142744287Y-87387072D01*
X142754715Y-87382089D01*
X142762617Y-87383084D01*
X142774500Y-87380500D01*
X146364167Y-87380500D01*
X146431206Y-87400185D01*
X146451848Y-87416819D01*
X146784836Y-87749807D01*
X146814818Y-87798356D01*
X147218077Y-89010889D01*
X147220085Y-89015592D01*
X147219570Y-89015811D01*
X147229271Y-89043138D01*
X147239868Y-89096414D01*
X147239870Y-89096420D01*
X147319058Y-89287596D01*
X147434024Y-89459657D01*
X147580342Y-89605975D01*
X147580345Y-89605977D01*
X147752402Y-89720941D01*
X147943580Y-89800130D01*
X148146530Y-89840499D01*
X148146534Y-89840500D01*
X148146535Y-89840500D01*
X148353466Y-89840500D01*
X148353467Y-89840499D01*
X148556420Y-89800130D01*
X148747598Y-89720941D01*
X148919655Y-89605977D01*
X149065977Y-89459655D01*
X149180941Y-89287598D01*
X149260130Y-89096420D01*
X149300500Y-88893465D01*
X149300500Y-88686535D01*
X149260130Y-88483580D01*
X149180941Y-88292402D01*
X149065977Y-88120345D01*
X149065975Y-88120342D01*
X148919657Y-87974024D01*
X148833626Y-87916541D01*
X148747598Y-87859059D01*
X148566127Y-87783891D01*
X148556420Y-87779870D01*
X148556412Y-87779868D01*
X148503494Y-87769342D01*
X148476957Y-87759449D01*
X148476462Y-87760561D01*
X148470888Y-87758077D01*
X147258356Y-87354818D01*
X147209807Y-87324836D01*
X146847322Y-86962351D01*
X146813837Y-86901028D01*
X146818821Y-86831336D01*
X146860693Y-86775403D01*
X146926157Y-86750986D01*
X146994100Y-86765658D01*
X147670456Y-87132329D01*
X147673221Y-87133256D01*
X147702675Y-87147714D01*
X147752402Y-87180941D01*
X147943580Y-87260130D01*
X148146530Y-87300499D01*
X148146534Y-87300500D01*
X148146535Y-87300500D01*
X148353466Y-87300500D01*
X148353467Y-87300499D01*
X148556420Y-87260130D01*
X148747598Y-87180941D01*
X148919655Y-87065977D01*
X149065977Y-86919655D01*
X149180941Y-86747598D01*
X149260130Y-86556420D01*
X149300500Y-86353465D01*
X149300500Y-86146535D01*
X149260130Y-85943580D01*
X149180941Y-85752402D01*
X149065977Y-85580345D01*
X149065975Y-85580342D01*
X148919657Y-85434024D01*
X148805812Y-85357956D01*
X148747598Y-85319059D01*
X148691989Y-85296025D01*
X148556420Y-85239870D01*
X148556412Y-85239868D01*
X148353469Y-85199500D01*
X148353465Y-85199500D01*
X148146535Y-85199500D01*
X148146530Y-85199500D01*
X147943587Y-85239868D01*
X147943579Y-85239870D01*
X147752403Y-85319058D01*
X147711103Y-85346653D01*
X147688338Y-85357956D01*
X147688425Y-85358145D01*
X147682892Y-85360687D01*
X147682891Y-85360688D01*
X146589517Y-85863181D01*
X146535141Y-85888171D01*
X146483360Y-85899500D01*
X144975833Y-85899500D01*
X144908794Y-85879815D01*
X144888152Y-85863181D01*
X144594512Y-85569541D01*
X144594504Y-85569535D01*
X144525995Y-85529982D01*
X144525990Y-85529979D01*
X144500513Y-85523152D01*
X144449562Y-85509500D01*
X144449560Y-85509500D01*
X142774500Y-85509500D01*
X142707461Y-85489815D01*
X142661706Y-85437011D01*
X142654932Y-85418355D01*
X142650500Y-85402225D01*
X142650500Y-85340252D01*
X142638867Y-85281769D01*
X142602408Y-85227205D01*
X142597091Y-85207855D01*
X142597364Y-85192177D01*
X142592679Y-85177215D01*
X142597960Y-85157960D01*
X142598309Y-85137996D01*
X142607015Y-85124954D01*
X142611163Y-85109835D01*
X142613558Y-85106108D01*
X142638867Y-85068231D01*
X142638868Y-85068229D01*
X142650499Y-85009752D01*
X142650500Y-85009750D01*
X142650500Y-84070249D01*
X142650499Y-84070247D01*
X142638868Y-84011770D01*
X142638867Y-84011768D01*
X142613558Y-83973892D01*
X142592679Y-83907215D01*
X142611163Y-83839835D01*
X142613558Y-83836108D01*
X142638867Y-83798231D01*
X142638868Y-83798229D01*
X142650499Y-83739752D01*
X142650500Y-83739750D01*
X142650500Y-83606530D01*
X147199500Y-83606530D01*
X147199500Y-83813469D01*
X147239868Y-84016412D01*
X147239870Y-84016420D01*
X147318706Y-84206747D01*
X147319059Y-84207598D01*
X147340375Y-84239500D01*
X147434024Y-84379657D01*
X147580342Y-84525975D01*
X147580345Y-84525977D01*
X147752402Y-84640941D01*
X147943580Y-84720130D01*
X148142508Y-84759699D01*
X148146530Y-84760499D01*
X148146534Y-84760500D01*
X148146535Y-84760500D01*
X148353466Y-84760500D01*
X148353467Y-84760499D01*
X148556420Y-84720130D01*
X148747598Y-84640941D01*
X148919655Y-84525977D01*
X149065977Y-84379655D01*
X149180941Y-84207598D01*
X149260130Y-84016420D01*
X149300500Y-83813465D01*
X149300500Y-83606535D01*
X149260130Y-83403580D01*
X149180941Y-83212402D01*
X149065977Y-83040345D01*
X149065975Y-83040342D01*
X148919657Y-82894024D01*
X148779383Y-82800297D01*
X148747598Y-82779059D01*
X148658043Y-82741964D01*
X148556420Y-82699870D01*
X148556412Y-82699868D01*
X148353469Y-82659500D01*
X148353465Y-82659500D01*
X148146535Y-82659500D01*
X148146530Y-82659500D01*
X147943587Y-82699868D01*
X147943579Y-82699870D01*
X147752403Y-82779058D01*
X147580342Y-82894024D01*
X147434024Y-83040342D01*
X147319058Y-83212403D01*
X147239870Y-83403579D01*
X147239868Y-83403587D01*
X147199500Y-83606530D01*
X142650500Y-83606530D01*
X142650500Y-82800249D01*
X142650499Y-82800247D01*
X142638868Y-82741770D01*
X142638867Y-82741768D01*
X142613558Y-82703892D01*
X142592679Y-82637215D01*
X142597091Y-82602145D01*
X142602408Y-82582794D01*
X142638867Y-82528231D01*
X142650500Y-82469748D01*
X142650500Y-82407774D01*
X142654932Y-82391645D01*
X142664864Y-82375580D01*
X142670185Y-82357461D01*
X142682855Y-82346482D01*
X142691675Y-82332217D01*
X142708718Y-82324071D01*
X142722989Y-82311706D01*
X142744287Y-82307072D01*
X142754715Y-82302089D01*
X142762617Y-82303084D01*
X142774500Y-82300500D01*
X142834202Y-82300500D01*
X142884874Y-82311326D01*
X143250356Y-82474971D01*
X143251248Y-82475215D01*
X143252523Y-82475747D01*
X143254843Y-82476579D01*
X143254800Y-82476698D01*
X143280498Y-82487424D01*
X143280717Y-82487551D01*
X143316811Y-82508391D01*
X143316813Y-82508391D01*
X143316814Y-82508392D01*
X143444108Y-82542500D01*
X143444110Y-82542500D01*
X143575890Y-82542500D01*
X143575892Y-82542500D01*
X143703186Y-82508392D01*
X143817314Y-82442500D01*
X143910500Y-82349314D01*
X143976392Y-82235186D01*
X144010500Y-82107892D01*
X144010500Y-81976108D01*
X143976392Y-81848814D01*
X143910500Y-81734686D01*
X143817314Y-81641500D01*
X143765867Y-81611797D01*
X143703909Y-81576025D01*
X143703908Y-81576024D01*
X143703907Y-81576024D01*
X143703188Y-81575608D01*
X143611160Y-81550950D01*
X143575892Y-81541500D01*
X143444108Y-81541500D01*
X143444105Y-81541500D01*
X143416935Y-81548780D01*
X143394833Y-81552601D01*
X143383141Y-81553545D01*
X143383136Y-81553546D01*
X142886154Y-81694777D01*
X142852258Y-81699500D01*
X142774500Y-81699500D01*
X142707461Y-81679815D01*
X142661706Y-81627011D01*
X142650500Y-81575500D01*
X142650500Y-81530249D01*
X142650499Y-81530247D01*
X142638868Y-81471770D01*
X142638867Y-81471769D01*
X142594552Y-81405447D01*
X142528230Y-81361132D01*
X142528229Y-81361131D01*
X142469752Y-81349500D01*
X142469748Y-81349500D01*
X140930252Y-81349500D01*
X140930247Y-81349500D01*
X140871770Y-81361131D01*
X140871769Y-81361132D01*
X140805447Y-81405447D01*
X140761132Y-81471769D01*
X140749151Y-81532000D01*
X140716765Y-81593910D01*
X140656049Y-81628484D01*
X140593638Y-81627084D01*
X140334880Y-81553551D01*
X140327845Y-81551695D01*
X140327330Y-81551559D01*
X140327314Y-81551555D01*
X140326457Y-81551346D01*
X140326452Y-81551345D01*
X140324028Y-81551290D01*
X140294792Y-81547099D01*
X140273895Y-81541500D01*
X140273892Y-81541500D01*
X140142108Y-81541500D01*
X140014812Y-81575608D01*
X139900686Y-81641500D01*
X139900683Y-81641502D01*
X139807502Y-81734683D01*
X139807500Y-81734686D01*
X139741608Y-81848812D01*
X139707500Y-81976108D01*
X126484500Y-81976108D01*
X126450392Y-81848814D01*
X126384500Y-81734686D01*
X126291314Y-81641500D01*
X126234250Y-81608554D01*
X126177187Y-81575608D01*
X126094867Y-81553551D01*
X126049892Y-81541500D01*
X125918108Y-81541500D01*
X125918105Y-81541500D01*
X125890935Y-81548780D01*
X125868833Y-81552601D01*
X125857141Y-81553545D01*
X125857136Y-81553546D01*
X125360154Y-81694777D01*
X125326258Y-81699500D01*
X125274500Y-81699500D01*
X125207461Y-81679815D01*
X125161706Y-81627011D01*
X125150500Y-81575500D01*
X125150500Y-81530249D01*
X125150499Y-81530247D01*
X125138868Y-81471770D01*
X125138867Y-81471769D01*
X125094552Y-81405447D01*
X125028230Y-81361132D01*
X125028229Y-81361131D01*
X124969752Y-81349500D01*
X124969748Y-81349500D01*
X123430252Y-81349500D01*
X123430247Y-81349500D01*
X123371770Y-81361131D01*
X123371769Y-81361132D01*
X123305447Y-81405447D01*
X123261132Y-81471769D01*
X123261131Y-81471770D01*
X123249500Y-81530247D01*
X123249500Y-81838000D01*
X123229815Y-81905039D01*
X123177011Y-81950794D01*
X123125500Y-81962000D01*
X122315751Y-81962000D01*
X122249541Y-81942844D01*
X121621672Y-81546340D01*
X121621669Y-81546338D01*
X121614123Y-81541573D01*
X121587882Y-81522207D01*
X121559321Y-81512213D01*
X121550587Y-81508280D01*
X121550572Y-81508272D01*
X121535935Y-81501681D01*
X121535924Y-81501678D01*
X121529725Y-81499875D01*
X121529500Y-81499836D01*
X121528674Y-81499693D01*
X121526537Y-81499139D01*
X121526346Y-81499095D01*
X121526347Y-81499089D01*
X121508834Y-81494546D01*
X121459699Y-81477354D01*
X121459698Y-81477353D01*
X121459696Y-81477353D01*
X121429270Y-81474500D01*
X121429266Y-81474500D01*
X120370734Y-81474500D01*
X120370730Y-81474500D01*
X120340300Y-81477353D01*
X120340298Y-81477353D01*
X120212119Y-81522206D01*
X120212117Y-81522207D01*
X120102850Y-81602850D01*
X120022207Y-81712117D01*
X120022206Y-81712119D01*
X119977353Y-81840298D01*
X119977353Y-81840300D01*
X119974500Y-81870730D01*
X114857664Y-81870730D01*
X115059549Y-81621422D01*
X115068216Y-81611797D01*
X115329797Y-81350216D01*
X115339422Y-81341549D01*
X115626925Y-81108734D01*
X115637406Y-81101119D01*
X115947666Y-80899634D01*
X115958864Y-80893168D01*
X116288503Y-80725209D01*
X116300325Y-80719945D01*
X116645696Y-80587370D01*
X116658018Y-80583366D01*
X117015355Y-80487617D01*
X117028030Y-80484924D01*
X117393394Y-80427056D01*
X117406298Y-80425700D01*
X117778956Y-80406169D01*
X117785446Y-80406000D01*
X120815900Y-80406000D01*
X120882939Y-80425685D01*
G37*
%TD.AperFunction*%
%TD*%
%TA.AperFunction,Conductor*%
%TO.N,Net-(J3-Pin_1)*%
G36*
X118728261Y-106415854D02*
G01*
X122265217Y-108400000D01*
X122742563Y-108667779D01*
X122791400Y-108717746D01*
X122805468Y-108765627D01*
X122875432Y-109605202D01*
X122861382Y-109673645D01*
X122812561Y-109723627D01*
X122751860Y-109739500D01*
X120970143Y-109739500D01*
X120970117Y-109739502D01*
X120945012Y-109742413D01*
X120945008Y-109742415D01*
X120842235Y-109787793D01*
X120793203Y-109836825D01*
X120731880Y-109870309D01*
X120662188Y-109865324D01*
X120631126Y-109848345D01*
X118700000Y-108400000D01*
X118699999Y-108400000D01*
X116724000Y-108400000D01*
X116656961Y-108380315D01*
X116611206Y-108327511D01*
X116600000Y-108276000D01*
X116600000Y-106524000D01*
X116619685Y-106456961D01*
X116672489Y-106411206D01*
X116724000Y-106400000D01*
X118667594Y-106400000D01*
X118728261Y-106415854D01*
G37*
%TD.AperFunction*%
%TD*%
%TA.AperFunction,Conductor*%
%TO.N,GND*%
G36*
X148583342Y-132404759D02*
G01*
X148629348Y-132457344D01*
X148640800Y-132509392D01*
X148640800Y-139677600D01*
X148621115Y-139744639D01*
X148568311Y-139790394D01*
X148516800Y-139801600D01*
X138096800Y-139801600D01*
X138029761Y-139781915D01*
X137984006Y-139729111D01*
X137972800Y-139677600D01*
X137972800Y-138198999D01*
X141341973Y-138198999D01*
X141341974Y-138199000D01*
X144752026Y-138199000D01*
X144752026Y-138198999D01*
X143047000Y-136493974D01*
X141341973Y-138198999D01*
X137972800Y-138198999D01*
X137972800Y-134554069D01*
X140347000Y-134554069D01*
X140347000Y-137443930D01*
X140362122Y-137578141D01*
X140421663Y-137748301D01*
X140517577Y-137900948D01*
X140583827Y-137967198D01*
X142552026Y-135999000D01*
X142552026Y-135998999D01*
X143541974Y-135998999D01*
X143541974Y-135999001D01*
X145510171Y-137967198D01*
X145510173Y-137967198D01*
X145576420Y-137900951D01*
X145672336Y-137748301D01*
X145731877Y-137578141D01*
X145746999Y-137443930D01*
X145747000Y-137443930D01*
X145747000Y-134554070D01*
X145746999Y-134554069D01*
X145731877Y-134419858D01*
X145672336Y-134249698D01*
X145576422Y-134097051D01*
X145510172Y-134030801D01*
X145510171Y-134030801D01*
X143541974Y-135998999D01*
X142552026Y-135998999D01*
X140583827Y-134030801D01*
X140517577Y-134097051D01*
X140421663Y-134249698D01*
X140362122Y-134419858D01*
X140347000Y-134554069D01*
X137972800Y-134554069D01*
X137972800Y-133799000D01*
X141341973Y-133799000D01*
X143047000Y-135504026D01*
X144752026Y-133799000D01*
X141341973Y-133799000D01*
X137972800Y-133799000D01*
X137972800Y-132559011D01*
X137992485Y-132491972D01*
X138045289Y-132446217D01*
X138096208Y-132435012D01*
X148516210Y-132385393D01*
X148583342Y-132404759D01*
G37*
%TD.AperFunction*%
%TD*%
%TA.AperFunction,Conductor*%
%TO.N,Net-(J3-Pin_2)*%
G36*
X118501037Y-108919724D02*
G01*
X118543965Y-108952758D01*
X119390347Y-109968417D01*
X120500000Y-111300000D01*
X120723638Y-111300000D01*
X120790677Y-111319685D01*
X120811319Y-111336319D01*
X120815000Y-111340000D01*
X120984084Y-111340000D01*
X120994262Y-111340500D01*
X120995252Y-111340500D01*
X121766000Y-111340500D01*
X121833039Y-111360185D01*
X121878794Y-111412989D01*
X121890000Y-111464500D01*
X121890000Y-111565000D01*
X121991000Y-111565000D01*
X122058039Y-111584685D01*
X122071310Y-111600000D01*
X120600000Y-111600000D01*
X120600000Y-112200000D01*
X122046890Y-112200000D01*
X122042511Y-112203794D01*
X121991000Y-112215000D01*
X121890000Y-112215000D01*
X121890000Y-112310999D01*
X121870315Y-112378038D01*
X121817511Y-112423793D01*
X121766000Y-112434999D01*
X121041916Y-112434999D01*
X120999168Y-112426696D01*
X120998945Y-112427306D01*
X120997088Y-112426624D01*
X120997077Y-112426620D01*
X120960241Y-112413109D01*
X120955770Y-112411788D01*
X120929786Y-112404110D01*
X120916648Y-112400544D01*
X120860604Y-112397290D01*
X120804563Y-112394037D01*
X120804562Y-112394037D01*
X120804560Y-112394037D01*
X120735267Y-112402871D01*
X120735246Y-112402875D01*
X120651448Y-112426032D01*
X120651445Y-112426033D01*
X120506145Y-112489603D01*
X120456443Y-112500000D01*
X117761277Y-112500000D01*
X117694238Y-112480315D01*
X117662777Y-112451324D01*
X117641724Y-112423793D01*
X116422903Y-110829951D01*
X116397819Y-110764744D01*
X116397653Y-110762455D01*
X116366308Y-110260930D01*
X116381773Y-110192794D01*
X116431620Y-110143834D01*
X116500024Y-110129596D01*
X116565266Y-110154600D01*
X116604628Y-110205744D01*
X116651389Y-110318636D01*
X117100000Y-109870025D01*
X117100000Y-109930826D01*
X117134075Y-110057993D01*
X117199901Y-110172007D01*
X117292993Y-110265099D01*
X117407007Y-110330925D01*
X117534174Y-110365000D01*
X117594974Y-110365000D01*
X117146362Y-110813609D01*
X117293725Y-110874649D01*
X117293733Y-110874651D01*
X117496579Y-110914999D01*
X117496583Y-110915000D01*
X117703417Y-110915000D01*
X117703420Y-110914999D01*
X117906266Y-110874651D01*
X117906274Y-110874649D01*
X118053636Y-110813609D01*
X117605027Y-110365000D01*
X117665826Y-110365000D01*
X117792993Y-110330925D01*
X117907007Y-110265099D01*
X118000099Y-110172007D01*
X118065925Y-110057993D01*
X118100000Y-109930826D01*
X118100000Y-109870027D01*
X118548609Y-110318636D01*
X118609649Y-110171274D01*
X118609651Y-110171266D01*
X118649999Y-109968420D01*
X118650000Y-109968417D01*
X118650000Y-109761583D01*
X118649999Y-109761579D01*
X118609651Y-109558733D01*
X118609649Y-109558725D01*
X118548609Y-109411362D01*
X118100000Y-109859972D01*
X118100000Y-109799174D01*
X118065925Y-109672007D01*
X118000099Y-109557993D01*
X117907007Y-109464901D01*
X117792993Y-109399075D01*
X117665826Y-109365000D01*
X117605026Y-109365000D01*
X118002135Y-108967890D01*
X118431956Y-108909278D01*
X118501037Y-108919724D01*
G37*
%TD.AperFunction*%
%TD*%
%TA.AperFunction,Conductor*%
%TO.N,GND*%
G36*
X130249242Y-131083685D02*
G01*
X130294997Y-131136489D01*
X130306128Y-131183724D01*
X130338986Y-132136583D01*
X130400288Y-133914363D01*
X130382926Y-133982041D01*
X130331730Y-134029588D01*
X130262955Y-134041909D01*
X130198437Y-134015092D01*
X130171368Y-133984608D01*
X130082422Y-133843051D01*
X130016172Y-133776801D01*
X130016171Y-133776801D01*
X128047974Y-135744998D01*
X128047974Y-135745001D01*
X130016171Y-137713198D01*
X130016173Y-137713198D01*
X130082420Y-137646951D01*
X130178336Y-137494301D01*
X130237877Y-137324141D01*
X130252999Y-137189930D01*
X130253000Y-137189930D01*
X130253000Y-136837127D01*
X130272685Y-136770088D01*
X130325489Y-136724333D01*
X130394647Y-136714389D01*
X130458203Y-136743414D01*
X130495977Y-136802192D01*
X130500926Y-136832854D01*
X130551577Y-138301727D01*
X130534215Y-138369405D01*
X130483019Y-138416952D01*
X130427651Y-138430000D01*
X120012000Y-138430000D01*
X119944961Y-138410315D01*
X119899206Y-138357511D01*
X119888000Y-138306000D01*
X119888000Y-137944999D01*
X125847973Y-137944999D01*
X125847974Y-137945000D01*
X129258026Y-137945000D01*
X129258026Y-137944999D01*
X127553000Y-136239974D01*
X125847973Y-137944999D01*
X119888000Y-137944999D01*
X119888000Y-134300069D01*
X124853000Y-134300069D01*
X124853000Y-137189930D01*
X124868122Y-137324141D01*
X124927663Y-137494301D01*
X125023577Y-137646948D01*
X125089827Y-137713198D01*
X127058026Y-135745000D01*
X127058026Y-135744999D01*
X125089827Y-133776801D01*
X125023577Y-133843051D01*
X124927663Y-133995698D01*
X124868122Y-134165858D01*
X124853000Y-134300069D01*
X119888000Y-134300069D01*
X119888000Y-133545000D01*
X125847973Y-133545000D01*
X127553000Y-135250026D01*
X129258026Y-133545000D01*
X125847973Y-133545000D01*
X119888000Y-133545000D01*
X119888000Y-132812230D01*
X119907685Y-132745191D01*
X119960489Y-132699436D01*
X120029647Y-132689492D01*
X120036192Y-132690613D01*
X120051389Y-132693636D01*
X120500000Y-132245025D01*
X120500000Y-132305826D01*
X120534075Y-132432993D01*
X120599901Y-132547007D01*
X120692993Y-132640099D01*
X120807007Y-132705925D01*
X120934174Y-132740000D01*
X120994974Y-132740000D01*
X120546362Y-133188609D01*
X120693725Y-133249649D01*
X120693733Y-133249651D01*
X120896579Y-133289999D01*
X120896583Y-133290000D01*
X121103417Y-133290000D01*
X121103420Y-133289999D01*
X121306266Y-133249651D01*
X121306274Y-133249649D01*
X121453636Y-133188609D01*
X121005027Y-132740000D01*
X121065826Y-132740000D01*
X121192993Y-132705925D01*
X121307007Y-132640099D01*
X121400099Y-132547007D01*
X121465925Y-132432993D01*
X121500000Y-132305826D01*
X121500000Y-132245027D01*
X121948609Y-132693636D01*
X122009649Y-132546274D01*
X122009651Y-132546266D01*
X122049999Y-132343420D01*
X122050000Y-132343417D01*
X122050000Y-132136583D01*
X122049999Y-132136579D01*
X122009651Y-131933733D01*
X122009649Y-131933725D01*
X121948609Y-131786362D01*
X121500000Y-132234972D01*
X121500000Y-132174174D01*
X121465925Y-132047007D01*
X121400099Y-131932993D01*
X121307007Y-131839901D01*
X121192993Y-131774075D01*
X121065826Y-131740000D01*
X121005027Y-131740000D01*
X121453636Y-131291388D01*
X121451134Y-131278810D01*
X121426204Y-131258721D01*
X121404139Y-131192426D01*
X121421418Y-131124727D01*
X121472555Y-131077116D01*
X121528060Y-131064000D01*
X130182203Y-131064000D01*
X130249242Y-131083685D01*
G37*
%TD.AperFunction*%
%TA.AperFunction,Conductor*%
G36*
X120538978Y-131083685D02*
G01*
X120584733Y-131136489D01*
X120594677Y-131205647D01*
X120565652Y-131269203D01*
X120548284Y-131281726D01*
X120546362Y-131291389D01*
X120994974Y-131740000D01*
X120934174Y-131740000D01*
X120807007Y-131774075D01*
X120692993Y-131839901D01*
X120599901Y-131932993D01*
X120534075Y-132047007D01*
X120500000Y-132174174D01*
X120500000Y-132234973D01*
X120051389Y-131786362D01*
X120036190Y-131789386D01*
X119966599Y-131783157D01*
X119911422Y-131740294D01*
X119888178Y-131674404D01*
X119888000Y-131667768D01*
X119888000Y-131188000D01*
X119907685Y-131120961D01*
X119960489Y-131075206D01*
X120012000Y-131064000D01*
X120471939Y-131064000D01*
X120538978Y-131083685D01*
G37*
%TD.AperFunction*%
%TD*%
%TA.AperFunction,Conductor*%
%TO.N,/V_MOTOR*%
G36*
X131443039Y-107119685D02*
G01*
X131488794Y-107172489D01*
X131500000Y-107224000D01*
X131500000Y-109176000D01*
X131480315Y-109243039D01*
X131427511Y-109288794D01*
X131376000Y-109300000D01*
X130289000Y-109300000D01*
X130221961Y-109280315D01*
X130176206Y-109227511D01*
X130168892Y-109193892D01*
X130165000Y-109190000D01*
X129995916Y-109190000D01*
X129985738Y-109189500D01*
X129984748Y-109189500D01*
X129214000Y-109189500D01*
X129146961Y-109169815D01*
X129101206Y-109117011D01*
X129090000Y-109065500D01*
X129090000Y-108965000D01*
X128989000Y-108965000D01*
X128921961Y-108945315D01*
X128876206Y-108892511D01*
X128865000Y-108841000D01*
X128865000Y-108740000D01*
X129315000Y-108740000D01*
X130165000Y-108740000D01*
X130165000Y-108720301D01*
X130164999Y-108720297D01*
X130153397Y-108661966D01*
X130153396Y-108661965D01*
X130109191Y-108595808D01*
X130043034Y-108551603D01*
X130043033Y-108551602D01*
X129984702Y-108540000D01*
X129315000Y-108540000D01*
X129315000Y-108740000D01*
X128865000Y-108740000D01*
X128865000Y-108540000D01*
X128224000Y-108540000D01*
X128156961Y-108520315D01*
X128111206Y-108467511D01*
X128100000Y-108416000D01*
X128100000Y-107224000D01*
X128119685Y-107156961D01*
X128172489Y-107111206D01*
X128224000Y-107100000D01*
X131376000Y-107100000D01*
X131443039Y-107119685D01*
G37*
%TD.AperFunction*%
%TD*%
%TA.AperFunction,Conductor*%
%TO.N,Net-(J4-Pin_2)*%
G36*
X120873678Y-112706089D02*
G01*
X120945009Y-112737585D01*
X120970135Y-112740500D01*
X122685000Y-112740499D01*
X122752039Y-112760184D01*
X122797794Y-112812987D01*
X122809000Y-112864499D01*
X122809000Y-113515500D01*
X122789315Y-113582539D01*
X122736511Y-113628294D01*
X122685000Y-113639500D01*
X120970143Y-113639500D01*
X120970117Y-113639502D01*
X120945012Y-113642413D01*
X120945008Y-113642415D01*
X120842235Y-113687793D01*
X120762794Y-113767234D01*
X120717415Y-113870006D01*
X120717415Y-113870008D01*
X120716083Y-113881490D01*
X120688802Y-113945814D01*
X120666466Y-113967024D01*
X118523806Y-115545827D01*
X118458158Y-115569747D01*
X118450249Y-115570000D01*
X116710000Y-115570000D01*
X116642961Y-115550315D01*
X116597206Y-115497511D01*
X116586000Y-115446000D01*
X116586000Y-113662000D01*
X116605685Y-113594961D01*
X116658489Y-113549206D01*
X116710000Y-113538000D01*
X118871999Y-113538000D01*
X118872000Y-113538000D01*
X120773896Y-112705920D01*
X120843200Y-112697084D01*
X120873678Y-112706089D01*
G37*
%TD.AperFunction*%
%TD*%
%TA.AperFunction,Conductor*%
%TO.N,Net-(J4-Pin_1)*%
G36*
X120830619Y-115281245D02*
G01*
X120838517Y-115288488D01*
X120842235Y-115292206D01*
X120945009Y-115337585D01*
X120970135Y-115340500D01*
X122710400Y-115340499D01*
X122777439Y-115360184D01*
X122823194Y-115412987D01*
X122834400Y-115464499D01*
X122834400Y-116258800D01*
X122814715Y-116325839D01*
X122761911Y-116371594D01*
X122710400Y-116382800D01*
X120802400Y-116382800D01*
X118900927Y-118189200D01*
X118806295Y-118279100D01*
X118744134Y-118311002D01*
X118720890Y-118313200D01*
X116710000Y-118313200D01*
X116642961Y-118293515D01*
X116597206Y-118240711D01*
X116586000Y-118189200D01*
X116586000Y-116303600D01*
X116605685Y-116236561D01*
X116658489Y-116190806D01*
X116710000Y-116179600D01*
X118770398Y-116179600D01*
X118770400Y-116179600D01*
X120697637Y-115264162D01*
X120766634Y-115253179D01*
X120830619Y-115281245D01*
G37*
%TD.AperFunction*%
%TD*%
%TA.AperFunction,Conductor*%
%TO.N,Net-(U1-EN{slash}CHIP_PU)*%
G36*
X121002483Y-84953427D02*
G01*
X121003512Y-84954603D01*
X121493490Y-85596798D01*
X121495784Y-85605454D01*
X121492060Y-85612551D01*
X120907872Y-86143840D01*
X120899446Y-86146871D01*
X120892128Y-86143840D01*
X120307939Y-85612551D01*
X120304124Y-85604449D01*
X120306507Y-85596801D01*
X120796488Y-84954602D01*
X120804231Y-84950104D01*
X120805790Y-84950000D01*
X120994210Y-84950000D01*
X121002483Y-84953427D01*
G37*
%TD.AperFunction*%
%TD*%
%TA.AperFunction,Conductor*%
%TO.N,Net-(U1-EN{slash}CHIP_PU)*%
G36*
X120908059Y-84344157D02*
G01*
X121479762Y-84887373D01*
X121483399Y-84895556D01*
X121480888Y-84903103D01*
X121003513Y-85508048D01*
X120995698Y-85512420D01*
X120994328Y-85512500D01*
X120805672Y-85512500D01*
X120797399Y-85509073D01*
X120796487Y-85508048D01*
X120319111Y-84903103D01*
X120316676Y-84894485D01*
X120320236Y-84887374D01*
X120891941Y-84344156D01*
X120900299Y-84340943D01*
X120908059Y-84344157D01*
G37*
%TD.AperFunction*%
%TD*%
%TA.AperFunction,Conductor*%
%TO.N,Net-(U1-EN{slash}CHIP_PU)*%
G36*
X121574118Y-83852572D02*
G01*
X122208722Y-84436523D01*
X122212490Y-84444647D01*
X122212500Y-84445133D01*
X122212500Y-84631764D01*
X122209073Y-84640037D01*
X122204749Y-84642778D01*
X121477628Y-84903475D01*
X121468683Y-84903041D01*
X121465429Y-84900757D01*
X121002077Y-84440000D01*
X120908681Y-84347127D01*
X120905232Y-84338865D01*
X120908636Y-84330582D01*
X120909999Y-84329408D01*
X121559265Y-83851758D01*
X121567958Y-83849616D01*
X121574118Y-83852572D01*
G37*
%TD.AperFunction*%
%TD*%
%TA.AperFunction,Conductor*%
%TO.N,GND*%
G36*
X125922208Y-81752253D02*
G01*
X125927765Y-81759275D01*
X125927979Y-81760153D01*
X125984030Y-82037210D01*
X125982311Y-82045998D01*
X125982272Y-82046057D01*
X125822826Y-82283263D01*
X125815367Y-82288217D01*
X125808335Y-82287414D01*
X125396683Y-82103097D01*
X125390532Y-82096589D01*
X125389764Y-82092419D01*
X125389764Y-81908837D01*
X125393191Y-81900564D01*
X125398262Y-81897584D01*
X125913314Y-81751219D01*
X125922208Y-81752253D01*
G37*
%TD.AperFunction*%
%TD*%
%TA.AperFunction,Conductor*%
%TO.N,GND*%
G36*
X131732983Y-118877678D02*
G01*
X132090072Y-119133987D01*
X132595122Y-119496499D01*
X132599845Y-119504106D01*
X132600000Y-119506003D01*
X132600000Y-119693996D01*
X132596573Y-119702269D01*
X132595122Y-119703501D01*
X131732983Y-120322321D01*
X131724264Y-120324361D01*
X131720201Y-120322884D01*
X130673849Y-119703501D01*
X130516007Y-119610067D01*
X130510634Y-119602905D01*
X130511900Y-119594040D01*
X130516008Y-119589932D01*
X130667934Y-119500000D01*
X131720202Y-118877114D01*
X131729066Y-118875849D01*
X131732983Y-118877678D01*
G37*
%TD.AperFunction*%
%TD*%
%TA.AperFunction,Conductor*%
%TO.N,GND*%
G36*
X127534392Y-98099726D02*
G01*
X127541821Y-98104726D01*
X127543540Y-98113514D01*
X127542907Y-98115608D01*
X127332968Y-98630950D01*
X127326674Y-98637319D01*
X127322133Y-98638236D01*
X127138559Y-98638236D01*
X127130286Y-98634809D01*
X127127408Y-98630079D01*
X127091384Y-98516719D01*
X126963712Y-98114951D01*
X126964473Y-98106030D01*
X126971320Y-98100258D01*
X126972531Y-98099944D01*
X127251682Y-98043469D01*
X127256318Y-98043469D01*
X127534392Y-98099726D01*
G37*
%TD.AperFunction*%
%TD*%
%TA.AperFunction,Conductor*%
%TO.N,GND*%
G36*
X131555579Y-112791513D02*
G01*
X131555733Y-112791634D01*
X132190332Y-113291127D01*
X132194714Y-113298937D01*
X132192290Y-113307557D01*
X132191353Y-113308610D01*
X131635864Y-113861959D01*
X131627584Y-113865370D01*
X131621473Y-113863633D01*
X131006389Y-113484920D01*
X131004250Y-113483230D01*
X130872964Y-113351944D01*
X130869537Y-113343671D01*
X130872964Y-113335398D01*
X130873843Y-113334603D01*
X131540961Y-112791633D01*
X131549539Y-112789069D01*
X131555579Y-112791513D01*
G37*
%TD.AperFunction*%
%TD*%
%TA.AperFunction,Conductor*%
%TO.N,GND*%
G36*
X140278678Y-81751217D02*
G01*
X140793735Y-81897584D01*
X140800756Y-81903140D01*
X140802236Y-81908837D01*
X140802236Y-82092419D01*
X140798809Y-82100692D01*
X140795317Y-82103097D01*
X140383664Y-82287414D01*
X140374713Y-82287668D01*
X140369174Y-82283264D01*
X140209726Y-82046056D01*
X140207956Y-82037279D01*
X140207969Y-82037210D01*
X140236217Y-81897583D01*
X140264020Y-81760151D01*
X140269020Y-81752724D01*
X140277808Y-81751005D01*
X140278678Y-81751217D01*
G37*
%TD.AperFunction*%
%TD*%
%TA.AperFunction,Conductor*%
%TO.N,GND*%
G36*
X130570336Y-112361950D02*
G01*
X130571629Y-112362696D01*
X130806935Y-112519295D01*
X130811924Y-112526731D01*
X130811936Y-112526790D01*
X130866476Y-112805747D01*
X130864700Y-112814524D01*
X130858265Y-112819225D01*
X130372812Y-112960638D01*
X130363911Y-112959662D01*
X130358307Y-112952677D01*
X130357840Y-112949405D01*
X130357840Y-112767735D01*
X130359054Y-112762546D01*
X130475714Y-112526790D01*
X130554662Y-112367246D01*
X130561401Y-112361352D01*
X130570336Y-112361950D01*
G37*
%TD.AperFunction*%
%TD*%
%TA.AperFunction,Conductor*%
%TO.N,GND*%
G36*
X132601045Y-119218976D02*
G01*
X132691711Y-119279315D01*
X132838935Y-119377295D01*
X132843924Y-119384731D01*
X132843936Y-119384790D01*
X132897924Y-119660924D01*
X132896148Y-119669701D01*
X132888686Y-119674652D01*
X132886977Y-119674857D01*
X132351127Y-119699438D01*
X132342706Y-119696394D01*
X132338903Y-119688286D01*
X132338891Y-119687750D01*
X132338891Y-119504432D01*
X132341828Y-119496680D01*
X132585803Y-119220963D01*
X132593851Y-119217039D01*
X132601045Y-119218976D01*
G37*
%TD.AperFunction*%
%TD*%
%TA.AperFunction,Conductor*%
%TO.N,GND*%
G36*
X122769075Y-110692264D02*
G01*
X122983982Y-110811657D01*
X122989550Y-110818670D01*
X122990000Y-110821884D01*
X122990000Y-111008115D01*
X122986573Y-111016388D01*
X122983982Y-111018343D01*
X122769075Y-111137735D01*
X122760482Y-111138839D01*
X121933119Y-110926332D01*
X121925959Y-110920955D01*
X121924698Y-110912089D01*
X121930075Y-110904929D01*
X121933119Y-110903668D01*
X122760483Y-110691160D01*
X122769075Y-110692264D01*
G37*
%TD.AperFunction*%
%TD*%
%TA.AperFunction,Conductor*%
%TO.N,GND*%
G36*
X123382726Y-110707847D02*
G01*
X123387791Y-110715231D01*
X123387813Y-110715334D01*
X123444030Y-110993210D01*
X123442311Y-111001998D01*
X123442272Y-111002057D01*
X123283331Y-111238511D01*
X123275872Y-111243465D01*
X123267929Y-111242206D01*
X122865909Y-111018345D01*
X122860348Y-111011326D01*
X122859901Y-111008123D01*
X122859901Y-110824482D01*
X122863328Y-110816209D01*
X122869176Y-110813036D01*
X123373923Y-110706208D01*
X123382726Y-110707847D01*
G37*
%TD.AperFunction*%
%TD*%
%TA.AperFunction,Conductor*%
%TO.N,GND*%
G36*
X131066069Y-114650222D02*
G01*
X131296499Y-114959388D01*
X131298818Y-114966380D01*
X131298818Y-115149440D01*
X131295391Y-115157713D01*
X131287118Y-115161140D01*
X131285838Y-115161070D01*
X130764116Y-115103628D01*
X130756267Y-115099316D01*
X130753766Y-115090718D01*
X130753910Y-115089766D01*
X130808063Y-114812788D01*
X130813013Y-114805329D01*
X131050208Y-114647473D01*
X131058992Y-114645743D01*
X131066069Y-114650222D01*
G37*
%TD.AperFunction*%
%TD*%
%TA.AperFunction,Conductor*%
%TO.N,GND*%
G36*
X143448208Y-81752253D02*
G01*
X143453765Y-81759275D01*
X143453979Y-81760153D01*
X143510030Y-82037210D01*
X143508311Y-82045998D01*
X143508272Y-82046057D01*
X143348826Y-82283263D01*
X143341367Y-82288217D01*
X143334335Y-82287414D01*
X142922683Y-82103097D01*
X142916532Y-82096589D01*
X142915764Y-82092419D01*
X142915764Y-81908837D01*
X142919191Y-81900564D01*
X142924262Y-81897584D01*
X143439314Y-81751219D01*
X143448208Y-81752253D01*
G37*
%TD.AperFunction*%
%TD*%
%TA.AperFunction,Conductor*%
%TO.N,GND*%
G36*
X122769075Y-110042264D02*
G01*
X122983982Y-110161657D01*
X122989550Y-110168670D01*
X122990000Y-110171884D01*
X122990000Y-110358115D01*
X122986573Y-110366388D01*
X122983982Y-110368343D01*
X122769075Y-110487735D01*
X122760482Y-110488839D01*
X121933119Y-110276331D01*
X121925959Y-110270954D01*
X121924698Y-110262088D01*
X121930075Y-110254928D01*
X121933112Y-110253669D01*
X122760483Y-110041160D01*
X122769075Y-110042264D01*
G37*
%TD.AperFunction*%
%TD*%
%TA.AperFunction,Conductor*%
%TO.N,GND*%
G36*
X123536684Y-109994526D02*
G01*
X123696272Y-110231942D01*
X123698043Y-110240720D01*
X123698030Y-110240789D01*
X123642036Y-110517565D01*
X123637036Y-110524994D01*
X123628248Y-110526713D01*
X123627120Y-110526425D01*
X123112016Y-110367545D01*
X123105120Y-110361832D01*
X123103764Y-110356365D01*
X123103764Y-110172794D01*
X123107191Y-110164521D01*
X123110955Y-110161998D01*
X123522470Y-109990255D01*
X123531423Y-109990232D01*
X123536684Y-109994526D01*
G37*
%TD.AperFunction*%
%TD*%
%TA.AperFunction,Conductor*%
%TO.N,GND*%
G36*
X136608232Y-113407203D02*
G01*
X137396005Y-114096504D01*
X137399974Y-114104531D01*
X137400000Y-114105309D01*
X137400000Y-114294690D01*
X137396573Y-114302963D01*
X137396005Y-114303495D01*
X136608232Y-114992796D01*
X136599749Y-114995665D01*
X136592259Y-114992269D01*
X135902624Y-114303495D01*
X135807287Y-114208277D01*
X135803856Y-114200007D01*
X135807278Y-114191732D01*
X135807288Y-114191722D01*
X135902625Y-114096504D01*
X136592261Y-113407729D01*
X136600534Y-113404308D01*
X136608232Y-113407203D01*
G37*
%TD.AperFunction*%
%TD*%
%TA.AperFunction,Conductor*%
%TO.N,GND*%
G36*
X137606940Y-114009707D02*
G01*
X137611747Y-114017006D01*
X137668030Y-114295210D01*
X137666311Y-114303998D01*
X137666272Y-114304057D01*
X137507564Y-114540164D01*
X137500105Y-114545118D01*
X137491777Y-114543635D01*
X137096566Y-114303417D01*
X137091276Y-114296192D01*
X137090943Y-114293419D01*
X137090943Y-114109764D01*
X137094370Y-114101491D01*
X137100548Y-114098254D01*
X137598187Y-114007815D01*
X137606940Y-114009707D01*
G37*
%TD.AperFunction*%
%TD*%
%TA.AperFunction,Conductor*%
%TO.N,GND*%
G36*
X122769075Y-114592264D02*
G01*
X122983982Y-114711657D01*
X122989550Y-114718670D01*
X122990000Y-114721884D01*
X122990000Y-114908115D01*
X122986573Y-114916388D01*
X122983982Y-114918343D01*
X122769075Y-115037735D01*
X122760482Y-115038839D01*
X121933119Y-114826332D01*
X121925959Y-114820955D01*
X121924698Y-114812089D01*
X121930075Y-114804929D01*
X121933119Y-114803668D01*
X122760483Y-114591160D01*
X122769075Y-114592264D01*
G37*
%TD.AperFunction*%
%TD*%
%TA.AperFunction,Conductor*%
%TO.N,GND*%
G36*
X123635563Y-114518893D02*
G01*
X123641681Y-114525433D01*
X123642196Y-114527227D01*
X123698530Y-114805680D01*
X123698530Y-114810320D01*
X123642133Y-115089083D01*
X123637133Y-115096512D01*
X123628345Y-115098231D01*
X123626805Y-115097808D01*
X123111604Y-114917740D01*
X123104924Y-114911775D01*
X123103764Y-114906695D01*
X123103764Y-114723103D01*
X123107191Y-114714830D01*
X123111348Y-114712150D01*
X123626615Y-114518594D01*
X123635563Y-114518893D01*
G37*
%TD.AperFunction*%
%TD*%
%TA.AperFunction,Conductor*%
%TO.N,GND*%
G36*
X128223815Y-112642264D02*
G01*
X129046880Y-112853668D01*
X129054040Y-112859045D01*
X129055301Y-112867911D01*
X129049924Y-112875071D01*
X129046880Y-112876332D01*
X128219517Y-113088839D01*
X128210924Y-113087735D01*
X127996018Y-112968343D01*
X127990450Y-112961329D01*
X127990000Y-112958115D01*
X127990000Y-112771884D01*
X127993427Y-112763611D01*
X127996014Y-112761658D01*
X128210925Y-112642263D01*
X128219516Y-112641160D01*
X128223815Y-112642264D01*
G37*
%TD.AperFunction*%
%TD*%
%TA.AperFunction,Conductor*%
%TO.N,GND*%
G36*
X129969075Y-112642264D02*
G01*
X130183982Y-112761657D01*
X130189550Y-112768670D01*
X130190000Y-112771884D01*
X130190000Y-112958115D01*
X130186573Y-112966388D01*
X130183982Y-112968343D01*
X129969075Y-113087735D01*
X129960482Y-113088839D01*
X129133119Y-112876332D01*
X129125959Y-112870955D01*
X129124698Y-112862089D01*
X129130075Y-112854929D01*
X129133119Y-112853668D01*
X129960483Y-112641160D01*
X129969075Y-112642264D01*
G37*
%TD.AperFunction*%
%TD*%
%TA.AperFunction,Conductor*%
%TO.N,GND*%
G36*
X131635796Y-114500472D02*
G01*
X132191353Y-115053889D01*
X132194796Y-115062155D01*
X132191385Y-115070435D01*
X132190332Y-115071372D01*
X131555685Y-115570903D01*
X131547065Y-115573327D01*
X131540940Y-115570682D01*
X130944294Y-115071372D01*
X130878435Y-115016257D01*
X130874291Y-115008320D01*
X130876972Y-114999776D01*
X130877661Y-114999023D01*
X131009043Y-114867641D01*
X131011275Y-114865896D01*
X131621507Y-114498735D01*
X131630363Y-114497407D01*
X131635796Y-114500472D01*
G37*
%TD.AperFunction*%
%TD*%
%TA.AperFunction,Conductor*%
%TO.N,GND*%
G36*
X135008407Y-113499861D02*
G01*
X135791928Y-114191543D01*
X135795862Y-114199587D01*
X135792956Y-114208057D01*
X135792949Y-114208065D01*
X135008205Y-115095411D01*
X135000158Y-115099338D01*
X134991690Y-115096424D01*
X134991218Y-115095982D01*
X134348621Y-114458801D01*
X134215309Y-114325489D01*
X134211882Y-114317216D01*
X134215145Y-114309110D01*
X134992229Y-113500524D01*
X135000432Y-113496934D01*
X135008407Y-113499861D01*
G37*
%TD.AperFunction*%
%TD*%
%TA.AperFunction,Conductor*%
%TO.N,GND*%
G36*
X133120950Y-113200995D02*
G01*
X133649447Y-113242731D01*
X133657425Y-113246799D01*
X133660190Y-113255316D01*
X133660009Y-113256640D01*
X133605936Y-113533209D01*
X133600985Y-113540671D01*
X133600935Y-113540704D01*
X133363437Y-113698762D01*
X133354651Y-113700493D01*
X133347856Y-113696376D01*
X133110947Y-113403217D01*
X133108347Y-113395863D01*
X133108347Y-113212660D01*
X133111774Y-113204387D01*
X133120047Y-113200960D01*
X133120950Y-113200995D01*
G37*
%TD.AperFunction*%
%TD*%
%TA.AperFunction,Conductor*%
%TO.N,GND*%
G36*
X135805259Y-114212187D02*
G01*
X135809367Y-114216292D01*
X136522699Y-115419896D01*
X136523969Y-115428760D01*
X136521846Y-115433074D01*
X135912158Y-116211744D01*
X135911219Y-116212804D01*
X135779828Y-116344195D01*
X135771555Y-116347622D01*
X135763282Y-116344195D01*
X135762204Y-116342954D01*
X135664329Y-116212804D01*
X135077924Y-115433029D01*
X135075691Y-115424358D01*
X135077203Y-115420046D01*
X135789234Y-114216298D01*
X135796393Y-114210924D01*
X135805259Y-114212187D01*
G37*
%TD.AperFunction*%
%TD*%
%TA.AperFunction,Conductor*%
%TO.N,GND*%
G36*
X135901520Y-115754228D02*
G01*
X135903378Y-115756649D01*
X136133974Y-116155864D01*
X136135145Y-116164742D01*
X136130370Y-116171426D01*
X135894057Y-116330272D01*
X135885279Y-116332043D01*
X135885210Y-116332030D01*
X135607199Y-116275786D01*
X135599770Y-116270786D01*
X135598045Y-116262032D01*
X135698123Y-115760213D01*
X135703102Y-115752770D01*
X135709597Y-115750801D01*
X135893247Y-115750801D01*
X135901520Y-115754228D01*
G37*
%TD.AperFunction*%
%TD*%
%TA.AperFunction,Conductor*%
%TO.N,GND*%
G36*
X133261949Y-115082576D02*
G01*
X133572713Y-115227953D01*
X133758373Y-115314806D01*
X133764414Y-115321416D01*
X133764013Y-115330362D01*
X133763164Y-115331872D01*
X133606015Y-115568734D01*
X133602734Y-115572015D01*
X133365872Y-115729164D01*
X133357084Y-115730883D01*
X133349655Y-115725883D01*
X133348806Y-115724373D01*
X133275997Y-115568734D01*
X133116576Y-115227951D01*
X133116176Y-115219007D01*
X133118900Y-115214724D01*
X133248723Y-115084901D01*
X133256995Y-115081475D01*
X133261949Y-115082576D01*
G37*
%TD.AperFunction*%
%TD*%
%TA.AperFunction,Conductor*%
%TO.N,GND*%
G36*
X121478552Y-81699007D02*
G01*
X122207047Y-82159056D01*
X122212213Y-82166371D01*
X122212500Y-82168949D01*
X122212500Y-82356050D01*
X122209073Y-82364323D01*
X122207047Y-82365943D01*
X121478555Y-82825991D01*
X121469730Y-82827511D01*
X121464058Y-82824394D01*
X121001396Y-82364323D01*
X120907341Y-82270794D01*
X120903892Y-82262533D01*
X120907296Y-82254250D01*
X121464059Y-81700604D01*
X121472341Y-81697201D01*
X121478552Y-81699007D01*
G37*
%TD.AperFunction*%
%TD*%
%TA.AperFunction,Conductor*%
%TO.N,GND*%
G36*
X132859019Y-112791478D02*
G01*
X133530033Y-113324720D01*
X133534378Y-113332550D01*
X133531914Y-113341159D01*
X133531027Y-113342153D01*
X133399815Y-113473365D01*
X133397760Y-113475003D01*
X132778553Y-113863524D01*
X132769724Y-113865018D01*
X132764078Y-113861902D01*
X132208646Y-113308610D01*
X132205203Y-113300344D01*
X132208614Y-113292064D01*
X132209660Y-113291132D01*
X132844507Y-112791444D01*
X132853126Y-112789021D01*
X132859019Y-112791478D01*
G37*
%TD.AperFunction*%
%TD*%
%TA.AperFunction,Conductor*%
%TO.N,GND*%
G36*
X132912881Y-114639201D02*
G01*
X133454396Y-115277725D01*
X133457134Y-115286251D01*
X133453746Y-115293565D01*
X133321754Y-115425557D01*
X133317548Y-115428255D01*
X132777690Y-115628368D01*
X132768741Y-115628030D01*
X132765367Y-115625687D01*
X132209863Y-115072322D01*
X132206420Y-115064056D01*
X132209831Y-115055776D01*
X132212037Y-115054039D01*
X132897878Y-114636773D01*
X132906726Y-114635401D01*
X132912881Y-114639201D01*
G37*
%TD.AperFunction*%
%TD*%
%TA.AperFunction,Conductor*%
%TO.N,GND*%
G36*
X127756942Y-112371642D02*
G01*
X127757634Y-112372827D01*
X127955515Y-112762503D01*
X127956783Y-112767799D01*
X127956783Y-112949593D01*
X127953356Y-112957866D01*
X127945083Y-112961293D01*
X127941942Y-112960863D01*
X127454124Y-112824904D01*
X127447074Y-112819382D01*
X127445782Y-112811391D01*
X127500298Y-112532553D01*
X127505248Y-112525094D01*
X127740722Y-112368383D01*
X127749506Y-112366653D01*
X127756942Y-112371642D01*
G37*
%TD.AperFunction*%
%TD*%
%TA.AperFunction,Conductor*%
%TO.N,GND*%
G36*
X131301549Y-113203761D02*
G01*
X131305617Y-113211739D01*
X131305653Y-113212660D01*
X131305653Y-113395863D01*
X131303053Y-113403217D01*
X131066144Y-113696376D01*
X131058279Y-113700657D01*
X131050562Y-113698762D01*
X130813064Y-113540704D01*
X130808075Y-113533268D01*
X130808063Y-113533209D01*
X130753990Y-113256640D01*
X130755766Y-113247863D01*
X130763228Y-113242912D01*
X130764549Y-113242731D01*
X131293033Y-113200996D01*
X131301549Y-113203761D01*
G37*
%TD.AperFunction*%
%TD*%
%TA.AperFunction,Conductor*%
%TO.N,GND*%
G36*
X122769075Y-113942264D02*
G01*
X122983982Y-114061657D01*
X122989550Y-114068670D01*
X122990000Y-114071884D01*
X122990000Y-114258115D01*
X122986573Y-114266388D01*
X122983982Y-114268343D01*
X122769075Y-114387735D01*
X122760482Y-114388839D01*
X121933119Y-114176331D01*
X121925959Y-114170954D01*
X121924698Y-114162088D01*
X121930075Y-114154928D01*
X121933112Y-114153669D01*
X122760483Y-113941160D01*
X122769075Y-113942264D01*
G37*
%TD.AperFunction*%
%TD*%
%TA.AperFunction,Conductor*%
%TO.N,GND*%
G36*
X123283832Y-113806234D02*
G01*
X123442272Y-114041942D01*
X123444043Y-114050720D01*
X123444030Y-114050789D01*
X123387672Y-114329364D01*
X123382672Y-114336793D01*
X123374499Y-114338619D01*
X122884808Y-114266472D01*
X122877122Y-114261876D01*
X122874813Y-114254897D01*
X122874813Y-114071260D01*
X122878240Y-114062987D01*
X122880016Y-114061529D01*
X123267630Y-113803026D01*
X123276415Y-113801288D01*
X123283832Y-113806234D01*
G37*
%TD.AperFunction*%
%TD*%
%TA.AperFunction,Conductor*%
%TO.N,GND*%
G36*
X134553303Y-114105581D02*
G01*
X134559061Y-114112439D01*
X134559604Y-114115961D01*
X134559604Y-114297383D01*
X134558488Y-114302369D01*
X134367219Y-114708404D01*
X134360594Y-114714428D01*
X134351649Y-114714002D01*
X134350153Y-114713158D01*
X134115064Y-114556704D01*
X134110075Y-114549268D01*
X134110063Y-114549209D01*
X134061339Y-114300000D01*
X134055478Y-114270019D01*
X134057254Y-114261243D01*
X134063438Y-114256618D01*
X134544384Y-114104804D01*
X134553303Y-114105581D01*
G37*
%TD.AperFunction*%
%TD*%
%TA.AperFunction,Conductor*%
%TO.N,Net-(J1-Pin_4)*%
G36*
X147137033Y-87531037D02*
G01*
X147396245Y-87617244D01*
X148406040Y-87953078D01*
X148412808Y-87958939D01*
X148413824Y-87966450D01*
X148252227Y-88783021D01*
X148247260Y-88790472D01*
X148243021Y-88792227D01*
X147426450Y-88953824D01*
X147417669Y-88952069D01*
X147413078Y-88946040D01*
X146991037Y-87677033D01*
X146991678Y-87668101D01*
X146993863Y-87665071D01*
X147125069Y-87533865D01*
X147133341Y-87530439D01*
X147137033Y-87531037D01*
G37*
%TD.AperFunction*%
%TD*%
%TA.AperFunction,Conductor*%
%TO.N,Net-(J1-Pin_3)*%
G36*
X147783312Y-85551535D02*
G01*
X148246640Y-86243490D01*
X148248395Y-86252271D01*
X148246640Y-86256510D01*
X147783694Y-86947893D01*
X147776243Y-86952860D01*
X147768396Y-86951669D01*
X146572457Y-86303319D01*
X146566817Y-86296363D01*
X146566333Y-86293033D01*
X146566333Y-86107499D01*
X146569760Y-86099226D01*
X146573145Y-86096869D01*
X147768706Y-85547413D01*
X147777652Y-85547073D01*
X147783312Y-85551535D01*
G37*
%TD.AperFunction*%
%TD*%
%TA.AperFunction,Conductor*%
%TO.N,Net-(JP1-C)*%
G36*
X142488913Y-99708866D02*
G01*
X142648272Y-99945942D01*
X142650043Y-99954720D01*
X142650030Y-99954789D01*
X142593945Y-100232016D01*
X142588945Y-100239445D01*
X142580157Y-100241164D01*
X142579435Y-100240994D01*
X142064422Y-100102331D01*
X142057324Y-100096871D01*
X142055764Y-100091033D01*
X142055764Y-99907452D01*
X142059191Y-99899179D01*
X142062515Y-99896850D01*
X142474258Y-99704789D01*
X142483203Y-99704398D01*
X142488913Y-99708866D01*
G37*
%TD.AperFunction*%
%TD*%
%TA.AperFunction,Conductor*%
%TO.N,/MT_AIN2*%
G36*
X128221193Y-110041596D02*
G01*
X129045193Y-110253976D01*
X129052348Y-110259359D01*
X129053602Y-110268225D01*
X129048218Y-110275381D01*
X129045004Y-110276682D01*
X128219390Y-110474959D01*
X128211037Y-110473843D01*
X127940299Y-110325531D01*
X127934689Y-110318551D01*
X127935659Y-110309649D01*
X127937644Y-110307000D01*
X128067897Y-110176747D01*
X128068149Y-110176503D01*
X128210313Y-110044356D01*
X128218705Y-110041235D01*
X128221193Y-110041596D01*
G37*
%TD.AperFunction*%
%TD*%
%TA.AperFunction,Conductor*%
%TO.N,/MT_PWMA*%
G36*
X128220908Y-109391522D02*
G01*
X128683180Y-109510670D01*
X129043773Y-109603610D01*
X129050929Y-109608994D01*
X129052183Y-109617860D01*
X129046799Y-109625016D01*
X129043423Y-109626354D01*
X128219435Y-109811900D01*
X128211055Y-109810642D01*
X127946638Y-109659371D01*
X127941159Y-109652288D01*
X127942292Y-109643405D01*
X127944171Y-109640946D01*
X128074460Y-109510657D01*
X128075086Y-109510076D01*
X128210369Y-109393973D01*
X128218879Y-109391187D01*
X128220908Y-109391522D01*
G37*
%TD.AperFunction*%
%TD*%
%TA.AperFunction,Conductor*%
%TO.N,/MT_BIN1*%
G36*
X128220936Y-113291524D02*
G01*
X129046881Y-113503668D01*
X129054040Y-113509044D01*
X129055301Y-113517910D01*
X129049924Y-113525070D01*
X129046880Y-113526331D01*
X128220949Y-113738470D01*
X128217315Y-113738816D01*
X128214957Y-113738670D01*
X128209998Y-113737220D01*
X127996018Y-113618343D01*
X127990450Y-113611329D01*
X127990000Y-113608115D01*
X127990000Y-113421884D01*
X127993427Y-113413611D01*
X127996014Y-113411658D01*
X128210009Y-113292772D01*
X128214959Y-113291324D01*
X128217310Y-113291179D01*
X128220936Y-113291524D01*
G37*
%TD.AperFunction*%
%TD*%
%TA.AperFunction,Conductor*%
%TO.N,/MT_BIN2*%
G36*
X129046881Y-114153668D02*
G01*
X129054040Y-114159044D01*
X129055301Y-114167910D01*
X129049924Y-114175070D01*
X129046880Y-114176331D01*
X128220951Y-114388470D01*
X128217318Y-114388816D01*
X128214957Y-114388670D01*
X128209997Y-114387220D01*
X127996018Y-114268343D01*
X127990450Y-114261329D01*
X127990000Y-114258115D01*
X127990000Y-114071884D01*
X127993427Y-114063611D01*
X127996014Y-114061658D01*
X128210925Y-113942263D01*
X128219516Y-113941160D01*
X129046881Y-114153668D01*
G37*
%TD.AperFunction*%
%TD*%
%TA.AperFunction,Conductor*%
%TO.N,/MT_STBY*%
G36*
X128220908Y-111991522D02*
G01*
X128683180Y-112110670D01*
X129043773Y-112203610D01*
X129050929Y-112208994D01*
X129052183Y-112217860D01*
X129046799Y-112225016D01*
X129043423Y-112226354D01*
X128219435Y-112411900D01*
X128211055Y-112410642D01*
X127946638Y-112259371D01*
X127941159Y-112252288D01*
X127942292Y-112243405D01*
X127944171Y-112240946D01*
X128074460Y-112110657D01*
X128075086Y-112110076D01*
X128210369Y-111993973D01*
X128218879Y-111991187D01*
X128220908Y-111991522D01*
G37*
%TD.AperFunction*%
%TD*%
%TA.AperFunction,Conductor*%
%TO.N,/MT_PWMB*%
G36*
X128223815Y-114592264D02*
G01*
X129046880Y-114803668D01*
X129054040Y-114809045D01*
X129055301Y-114817911D01*
X129049924Y-114825071D01*
X129046880Y-114826332D01*
X128219517Y-115038839D01*
X128210924Y-115037735D01*
X127996018Y-114918343D01*
X127990450Y-114911329D01*
X127990000Y-114908115D01*
X127990000Y-114721884D01*
X127993427Y-114713611D01*
X127996014Y-114711658D01*
X128210925Y-114592263D01*
X128219516Y-114591160D01*
X128223815Y-114592264D01*
G37*
%TD.AperFunction*%
%TD*%
%TA.AperFunction,Conductor*%
%TO.N,/MT_AIN1*%
G36*
X128221193Y-110691596D02*
G01*
X129045193Y-110903976D01*
X129052348Y-110909359D01*
X129053602Y-110918225D01*
X129048218Y-110925381D01*
X129045004Y-110926682D01*
X128219390Y-111124959D01*
X128211037Y-111123843D01*
X127940299Y-110975531D01*
X127934689Y-110968551D01*
X127935659Y-110959649D01*
X127937644Y-110957000D01*
X128067897Y-110826747D01*
X128068149Y-110826503D01*
X128210313Y-110694356D01*
X128218705Y-110691235D01*
X128221193Y-110691596D01*
G37*
%TD.AperFunction*%
%TD*%
%TA.AperFunction,Conductor*%
%TO.N,/BMI_MOSI*%
G36*
X142041898Y-113881678D02*
G01*
X142044931Y-113883866D01*
X142176133Y-114015068D01*
X142179560Y-114023341D01*
X142178962Y-114027033D01*
X141756922Y-115296039D01*
X141751060Y-115302808D01*
X141743549Y-115303824D01*
X140926978Y-115142227D01*
X140919527Y-115137260D01*
X140917772Y-115133021D01*
X140756175Y-114316450D01*
X140757930Y-114307669D01*
X140763957Y-114303078D01*
X142032966Y-113881037D01*
X142041898Y-113881678D01*
G37*
%TD.AperFunction*%
%TD*%
%TA.AperFunction,Conductor*%
%TO.N,/BMI_SCK*%
G36*
X142041898Y-111341678D02*
G01*
X142044931Y-111343866D01*
X142176133Y-111475068D01*
X142179560Y-111483341D01*
X142178962Y-111487033D01*
X141756922Y-112756039D01*
X141751060Y-112762808D01*
X141743549Y-112763824D01*
X140926978Y-112602227D01*
X140919527Y-112597260D01*
X140917772Y-112593021D01*
X140756175Y-111776450D01*
X140757930Y-111767669D01*
X140763957Y-111763078D01*
X142032966Y-111341037D01*
X142041898Y-111341678D01*
G37*
%TD.AperFunction*%
%TD*%
%TA.AperFunction,Conductor*%
%TO.N,/BMI_CS*%
G36*
X142041898Y-116421678D02*
G01*
X142044931Y-116423866D01*
X142176133Y-116555068D01*
X142179560Y-116563341D01*
X142178962Y-116567033D01*
X141756922Y-117836039D01*
X141751060Y-117842808D01*
X141743549Y-117843824D01*
X140926978Y-117682227D01*
X140919527Y-117677260D01*
X140917772Y-117673021D01*
X140756175Y-116856450D01*
X140757930Y-116847669D01*
X140763957Y-116843078D01*
X142032966Y-116421037D01*
X142041898Y-116421678D01*
G37*
%TD.AperFunction*%
%TD*%
%TA.AperFunction,Conductor*%
%TO.N,/BMI_MISO*%
G36*
X142041898Y-118961678D02*
G01*
X142044931Y-118963866D01*
X142176133Y-119095068D01*
X142179560Y-119103341D01*
X142178962Y-119107033D01*
X141756922Y-120376039D01*
X141751060Y-120382808D01*
X141743549Y-120383824D01*
X140926978Y-120222227D01*
X140919527Y-120217260D01*
X140917772Y-120213021D01*
X140756175Y-119396450D01*
X140757930Y-119387669D01*
X140763957Y-119383078D01*
X142032966Y-118961037D01*
X142041898Y-118961678D01*
G37*
%TD.AperFunction*%
%TD*%
M02*
