%TF.GenerationSoftware,KiCad,Pcbnew,9.0.2-9.0.2-0~ubuntu24.04.1*%
%TF.CreationDate,2025-06-12T20:24:59+02:00*%
%TF.ProjectId,PCB_Robot,5043425f-526f-4626-9f74-2e6b69636164,rev?*%
%TF.SameCoordinates,Original*%
%TF.FileFunction,Drillmap*%
%TF.FilePolarity,Positive*%
%FSLAX45Y45*%
G04 Gerber Fmt 4.5, Leading zero omitted, Abs format (unit mm)*
G04 Created by KiCad (PCBNEW 9.0.2-9.0.2-0~ubuntu24.04.1) date 2025-06-12 20:24:59*
%MOMM*%
%LPD*%
G01*
G04 APERTURE LIST*
%ADD10C,0.200000*%
G04 APERTURE END LIST*
D10*
X12144040Y-7051800D02*
X12144040Y-8051800D01*
X12144040Y-8051800D02*
X14544040Y-8051800D01*
X14544040Y-8051800D02*
X14544040Y-7051800D01*
X14944040Y-7051800D02*
X14544040Y-7051800D01*
X14944040Y-7051800D02*
G75*
G02*
X15444040Y-7551800I0J-500000D01*
G01*
X15444040Y-13751800D02*
X15444040Y-7551800D01*
X15444040Y-13751800D02*
G75*
G02*
X14944040Y-14251800I-500000J0D01*
G01*
X11744040Y-14251800D02*
X14944040Y-14251800D01*
X11744040Y-14251800D02*
G75*
G02*
X11244040Y-13751800I0J500000D01*
G01*
X11244040Y-7551800D02*
X11244040Y-13751800D01*
X11244040Y-7551800D02*
G75*
G02*
X11744040Y-7051800I500000J0D01*
G01*
X12144040Y-7051800D02*
X11744040Y-7051800D01*
X11494817Y-14573284D02*
X11494817Y-14373284D01*
X11494817Y-14373284D02*
X11542436Y-14373284D01*
X11542436Y-14373284D02*
X11571007Y-14382808D01*
X11571007Y-14382808D02*
X11590055Y-14401855D01*
X11590055Y-14401855D02*
X11599579Y-14420903D01*
X11599579Y-14420903D02*
X11609102Y-14458998D01*
X11609102Y-14458998D02*
X11609102Y-14487569D01*
X11609102Y-14487569D02*
X11599579Y-14525665D01*
X11599579Y-14525665D02*
X11590055Y-14544712D01*
X11590055Y-14544712D02*
X11571007Y-14563760D01*
X11571007Y-14563760D02*
X11542436Y-14573284D01*
X11542436Y-14573284D02*
X11494817Y-14573284D01*
X11694817Y-14573284D02*
X11694817Y-14439950D01*
X11694817Y-14478046D02*
X11704341Y-14458998D01*
X11704341Y-14458998D02*
X11713864Y-14449474D01*
X11713864Y-14449474D02*
X11732912Y-14439950D01*
X11732912Y-14439950D02*
X11751960Y-14439950D01*
X11818626Y-14573284D02*
X11818626Y-14439950D01*
X11818626Y-14373284D02*
X11809102Y-14382808D01*
X11809102Y-14382808D02*
X11818626Y-14392331D01*
X11818626Y-14392331D02*
X11828150Y-14382808D01*
X11828150Y-14382808D02*
X11818626Y-14373284D01*
X11818626Y-14373284D02*
X11818626Y-14392331D01*
X11942436Y-14573284D02*
X11923388Y-14563760D01*
X11923388Y-14563760D02*
X11913864Y-14544712D01*
X11913864Y-14544712D02*
X11913864Y-14373284D01*
X12047198Y-14573284D02*
X12028150Y-14563760D01*
X12028150Y-14563760D02*
X12018626Y-14544712D01*
X12018626Y-14544712D02*
X12018626Y-14373284D01*
X12275769Y-14573284D02*
X12275769Y-14373284D01*
X12275769Y-14373284D02*
X12342436Y-14516141D01*
X12342436Y-14516141D02*
X12409102Y-14373284D01*
X12409102Y-14373284D02*
X12409102Y-14573284D01*
X12590055Y-14573284D02*
X12590055Y-14468522D01*
X12590055Y-14468522D02*
X12580531Y-14449474D01*
X12580531Y-14449474D02*
X12561483Y-14439950D01*
X12561483Y-14439950D02*
X12523388Y-14439950D01*
X12523388Y-14439950D02*
X12504341Y-14449474D01*
X12590055Y-14563760D02*
X12571007Y-14573284D01*
X12571007Y-14573284D02*
X12523388Y-14573284D01*
X12523388Y-14573284D02*
X12504341Y-14563760D01*
X12504341Y-14563760D02*
X12494817Y-14544712D01*
X12494817Y-14544712D02*
X12494817Y-14525665D01*
X12494817Y-14525665D02*
X12504341Y-14506617D01*
X12504341Y-14506617D02*
X12523388Y-14497093D01*
X12523388Y-14497093D02*
X12571007Y-14497093D01*
X12571007Y-14497093D02*
X12590055Y-14487569D01*
X12685293Y-14439950D02*
X12685293Y-14639950D01*
X12685293Y-14449474D02*
X12704341Y-14439950D01*
X12704341Y-14439950D02*
X12742436Y-14439950D01*
X12742436Y-14439950D02*
X12761483Y-14449474D01*
X12761483Y-14449474D02*
X12771007Y-14458998D01*
X12771007Y-14458998D02*
X12780531Y-14478046D01*
X12780531Y-14478046D02*
X12780531Y-14535188D01*
X12780531Y-14535188D02*
X12771007Y-14554236D01*
X12771007Y-14554236D02*
X12761483Y-14563760D01*
X12761483Y-14563760D02*
X12742436Y-14573284D01*
X12742436Y-14573284D02*
X12704341Y-14573284D01*
X12704341Y-14573284D02*
X12685293Y-14563760D01*
X12866245Y-14554236D02*
X12875769Y-14563760D01*
X12875769Y-14563760D02*
X12866245Y-14573284D01*
X12866245Y-14573284D02*
X12856722Y-14563760D01*
X12856722Y-14563760D02*
X12866245Y-14554236D01*
X12866245Y-14554236D02*
X12866245Y-14573284D01*
X12866245Y-14449474D02*
X12875769Y-14458998D01*
X12875769Y-14458998D02*
X12866245Y-14468522D01*
X12866245Y-14468522D02*
X12856722Y-14458998D01*
X12856722Y-14458998D02*
X12866245Y-14449474D01*
X12866245Y-14449474D02*
X12866245Y-14468522D01*
M02*
