M48
; DRILL file {KiCad 9.0.2-9.0.2-0~ubuntu24.04.1} date 2025-06-12T20:24:59+0200
; FORMAT={-:-/ absolute / metric / decimal}
; #@! TF.CreationDate,2025-06-12T20:24:59+02:00
; #@! TF.GenerationSoftware,Kicad,Pcbnew,9.0.2-9.0.2-0~ubuntu24.04.1
; #@! TF.FileFunction,Plated,1,2,PTH
FMAT,2
METRIC
; #@! TA.AperFunction,Plated,PTH,ViaDrill
T1C0.300
; #@! TA.AperFunction,Plated,PTH,ViaDrill
T2C0.500
; #@! TA.AperFunction,Plated,PTH,ComponentDrill
T3C1.000
; #@! TA.AperFunction,Plated,PTH,ComponentDrill
T4C3.200
%
G90
G05
T1
X120.396Y-134.112
X120.396Y-135.382
X120.396Y-136.652
X120.396Y-137.922
X121.666Y-134.112
X121.666Y-135.382
X121.666Y-136.652
X121.666Y-137.922
X123.19Y-134.112
X123.19Y-135.382
X123.19Y-136.652
X123.19Y-137.922
X123.444Y-110.998
X123.444Y-114.046
X123.444Y-131.826
X123.444Y-132.842
X123.698Y-110.236
X123.698Y-114.808
X124.968Y-131.826
X124.968Y-132.842
X125.984Y-82.042
X126.238Y-131.826
X126.238Y-132.842
X126.3Y-116.6
X127.254Y-98.044
X127.502Y-112.528
X127.762Y-131.826
X127.762Y-132.842
X128.27Y-88.138
X128.524Y-89.154
X128.524Y-90.424
X128.524Y-91.44
X129.032Y-131.826
X129.032Y-132.842
X129.9Y-107.6
X129.9Y-108.3
X130.7Y-107.6
X130.7Y-108.3
X130.7Y-109.0
X130.81Y-112.522
X130.81Y-113.538
X130.81Y-114.808
X132.842Y-119.38
X133.604Y-113.538
X133.604Y-115.57
X134.112Y-114.554
X134.366Y-88.138
X134.366Y-89.154
X134.366Y-90.17
X134.62Y-91.186
X135.89Y-116.332
X137.668Y-114.3
X138.481Y-137.516
X138.735Y-133.198
X138.735Y-134.214
X138.989Y-135.992
X139.497Y-134.976
X139.751Y-138.786
X140.208Y-82.042
X140.259Y-133.198
X141.529Y-139.294
X141.783Y-133.198
X142.65Y-99.95
X142.799Y-139.04
X143.51Y-82.042
X144.069Y-133.198
X144.323Y-139.04
X145.847Y-139.04
X146.609Y-133.198
X147.117Y-134.214
X147.117Y-135.738
X147.117Y-137.262
X147.117Y-138.532
T2
X128.9Y-107.7
T3
X117.6Y-107.325
X117.6Y-109.865
X117.6Y-114.6
X117.6Y-117.14
X121.0Y-129.7
X121.0Y-132.24
X140.92Y-104.98
X140.92Y-107.52
X140.92Y-110.06
X140.92Y-112.6
X140.92Y-115.14
X140.92Y-117.68
X140.92Y-120.22
X148.25Y-81.17
X148.25Y-83.71
X148.25Y-86.25
X148.25Y-88.79
X148.3Y-92.77
X148.3Y-95.31
X148.3Y-97.85
X151.08Y-107.52
X151.08Y-110.06
X151.08Y-112.6
X151.08Y-115.14
X151.08Y-117.68
T4
X116.23Y-136.804
X117.196Y-74.93
X149.758Y-74.828
M30
