%TF.GenerationSoftware,KiCad,Pcbnew,9.0.2-9.0.2-0~ubuntu24.04.1*%
%TF.CreationDate,2025-06-12T20:24:44+02:00*%
%TF.ProjectId,PCB_Robot,5043425f-526f-4626-9f74-2e6b69636164,rev?*%
%TF.SameCoordinates,Original*%
%TF.FileFunction,Legend,Top*%
%TF.FilePolarity,Positive*%
%FSLAX46Y46*%
G04 Gerber Fmt 4.6, Leading zero omitted, Abs format (unit mm)*
G04 Created by KiCad (PCBNEW 9.0.2-9.0.2-0~ubuntu24.04.1) date 2025-06-12 20:24:44*
%MOMM*%
%LPD*%
G01*
G04 APERTURE LIST*
%ADD10C,0.160000*%
%ADD11C,0.000000*%
%ADD12C,0.120000*%
%ADD13C,0.100000*%
%ADD14C,0.150000*%
G04 APERTURE END LIST*
D10*
X132188095Y-72664299D02*
X132188095Y-73473822D01*
X132188095Y-73473822D02*
X132235714Y-73569060D01*
X132235714Y-73569060D02*
X132283333Y-73616680D01*
X132283333Y-73616680D02*
X132378571Y-73664299D01*
X132378571Y-73664299D02*
X132569047Y-73664299D01*
X132569047Y-73664299D02*
X132664285Y-73616680D01*
X132664285Y-73616680D02*
X132711904Y-73569060D01*
X132711904Y-73569060D02*
X132759523Y-73473822D01*
X132759523Y-73473822D02*
X132759523Y-72664299D01*
X133759523Y-73664299D02*
X133188095Y-73664299D01*
X133473809Y-73664299D02*
X133473809Y-72664299D01*
X133473809Y-72664299D02*
X133378571Y-72807156D01*
X133378571Y-72807156D02*
X133283333Y-72902394D01*
X133283333Y-72902394D02*
X133188095Y-72950013D01*
X128188094Y-77678584D02*
X128664284Y-77678584D01*
X128092856Y-77964299D02*
X128426189Y-76964299D01*
X128426189Y-76964299D02*
X128759522Y-77964299D01*
X129092856Y-77297632D02*
X129092856Y-77964299D01*
X129092856Y-77392870D02*
X129140475Y-77345251D01*
X129140475Y-77345251D02*
X129235713Y-77297632D01*
X129235713Y-77297632D02*
X129378570Y-77297632D01*
X129378570Y-77297632D02*
X129473808Y-77345251D01*
X129473808Y-77345251D02*
X129521427Y-77440489D01*
X129521427Y-77440489D02*
X129521427Y-77964299D01*
X129854761Y-77297632D02*
X130235713Y-77297632D01*
X129997618Y-76964299D02*
X129997618Y-77821441D01*
X129997618Y-77821441D02*
X130045237Y-77916680D01*
X130045237Y-77916680D02*
X130140475Y-77964299D01*
X130140475Y-77964299D02*
X130235713Y-77964299D01*
X130949999Y-77916680D02*
X130854761Y-77964299D01*
X130854761Y-77964299D02*
X130664285Y-77964299D01*
X130664285Y-77964299D02*
X130569047Y-77916680D01*
X130569047Y-77916680D02*
X130521428Y-77821441D01*
X130521428Y-77821441D02*
X130521428Y-77440489D01*
X130521428Y-77440489D02*
X130569047Y-77345251D01*
X130569047Y-77345251D02*
X130664285Y-77297632D01*
X130664285Y-77297632D02*
X130854761Y-77297632D01*
X130854761Y-77297632D02*
X130949999Y-77345251D01*
X130949999Y-77345251D02*
X130997618Y-77440489D01*
X130997618Y-77440489D02*
X130997618Y-77535727D01*
X130997618Y-77535727D02*
X130521428Y-77630965D01*
X131426190Y-77297632D02*
X131426190Y-77964299D01*
X131426190Y-77392870D02*
X131473809Y-77345251D01*
X131473809Y-77345251D02*
X131569047Y-77297632D01*
X131569047Y-77297632D02*
X131711904Y-77297632D01*
X131711904Y-77297632D02*
X131807142Y-77345251D01*
X131807142Y-77345251D02*
X131854761Y-77440489D01*
X131854761Y-77440489D02*
X131854761Y-77964299D01*
X132330952Y-77297632D02*
X132330952Y-77964299D01*
X132330952Y-77392870D02*
X132378571Y-77345251D01*
X132378571Y-77345251D02*
X132473809Y-77297632D01*
X132473809Y-77297632D02*
X132616666Y-77297632D01*
X132616666Y-77297632D02*
X132711904Y-77345251D01*
X132711904Y-77345251D02*
X132759523Y-77440489D01*
X132759523Y-77440489D02*
X132759523Y-77964299D01*
X133664285Y-77964299D02*
X133664285Y-77440489D01*
X133664285Y-77440489D02*
X133616666Y-77345251D01*
X133616666Y-77345251D02*
X133521428Y-77297632D01*
X133521428Y-77297632D02*
X133330952Y-77297632D01*
X133330952Y-77297632D02*
X133235714Y-77345251D01*
X133664285Y-77916680D02*
X133569047Y-77964299D01*
X133569047Y-77964299D02*
X133330952Y-77964299D01*
X133330952Y-77964299D02*
X133235714Y-77916680D01*
X133235714Y-77916680D02*
X133188095Y-77821441D01*
X133188095Y-77821441D02*
X133188095Y-77726203D01*
X133188095Y-77726203D02*
X133235714Y-77630965D01*
X133235714Y-77630965D02*
X133330952Y-77583346D01*
X133330952Y-77583346D02*
X133569047Y-77583346D01*
X133569047Y-77583346D02*
X133664285Y-77535727D01*
X134854762Y-77678584D02*
X135330952Y-77678584D01*
X134759524Y-77964299D02*
X135092857Y-76964299D01*
X135092857Y-76964299D02*
X135426190Y-77964299D01*
X135759524Y-77964299D02*
X135759524Y-77297632D01*
X135759524Y-77488108D02*
X135807143Y-77392870D01*
X135807143Y-77392870D02*
X135854762Y-77345251D01*
X135854762Y-77345251D02*
X135950000Y-77297632D01*
X135950000Y-77297632D02*
X136045238Y-77297632D01*
X136759524Y-77916680D02*
X136664286Y-77964299D01*
X136664286Y-77964299D02*
X136473810Y-77964299D01*
X136473810Y-77964299D02*
X136378572Y-77916680D01*
X136378572Y-77916680D02*
X136330953Y-77821441D01*
X136330953Y-77821441D02*
X136330953Y-77440489D01*
X136330953Y-77440489D02*
X136378572Y-77345251D01*
X136378572Y-77345251D02*
X136473810Y-77297632D01*
X136473810Y-77297632D02*
X136664286Y-77297632D01*
X136664286Y-77297632D02*
X136759524Y-77345251D01*
X136759524Y-77345251D02*
X136807143Y-77440489D01*
X136807143Y-77440489D02*
X136807143Y-77535727D01*
X136807143Y-77535727D02*
X136330953Y-77630965D01*
X137664286Y-77964299D02*
X137664286Y-77440489D01*
X137664286Y-77440489D02*
X137616667Y-77345251D01*
X137616667Y-77345251D02*
X137521429Y-77297632D01*
X137521429Y-77297632D02*
X137330953Y-77297632D01*
X137330953Y-77297632D02*
X137235715Y-77345251D01*
X137664286Y-77916680D02*
X137569048Y-77964299D01*
X137569048Y-77964299D02*
X137330953Y-77964299D01*
X137330953Y-77964299D02*
X137235715Y-77916680D01*
X137235715Y-77916680D02*
X137188096Y-77821441D01*
X137188096Y-77821441D02*
X137188096Y-77726203D01*
X137188096Y-77726203D02*
X137235715Y-77630965D01*
X137235715Y-77630965D02*
X137330953Y-77583346D01*
X137330953Y-77583346D02*
X137569048Y-77583346D01*
X137569048Y-77583346D02*
X137664286Y-77535727D01*
X134411095Y-130381299D02*
X134411095Y-131190822D01*
X134411095Y-131190822D02*
X134458714Y-131286060D01*
X134458714Y-131286060D02*
X134506333Y-131333680D01*
X134506333Y-131333680D02*
X134601571Y-131381299D01*
X134601571Y-131381299D02*
X134792047Y-131381299D01*
X134792047Y-131381299D02*
X134887285Y-131333680D01*
X134887285Y-131333680D02*
X134934904Y-131286060D01*
X134934904Y-131286060D02*
X134982523Y-131190822D01*
X134982523Y-131190822D02*
X134982523Y-130381299D01*
X135887285Y-130714632D02*
X135887285Y-131381299D01*
X135649190Y-130333680D02*
X135411095Y-131047965D01*
X135411095Y-131047965D02*
X136030142Y-131047965D01*
X142533120Y-123438299D02*
X143152167Y-123438299D01*
X143152167Y-123438299D02*
X142818834Y-123819251D01*
X142818834Y-123819251D02*
X142961691Y-123819251D01*
X142961691Y-123819251D02*
X143056929Y-123866870D01*
X143056929Y-123866870D02*
X143104548Y-123914489D01*
X143104548Y-123914489D02*
X143152167Y-124009727D01*
X143152167Y-124009727D02*
X143152167Y-124247822D01*
X143152167Y-124247822D02*
X143104548Y-124343060D01*
X143104548Y-124343060D02*
X143056929Y-124390680D01*
X143056929Y-124390680D02*
X142961691Y-124438299D01*
X142961691Y-124438299D02*
X142675977Y-124438299D01*
X142675977Y-124438299D02*
X142580739Y-124390680D01*
X142580739Y-124390680D02*
X142533120Y-124343060D01*
X143485501Y-123771632D02*
X143723596Y-124438299D01*
X143723596Y-124438299D02*
X143961691Y-123771632D01*
X144247406Y-123438299D02*
X144866453Y-123438299D01*
X144866453Y-123438299D02*
X144533120Y-123819251D01*
X144533120Y-123819251D02*
X144675977Y-123819251D01*
X144675977Y-123819251D02*
X144771215Y-123866870D01*
X144771215Y-123866870D02*
X144818834Y-123914489D01*
X144818834Y-123914489D02*
X144866453Y-124009727D01*
X144866453Y-124009727D02*
X144866453Y-124247822D01*
X144866453Y-124247822D02*
X144818834Y-124343060D01*
X144818834Y-124343060D02*
X144771215Y-124390680D01*
X144771215Y-124390680D02*
X144675977Y-124438299D01*
X144675977Y-124438299D02*
X144390263Y-124438299D01*
X144390263Y-124438299D02*
X144295025Y-124390680D01*
X144295025Y-124390680D02*
X144247406Y-124343060D01*
X142644167Y-138471918D02*
X142548929Y-138424299D01*
X142548929Y-138424299D02*
X142406072Y-138424299D01*
X142406072Y-138424299D02*
X142263215Y-138471918D01*
X142263215Y-138471918D02*
X142167977Y-138567156D01*
X142167977Y-138567156D02*
X142120358Y-138662394D01*
X142120358Y-138662394D02*
X142072739Y-138852870D01*
X142072739Y-138852870D02*
X142072739Y-138995727D01*
X142072739Y-138995727D02*
X142120358Y-139186203D01*
X142120358Y-139186203D02*
X142167977Y-139281441D01*
X142167977Y-139281441D02*
X142263215Y-139376680D01*
X142263215Y-139376680D02*
X142406072Y-139424299D01*
X142406072Y-139424299D02*
X142501310Y-139424299D01*
X142501310Y-139424299D02*
X142644167Y-139376680D01*
X142644167Y-139376680D02*
X142691786Y-139329060D01*
X142691786Y-139329060D02*
X142691786Y-138995727D01*
X142691786Y-138995727D02*
X142501310Y-138995727D01*
X143120358Y-139424299D02*
X143120358Y-138424299D01*
X143120358Y-138424299D02*
X143691786Y-139424299D01*
X143691786Y-139424299D02*
X143691786Y-138424299D01*
X144167977Y-139424299D02*
X144167977Y-138424299D01*
X144167977Y-138424299D02*
X144406072Y-138424299D01*
X144406072Y-138424299D02*
X144548929Y-138471918D01*
X144548929Y-138471918D02*
X144644167Y-138567156D01*
X144644167Y-138567156D02*
X144691786Y-138662394D01*
X144691786Y-138662394D02*
X144739405Y-138852870D01*
X144739405Y-138852870D02*
X144739405Y-138995727D01*
X144739405Y-138995727D02*
X144691786Y-139186203D01*
X144691786Y-139186203D02*
X144644167Y-139281441D01*
X144644167Y-139281441D02*
X144548929Y-139376680D01*
X144548929Y-139376680D02*
X144406072Y-139424299D01*
X144406072Y-139424299D02*
X144167977Y-139424299D01*
X127150167Y-138217918D02*
X127054929Y-138170299D01*
X127054929Y-138170299D02*
X126912072Y-138170299D01*
X126912072Y-138170299D02*
X126769215Y-138217918D01*
X126769215Y-138217918D02*
X126673977Y-138313156D01*
X126673977Y-138313156D02*
X126626358Y-138408394D01*
X126626358Y-138408394D02*
X126578739Y-138598870D01*
X126578739Y-138598870D02*
X126578739Y-138741727D01*
X126578739Y-138741727D02*
X126626358Y-138932203D01*
X126626358Y-138932203D02*
X126673977Y-139027441D01*
X126673977Y-139027441D02*
X126769215Y-139122680D01*
X126769215Y-139122680D02*
X126912072Y-139170299D01*
X126912072Y-139170299D02*
X127007310Y-139170299D01*
X127007310Y-139170299D02*
X127150167Y-139122680D01*
X127150167Y-139122680D02*
X127197786Y-139075060D01*
X127197786Y-139075060D02*
X127197786Y-138741727D01*
X127197786Y-138741727D02*
X127007310Y-138741727D01*
X127626358Y-139170299D02*
X127626358Y-138170299D01*
X127626358Y-138170299D02*
X128197786Y-139170299D01*
X128197786Y-139170299D02*
X128197786Y-138170299D01*
X128673977Y-139170299D02*
X128673977Y-138170299D01*
X128673977Y-138170299D02*
X128912072Y-138170299D01*
X128912072Y-138170299D02*
X129054929Y-138217918D01*
X129054929Y-138217918D02*
X129150167Y-138313156D01*
X129150167Y-138313156D02*
X129197786Y-138408394D01*
X129197786Y-138408394D02*
X129245405Y-138598870D01*
X129245405Y-138598870D02*
X129245405Y-138741727D01*
X129245405Y-138741727D02*
X129197786Y-138932203D01*
X129197786Y-138932203D02*
X129150167Y-139027441D01*
X129150167Y-139027441D02*
X129054929Y-139122680D01*
X129054929Y-139122680D02*
X128912072Y-139170299D01*
X128912072Y-139170299D02*
X128673977Y-139170299D01*
X126229501Y-123184299D02*
X126562834Y-124184299D01*
X126562834Y-124184299D02*
X126896167Y-123184299D01*
X127658072Y-124136680D02*
X127562834Y-124184299D01*
X127562834Y-124184299D02*
X127372358Y-124184299D01*
X127372358Y-124184299D02*
X127277120Y-124136680D01*
X127277120Y-124136680D02*
X127229501Y-124089060D01*
X127229501Y-124089060D02*
X127181882Y-123993822D01*
X127181882Y-123993822D02*
X127181882Y-123708108D01*
X127181882Y-123708108D02*
X127229501Y-123612870D01*
X127229501Y-123612870D02*
X127277120Y-123565251D01*
X127277120Y-123565251D02*
X127372358Y-123517632D01*
X127372358Y-123517632D02*
X127562834Y-123517632D01*
X127562834Y-123517632D02*
X127658072Y-123565251D01*
X128515215Y-124136680D02*
X128419977Y-124184299D01*
X128419977Y-124184299D02*
X128229501Y-124184299D01*
X128229501Y-124184299D02*
X128134263Y-124136680D01*
X128134263Y-124136680D02*
X128086644Y-124089060D01*
X128086644Y-124089060D02*
X128039025Y-123993822D01*
X128039025Y-123993822D02*
X128039025Y-123708108D01*
X128039025Y-123708108D02*
X128086644Y-123612870D01*
X128086644Y-123612870D02*
X128134263Y-123565251D01*
X128134263Y-123565251D02*
X128229501Y-123517632D01*
X128229501Y-123517632D02*
X128419977Y-123517632D01*
X128419977Y-123517632D02*
X128515215Y-123565251D01*
X145440495Y-102171899D02*
X145440495Y-102981422D01*
X145440495Y-102981422D02*
X145488114Y-103076660D01*
X145488114Y-103076660D02*
X145535733Y-103124280D01*
X145535733Y-103124280D02*
X145630971Y-103171899D01*
X145630971Y-103171899D02*
X145821447Y-103171899D01*
X145821447Y-103171899D02*
X145916685Y-103124280D01*
X145916685Y-103124280D02*
X145964304Y-103076660D01*
X145964304Y-103076660D02*
X146011923Y-102981422D01*
X146011923Y-102981422D02*
X146011923Y-102171899D01*
X146392876Y-102171899D02*
X147011923Y-102171899D01*
X147011923Y-102171899D02*
X146678590Y-102552851D01*
X146678590Y-102552851D02*
X146821447Y-102552851D01*
X146821447Y-102552851D02*
X146916685Y-102600470D01*
X146916685Y-102600470D02*
X146964304Y-102648089D01*
X146964304Y-102648089D02*
X147011923Y-102743327D01*
X147011923Y-102743327D02*
X147011923Y-102981422D01*
X147011923Y-102981422D02*
X146964304Y-103076660D01*
X146964304Y-103076660D02*
X146916685Y-103124280D01*
X146916685Y-103124280D02*
X146821447Y-103171899D01*
X146821447Y-103171899D02*
X146535733Y-103171899D01*
X146535733Y-103171899D02*
X146440495Y-103124280D01*
X146440495Y-103124280D02*
X146392876Y-103076660D01*
X134166260Y-117921066D02*
X134213880Y-117968685D01*
X134213880Y-117968685D02*
X134261499Y-118111542D01*
X134261499Y-118111542D02*
X134261499Y-118206780D01*
X134261499Y-118206780D02*
X134213880Y-118349637D01*
X134213880Y-118349637D02*
X134118641Y-118444875D01*
X134118641Y-118444875D02*
X134023403Y-118492494D01*
X134023403Y-118492494D02*
X133832927Y-118540113D01*
X133832927Y-118540113D02*
X133690070Y-118540113D01*
X133690070Y-118540113D02*
X133499594Y-118492494D01*
X133499594Y-118492494D02*
X133404356Y-118444875D01*
X133404356Y-118444875D02*
X133309118Y-118349637D01*
X133309118Y-118349637D02*
X133261499Y-118206780D01*
X133261499Y-118206780D02*
X133261499Y-118111542D01*
X133261499Y-118111542D02*
X133309118Y-117968685D01*
X133309118Y-117968685D02*
X133356737Y-117921066D01*
X133261499Y-117016304D02*
X133261499Y-117492494D01*
X133261499Y-117492494D02*
X133737689Y-117540113D01*
X133737689Y-117540113D02*
X133690070Y-117492494D01*
X133690070Y-117492494D02*
X133642451Y-117397256D01*
X133642451Y-117397256D02*
X133642451Y-117159161D01*
X133642451Y-117159161D02*
X133690070Y-117063923D01*
X133690070Y-117063923D02*
X133737689Y-117016304D01*
X133737689Y-117016304D02*
X133832927Y-116968685D01*
X133832927Y-116968685D02*
X134071022Y-116968685D01*
X134071022Y-116968685D02*
X134166260Y-117016304D01*
X134166260Y-117016304D02*
X134213880Y-117063923D01*
X134213880Y-117063923D02*
X134261499Y-117159161D01*
X134261499Y-117159161D02*
X134261499Y-117397256D01*
X134261499Y-117397256D02*
X134213880Y-117492494D01*
X134213880Y-117492494D02*
X134166260Y-117540113D01*
X117266666Y-104399299D02*
X117266666Y-105113584D01*
X117266666Y-105113584D02*
X117219047Y-105256441D01*
X117219047Y-105256441D02*
X117123809Y-105351680D01*
X117123809Y-105351680D02*
X116980952Y-105399299D01*
X116980952Y-105399299D02*
X116885714Y-105399299D01*
X117647619Y-104399299D02*
X118266666Y-104399299D01*
X118266666Y-104399299D02*
X117933333Y-104780251D01*
X117933333Y-104780251D02*
X118076190Y-104780251D01*
X118076190Y-104780251D02*
X118171428Y-104827870D01*
X118171428Y-104827870D02*
X118219047Y-104875489D01*
X118219047Y-104875489D02*
X118266666Y-104970727D01*
X118266666Y-104970727D02*
X118266666Y-105208822D01*
X118266666Y-105208822D02*
X118219047Y-105304060D01*
X118219047Y-105304060D02*
X118171428Y-105351680D01*
X118171428Y-105351680D02*
X118076190Y-105399299D01*
X118076190Y-105399299D02*
X117790476Y-105399299D01*
X117790476Y-105399299D02*
X117695238Y-105351680D01*
X117695238Y-105351680D02*
X117647619Y-105304060D01*
X120666666Y-126774299D02*
X120666666Y-127488584D01*
X120666666Y-127488584D02*
X120619047Y-127631441D01*
X120619047Y-127631441D02*
X120523809Y-127726680D01*
X120523809Y-127726680D02*
X120380952Y-127774299D01*
X120380952Y-127774299D02*
X120285714Y-127774299D01*
X121095238Y-126869537D02*
X121142857Y-126821918D01*
X121142857Y-126821918D02*
X121238095Y-126774299D01*
X121238095Y-126774299D02*
X121476190Y-126774299D01*
X121476190Y-126774299D02*
X121571428Y-126821918D01*
X121571428Y-126821918D02*
X121619047Y-126869537D01*
X121619047Y-126869537D02*
X121666666Y-126964775D01*
X121666666Y-126964775D02*
X121666666Y-127060013D01*
X121666666Y-127060013D02*
X121619047Y-127202870D01*
X121619047Y-127202870D02*
X121047619Y-127774299D01*
X121047619Y-127774299D02*
X121666666Y-127774299D01*
X119704299Y-87316666D02*
X119228108Y-87649999D01*
X119704299Y-87888094D02*
X118704299Y-87888094D01*
X118704299Y-87888094D02*
X118704299Y-87507142D01*
X118704299Y-87507142D02*
X118751918Y-87411904D01*
X118751918Y-87411904D02*
X118799537Y-87364285D01*
X118799537Y-87364285D02*
X118894775Y-87316666D01*
X118894775Y-87316666D02*
X119037632Y-87316666D01*
X119037632Y-87316666D02*
X119132870Y-87364285D01*
X119132870Y-87364285D02*
X119180489Y-87411904D01*
X119180489Y-87411904D02*
X119228108Y-87507142D01*
X119228108Y-87507142D02*
X119228108Y-87888094D01*
X119704299Y-86364285D02*
X119704299Y-86935713D01*
X119704299Y-86649999D02*
X118704299Y-86649999D01*
X118704299Y-86649999D02*
X118847156Y-86745237D01*
X118847156Y-86745237D02*
X118942394Y-86840475D01*
X118942394Y-86840475D02*
X118990013Y-86935713D01*
X117266666Y-118974299D02*
X117266666Y-119688584D01*
X117266666Y-119688584D02*
X117219047Y-119831441D01*
X117219047Y-119831441D02*
X117123809Y-119926680D01*
X117123809Y-119926680D02*
X116980952Y-119974299D01*
X116980952Y-119974299D02*
X116885714Y-119974299D01*
X118171428Y-119307632D02*
X118171428Y-119974299D01*
X117933333Y-118926680D02*
X117695238Y-119640965D01*
X117695238Y-119640965D02*
X118314285Y-119640965D01*
X119579060Y-83466666D02*
X119626680Y-83514285D01*
X119626680Y-83514285D02*
X119674299Y-83657142D01*
X119674299Y-83657142D02*
X119674299Y-83752380D01*
X119674299Y-83752380D02*
X119626680Y-83895237D01*
X119626680Y-83895237D02*
X119531441Y-83990475D01*
X119531441Y-83990475D02*
X119436203Y-84038094D01*
X119436203Y-84038094D02*
X119245727Y-84085713D01*
X119245727Y-84085713D02*
X119102870Y-84085713D01*
X119102870Y-84085713D02*
X118912394Y-84038094D01*
X118912394Y-84038094D02*
X118817156Y-83990475D01*
X118817156Y-83990475D02*
X118721918Y-83895237D01*
X118721918Y-83895237D02*
X118674299Y-83752380D01*
X118674299Y-83752380D02*
X118674299Y-83657142D01*
X118674299Y-83657142D02*
X118721918Y-83514285D01*
X118721918Y-83514285D02*
X118769537Y-83466666D01*
X119674299Y-82514285D02*
X119674299Y-83085713D01*
X119674299Y-82799999D02*
X118674299Y-82799999D01*
X118674299Y-82799999D02*
X118817156Y-82895237D01*
X118817156Y-82895237D02*
X118912394Y-82990475D01*
X118912394Y-82990475D02*
X118960013Y-83085713D01*
X134471060Y-109285066D02*
X134518680Y-109332685D01*
X134518680Y-109332685D02*
X134566299Y-109475542D01*
X134566299Y-109475542D02*
X134566299Y-109570780D01*
X134566299Y-109570780D02*
X134518680Y-109713637D01*
X134518680Y-109713637D02*
X134423441Y-109808875D01*
X134423441Y-109808875D02*
X134328203Y-109856494D01*
X134328203Y-109856494D02*
X134137727Y-109904113D01*
X134137727Y-109904113D02*
X133994870Y-109904113D01*
X133994870Y-109904113D02*
X133804394Y-109856494D01*
X133804394Y-109856494D02*
X133709156Y-109808875D01*
X133709156Y-109808875D02*
X133613918Y-109713637D01*
X133613918Y-109713637D02*
X133566299Y-109570780D01*
X133566299Y-109570780D02*
X133566299Y-109475542D01*
X133566299Y-109475542D02*
X133613918Y-109332685D01*
X133613918Y-109332685D02*
X133661537Y-109285066D01*
X133661537Y-108904113D02*
X133613918Y-108856494D01*
X133613918Y-108856494D02*
X133566299Y-108761256D01*
X133566299Y-108761256D02*
X133566299Y-108523161D01*
X133566299Y-108523161D02*
X133613918Y-108427923D01*
X133613918Y-108427923D02*
X133661537Y-108380304D01*
X133661537Y-108380304D02*
X133756775Y-108332685D01*
X133756775Y-108332685D02*
X133852013Y-108332685D01*
X133852013Y-108332685D02*
X133994870Y-108380304D01*
X133994870Y-108380304D02*
X134566299Y-108951732D01*
X134566299Y-108951732D02*
X134566299Y-108332685D01*
X125106133Y-121517060D02*
X125058514Y-121564680D01*
X125058514Y-121564680D02*
X124915657Y-121612299D01*
X124915657Y-121612299D02*
X124820419Y-121612299D01*
X124820419Y-121612299D02*
X124677562Y-121564680D01*
X124677562Y-121564680D02*
X124582324Y-121469441D01*
X124582324Y-121469441D02*
X124534705Y-121374203D01*
X124534705Y-121374203D02*
X124487086Y-121183727D01*
X124487086Y-121183727D02*
X124487086Y-121040870D01*
X124487086Y-121040870D02*
X124534705Y-120850394D01*
X124534705Y-120850394D02*
X124582324Y-120755156D01*
X124582324Y-120755156D02*
X124677562Y-120659918D01*
X124677562Y-120659918D02*
X124820419Y-120612299D01*
X124820419Y-120612299D02*
X124915657Y-120612299D01*
X124915657Y-120612299D02*
X125058514Y-120659918D01*
X125058514Y-120659918D02*
X125106133Y-120707537D01*
X125963276Y-120945632D02*
X125963276Y-121612299D01*
X125725181Y-120564680D02*
X125487086Y-121278965D01*
X125487086Y-121278965D02*
X126106133Y-121278965D01*
X132559060Y-109429166D02*
X132606680Y-109476785D01*
X132606680Y-109476785D02*
X132654299Y-109619642D01*
X132654299Y-109619642D02*
X132654299Y-109714880D01*
X132654299Y-109714880D02*
X132606680Y-109857737D01*
X132606680Y-109857737D02*
X132511441Y-109952975D01*
X132511441Y-109952975D02*
X132416203Y-110000594D01*
X132416203Y-110000594D02*
X132225727Y-110048213D01*
X132225727Y-110048213D02*
X132082870Y-110048213D01*
X132082870Y-110048213D02*
X131892394Y-110000594D01*
X131892394Y-110000594D02*
X131797156Y-109952975D01*
X131797156Y-109952975D02*
X131701918Y-109857737D01*
X131701918Y-109857737D02*
X131654299Y-109714880D01*
X131654299Y-109714880D02*
X131654299Y-109619642D01*
X131654299Y-109619642D02*
X131701918Y-109476785D01*
X131701918Y-109476785D02*
X131749537Y-109429166D01*
X131654299Y-109095832D02*
X131654299Y-108476785D01*
X131654299Y-108476785D02*
X132035251Y-108810118D01*
X132035251Y-108810118D02*
X132035251Y-108667261D01*
X132035251Y-108667261D02*
X132082870Y-108572023D01*
X132082870Y-108572023D02*
X132130489Y-108524404D01*
X132130489Y-108524404D02*
X132225727Y-108476785D01*
X132225727Y-108476785D02*
X132463822Y-108476785D01*
X132463822Y-108476785D02*
X132559060Y-108524404D01*
X132559060Y-108524404D02*
X132606680Y-108572023D01*
X132606680Y-108572023D02*
X132654299Y-108667261D01*
X132654299Y-108667261D02*
X132654299Y-108952975D01*
X132654299Y-108952975D02*
X132606680Y-109048213D01*
X132606680Y-109048213D02*
X132559060Y-109095832D01*
X122228095Y-106794299D02*
X122228095Y-107603822D01*
X122228095Y-107603822D02*
X122275714Y-107699060D01*
X122275714Y-107699060D02*
X122323333Y-107746680D01*
X122323333Y-107746680D02*
X122418571Y-107794299D01*
X122418571Y-107794299D02*
X122609047Y-107794299D01*
X122609047Y-107794299D02*
X122704285Y-107746680D01*
X122704285Y-107746680D02*
X122751904Y-107699060D01*
X122751904Y-107699060D02*
X122799523Y-107603822D01*
X122799523Y-107603822D02*
X122799523Y-106794299D01*
X123228095Y-106889537D02*
X123275714Y-106841918D01*
X123275714Y-106841918D02*
X123370952Y-106794299D01*
X123370952Y-106794299D02*
X123609047Y-106794299D01*
X123609047Y-106794299D02*
X123704285Y-106841918D01*
X123704285Y-106841918D02*
X123751904Y-106889537D01*
X123751904Y-106889537D02*
X123799523Y-106984775D01*
X123799523Y-106984775D02*
X123799523Y-107080013D01*
X123799523Y-107080013D02*
X123751904Y-107222870D01*
X123751904Y-107222870D02*
X123180476Y-107794299D01*
X123180476Y-107794299D02*
X123799523Y-107794299D01*
D11*
%TO.C,kibuzzard-684B1AD4*%
G36*
X152378326Y-80396199D02*
G01*
X152439758Y-80405311D01*
X152500002Y-80420402D01*
X152558476Y-80441324D01*
X152614618Y-80467877D01*
X152667888Y-80499806D01*
X152717771Y-80536801D01*
X152763787Y-80578508D01*
X152805494Y-80624525D01*
X152842490Y-80674408D01*
X152874418Y-80727677D01*
X152900972Y-80783819D01*
X152921894Y-80842294D01*
X152936984Y-80902537D01*
X152946097Y-80963970D01*
X152949144Y-81026000D01*
X152946097Y-81088030D01*
X152936984Y-81149463D01*
X152921894Y-81209706D01*
X152900972Y-81268181D01*
X152874418Y-81324323D01*
X152842490Y-81377592D01*
X152805494Y-81427475D01*
X152763787Y-81473492D01*
X152717771Y-81515199D01*
X152667888Y-81552194D01*
X152614618Y-81584123D01*
X152558476Y-81610676D01*
X152500002Y-81631598D01*
X152439758Y-81646689D01*
X152378326Y-81655801D01*
X152316296Y-81658849D01*
X152316188Y-81658849D01*
X152008595Y-81658849D01*
X151337836Y-81658849D01*
X150716188Y-81658849D01*
X150493894Y-81658849D01*
X150278493Y-81658849D01*
X150105598Y-81399506D01*
X150493894Y-81399506D01*
X150533959Y-81413722D01*
X150590178Y-81427939D01*
X150653506Y-81438924D01*
X150716188Y-81443447D01*
X150790824Y-81438763D01*
X150854476Y-81424708D01*
X150907464Y-81402090D01*
X150950114Y-81371719D01*
X151005687Y-81290943D01*
X151023781Y-81188843D01*
X151015219Y-81123900D01*
X150989532Y-81068649D01*
X150948337Y-81024384D01*
X150893248Y-80992397D01*
X150965623Y-80925192D01*
X150992763Y-80833431D01*
X150990291Y-80819215D01*
X151105203Y-80819215D01*
X151132707Y-80909158D01*
X151160938Y-80995467D01*
X151189896Y-81078141D01*
X151219581Y-81157179D01*
X151259430Y-81255761D01*
X151298848Y-81345584D01*
X151337836Y-81426646D01*
X151470954Y-81426646D01*
X151484224Y-81399506D01*
X151786301Y-81399506D01*
X151826366Y-81413722D01*
X151882585Y-81427939D01*
X151945913Y-81438924D01*
X152008595Y-81443447D01*
X152083232Y-81438763D01*
X152146883Y-81424708D01*
X152199871Y-81402090D01*
X152242521Y-81371719D01*
X152298094Y-81290943D01*
X152316188Y-81188843D01*
X152307626Y-81123900D01*
X152281939Y-81068649D01*
X152240744Y-81024384D01*
X152185655Y-80992397D01*
X152258030Y-80925192D01*
X152285170Y-80833431D01*
X152269661Y-80744255D01*
X152221842Y-80672527D01*
X152139774Y-80625354D01*
X152085655Y-80612753D01*
X152022812Y-80608553D01*
X151954152Y-80614530D01*
X151892925Y-80632462D01*
X151800518Y-80679635D01*
X151857383Y-80795952D01*
X151934282Y-80759118D01*
X152024104Y-80744255D01*
X152097125Y-80769457D01*
X152123619Y-80838601D01*
X152111341Y-80887712D01*
X152079677Y-80918730D01*
X152035736Y-80935532D01*
X151986624Y-80940701D01*
X151927173Y-80940701D01*
X151927173Y-81072527D01*
X151976285Y-81072527D01*
X152047044Y-81078827D01*
X152104233Y-81097729D01*
X152142036Y-81132462D01*
X152154637Y-81186258D01*
X152121681Y-81272850D01*
X152076608Y-81299021D01*
X152007303Y-81307745D01*
X151946075Y-81304191D01*
X151894217Y-81293528D01*
X151817319Y-81266388D01*
X151786301Y-81399506D01*
X151484224Y-81399506D01*
X151510588Y-81345584D01*
X151551945Y-81255761D01*
X151595025Y-81157179D01*
X151627254Y-81078141D01*
X151658030Y-80995467D01*
X151687351Y-80909158D01*
X151715219Y-80819215D01*
X151553668Y-80819215D01*
X151540259Y-80869942D01*
X151523296Y-80923900D01*
X151504233Y-80979635D01*
X151484524Y-81035693D01*
X151464330Y-81091105D01*
X151443813Y-81144901D01*
X151406333Y-81241832D01*
X151370792Y-81144901D01*
X151352214Y-81091105D01*
X151333959Y-81035693D01*
X151316350Y-80979635D01*
X151299710Y-80923900D01*
X151284686Y-80869942D01*
X151271923Y-80819215D01*
X151105203Y-80819215D01*
X150990291Y-80819215D01*
X150977254Y-80744255D01*
X150929435Y-80672527D01*
X150847367Y-80625354D01*
X150793248Y-80612753D01*
X150730404Y-80608553D01*
X150661745Y-80614530D01*
X150600518Y-80632462D01*
X150508110Y-80679635D01*
X150564976Y-80795952D01*
X150641875Y-80759118D01*
X150731697Y-80744255D01*
X150804718Y-80769457D01*
X150831212Y-80838601D01*
X150818934Y-80887712D01*
X150787270Y-80918730D01*
X150743329Y-80935532D01*
X150694217Y-80940701D01*
X150634766Y-80940701D01*
X150634766Y-81072527D01*
X150683878Y-81072527D01*
X150754637Y-81078827D01*
X150811826Y-81097729D01*
X150849629Y-81132462D01*
X150862230Y-81186258D01*
X150829274Y-81272850D01*
X150784201Y-81299021D01*
X150714896Y-81307745D01*
X150653668Y-81304191D01*
X150601810Y-81293528D01*
X150524912Y-81266388D01*
X150493894Y-81399506D01*
X150105598Y-81399506D01*
X149856594Y-81026000D01*
X150278493Y-80393151D01*
X150493894Y-80393151D01*
X152316188Y-80393151D01*
X152316296Y-80393151D01*
X152378326Y-80396199D01*
G37*
%TO.C,kibuzzard-684B1AB8*%
G36*
X151886027Y-88232260D02*
G01*
X151946205Y-88241187D01*
X152005219Y-88255969D01*
X152062499Y-88276464D01*
X152117494Y-88302475D01*
X152169676Y-88333752D01*
X152218540Y-88369992D01*
X152263617Y-88410847D01*
X152304472Y-88455924D01*
X152340712Y-88504788D01*
X152371989Y-88556970D01*
X152398000Y-88611965D01*
X152418495Y-88669245D01*
X152433277Y-88728259D01*
X152442204Y-88788437D01*
X152445189Y-88849200D01*
X152442204Y-88909963D01*
X152433277Y-88970141D01*
X152418495Y-89029155D01*
X152398000Y-89086435D01*
X152371989Y-89141430D01*
X152340712Y-89193612D01*
X152304472Y-89242476D01*
X152263617Y-89287553D01*
X152218540Y-89328408D01*
X152169676Y-89364648D01*
X152117494Y-89395925D01*
X152062499Y-89421936D01*
X152005219Y-89442431D01*
X151946205Y-89457213D01*
X151886027Y-89466140D01*
X151825264Y-89469125D01*
X151825156Y-89469125D01*
X151653266Y-89469125D01*
X151178953Y-89469125D01*
X150616756Y-89469125D01*
X150401354Y-89469125D01*
X149988071Y-88849200D01*
X150243967Y-88465355D01*
X150616756Y-88465355D01*
X150616756Y-89253723D01*
X150775722Y-89253723D01*
X150775722Y-88959055D01*
X150858436Y-88959055D01*
X150902216Y-89032237D01*
X150943088Y-89104450D01*
X150980084Y-89177633D01*
X151012232Y-89253723D01*
X151178953Y-89253723D01*
X151207386Y-89253723D01*
X151379276Y-89253723D01*
X151409001Y-89183772D01*
X151443896Y-89105743D01*
X151481376Y-89025129D01*
X151518856Y-88947423D01*
X151556820Y-89027552D01*
X151593169Y-89107681D01*
X151625964Y-89184257D01*
X151653266Y-89253723D01*
X151825156Y-89253723D01*
X151790261Y-89169071D01*
X151766513Y-89117374D01*
X151739211Y-89061801D01*
X151709001Y-89003481D01*
X151676529Y-88943546D01*
X151642604Y-88884095D01*
X151608032Y-88827229D01*
X151812232Y-88453723D01*
X151651974Y-88453723D01*
X151518856Y-88709620D01*
X151392200Y-88453723D01*
X151220310Y-88453723D01*
X151429680Y-88831106D01*
X151398016Y-88887811D01*
X151365059Y-88946777D01*
X151332265Y-89006066D01*
X151301085Y-89063740D01*
X151272006Y-89118667D01*
X151245512Y-89169717D01*
X151207386Y-89253723D01*
X151178953Y-89253723D01*
X151142119Y-89169071D01*
X151097531Y-89079895D01*
X151049712Y-88994596D01*
X151003185Y-88920282D01*
X151059728Y-88883772D01*
X151097531Y-88833691D01*
X151118856Y-88773594D01*
X151125964Y-88707035D01*
X151120633Y-88644192D01*
X151104639Y-88590072D01*
X151043250Y-88508005D01*
X150999308Y-88479895D01*
X150947612Y-88460185D01*
X150888807Y-88448554D01*
X150823541Y-88444677D01*
X150778307Y-88445969D01*
X150724025Y-88449200D01*
X150667806Y-88455662D01*
X150616756Y-88465355D01*
X150243967Y-88465355D01*
X150401354Y-88229275D01*
X150616756Y-88229275D01*
X151825156Y-88229275D01*
X151825264Y-88229275D01*
X151886027Y-88232260D01*
G37*
G36*
X150880730Y-88590395D02*
G01*
X150925641Y-88612689D01*
X150954720Y-88650816D01*
X150964413Y-88705743D01*
X150928226Y-88795565D01*
X150880730Y-88819313D01*
X150810617Y-88827229D01*
X150775722Y-88827229D01*
X150775722Y-88586841D01*
X150801570Y-88583610D01*
X150823541Y-88582964D01*
X150880730Y-88590395D01*
G37*
%TO.C,kibuzzard-684B1AB0*%
G36*
X151920048Y-85696762D02*
G01*
X151979787Y-85705624D01*
X152038369Y-85720298D01*
X152095232Y-85740643D01*
X152149826Y-85766465D01*
X152201626Y-85797513D01*
X152250134Y-85833488D01*
X152294882Y-85874046D01*
X152335439Y-85918794D01*
X152371415Y-85967301D01*
X152402463Y-86019102D01*
X152428284Y-86073696D01*
X152448630Y-86130558D01*
X152463304Y-86189141D01*
X152472166Y-86248880D01*
X152475129Y-86309200D01*
X152472166Y-86369520D01*
X152463304Y-86429259D01*
X152448630Y-86487842D01*
X152428284Y-86544704D01*
X152402463Y-86599298D01*
X152371415Y-86651099D01*
X152335439Y-86699606D01*
X152294882Y-86744354D01*
X152250134Y-86784912D01*
X152201626Y-86820887D01*
X152149826Y-86851935D01*
X152095232Y-86877757D01*
X152038369Y-86898102D01*
X151979787Y-86912776D01*
X151920048Y-86921638D01*
X151859728Y-86924601D01*
X151859620Y-86924601D01*
X151687730Y-86924601D01*
X150984661Y-86924601D01*
X150613740Y-86924601D01*
X150398338Y-86924601D01*
X149988071Y-86309200D01*
X150166854Y-86041026D01*
X150613740Y-86041026D01*
X150824402Y-86041026D01*
X150824402Y-86709200D01*
X150984661Y-86709200D01*
X151241850Y-86709200D01*
X151413740Y-86709200D01*
X151443465Y-86639248D01*
X151478360Y-86561219D01*
X151515840Y-86480605D01*
X151553320Y-86402900D01*
X151591284Y-86483029D01*
X151627633Y-86563158D01*
X151660428Y-86639733D01*
X151687730Y-86709200D01*
X151859620Y-86709200D01*
X151824725Y-86624547D01*
X151800977Y-86572851D01*
X151773675Y-86517278D01*
X151743465Y-86458958D01*
X151710993Y-86399022D01*
X151677068Y-86339572D01*
X151642496Y-86282706D01*
X151846696Y-85909200D01*
X151686438Y-85909200D01*
X151553320Y-86165097D01*
X151426664Y-85909200D01*
X151254774Y-85909200D01*
X151464144Y-86286583D01*
X151432480Y-86343287D01*
X151399523Y-86402253D01*
X151366728Y-86461542D01*
X151335549Y-86519216D01*
X151306470Y-86574143D01*
X151279976Y-86625194D01*
X151241850Y-86709200D01*
X150984661Y-86709200D01*
X150984661Y-86041026D01*
X151195323Y-86041026D01*
X151195323Y-85909200D01*
X150613740Y-85909200D01*
X150613740Y-86041026D01*
X150166854Y-86041026D01*
X150398338Y-85693799D01*
X150613740Y-85693799D01*
X151859620Y-85693799D01*
X151859728Y-85693799D01*
X151920048Y-85696762D01*
G37*
%TO.C,kibuzzard-684B1A93*%
G36*
X151802121Y-92574363D02*
G01*
X151802121Y-93056431D01*
X151802121Y-93572101D01*
X151802121Y-94731391D01*
X151802121Y-95700696D01*
X151802121Y-96994395D01*
X151802121Y-97719436D01*
X151802121Y-98365639D01*
X151802121Y-99044153D01*
X151802121Y-99266447D01*
X151802121Y-99266555D01*
X151798395Y-99342393D01*
X151787254Y-99417500D01*
X151768805Y-99491154D01*
X151743225Y-99562645D01*
X151710761Y-99631284D01*
X151671726Y-99696411D01*
X151626494Y-99757398D01*
X151575503Y-99813658D01*
X151519243Y-99864649D01*
X151458256Y-99909880D01*
X151393130Y-99948916D01*
X151324490Y-99981380D01*
X151252999Y-100006960D01*
X151179345Y-100025409D01*
X151104238Y-100036550D01*
X151028400Y-100040276D01*
X150952562Y-100036550D01*
X150877455Y-100025409D01*
X150803801Y-100006960D01*
X150732310Y-99981380D01*
X150663670Y-99948916D01*
X150598544Y-99909880D01*
X150537557Y-99864649D01*
X150481297Y-99813658D01*
X150430306Y-99757398D01*
X150385074Y-99696411D01*
X150346039Y-99631284D01*
X150313575Y-99562645D01*
X150287995Y-99491154D01*
X150269546Y-99417500D01*
X150258405Y-99342393D01*
X150254679Y-99266555D01*
X150254679Y-99266447D01*
X150254679Y-99059662D01*
X150564426Y-99059662D01*
X150570242Y-99166932D01*
X150583812Y-99266447D01*
X151360549Y-99266447D01*
X151370726Y-99210551D01*
X151377996Y-99154008D01*
X151382358Y-99098111D01*
X151383812Y-99044153D01*
X151380742Y-98980341D01*
X151371534Y-98920728D01*
X151355056Y-98867093D01*
X151330177Y-98821213D01*
X151252633Y-98754654D01*
X151198190Y-98736237D01*
X151131793Y-98730098D01*
X151077511Y-98737368D01*
X151025815Y-98759177D01*
X150980581Y-98801342D01*
X150945686Y-98869678D01*
X150875896Y-98795365D01*
X150828723Y-98774525D01*
X150775088Y-98767578D01*
X150700129Y-98779210D01*
X150632277Y-98823152D01*
X150583166Y-98912328D01*
X150569111Y-98977594D01*
X150564426Y-99059662D01*
X150254679Y-99059662D01*
X150254679Y-98366932D01*
X150555379Y-98366932D01*
X150567082Y-98450795D01*
X150602193Y-98521446D01*
X150660710Y-98578887D01*
X150719717Y-98612247D01*
X150791405Y-98636076D01*
X150875775Y-98650373D01*
X150972826Y-98655139D01*
X151069878Y-98650494D01*
X151154248Y-98636560D01*
X151225936Y-98613337D01*
X151284943Y-98580825D01*
X151343460Y-98523887D01*
X151378571Y-98452159D01*
X151390274Y-98365639D01*
X151378571Y-98281202D01*
X151343460Y-98210551D01*
X151284943Y-98153685D01*
X151225936Y-98120890D01*
X151154248Y-98097465D01*
X151069878Y-98083410D01*
X150972826Y-98078725D01*
X150875775Y-98083329D01*
X150791405Y-98097142D01*
X150719717Y-98120163D01*
X150660710Y-98152392D01*
X150602193Y-98208971D01*
X150567082Y-98280484D01*
X150555379Y-98366932D01*
X150254679Y-98366932D01*
X150254679Y-97720728D01*
X150555379Y-97720728D01*
X150567082Y-97804591D01*
X150602193Y-97875243D01*
X150660710Y-97932683D01*
X150719717Y-97966043D01*
X150791405Y-97989872D01*
X150875775Y-98004169D01*
X150972826Y-98008935D01*
X151069878Y-98004290D01*
X151154248Y-97990357D01*
X151225936Y-97967134D01*
X151284943Y-97934622D01*
X151343460Y-97877684D01*
X151378571Y-97805955D01*
X151390274Y-97719436D01*
X151378571Y-97634999D01*
X151343460Y-97564347D01*
X151284943Y-97507481D01*
X151225936Y-97474686D01*
X151154248Y-97451261D01*
X151069878Y-97437206D01*
X150972826Y-97432521D01*
X150875775Y-97437126D01*
X150791405Y-97450938D01*
X150719717Y-97473959D01*
X150660710Y-97506189D01*
X150602193Y-97562767D01*
X150567082Y-97634281D01*
X150555379Y-97720728D01*
X150254679Y-97720728D01*
X150254679Y-96783733D01*
X150573473Y-96783733D01*
X150573473Y-97365316D01*
X150705298Y-97365316D01*
X150705298Y-97154654D01*
X151373473Y-97154654D01*
X151373473Y-96994395D01*
X150705298Y-96994395D01*
X150705298Y-96783733D01*
X150573473Y-96783733D01*
X150254679Y-96783733D01*
X150254679Y-95700696D01*
X150470080Y-95700696D01*
X150470080Y-95860954D01*
X151586720Y-95860954D01*
X151586720Y-95700696D01*
X150470080Y-95700696D01*
X150254679Y-95700696D01*
X150254679Y-94241568D01*
X150573473Y-94241568D01*
X150573473Y-94731391D01*
X151373473Y-94731391D01*
X151373473Y-94572425D01*
X151030985Y-94572425D01*
X151030985Y-94282925D01*
X150899159Y-94282925D01*
X150899159Y-94572425D01*
X150705298Y-94572425D01*
X150705298Y-94241568D01*
X150573473Y-94241568D01*
X150254679Y-94241568D01*
X150254679Y-93914589D01*
X150573473Y-93914589D01*
X150573473Y-94074848D01*
X151373473Y-94074848D01*
X151373473Y-93572101D01*
X151241647Y-93572101D01*
X151241647Y-93914589D01*
X150573473Y-93914589D01*
X150254679Y-93914589D01*
X150254679Y-93108127D01*
X150573473Y-93108127D01*
X150573473Y-93281310D01*
X150661962Y-93308693D01*
X150752956Y-93336560D01*
X150846453Y-93364912D01*
X150942455Y-93393749D01*
X151021938Y-93416961D01*
X151104781Y-93440069D01*
X151190985Y-93463074D01*
X151280549Y-93485975D01*
X151373473Y-93508774D01*
X151373473Y-93343345D01*
X151188658Y-93307158D01*
X151188658Y-93093911D01*
X151373473Y-93056431D01*
X151373473Y-92885833D01*
X151282772Y-92907158D01*
X151194707Y-92928741D01*
X151109279Y-92950583D01*
X151026487Y-92972683D01*
X150946332Y-92995042D01*
X150849119Y-93023192D01*
X150754571Y-93051423D01*
X150662689Y-93079735D01*
X150573473Y-93108127D01*
X150254679Y-93108127D01*
X150254679Y-92536883D01*
X150555379Y-92536883D01*
X150562415Y-92616079D01*
X150583525Y-92683069D01*
X150618707Y-92737853D01*
X150694313Y-92792618D01*
X150794474Y-92810874D01*
X150889466Y-92790195D01*
X150953440Y-92737853D01*
X150996090Y-92667416D01*
X151025815Y-92592457D01*
X151048432Y-92538176D01*
X151075573Y-92489064D01*
X151109822Y-92452877D01*
X151153763Y-92438660D01*
X151191889Y-92444476D01*
X151225492Y-92465801D01*
X151248755Y-92507804D01*
X151257156Y-92574363D01*
X151252633Y-92638822D01*
X151239062Y-92692618D01*
X151200290Y-92775979D01*
X151329531Y-92822505D01*
X151368949Y-92733329D01*
X151384943Y-92663862D01*
X151390274Y-92574363D01*
X151383453Y-92483679D01*
X151362990Y-92409797D01*
X151328885Y-92352715D01*
X151254733Y-92297950D01*
X151155056Y-92279694D01*
X151094797Y-92285187D01*
X151045847Y-92301665D01*
X150973473Y-92357885D01*
X150926946Y-92432845D01*
X150895282Y-92511035D01*
X150875896Y-92560793D01*
X150851986Y-92606027D01*
X150820969Y-92638984D01*
X150780258Y-92651908D01*
X150729280Y-92637835D01*
X150698693Y-92595616D01*
X150688497Y-92525252D01*
X150701421Y-92434137D01*
X150732439Y-92362408D01*
X150609660Y-92315882D01*
X150572180Y-92408289D01*
X150559579Y-92467901D01*
X150555379Y-92536883D01*
X150254679Y-92536883D01*
X150254679Y-91639953D01*
X150573473Y-91639953D01*
X150573473Y-91798919D01*
X150888820Y-91798919D01*
X150888820Y-92010874D01*
X150573473Y-92010874D01*
X150573473Y-92169840D01*
X151373473Y-92169840D01*
X151373473Y-92010874D01*
X151020646Y-92010874D01*
X151020646Y-91798919D01*
X151373473Y-91798919D01*
X151373473Y-91639953D01*
X150573473Y-91639953D01*
X150254679Y-91639953D01*
X150254679Y-91639845D01*
X150258405Y-91564007D01*
X150269546Y-91488900D01*
X150287995Y-91415246D01*
X150313575Y-91343755D01*
X150346039Y-91275116D01*
X150385074Y-91209989D01*
X150430306Y-91149002D01*
X150481297Y-91092742D01*
X150537557Y-91041751D01*
X150598544Y-90996520D01*
X150663670Y-90957484D01*
X150732310Y-90925020D01*
X150803801Y-90899440D01*
X150877455Y-90880991D01*
X150952562Y-90869850D01*
X151028400Y-90866124D01*
X151104238Y-90869850D01*
X151179345Y-90880991D01*
X151252999Y-90899440D01*
X151324490Y-90925020D01*
X151393130Y-90957484D01*
X151458256Y-90996520D01*
X151519243Y-91041751D01*
X151575503Y-91092742D01*
X151626494Y-91149002D01*
X151671726Y-91209989D01*
X151710761Y-91275116D01*
X151743225Y-91343755D01*
X151768805Y-91415246D01*
X151787254Y-91488900D01*
X151798395Y-91564007D01*
X151802121Y-91639845D01*
X151802121Y-91639953D01*
X151802121Y-92574363D01*
G37*
G36*
X151029046Y-98241407D02*
G01*
X151081389Y-98244799D01*
X151169919Y-98262893D01*
X151230016Y-98301665D01*
X151251986Y-98366932D01*
X151230016Y-98432845D01*
X151170565Y-98470971D01*
X151082035Y-98489064D01*
X151029208Y-98492457D01*
X150972826Y-98493588D01*
X150916607Y-98492457D01*
X150864264Y-98489064D01*
X150775734Y-98470971D01*
X150715637Y-98432845D01*
X150693667Y-98366932D01*
X150715637Y-98301019D01*
X150775088Y-98262893D01*
X150863618Y-98244799D01*
X150916445Y-98241407D01*
X150972826Y-98240276D01*
X151029046Y-98241407D01*
G37*
G36*
X151029046Y-97595203D02*
G01*
X151081389Y-97598596D01*
X151169919Y-97616690D01*
X151230016Y-97655462D01*
X151251986Y-97720728D01*
X151230016Y-97786641D01*
X151170565Y-97824767D01*
X151082035Y-97842861D01*
X151029208Y-97846253D01*
X150972826Y-97847384D01*
X150916607Y-97846253D01*
X150864264Y-97842861D01*
X150775734Y-97824767D01*
X150715637Y-97786641D01*
X150693667Y-97720728D01*
X150715637Y-97654816D01*
X150775088Y-97616690D01*
X150863618Y-97598596D01*
X150916445Y-97595203D01*
X150972826Y-97594072D01*
X151029046Y-97595203D01*
G37*
G36*
X151056833Y-93277433D02*
G01*
X150974119Y-93261278D01*
X150894636Y-93243184D01*
X150814507Y-93222505D01*
X150728562Y-93198596D01*
X150814507Y-93174686D01*
X150894636Y-93154008D01*
X150974119Y-93136560D01*
X151056833Y-93121051D01*
X151056833Y-93277433D01*
G37*
G36*
X151189305Y-98899404D02*
G01*
X151224200Y-98932360D01*
X151241001Y-98978240D01*
X151245524Y-99031229D01*
X151244232Y-99070647D01*
X151240355Y-99107481D01*
X151023230Y-99107481D01*
X151023230Y-99022182D01*
X151048432Y-98923313D01*
X151131793Y-98886479D01*
X151189305Y-98899404D01*
G37*
G36*
X150864911Y-98953685D02*
G01*
X150891405Y-99045446D01*
X150891405Y-99107481D01*
X150707883Y-99107481D01*
X150704006Y-99072586D01*
X150702713Y-99035106D01*
X150705944Y-98992457D01*
X150718868Y-98956269D01*
X150746009Y-98931714D01*
X150791889Y-98922667D01*
X150864911Y-98953685D01*
G37*
%TO.C,kibuzzard-684B1A20*%
G36*
X152535120Y-83037799D02*
G01*
X152596553Y-83046911D01*
X152656796Y-83062002D01*
X152715271Y-83082924D01*
X152771413Y-83109477D01*
X152824682Y-83141406D01*
X152874565Y-83178401D01*
X152920582Y-83220108D01*
X152962289Y-83266125D01*
X152999284Y-83316008D01*
X153031213Y-83369277D01*
X153057766Y-83425419D01*
X153078688Y-83483894D01*
X153093779Y-83544137D01*
X153102891Y-83605570D01*
X153105939Y-83667600D01*
X153102891Y-83729630D01*
X153093779Y-83791063D01*
X153078688Y-83851306D01*
X153057766Y-83909781D01*
X153031213Y-83965923D01*
X152999284Y-84019192D01*
X152962289Y-84069075D01*
X152920582Y-84115092D01*
X152874565Y-84156799D01*
X152824682Y-84193794D01*
X152771413Y-84225723D01*
X152715271Y-84252276D01*
X152656796Y-84273198D01*
X152596553Y-84288289D01*
X152535120Y-84297401D01*
X152473090Y-84300449D01*
X152472982Y-84300449D01*
X152102061Y-84300449D01*
X151674275Y-84300449D01*
X150931141Y-84300449D01*
X150604162Y-84300449D01*
X150388760Y-84300449D01*
X149966861Y-83667600D01*
X150604162Y-83667600D01*
X150609977Y-83764692D01*
X150627425Y-83849183D01*
X150655535Y-83920912D01*
X150693338Y-83979716D01*
X150740349Y-84025597D01*
X150796084Y-84058553D01*
X150859897Y-84078424D01*
X150931141Y-84085047D01*
X151010139Y-84081816D01*
X151076536Y-84072123D01*
X151091290Y-84068246D01*
X151274921Y-84068246D01*
X151418378Y-84068246D01*
X151418378Y-83537067D01*
X151466413Y-83625740D01*
X151512293Y-83714270D01*
X151556019Y-83802657D01*
X151597592Y-83891043D01*
X151637010Y-83979573D01*
X151674275Y-84068246D01*
X151802223Y-84068246D01*
X151802223Y-83278585D01*
X151931464Y-83278585D01*
X151931464Y-84059199D01*
X152018701Y-84074062D01*
X152102061Y-84078585D01*
X152180091Y-84072931D01*
X152251334Y-84055968D01*
X152314501Y-84026728D01*
X152368297Y-83984240D01*
X152412078Y-83927858D01*
X152445196Y-83856938D01*
X152466036Y-83770508D01*
X152472982Y-83667600D01*
X152466682Y-83566954D01*
X152447780Y-83482140D01*
X152417570Y-83412026D01*
X152377344Y-83355484D01*
X152327102Y-83312350D01*
X152266843Y-83282463D01*
X152198184Y-83265015D01*
X152122740Y-83259199D01*
X152033564Y-83263077D01*
X151931464Y-83278585D01*
X151802223Y-83278585D01*
X151802223Y-83268246D01*
X151658766Y-83268246D01*
X151658766Y-83760653D01*
X151635987Y-83710249D01*
X151609008Y-83652091D01*
X151578637Y-83589086D01*
X151545680Y-83524143D01*
X151510947Y-83458068D01*
X151475244Y-83391671D01*
X151439057Y-83327535D01*
X151402869Y-83268246D01*
X151274921Y-83268246D01*
X151274921Y-84068246D01*
X151091290Y-84068246D01*
X151165066Y-84048860D01*
X151165066Y-83649506D01*
X151006100Y-83649506D01*
X151006100Y-83941590D01*
X150975082Y-83945468D01*
X150944065Y-83946760D01*
X150866843Y-83929797D01*
X150810947Y-83878909D01*
X150785817Y-83825274D01*
X150770739Y-83754837D01*
X150765713Y-83667600D01*
X150768459Y-83608311D01*
X150776698Y-83554514D01*
X150812885Y-83466631D01*
X150876860Y-83409119D01*
X150972498Y-83388440D01*
X151057797Y-83402657D01*
X151127587Y-83434967D01*
X151168944Y-83308311D01*
X151142449Y-83292802D01*
X151097861Y-83273416D01*
X151033887Y-83257261D01*
X150950527Y-83250153D01*
X150880414Y-83256776D01*
X150814824Y-83276647D01*
X150755696Y-83309765D01*
X150704969Y-83356130D01*
X150663289Y-83415419D01*
X150631302Y-83487309D01*
X150610947Y-83571477D01*
X150604162Y-83667600D01*
X149966861Y-83667600D01*
X150388760Y-83034751D01*
X150604162Y-83034751D01*
X152472982Y-83034751D01*
X152473090Y-83034751D01*
X152535120Y-83037799D01*
G37*
G36*
X152223548Y-83420104D02*
G01*
X152276536Y-83480201D01*
X152303677Y-83566792D01*
X152311431Y-83667600D01*
X152309008Y-83724627D01*
X152301738Y-83776808D01*
X152269428Y-83862753D01*
X152209977Y-83919619D01*
X152118863Y-83940298D01*
X152104646Y-83940298D01*
X152090430Y-83939005D01*
X152090430Y-83401364D01*
X152113693Y-83398133D01*
X152136956Y-83397487D01*
X152223548Y-83420104D01*
G37*
D12*
%TO.C,U1*%
X123950000Y-74510000D02*
X123950000Y-81260000D01*
X123950000Y-74510000D02*
X141950000Y-74510000D01*
X123950000Y-99260000D02*
X123950000Y-100010000D01*
X123950000Y-100010000D02*
X124700000Y-100010000D01*
X124700000Y-100010000D02*
X126450000Y-100010000D01*
X141200000Y-100010000D02*
X139450000Y-100010000D01*
X141950000Y-74510000D02*
X141950000Y-81260000D01*
X141950000Y-80450000D02*
X123950000Y-80450000D01*
X141950000Y-99260000D02*
X141950000Y-100010000D01*
X141950000Y-100010000D02*
X141200000Y-100010000D01*
%TO.C,J1*%
X149630000Y-82440000D02*
X149630000Y-90170000D01*
X146870000Y-90170000D02*
X149630000Y-90170000D01*
X146870000Y-82440000D02*
X149630000Y-82440000D01*
X146870000Y-82440000D02*
X146870000Y-90170000D01*
X146870000Y-81170000D02*
X146870000Y-79790000D01*
X146870000Y-79790000D02*
X148250000Y-79790000D01*
%TO.C,U4*%
D13*
X126673000Y-125427000D02*
X143673000Y-125427000D01*
X143673000Y-137427000D01*
X126673000Y-137427000D01*
X126673000Y-125427000D01*
D12*
%TO.C,JP1*%
X146920000Y-91390000D02*
X148300000Y-91390000D01*
X146920000Y-92770000D02*
X146920000Y-91390000D01*
X146920000Y-94040000D02*
X146920000Y-99230000D01*
X146920000Y-94040000D02*
X149680000Y-94040000D01*
X146920000Y-99230000D02*
X149680000Y-99230000D01*
X149680000Y-94040000D02*
X149680000Y-99230000D01*
D13*
%TO.C,U3*%
X139500000Y-119600000D02*
X139500000Y-105600000D01*
X141500000Y-103600000D02*
X150500000Y-103600000D01*
X150500000Y-121600000D02*
X141500000Y-121600000D01*
X152500000Y-105600000D02*
X152500000Y-119600000D01*
X139500000Y-105600000D02*
G75*
G02*
X141500000Y-103600000I1999999J1D01*
G01*
X141500000Y-121600000D02*
G75*
G02*
X139500000Y-119600000I-1J1999999D01*
G01*
X150500000Y-103600000D02*
G75*
G02*
X152500000Y-105600000I0J-2000000D01*
G01*
X152500000Y-119600000D02*
G75*
G02*
X150500000Y-121600000I-2000000J0D01*
G01*
D12*
%TO.C,C5*%
X131465000Y-116361252D02*
X131465000Y-115838748D01*
X132935000Y-116361252D02*
X132935000Y-115838748D01*
%TO.C,J3*%
X116220000Y-105945000D02*
X117600000Y-105945000D01*
X116220000Y-107325000D02*
X116220000Y-105945000D01*
X116220000Y-108595000D02*
X116220000Y-111245000D01*
X116220000Y-108595000D02*
X118980000Y-108595000D01*
X116220000Y-111245000D02*
X118980000Y-111245000D01*
X118980000Y-108595000D02*
X118980000Y-111245000D01*
%TO.C,J2*%
X119620000Y-128320000D02*
X121000000Y-128320000D01*
X119620000Y-129700000D02*
X119620000Y-128320000D01*
X119620000Y-130970000D02*
X119620000Y-133620000D01*
X119620000Y-130970000D02*
X122380000Y-130970000D01*
X119620000Y-133620000D02*
X122380000Y-133620000D01*
X122380000Y-130970000D02*
X122380000Y-133620000D01*
%TO.C,R1*%
X120165000Y-87377064D02*
X120165000Y-86922936D01*
X121635000Y-87377064D02*
X121635000Y-86922936D01*
%TO.C,J4*%
X116220000Y-115870000D02*
X116220000Y-113220000D01*
X118980000Y-113220000D02*
X116220000Y-113220000D01*
X118980000Y-115870000D02*
X116220000Y-115870000D01*
X118980000Y-115870000D02*
X118980000Y-113220000D01*
X118980000Y-117140000D02*
X118980000Y-118520000D01*
X118980000Y-118520000D02*
X117600000Y-118520000D01*
%TO.C,C1*%
X120165000Y-83561252D02*
X120165000Y-83038748D01*
X121635000Y-83561252D02*
X121635000Y-83038748D01*
%TO.C,C2*%
X133540000Y-111204437D02*
X133540000Y-114660000D01*
X133540000Y-114660000D02*
X134740000Y-114660000D01*
X134604437Y-110140000D02*
X133540000Y-111204437D01*
X134604437Y-110140000D02*
X134740000Y-110140000D01*
X136995563Y-110140000D02*
X136860000Y-110140000D01*
X136995563Y-110140000D02*
X138060000Y-111204437D01*
X137360000Y-109400000D02*
X137360000Y-109900000D01*
X137610000Y-109650000D02*
X137110000Y-109650000D01*
X138060000Y-111204437D02*
X138060000Y-114660000D01*
X138060000Y-114660000D02*
X136860000Y-114660000D01*
%TO.C,C4*%
X125700000Y-118040000D02*
X126200000Y-118040000D01*
X125950000Y-117790000D02*
X125950000Y-118290000D01*
X126440000Y-118404437D02*
X126440000Y-118540000D01*
X126440000Y-118404437D02*
X127504437Y-117340000D01*
X126440000Y-120795563D02*
X126440000Y-120660000D01*
X126440000Y-120795563D02*
X127504437Y-121860000D01*
X127504437Y-117340000D02*
X130960000Y-117340000D01*
X127504437Y-121860000D02*
X130960000Y-121860000D01*
X130960000Y-117340000D02*
X130960000Y-118540000D01*
X130960000Y-121860000D02*
X130960000Y-120660000D01*
%TO.C,C3*%
X131465000Y-112001248D02*
X131465000Y-112523752D01*
X132935000Y-112001248D02*
X132935000Y-112523752D01*
D14*
%TO.C,U2*%
X122615000Y-108215000D02*
X122615000Y-108440000D01*
X122615000Y-108215000D02*
X128365000Y-108215000D01*
X122615000Y-116865000D02*
X122615000Y-116640000D01*
X122615000Y-116865000D02*
X128365000Y-116865000D01*
X128365000Y-108215000D02*
X128365000Y-108440000D01*
X128365000Y-116865000D02*
X128365000Y-116640000D01*
D12*
X122115000Y-108465000D02*
X121875000Y-108135000D01*
X122355000Y-108135000D01*
X122115000Y-108465000D01*
G36*
X122115000Y-108465000D02*
G01*
X121875000Y-108135000D01*
X122355000Y-108135000D01*
X122115000Y-108465000D01*
G37*
%TD*%
M02*
