%TF.GenerationSoftware,KiCad,Pcbnew,9.0.2-9.0.2-0~ubuntu24.04.1*%
%TF.CreationDate,2025-06-12T20:24:44+02:00*%
%TF.ProjectId,PCB_Robot,5043425f-526f-4626-9f74-2e6b69636164,rev?*%
%TF.SameCoordinates,Original*%
%TF.FileFunction,Soldermask,Top*%
%TF.FilePolarity,Negative*%
%FSLAX46Y46*%
G04 Gerber Fmt 4.6, Leading zero omitted, Abs format (unit mm)*
G04 Created by KiCad (PCBNEW 9.0.2-9.0.2-0~ubuntu24.04.1) date 2025-06-12 20:24:44*
%MOMM*%
%LPD*%
G01*
G04 APERTURE LIST*
G04 Aperture macros list*
%AMRoundRect*
0 Rectangle with rounded corners*
0 $1 Rounding radius*
0 $2 $3 $4 $5 $6 $7 $8 $9 X,Y pos of 4 corners*
0 Add a 4 corners polygon primitive as box body*
4,1,4,$2,$3,$4,$5,$6,$7,$8,$9,$2,$3,0*
0 Add four circle primitives for the rounded corners*
1,1,$1+$1,$2,$3*
1,1,$1+$1,$4,$5*
1,1,$1+$1,$6,$7*
1,1,$1+$1,$8,$9*
0 Add four rect primitives between the rounded corners*
20,1,$1+$1,$2,$3,$4,$5,0*
20,1,$1+$1,$4,$5,$6,$7,0*
20,1,$1+$1,$6,$7,$8,$9,0*
20,1,$1+$1,$8,$9,$2,$3,0*%
G04 Aperture macros list end*
%ADD10C,5.600000*%
%ADD11R,1.500000X0.900000*%
%ADD12R,0.900000X1.500000*%
%ADD13R,0.900000X0.900000*%
%ADD14C,1.700000*%
%ADD15R,1.700000X1.700000*%
%ADD16RoundRect,0.600000X-1.900000X-1.400000X1.900000X-1.400000X1.900000X1.400000X-1.900000X1.400000X0*%
%ADD17RoundRect,0.250000X0.475000X-0.337500X0.475000X0.337500X-0.475000X0.337500X-0.475000X-0.337500X0*%
%ADD18RoundRect,0.250000X0.450000X-0.350000X0.450000X0.350000X-0.450000X0.350000X-0.450000X-0.350000X0*%
%ADD19RoundRect,0.250000X-0.550000X1.050000X-0.550000X-1.050000X0.550000X-1.050000X0.550000X1.050000X0*%
%ADD20RoundRect,0.250000X-1.050000X-0.550000X1.050000X-0.550000X1.050000X0.550000X-1.050000X0.550000X0*%
%ADD21RoundRect,0.250000X-0.475000X0.337500X-0.475000X-0.337500X0.475000X-0.337500X0.475000X0.337500X0*%
%ADD22R,1.750000X0.450000*%
G04 APERTURE END LIST*
D10*
%TO.C,REF\u002A\u002A*%
X116230400Y-136804400D03*
%TD*%
%TO.C,REF\u002A\u002A*%
X149758400Y-74828400D03*
%TD*%
%TO.C,REF\u002A\u002A*%
X117195600Y-74930000D03*
%TD*%
D11*
%TO.C,U1*%
X124200000Y-82000000D03*
X124200000Y-83270000D03*
X124200000Y-84540000D03*
X124200000Y-85810000D03*
X124200000Y-87080000D03*
X124200000Y-88350000D03*
X124200000Y-89620000D03*
X124200000Y-90890000D03*
X124200000Y-92160000D03*
X124200000Y-93430000D03*
X124200000Y-94700000D03*
X124200000Y-95970000D03*
X124200000Y-97240000D03*
X124200000Y-98510000D03*
D12*
X127230000Y-99760000D03*
X128500000Y-99760000D03*
X129770000Y-99760000D03*
X131040000Y-99760000D03*
X132310000Y-99760000D03*
X133580000Y-99760000D03*
X134850000Y-99760000D03*
X136120000Y-99760000D03*
X137390000Y-99760000D03*
X138660000Y-99760000D03*
D11*
X141700000Y-98510000D03*
X141700000Y-97240000D03*
X141700000Y-95970000D03*
X141700000Y-94700000D03*
X141700000Y-93430000D03*
X141700000Y-92160000D03*
X141700000Y-90890000D03*
X141700000Y-89620000D03*
X141700000Y-88350000D03*
X141700000Y-87080000D03*
X141700000Y-85810000D03*
X141700000Y-84540000D03*
X141700000Y-83270000D03*
X141700000Y-82000000D03*
D13*
X130050000Y-88320000D03*
X130050000Y-88320000D03*
X130050000Y-89720000D03*
X130050000Y-91120000D03*
X130050000Y-91120000D03*
X131450000Y-88320000D03*
X131450000Y-89720000D03*
X131450000Y-91120000D03*
X131450000Y-91120000D03*
X132850000Y-88320000D03*
X132850000Y-89720000D03*
X132850000Y-91120000D03*
%TD*%
D14*
%TO.C,J1*%
X148250000Y-88790000D03*
X148250000Y-86250000D03*
X148250000Y-83710000D03*
D15*
X148250000Y-81170000D03*
%TD*%
D16*
%TO.C,U4*%
X127553000Y-126601000D03*
X127553000Y-135745000D03*
X143047000Y-135999000D03*
X143047000Y-126855000D03*
%TD*%
D15*
%TO.C,JP1*%
X148300000Y-92770000D03*
D14*
X148300000Y-95310000D03*
X148300000Y-97850000D03*
%TD*%
%TO.C,U3*%
X140920000Y-104980000D03*
X140920000Y-107520000D03*
X140920000Y-110060000D03*
X140920000Y-112600000D03*
X140920000Y-115140000D03*
X140920000Y-117680000D03*
X140920000Y-120220000D03*
X151080000Y-107520000D03*
X151080000Y-110060000D03*
X151080000Y-112600000D03*
X151080000Y-115140000D03*
X151080000Y-117680000D03*
%TD*%
D17*
%TO.C,C5*%
X132200000Y-117137500D03*
X132200000Y-115062500D03*
%TD*%
D15*
%TO.C,J3*%
X117600000Y-107325000D03*
D14*
X117600000Y-109865000D03*
%TD*%
D15*
%TO.C,J2*%
X121000000Y-129700000D03*
D14*
X121000000Y-132240000D03*
%TD*%
D18*
%TO.C,R1*%
X120900000Y-88150000D03*
X120900000Y-86150000D03*
%TD*%
D15*
%TO.C,J4*%
X117600000Y-117140000D03*
D14*
X117600000Y-114600000D03*
%TD*%
D17*
%TO.C,C1*%
X120900000Y-84337500D03*
X120900000Y-82262500D03*
%TD*%
D19*
%TO.C,C2*%
X135800000Y-110600000D03*
X135800000Y-114200000D03*
%TD*%
D20*
%TO.C,C4*%
X126900000Y-119600000D03*
X130500000Y-119600000D03*
%TD*%
D21*
%TO.C,C3*%
X132200000Y-111225000D03*
X132200000Y-113300000D03*
%TD*%
D22*
%TO.C,U2*%
X121890000Y-108965000D03*
X121890000Y-109615000D03*
X121890000Y-110265000D03*
X121890000Y-110915000D03*
X121890000Y-111565000D03*
X121890000Y-112215000D03*
X121890000Y-112865000D03*
X121890000Y-113515000D03*
X121890000Y-114165000D03*
X121890000Y-114815000D03*
X121890000Y-115465000D03*
X121890000Y-116115000D03*
X129090000Y-116115000D03*
X129090000Y-115465000D03*
X129090000Y-114815000D03*
X129090000Y-114165000D03*
X129090000Y-113515000D03*
X129090000Y-112865000D03*
X129090000Y-112215000D03*
X129090000Y-111565000D03*
X129090000Y-110915000D03*
X129090000Y-110265000D03*
X129090000Y-109615000D03*
X129090000Y-108965000D03*
%TD*%
M02*
