%TF.GenerationSoftware,KiCad,Pcbnew,9.0.2-9.0.2-0~ubuntu24.04.1*%
%TF.CreationDate,2025-06-12T20:24:59+02:00*%
%TF.ProjectId,PCB_Robot,5043425f-526f-4626-9f74-2e6b69636164,rev?*%
%TF.SameCoordinates,Original*%
%TF.FileFunction,Drillmap*%
%TF.FilePolarity,Positive*%
%FSLAX45Y45*%
G04 Gerber Fmt 4.5, Leading zero omitted, Abs format (unit mm)*
G04 Created by KiCad (PCBNEW 9.0.2-9.0.2-0~ubuntu24.04.1) date 2025-06-12 20:24:59*
%MOMM*%
%LPD*%
G01*
G04 APERTURE LIST*
%ADD10C,0.200000*%
%ADD11C,0.100000*%
%ADD12C,0.320000*%
G04 APERTURE END LIST*
D10*
X12144040Y-7051800D02*
X12144040Y-8051800D01*
X12144040Y-8051800D02*
X14544040Y-8051800D01*
X14544040Y-8051800D02*
X14544040Y-7051800D01*
X14944040Y-7051800D02*
X14544040Y-7051800D01*
X14944040Y-7051800D02*
G75*
G02*
X15444040Y-7551800I0J-500000D01*
G01*
X15444040Y-13751800D02*
X15444040Y-7551800D01*
X15444040Y-13751800D02*
G75*
G02*
X14944040Y-14251800I-500000J0D01*
G01*
X11744040Y-14251800D02*
X14944040Y-14251800D01*
X11744040Y-14251800D02*
G75*
G02*
X11244040Y-13751800I0J500000D01*
G01*
X11244040Y-7551800D02*
X11244040Y-13751800D01*
X11244040Y-7551800D02*
G75*
G02*
X11744040Y-7051800I500000J0D01*
G01*
X12144040Y-7051800D02*
X11744040Y-7051800D01*
D11*
X12024600Y-13396200D02*
X12054600Y-13426200D01*
X12054600Y-13396200D02*
X12024600Y-13426200D01*
X12024600Y-13523200D02*
X12054600Y-13553200D01*
X12054600Y-13523200D02*
X12024600Y-13553200D01*
X12024600Y-13650200D02*
X12054600Y-13680200D01*
X12054600Y-13650200D02*
X12024600Y-13680200D01*
X12024600Y-13777200D02*
X12054600Y-13807200D01*
X12054600Y-13777200D02*
X12024600Y-13807200D01*
X12151600Y-13396200D02*
X12181600Y-13426200D01*
X12181600Y-13396200D02*
X12151600Y-13426200D01*
X12151600Y-13523200D02*
X12181600Y-13553200D01*
X12181600Y-13523200D02*
X12151600Y-13553200D01*
X12151600Y-13650200D02*
X12181600Y-13680200D01*
X12181600Y-13650200D02*
X12151600Y-13680200D01*
X12151600Y-13777200D02*
X12181600Y-13807200D01*
X12181600Y-13777200D02*
X12151600Y-13807200D01*
X12304000Y-13396200D02*
X12334000Y-13426200D01*
X12334000Y-13396200D02*
X12304000Y-13426200D01*
X12304000Y-13523200D02*
X12334000Y-13553200D01*
X12334000Y-13523200D02*
X12304000Y-13553200D01*
X12304000Y-13650200D02*
X12334000Y-13680200D01*
X12334000Y-13650200D02*
X12304000Y-13680200D01*
X12304000Y-13777200D02*
X12334000Y-13807200D01*
X12334000Y-13777200D02*
X12304000Y-13807200D01*
X12329400Y-11084800D02*
X12359400Y-11114800D01*
X12359400Y-11084800D02*
X12329400Y-11114800D01*
X12329400Y-11389600D02*
X12359400Y-11419600D01*
X12359400Y-11389600D02*
X12329400Y-11419600D01*
X12329400Y-13167600D02*
X12359400Y-13197600D01*
X12359400Y-13167600D02*
X12329400Y-13197600D01*
X12329400Y-13269200D02*
X12359400Y-13299200D01*
X12359400Y-13269200D02*
X12329400Y-13299200D01*
X12354800Y-11008600D02*
X12384800Y-11038600D01*
X12384800Y-11008600D02*
X12354800Y-11038600D01*
X12354800Y-11465800D02*
X12384800Y-11495800D01*
X12384800Y-11465800D02*
X12354800Y-11495800D01*
X12481800Y-13167600D02*
X12511800Y-13197600D01*
X12511800Y-13167600D02*
X12481800Y-13197600D01*
X12481800Y-13269200D02*
X12511800Y-13299200D01*
X12511800Y-13269200D02*
X12481800Y-13299200D01*
X12583400Y-8189200D02*
X12613400Y-8219200D01*
X12613400Y-8189200D02*
X12583400Y-8219200D01*
X12608800Y-13167600D02*
X12638800Y-13197600D01*
X12638800Y-13167600D02*
X12608800Y-13197600D01*
X12608800Y-13269200D02*
X12638800Y-13299200D01*
X12638800Y-13269200D02*
X12608800Y-13299200D01*
X12615000Y-11645000D02*
X12645000Y-11675000D01*
X12645000Y-11645000D02*
X12615000Y-11675000D01*
X12710400Y-9789400D02*
X12740400Y-9819400D01*
X12740400Y-9789400D02*
X12710400Y-9819400D01*
X12735223Y-11237776D02*
X12765223Y-11267776D01*
X12765223Y-11237776D02*
X12735223Y-11267776D01*
X12761200Y-13167600D02*
X12791200Y-13197600D01*
X12791200Y-13167600D02*
X12761200Y-13197600D01*
X12761200Y-13269200D02*
X12791200Y-13299200D01*
X12791200Y-13269200D02*
X12761200Y-13299200D01*
X12812000Y-8798800D02*
X12842000Y-8828800D01*
X12842000Y-8798800D02*
X12812000Y-8828800D01*
X12837400Y-8900400D02*
X12867400Y-8930400D01*
X12867400Y-8900400D02*
X12837400Y-8930400D01*
X12837400Y-9027400D02*
X12867400Y-9057400D01*
X12867400Y-9027400D02*
X12837400Y-9057400D01*
X12837400Y-9129000D02*
X12867400Y-9159000D01*
X12867400Y-9129000D02*
X12837400Y-9159000D01*
X12888200Y-13167600D02*
X12918200Y-13197600D01*
X12918200Y-13167600D02*
X12888200Y-13197600D01*
X12888200Y-13269200D02*
X12918200Y-13299200D01*
X12918200Y-13269200D02*
X12888200Y-13299200D01*
X12975000Y-10745000D02*
X13005000Y-10775000D01*
X13005000Y-10745000D02*
X12975000Y-10775000D01*
X12975000Y-10815000D02*
X13005000Y-10845000D01*
X13005000Y-10815000D02*
X12975000Y-10845000D01*
X13055000Y-10745000D02*
X13085000Y-10775000D01*
X13085000Y-10745000D02*
X13055000Y-10775000D01*
X13055000Y-10815000D02*
X13085000Y-10845000D01*
X13085000Y-10815000D02*
X13055000Y-10845000D01*
X13055000Y-10885000D02*
X13085000Y-10915000D01*
X13085000Y-10885000D02*
X13055000Y-10915000D01*
X13066000Y-11237200D02*
X13096000Y-11267200D01*
X13096000Y-11237200D02*
X13066000Y-11267200D01*
X13066000Y-11338800D02*
X13096000Y-11368800D01*
X13096000Y-11338800D02*
X13066000Y-11368800D01*
X13066000Y-11465800D02*
X13096000Y-11495800D01*
X13096000Y-11465800D02*
X13066000Y-11495800D01*
X13269200Y-11923000D02*
X13299200Y-11953000D01*
X13299200Y-11923000D02*
X13269200Y-11953000D01*
X13345400Y-11338800D02*
X13375400Y-11368800D01*
X13375400Y-11338800D02*
X13345400Y-11368800D01*
X13345400Y-11542000D02*
X13375400Y-11572000D01*
X13375400Y-11542000D02*
X13345400Y-11572000D01*
X13396200Y-11440400D02*
X13426200Y-11470400D01*
X13426200Y-11440400D02*
X13396200Y-11470400D01*
X13421600Y-8798800D02*
X13451600Y-8828800D01*
X13451600Y-8798800D02*
X13421600Y-8828800D01*
X13421600Y-8900400D02*
X13451600Y-8930400D01*
X13451600Y-8900400D02*
X13421600Y-8930400D01*
X13421600Y-9002000D02*
X13451600Y-9032000D01*
X13451600Y-9002000D02*
X13421600Y-9032000D01*
X13447000Y-9103600D02*
X13477000Y-9133600D01*
X13477000Y-9103600D02*
X13447000Y-9133600D01*
X13574000Y-11618200D02*
X13604000Y-11648200D01*
X13604000Y-11618200D02*
X13574000Y-11648200D01*
X13751800Y-11415000D02*
X13781800Y-11445000D01*
X13781800Y-11415000D02*
X13751800Y-11445000D01*
X13833080Y-13736560D02*
X13863080Y-13766560D01*
X13863080Y-13736560D02*
X13833080Y-13766560D01*
X13858480Y-13304760D02*
X13888480Y-13334760D01*
X13888480Y-13304760D02*
X13858480Y-13334760D01*
X13858480Y-13406360D02*
X13888480Y-13436360D01*
X13888480Y-13406360D02*
X13858480Y-13436360D01*
X13883880Y-13584160D02*
X13913880Y-13614160D01*
X13913880Y-13584160D02*
X13883880Y-13614160D01*
X13934680Y-13482560D02*
X13964680Y-13512560D01*
X13964680Y-13482560D02*
X13934680Y-13512560D01*
X13960080Y-13863560D02*
X13990080Y-13893560D01*
X13990080Y-13863560D02*
X13960080Y-13893560D01*
X14005800Y-8189200D02*
X14035800Y-8219200D01*
X14035800Y-8189200D02*
X14005800Y-8219200D01*
X14010880Y-13304760D02*
X14040880Y-13334760D01*
X14040880Y-13304760D02*
X14010880Y-13334760D01*
X14137880Y-13914360D02*
X14167880Y-13944360D01*
X14167880Y-13914360D02*
X14137880Y-13944360D01*
X14163280Y-13304760D02*
X14193280Y-13334760D01*
X14193280Y-13304760D02*
X14163280Y-13334760D01*
X14250000Y-9980000D02*
X14280000Y-10010000D01*
X14280000Y-9980000D02*
X14250000Y-10010000D01*
X14264880Y-13888960D02*
X14294880Y-13918960D01*
X14294880Y-13888960D02*
X14264880Y-13918960D01*
X14336000Y-8189200D02*
X14366000Y-8219200D01*
X14366000Y-8189200D02*
X14336000Y-8219200D01*
X14391880Y-13304760D02*
X14421880Y-13334760D01*
X14421880Y-13304760D02*
X14391880Y-13334760D01*
X14417280Y-13888960D02*
X14447280Y-13918960D01*
X14447280Y-13888960D02*
X14417280Y-13918960D01*
X14569680Y-13888960D02*
X14599680Y-13918960D01*
X14599680Y-13888960D02*
X14569680Y-13918960D01*
X14645880Y-13304760D02*
X14675880Y-13334760D01*
X14675880Y-13304760D02*
X14645880Y-13334760D01*
X14696680Y-13406360D02*
X14726680Y-13436360D01*
X14726680Y-13406360D02*
X14696680Y-13436360D01*
X14696680Y-13558760D02*
X14726680Y-13588760D01*
X14726680Y-13558760D02*
X14696680Y-13588760D01*
X14696680Y-13711160D02*
X14726680Y-13741160D01*
X14726680Y-13711160D02*
X14696680Y-13741160D01*
X14696680Y-13838160D02*
X14726680Y-13868160D01*
X14726680Y-13838160D02*
X14696680Y-13868160D01*
X12915000Y-10770000D02*
G75*
G02*
X12865000Y-10770000I-25000J0D01*
G01*
X12865000Y-10770000D02*
G75*
G02*
X12915000Y-10770000I25000J0D01*
G01*
X11760000Y-10682500D02*
X11760000Y-10782500D01*
X11710000Y-10732500D02*
X11810000Y-10732500D01*
X11760000Y-10936500D02*
X11760000Y-11036500D01*
X11710000Y-10986500D02*
X11810000Y-10986500D01*
X11760000Y-11410000D02*
X11760000Y-11510000D01*
X11710000Y-11460000D02*
X11810000Y-11460000D01*
X11760000Y-11664000D02*
X11760000Y-11764000D01*
X11710000Y-11714000D02*
X11810000Y-11714000D01*
X12100000Y-12920000D02*
X12100000Y-13020000D01*
X12050000Y-12970000D02*
X12150000Y-12970000D01*
X12100000Y-13174000D02*
X12100000Y-13274000D01*
X12050000Y-13224000D02*
X12150000Y-13224000D01*
X14092000Y-10448000D02*
X14092000Y-10548000D01*
X14042000Y-10498000D02*
X14142000Y-10498000D01*
X14092000Y-10702000D02*
X14092000Y-10802000D01*
X14042000Y-10752000D02*
X14142000Y-10752000D01*
X14092000Y-10956000D02*
X14092000Y-11056000D01*
X14042000Y-11006000D02*
X14142000Y-11006000D01*
X14092000Y-11210000D02*
X14092000Y-11310000D01*
X14042000Y-11260000D02*
X14142000Y-11260000D01*
X14092000Y-11464000D02*
X14092000Y-11564000D01*
X14042000Y-11514000D02*
X14142000Y-11514000D01*
X14092000Y-11718000D02*
X14092000Y-11818000D01*
X14042000Y-11768000D02*
X14142000Y-11768000D01*
X14092000Y-11972000D02*
X14092000Y-12072000D01*
X14042000Y-12022000D02*
X14142000Y-12022000D01*
X14825000Y-8067000D02*
X14825000Y-8167000D01*
X14775000Y-8117000D02*
X14875000Y-8117000D01*
X14825000Y-8321000D02*
X14825000Y-8421000D01*
X14775000Y-8371000D02*
X14875000Y-8371000D01*
X14825000Y-8575000D02*
X14825000Y-8675000D01*
X14775000Y-8625000D02*
X14875000Y-8625000D01*
X14825000Y-8829000D02*
X14825000Y-8929000D01*
X14775000Y-8879000D02*
X14875000Y-8879000D01*
X14830000Y-9227000D02*
X14830000Y-9327000D01*
X14780000Y-9277000D02*
X14880000Y-9277000D01*
X14830000Y-9481000D02*
X14830000Y-9581000D01*
X14780000Y-9531000D02*
X14880000Y-9531000D01*
X14830000Y-9735000D02*
X14830000Y-9835000D01*
X14780000Y-9785000D02*
X14880000Y-9785000D01*
X15108000Y-10702000D02*
X15108000Y-10802000D01*
X15058000Y-10752000D02*
X15158000Y-10752000D01*
X15108000Y-10956000D02*
X15108000Y-11056000D01*
X15058000Y-11006000D02*
X15158000Y-11006000D01*
X15108000Y-11210000D02*
X15108000Y-11310000D01*
X15058000Y-11260000D02*
X15158000Y-11260000D01*
X15108000Y-11464000D02*
X15108000Y-11564000D01*
X15058000Y-11514000D02*
X15158000Y-11514000D01*
X15108000Y-11718000D02*
X15108000Y-11818000D01*
X15058000Y-11768000D02*
X15158000Y-11768000D01*
D12*
X11736178Y-13793578D02*
X11736178Y-13567302D01*
X11509902Y-13567302D01*
X11509902Y-13793578D01*
X11736178Y-13793578D01*
X11832698Y-7606138D02*
X11832698Y-7379862D01*
X11606422Y-7379862D01*
X11606422Y-7606138D01*
X11832698Y-7606138D01*
X15088978Y-7595978D02*
X15088978Y-7369702D01*
X14862702Y-7369702D01*
X14862702Y-7595978D01*
X15088978Y-7595978D01*
D10*
X11494817Y-14573284D02*
X11494817Y-14373284D01*
X11494817Y-14373284D02*
X11542436Y-14373284D01*
X11542436Y-14373284D02*
X11571007Y-14382808D01*
X11571007Y-14382808D02*
X11590055Y-14401855D01*
X11590055Y-14401855D02*
X11599579Y-14420903D01*
X11599579Y-14420903D02*
X11609102Y-14458998D01*
X11609102Y-14458998D02*
X11609102Y-14487569D01*
X11609102Y-14487569D02*
X11599579Y-14525665D01*
X11599579Y-14525665D02*
X11590055Y-14544712D01*
X11590055Y-14544712D02*
X11571007Y-14563760D01*
X11571007Y-14563760D02*
X11542436Y-14573284D01*
X11542436Y-14573284D02*
X11494817Y-14573284D01*
X11694817Y-14573284D02*
X11694817Y-14439950D01*
X11694817Y-14478046D02*
X11704341Y-14458998D01*
X11704341Y-14458998D02*
X11713864Y-14449474D01*
X11713864Y-14449474D02*
X11732912Y-14439950D01*
X11732912Y-14439950D02*
X11751960Y-14439950D01*
X11818626Y-14573284D02*
X11818626Y-14439950D01*
X11818626Y-14373284D02*
X11809102Y-14382808D01*
X11809102Y-14382808D02*
X11818626Y-14392331D01*
X11818626Y-14392331D02*
X11828150Y-14382808D01*
X11828150Y-14382808D02*
X11818626Y-14373284D01*
X11818626Y-14373284D02*
X11818626Y-14392331D01*
X11942436Y-14573284D02*
X11923388Y-14563760D01*
X11923388Y-14563760D02*
X11913864Y-14544712D01*
X11913864Y-14544712D02*
X11913864Y-14373284D01*
X12047198Y-14573284D02*
X12028150Y-14563760D01*
X12028150Y-14563760D02*
X12018626Y-14544712D01*
X12018626Y-14544712D02*
X12018626Y-14373284D01*
X12275769Y-14573284D02*
X12275769Y-14373284D01*
X12275769Y-14373284D02*
X12342436Y-14516141D01*
X12342436Y-14516141D02*
X12409102Y-14373284D01*
X12409102Y-14373284D02*
X12409102Y-14573284D01*
X12590055Y-14573284D02*
X12590055Y-14468522D01*
X12590055Y-14468522D02*
X12580531Y-14449474D01*
X12580531Y-14449474D02*
X12561483Y-14439950D01*
X12561483Y-14439950D02*
X12523388Y-14439950D01*
X12523388Y-14439950D02*
X12504341Y-14449474D01*
X12590055Y-14563760D02*
X12571007Y-14573284D01*
X12571007Y-14573284D02*
X12523388Y-14573284D01*
X12523388Y-14573284D02*
X12504341Y-14563760D01*
X12504341Y-14563760D02*
X12494817Y-14544712D01*
X12494817Y-14544712D02*
X12494817Y-14525665D01*
X12494817Y-14525665D02*
X12504341Y-14506617D01*
X12504341Y-14506617D02*
X12523388Y-14497093D01*
X12523388Y-14497093D02*
X12571007Y-14497093D01*
X12571007Y-14497093D02*
X12590055Y-14487569D01*
X12685293Y-14439950D02*
X12685293Y-14639950D01*
X12685293Y-14449474D02*
X12704341Y-14439950D01*
X12704341Y-14439950D02*
X12742436Y-14439950D01*
X12742436Y-14439950D02*
X12761483Y-14449474D01*
X12761483Y-14449474D02*
X12771007Y-14458998D01*
X12771007Y-14458998D02*
X12780531Y-14478046D01*
X12780531Y-14478046D02*
X12780531Y-14535188D01*
X12780531Y-14535188D02*
X12771007Y-14554236D01*
X12771007Y-14554236D02*
X12761483Y-14563760D01*
X12761483Y-14563760D02*
X12742436Y-14573284D01*
X12742436Y-14573284D02*
X12704341Y-14573284D01*
X12704341Y-14573284D02*
X12685293Y-14563760D01*
X12866245Y-14554236D02*
X12875769Y-14563760D01*
X12875769Y-14563760D02*
X12866245Y-14573284D01*
X12866245Y-14573284D02*
X12856722Y-14563760D01*
X12856722Y-14563760D02*
X12866245Y-14554236D01*
X12866245Y-14554236D02*
X12866245Y-14573284D01*
X12866245Y-14449474D02*
X12875769Y-14458998D01*
X12875769Y-14458998D02*
X12866245Y-14468522D01*
X12866245Y-14468522D02*
X12856722Y-14458998D01*
X12856722Y-14458998D02*
X12866245Y-14449474D01*
X12866245Y-14449474D02*
X12866245Y-14468522D01*
D11*
X11204040Y-14886800D02*
X11234040Y-14916800D01*
X11234040Y-14886800D02*
X11204040Y-14916800D01*
D10*
X11532912Y-14793284D02*
X11551960Y-14793284D01*
X11551960Y-14793284D02*
X11571007Y-14802808D01*
X11571007Y-14802808D02*
X11580531Y-14812331D01*
X11580531Y-14812331D02*
X11590055Y-14831379D01*
X11590055Y-14831379D02*
X11599579Y-14869474D01*
X11599579Y-14869474D02*
X11599579Y-14917093D01*
X11599579Y-14917093D02*
X11590055Y-14955188D01*
X11590055Y-14955188D02*
X11580531Y-14974236D01*
X11580531Y-14974236D02*
X11571007Y-14983760D01*
X11571007Y-14983760D02*
X11551960Y-14993284D01*
X11551960Y-14993284D02*
X11532912Y-14993284D01*
X11532912Y-14993284D02*
X11513864Y-14983760D01*
X11513864Y-14983760D02*
X11504341Y-14974236D01*
X11504341Y-14974236D02*
X11494817Y-14955188D01*
X11494817Y-14955188D02*
X11485293Y-14917093D01*
X11485293Y-14917093D02*
X11485293Y-14869474D01*
X11485293Y-14869474D02*
X11494817Y-14831379D01*
X11494817Y-14831379D02*
X11504341Y-14812331D01*
X11504341Y-14812331D02*
X11513864Y-14802808D01*
X11513864Y-14802808D02*
X11532912Y-14793284D01*
X11685293Y-14974236D02*
X11694817Y-14983760D01*
X11694817Y-14983760D02*
X11685293Y-14993284D01*
X11685293Y-14993284D02*
X11675769Y-14983760D01*
X11675769Y-14983760D02*
X11685293Y-14974236D01*
X11685293Y-14974236D02*
X11685293Y-14993284D01*
X11761483Y-14793284D02*
X11885293Y-14793284D01*
X11885293Y-14793284D02*
X11818626Y-14869474D01*
X11818626Y-14869474D02*
X11847198Y-14869474D01*
X11847198Y-14869474D02*
X11866245Y-14878998D01*
X11866245Y-14878998D02*
X11875769Y-14888522D01*
X11875769Y-14888522D02*
X11885293Y-14907569D01*
X11885293Y-14907569D02*
X11885293Y-14955188D01*
X11885293Y-14955188D02*
X11875769Y-14974236D01*
X11875769Y-14974236D02*
X11866245Y-14983760D01*
X11866245Y-14983760D02*
X11847198Y-14993284D01*
X11847198Y-14993284D02*
X11790055Y-14993284D01*
X11790055Y-14993284D02*
X11771007Y-14983760D01*
X11771007Y-14983760D02*
X11761483Y-14974236D01*
X12009102Y-14793284D02*
X12028150Y-14793284D01*
X12028150Y-14793284D02*
X12047198Y-14802808D01*
X12047198Y-14802808D02*
X12056722Y-14812331D01*
X12056722Y-14812331D02*
X12066245Y-14831379D01*
X12066245Y-14831379D02*
X12075769Y-14869474D01*
X12075769Y-14869474D02*
X12075769Y-14917093D01*
X12075769Y-14917093D02*
X12066245Y-14955188D01*
X12066245Y-14955188D02*
X12056722Y-14974236D01*
X12056722Y-14974236D02*
X12047198Y-14983760D01*
X12047198Y-14983760D02*
X12028150Y-14993284D01*
X12028150Y-14993284D02*
X12009102Y-14993284D01*
X12009102Y-14993284D02*
X11990055Y-14983760D01*
X11990055Y-14983760D02*
X11980531Y-14974236D01*
X11980531Y-14974236D02*
X11971007Y-14955188D01*
X11971007Y-14955188D02*
X11961483Y-14917093D01*
X11961483Y-14917093D02*
X11961483Y-14869474D01*
X11961483Y-14869474D02*
X11971007Y-14831379D01*
X11971007Y-14831379D02*
X11980531Y-14812331D01*
X11980531Y-14812331D02*
X11990055Y-14802808D01*
X11990055Y-14802808D02*
X12009102Y-14793284D01*
X12199579Y-14793284D02*
X12218626Y-14793284D01*
X12218626Y-14793284D02*
X12237674Y-14802808D01*
X12237674Y-14802808D02*
X12247198Y-14812331D01*
X12247198Y-14812331D02*
X12256722Y-14831379D01*
X12256722Y-14831379D02*
X12266245Y-14869474D01*
X12266245Y-14869474D02*
X12266245Y-14917093D01*
X12266245Y-14917093D02*
X12256722Y-14955188D01*
X12256722Y-14955188D02*
X12247198Y-14974236D01*
X12247198Y-14974236D02*
X12237674Y-14983760D01*
X12237674Y-14983760D02*
X12218626Y-14993284D01*
X12218626Y-14993284D02*
X12199579Y-14993284D01*
X12199579Y-14993284D02*
X12180531Y-14983760D01*
X12180531Y-14983760D02*
X12171007Y-14974236D01*
X12171007Y-14974236D02*
X12161483Y-14955188D01*
X12161483Y-14955188D02*
X12151960Y-14917093D01*
X12151960Y-14917093D02*
X12151960Y-14869474D01*
X12151960Y-14869474D02*
X12161483Y-14831379D01*
X12161483Y-14831379D02*
X12171007Y-14812331D01*
X12171007Y-14812331D02*
X12180531Y-14802808D01*
X12180531Y-14802808D02*
X12199579Y-14793284D01*
X12351960Y-14993284D02*
X12351960Y-14859950D01*
X12351960Y-14878998D02*
X12361483Y-14869474D01*
X12361483Y-14869474D02*
X12380531Y-14859950D01*
X12380531Y-14859950D02*
X12409103Y-14859950D01*
X12409103Y-14859950D02*
X12428150Y-14869474D01*
X12428150Y-14869474D02*
X12437674Y-14888522D01*
X12437674Y-14888522D02*
X12437674Y-14993284D01*
X12437674Y-14888522D02*
X12447198Y-14869474D01*
X12447198Y-14869474D02*
X12466245Y-14859950D01*
X12466245Y-14859950D02*
X12494817Y-14859950D01*
X12494817Y-14859950D02*
X12513864Y-14869474D01*
X12513864Y-14869474D02*
X12523388Y-14888522D01*
X12523388Y-14888522D02*
X12523388Y-14993284D01*
X12618626Y-14993284D02*
X12618626Y-14859950D01*
X12618626Y-14878998D02*
X12628150Y-14869474D01*
X12628150Y-14869474D02*
X12647198Y-14859950D01*
X12647198Y-14859950D02*
X12675769Y-14859950D01*
X12675769Y-14859950D02*
X12694817Y-14869474D01*
X12694817Y-14869474D02*
X12704341Y-14888522D01*
X12704341Y-14888522D02*
X12704341Y-14993284D01*
X12704341Y-14888522D02*
X12713864Y-14869474D01*
X12713864Y-14869474D02*
X12732912Y-14859950D01*
X12732912Y-14859950D02*
X12761483Y-14859950D01*
X12761483Y-14859950D02*
X12780531Y-14869474D01*
X12780531Y-14869474D02*
X12790055Y-14888522D01*
X12790055Y-14888522D02*
X12790055Y-14993284D01*
X13180531Y-14783760D02*
X13009103Y-15040903D01*
X13437674Y-14793284D02*
X13456722Y-14793284D01*
X13456722Y-14793284D02*
X13475769Y-14802808D01*
X13475769Y-14802808D02*
X13485293Y-14812331D01*
X13485293Y-14812331D02*
X13494817Y-14831379D01*
X13494817Y-14831379D02*
X13504341Y-14869474D01*
X13504341Y-14869474D02*
X13504341Y-14917093D01*
X13504341Y-14917093D02*
X13494817Y-14955188D01*
X13494817Y-14955188D02*
X13485293Y-14974236D01*
X13485293Y-14974236D02*
X13475769Y-14983760D01*
X13475769Y-14983760D02*
X13456722Y-14993284D01*
X13456722Y-14993284D02*
X13437674Y-14993284D01*
X13437674Y-14993284D02*
X13418626Y-14983760D01*
X13418626Y-14983760D02*
X13409103Y-14974236D01*
X13409103Y-14974236D02*
X13399579Y-14955188D01*
X13399579Y-14955188D02*
X13390055Y-14917093D01*
X13390055Y-14917093D02*
X13390055Y-14869474D01*
X13390055Y-14869474D02*
X13399579Y-14831379D01*
X13399579Y-14831379D02*
X13409103Y-14812331D01*
X13409103Y-14812331D02*
X13418626Y-14802808D01*
X13418626Y-14802808D02*
X13437674Y-14793284D01*
X13590055Y-14974236D02*
X13599579Y-14983760D01*
X13599579Y-14983760D02*
X13590055Y-14993284D01*
X13590055Y-14993284D02*
X13580531Y-14983760D01*
X13580531Y-14983760D02*
X13590055Y-14974236D01*
X13590055Y-14974236D02*
X13590055Y-14993284D01*
X13723388Y-14793284D02*
X13742436Y-14793284D01*
X13742436Y-14793284D02*
X13761484Y-14802808D01*
X13761484Y-14802808D02*
X13771007Y-14812331D01*
X13771007Y-14812331D02*
X13780531Y-14831379D01*
X13780531Y-14831379D02*
X13790055Y-14869474D01*
X13790055Y-14869474D02*
X13790055Y-14917093D01*
X13790055Y-14917093D02*
X13780531Y-14955188D01*
X13780531Y-14955188D02*
X13771007Y-14974236D01*
X13771007Y-14974236D02*
X13761484Y-14983760D01*
X13761484Y-14983760D02*
X13742436Y-14993284D01*
X13742436Y-14993284D02*
X13723388Y-14993284D01*
X13723388Y-14993284D02*
X13704341Y-14983760D01*
X13704341Y-14983760D02*
X13694817Y-14974236D01*
X13694817Y-14974236D02*
X13685293Y-14955188D01*
X13685293Y-14955188D02*
X13675769Y-14917093D01*
X13675769Y-14917093D02*
X13675769Y-14869474D01*
X13675769Y-14869474D02*
X13685293Y-14831379D01*
X13685293Y-14831379D02*
X13694817Y-14812331D01*
X13694817Y-14812331D02*
X13704341Y-14802808D01*
X13704341Y-14802808D02*
X13723388Y-14793284D01*
X13980531Y-14993284D02*
X13866246Y-14993284D01*
X13923388Y-14993284D02*
X13923388Y-14793284D01*
X13923388Y-14793284D02*
X13904341Y-14821855D01*
X13904341Y-14821855D02*
X13885293Y-14840903D01*
X13885293Y-14840903D02*
X13866246Y-14850427D01*
X14171007Y-14993284D02*
X14056722Y-14993284D01*
X14113865Y-14993284D02*
X14113865Y-14793284D01*
X14113865Y-14793284D02*
X14094817Y-14821855D01*
X14094817Y-14821855D02*
X14075769Y-14840903D01*
X14075769Y-14840903D02*
X14056722Y-14850427D01*
X14285293Y-14878998D02*
X14266246Y-14869474D01*
X14266246Y-14869474D02*
X14256722Y-14859950D01*
X14256722Y-14859950D02*
X14247198Y-14840903D01*
X14247198Y-14840903D02*
X14247198Y-14831379D01*
X14247198Y-14831379D02*
X14256722Y-14812331D01*
X14256722Y-14812331D02*
X14266246Y-14802808D01*
X14266246Y-14802808D02*
X14285293Y-14793284D01*
X14285293Y-14793284D02*
X14323388Y-14793284D01*
X14323388Y-14793284D02*
X14342436Y-14802808D01*
X14342436Y-14802808D02*
X14351960Y-14812331D01*
X14351960Y-14812331D02*
X14361484Y-14831379D01*
X14361484Y-14831379D02*
X14361484Y-14840903D01*
X14361484Y-14840903D02*
X14351960Y-14859950D01*
X14351960Y-14859950D02*
X14342436Y-14869474D01*
X14342436Y-14869474D02*
X14323388Y-14878998D01*
X14323388Y-14878998D02*
X14285293Y-14878998D01*
X14285293Y-14878998D02*
X14266246Y-14888522D01*
X14266246Y-14888522D02*
X14256722Y-14898046D01*
X14256722Y-14898046D02*
X14247198Y-14917093D01*
X14247198Y-14917093D02*
X14247198Y-14955188D01*
X14247198Y-14955188D02*
X14256722Y-14974236D01*
X14256722Y-14974236D02*
X14266246Y-14983760D01*
X14266246Y-14983760D02*
X14285293Y-14993284D01*
X14285293Y-14993284D02*
X14323388Y-14993284D01*
X14323388Y-14993284D02*
X14342436Y-14983760D01*
X14342436Y-14983760D02*
X14351960Y-14974236D01*
X14351960Y-14974236D02*
X14361484Y-14955188D01*
X14361484Y-14955188D02*
X14361484Y-14917093D01*
X14361484Y-14917093D02*
X14351960Y-14898046D01*
X14351960Y-14898046D02*
X14342436Y-14888522D01*
X14342436Y-14888522D02*
X14323388Y-14878998D01*
X14437674Y-14793284D02*
X14437674Y-14831379D01*
X14513865Y-14793284D02*
X14513865Y-14831379D01*
X14809103Y-15069474D02*
X14799579Y-15059950D01*
X14799579Y-15059950D02*
X14780531Y-15031379D01*
X14780531Y-15031379D02*
X14771008Y-15012331D01*
X14771008Y-15012331D02*
X14761484Y-14983760D01*
X14761484Y-14983760D02*
X14751960Y-14936141D01*
X14751960Y-14936141D02*
X14751960Y-14898046D01*
X14751960Y-14898046D02*
X14761484Y-14850427D01*
X14761484Y-14850427D02*
X14771008Y-14821855D01*
X14771008Y-14821855D02*
X14780531Y-14802808D01*
X14780531Y-14802808D02*
X14799579Y-14774236D01*
X14799579Y-14774236D02*
X14809103Y-14764712D01*
X14866246Y-14793284D02*
X14999579Y-14793284D01*
X14999579Y-14793284D02*
X14913865Y-14993284D01*
X15056722Y-14793284D02*
X15180531Y-14793284D01*
X15180531Y-14793284D02*
X15113865Y-14869474D01*
X15113865Y-14869474D02*
X15142436Y-14869474D01*
X15142436Y-14869474D02*
X15161484Y-14878998D01*
X15161484Y-14878998D02*
X15171008Y-14888522D01*
X15171008Y-14888522D02*
X15180531Y-14907569D01*
X15180531Y-14907569D02*
X15180531Y-14955188D01*
X15180531Y-14955188D02*
X15171008Y-14974236D01*
X15171008Y-14974236D02*
X15161484Y-14983760D01*
X15161484Y-14983760D02*
X15142436Y-14993284D01*
X15142436Y-14993284D02*
X15085293Y-14993284D01*
X15085293Y-14993284D02*
X15066246Y-14983760D01*
X15066246Y-14983760D02*
X15056722Y-14974236D01*
X15418627Y-14993284D02*
X15418627Y-14793284D01*
X15504341Y-14993284D02*
X15504341Y-14888522D01*
X15504341Y-14888522D02*
X15494817Y-14869474D01*
X15494817Y-14869474D02*
X15475770Y-14859950D01*
X15475770Y-14859950D02*
X15447198Y-14859950D01*
X15447198Y-14859950D02*
X15428150Y-14869474D01*
X15428150Y-14869474D02*
X15418627Y-14878998D01*
X15628150Y-14993284D02*
X15609103Y-14983760D01*
X15609103Y-14983760D02*
X15599579Y-14974236D01*
X15599579Y-14974236D02*
X15590055Y-14955188D01*
X15590055Y-14955188D02*
X15590055Y-14898046D01*
X15590055Y-14898046D02*
X15599579Y-14878998D01*
X15599579Y-14878998D02*
X15609103Y-14869474D01*
X15609103Y-14869474D02*
X15628150Y-14859950D01*
X15628150Y-14859950D02*
X15656722Y-14859950D01*
X15656722Y-14859950D02*
X15675770Y-14869474D01*
X15675770Y-14869474D02*
X15685293Y-14878998D01*
X15685293Y-14878998D02*
X15694817Y-14898046D01*
X15694817Y-14898046D02*
X15694817Y-14955188D01*
X15694817Y-14955188D02*
X15685293Y-14974236D01*
X15685293Y-14974236D02*
X15675770Y-14983760D01*
X15675770Y-14983760D02*
X15656722Y-14993284D01*
X15656722Y-14993284D02*
X15628150Y-14993284D01*
X15809103Y-14993284D02*
X15790055Y-14983760D01*
X15790055Y-14983760D02*
X15780531Y-14964712D01*
X15780531Y-14964712D02*
X15780531Y-14793284D01*
X15961484Y-14983760D02*
X15942436Y-14993284D01*
X15942436Y-14993284D02*
X15904341Y-14993284D01*
X15904341Y-14993284D02*
X15885293Y-14983760D01*
X15885293Y-14983760D02*
X15875770Y-14964712D01*
X15875770Y-14964712D02*
X15875770Y-14888522D01*
X15875770Y-14888522D02*
X15885293Y-14869474D01*
X15885293Y-14869474D02*
X15904341Y-14859950D01*
X15904341Y-14859950D02*
X15942436Y-14859950D01*
X15942436Y-14859950D02*
X15961484Y-14869474D01*
X15961484Y-14869474D02*
X15971008Y-14888522D01*
X15971008Y-14888522D02*
X15971008Y-14907569D01*
X15971008Y-14907569D02*
X15875770Y-14926617D01*
X16047198Y-14983760D02*
X16066246Y-14993284D01*
X16066246Y-14993284D02*
X16104341Y-14993284D01*
X16104341Y-14993284D02*
X16123389Y-14983760D01*
X16123389Y-14983760D02*
X16132912Y-14964712D01*
X16132912Y-14964712D02*
X16132912Y-14955188D01*
X16132912Y-14955188D02*
X16123389Y-14936141D01*
X16123389Y-14936141D02*
X16104341Y-14926617D01*
X16104341Y-14926617D02*
X16075770Y-14926617D01*
X16075770Y-14926617D02*
X16056722Y-14917093D01*
X16056722Y-14917093D02*
X16047198Y-14898046D01*
X16047198Y-14898046D02*
X16047198Y-14888522D01*
X16047198Y-14888522D02*
X16056722Y-14869474D01*
X16056722Y-14869474D02*
X16075770Y-14859950D01*
X16075770Y-14859950D02*
X16104341Y-14859950D01*
X16104341Y-14859950D02*
X16123389Y-14869474D01*
X16199579Y-15069474D02*
X16209103Y-15059950D01*
X16209103Y-15059950D02*
X16228151Y-15031379D01*
X16228151Y-15031379D02*
X16237674Y-15012331D01*
X16237674Y-15012331D02*
X16247198Y-14983760D01*
X16247198Y-14983760D02*
X16256722Y-14936141D01*
X16256722Y-14936141D02*
X16256722Y-14898046D01*
X16256722Y-14898046D02*
X16247198Y-14850427D01*
X16247198Y-14850427D02*
X16237674Y-14821855D01*
X16237674Y-14821855D02*
X16228151Y-14802808D01*
X16228151Y-14802808D02*
X16209103Y-14774236D01*
X16209103Y-14774236D02*
X16199579Y-14764712D01*
D11*
X11234040Y-15165800D02*
G75*
G02*
X11184040Y-15165800I-25000J0D01*
G01*
X11184040Y-15165800D02*
G75*
G02*
X11234040Y-15165800I25000J0D01*
G01*
D10*
X11532912Y-15057284D02*
X11551960Y-15057284D01*
X11551960Y-15057284D02*
X11571007Y-15066808D01*
X11571007Y-15066808D02*
X11580531Y-15076331D01*
X11580531Y-15076331D02*
X11590055Y-15095379D01*
X11590055Y-15095379D02*
X11599579Y-15133474D01*
X11599579Y-15133474D02*
X11599579Y-15181093D01*
X11599579Y-15181093D02*
X11590055Y-15219188D01*
X11590055Y-15219188D02*
X11580531Y-15238236D01*
X11580531Y-15238236D02*
X11571007Y-15247760D01*
X11571007Y-15247760D02*
X11551960Y-15257284D01*
X11551960Y-15257284D02*
X11532912Y-15257284D01*
X11532912Y-15257284D02*
X11513864Y-15247760D01*
X11513864Y-15247760D02*
X11504341Y-15238236D01*
X11504341Y-15238236D02*
X11494817Y-15219188D01*
X11494817Y-15219188D02*
X11485293Y-15181093D01*
X11485293Y-15181093D02*
X11485293Y-15133474D01*
X11485293Y-15133474D02*
X11494817Y-15095379D01*
X11494817Y-15095379D02*
X11504341Y-15076331D01*
X11504341Y-15076331D02*
X11513864Y-15066808D01*
X11513864Y-15066808D02*
X11532912Y-15057284D01*
X11685293Y-15238236D02*
X11694817Y-15247760D01*
X11694817Y-15247760D02*
X11685293Y-15257284D01*
X11685293Y-15257284D02*
X11675769Y-15247760D01*
X11675769Y-15247760D02*
X11685293Y-15238236D01*
X11685293Y-15238236D02*
X11685293Y-15257284D01*
X11875769Y-15057284D02*
X11780531Y-15057284D01*
X11780531Y-15057284D02*
X11771007Y-15152522D01*
X11771007Y-15152522D02*
X11780531Y-15142998D01*
X11780531Y-15142998D02*
X11799579Y-15133474D01*
X11799579Y-15133474D02*
X11847198Y-15133474D01*
X11847198Y-15133474D02*
X11866245Y-15142998D01*
X11866245Y-15142998D02*
X11875769Y-15152522D01*
X11875769Y-15152522D02*
X11885293Y-15171569D01*
X11885293Y-15171569D02*
X11885293Y-15219188D01*
X11885293Y-15219188D02*
X11875769Y-15238236D01*
X11875769Y-15238236D02*
X11866245Y-15247760D01*
X11866245Y-15247760D02*
X11847198Y-15257284D01*
X11847198Y-15257284D02*
X11799579Y-15257284D01*
X11799579Y-15257284D02*
X11780531Y-15247760D01*
X11780531Y-15247760D02*
X11771007Y-15238236D01*
X12009102Y-15057284D02*
X12028150Y-15057284D01*
X12028150Y-15057284D02*
X12047198Y-15066808D01*
X12047198Y-15066808D02*
X12056722Y-15076331D01*
X12056722Y-15076331D02*
X12066245Y-15095379D01*
X12066245Y-15095379D02*
X12075769Y-15133474D01*
X12075769Y-15133474D02*
X12075769Y-15181093D01*
X12075769Y-15181093D02*
X12066245Y-15219188D01*
X12066245Y-15219188D02*
X12056722Y-15238236D01*
X12056722Y-15238236D02*
X12047198Y-15247760D01*
X12047198Y-15247760D02*
X12028150Y-15257284D01*
X12028150Y-15257284D02*
X12009102Y-15257284D01*
X12009102Y-15257284D02*
X11990055Y-15247760D01*
X11990055Y-15247760D02*
X11980531Y-15238236D01*
X11980531Y-15238236D02*
X11971007Y-15219188D01*
X11971007Y-15219188D02*
X11961483Y-15181093D01*
X11961483Y-15181093D02*
X11961483Y-15133474D01*
X11961483Y-15133474D02*
X11971007Y-15095379D01*
X11971007Y-15095379D02*
X11980531Y-15076331D01*
X11980531Y-15076331D02*
X11990055Y-15066808D01*
X11990055Y-15066808D02*
X12009102Y-15057284D01*
X12199579Y-15057284D02*
X12218626Y-15057284D01*
X12218626Y-15057284D02*
X12237674Y-15066808D01*
X12237674Y-15066808D02*
X12247198Y-15076331D01*
X12247198Y-15076331D02*
X12256722Y-15095379D01*
X12256722Y-15095379D02*
X12266245Y-15133474D01*
X12266245Y-15133474D02*
X12266245Y-15181093D01*
X12266245Y-15181093D02*
X12256722Y-15219188D01*
X12256722Y-15219188D02*
X12247198Y-15238236D01*
X12247198Y-15238236D02*
X12237674Y-15247760D01*
X12237674Y-15247760D02*
X12218626Y-15257284D01*
X12218626Y-15257284D02*
X12199579Y-15257284D01*
X12199579Y-15257284D02*
X12180531Y-15247760D01*
X12180531Y-15247760D02*
X12171007Y-15238236D01*
X12171007Y-15238236D02*
X12161483Y-15219188D01*
X12161483Y-15219188D02*
X12151960Y-15181093D01*
X12151960Y-15181093D02*
X12151960Y-15133474D01*
X12151960Y-15133474D02*
X12161483Y-15095379D01*
X12161483Y-15095379D02*
X12171007Y-15076331D01*
X12171007Y-15076331D02*
X12180531Y-15066808D01*
X12180531Y-15066808D02*
X12199579Y-15057284D01*
X12351960Y-15257284D02*
X12351960Y-15123950D01*
X12351960Y-15142998D02*
X12361483Y-15133474D01*
X12361483Y-15133474D02*
X12380531Y-15123950D01*
X12380531Y-15123950D02*
X12409103Y-15123950D01*
X12409103Y-15123950D02*
X12428150Y-15133474D01*
X12428150Y-15133474D02*
X12437674Y-15152522D01*
X12437674Y-15152522D02*
X12437674Y-15257284D01*
X12437674Y-15152522D02*
X12447198Y-15133474D01*
X12447198Y-15133474D02*
X12466245Y-15123950D01*
X12466245Y-15123950D02*
X12494817Y-15123950D01*
X12494817Y-15123950D02*
X12513864Y-15133474D01*
X12513864Y-15133474D02*
X12523388Y-15152522D01*
X12523388Y-15152522D02*
X12523388Y-15257284D01*
X12618626Y-15257284D02*
X12618626Y-15123950D01*
X12618626Y-15142998D02*
X12628150Y-15133474D01*
X12628150Y-15133474D02*
X12647198Y-15123950D01*
X12647198Y-15123950D02*
X12675769Y-15123950D01*
X12675769Y-15123950D02*
X12694817Y-15133474D01*
X12694817Y-15133474D02*
X12704341Y-15152522D01*
X12704341Y-15152522D02*
X12704341Y-15257284D01*
X12704341Y-15152522D02*
X12713864Y-15133474D01*
X12713864Y-15133474D02*
X12732912Y-15123950D01*
X12732912Y-15123950D02*
X12761483Y-15123950D01*
X12761483Y-15123950D02*
X12780531Y-15133474D01*
X12780531Y-15133474D02*
X12790055Y-15152522D01*
X12790055Y-15152522D02*
X12790055Y-15257284D01*
X13180531Y-15047760D02*
X13009103Y-15304903D01*
X13437674Y-15057284D02*
X13456722Y-15057284D01*
X13456722Y-15057284D02*
X13475769Y-15066808D01*
X13475769Y-15066808D02*
X13485293Y-15076331D01*
X13485293Y-15076331D02*
X13494817Y-15095379D01*
X13494817Y-15095379D02*
X13504341Y-15133474D01*
X13504341Y-15133474D02*
X13504341Y-15181093D01*
X13504341Y-15181093D02*
X13494817Y-15219188D01*
X13494817Y-15219188D02*
X13485293Y-15238236D01*
X13485293Y-15238236D02*
X13475769Y-15247760D01*
X13475769Y-15247760D02*
X13456722Y-15257284D01*
X13456722Y-15257284D02*
X13437674Y-15257284D01*
X13437674Y-15257284D02*
X13418626Y-15247760D01*
X13418626Y-15247760D02*
X13409103Y-15238236D01*
X13409103Y-15238236D02*
X13399579Y-15219188D01*
X13399579Y-15219188D02*
X13390055Y-15181093D01*
X13390055Y-15181093D02*
X13390055Y-15133474D01*
X13390055Y-15133474D02*
X13399579Y-15095379D01*
X13399579Y-15095379D02*
X13409103Y-15076331D01*
X13409103Y-15076331D02*
X13418626Y-15066808D01*
X13418626Y-15066808D02*
X13437674Y-15057284D01*
X13590055Y-15238236D02*
X13599579Y-15247760D01*
X13599579Y-15247760D02*
X13590055Y-15257284D01*
X13590055Y-15257284D02*
X13580531Y-15247760D01*
X13580531Y-15247760D02*
X13590055Y-15238236D01*
X13590055Y-15238236D02*
X13590055Y-15257284D01*
X13723388Y-15057284D02*
X13742436Y-15057284D01*
X13742436Y-15057284D02*
X13761484Y-15066808D01*
X13761484Y-15066808D02*
X13771007Y-15076331D01*
X13771007Y-15076331D02*
X13780531Y-15095379D01*
X13780531Y-15095379D02*
X13790055Y-15133474D01*
X13790055Y-15133474D02*
X13790055Y-15181093D01*
X13790055Y-15181093D02*
X13780531Y-15219188D01*
X13780531Y-15219188D02*
X13771007Y-15238236D01*
X13771007Y-15238236D02*
X13761484Y-15247760D01*
X13761484Y-15247760D02*
X13742436Y-15257284D01*
X13742436Y-15257284D02*
X13723388Y-15257284D01*
X13723388Y-15257284D02*
X13704341Y-15247760D01*
X13704341Y-15247760D02*
X13694817Y-15238236D01*
X13694817Y-15238236D02*
X13685293Y-15219188D01*
X13685293Y-15219188D02*
X13675769Y-15181093D01*
X13675769Y-15181093D02*
X13675769Y-15133474D01*
X13675769Y-15133474D02*
X13685293Y-15095379D01*
X13685293Y-15095379D02*
X13694817Y-15076331D01*
X13694817Y-15076331D02*
X13704341Y-15066808D01*
X13704341Y-15066808D02*
X13723388Y-15057284D01*
X13980531Y-15257284D02*
X13866246Y-15257284D01*
X13923388Y-15257284D02*
X13923388Y-15057284D01*
X13923388Y-15057284D02*
X13904341Y-15085855D01*
X13904341Y-15085855D02*
X13885293Y-15104903D01*
X13885293Y-15104903D02*
X13866246Y-15114427D01*
X14075769Y-15257284D02*
X14113865Y-15257284D01*
X14113865Y-15257284D02*
X14132912Y-15247760D01*
X14132912Y-15247760D02*
X14142436Y-15238236D01*
X14142436Y-15238236D02*
X14161484Y-15209665D01*
X14161484Y-15209665D02*
X14171007Y-15171569D01*
X14171007Y-15171569D02*
X14171007Y-15095379D01*
X14171007Y-15095379D02*
X14161484Y-15076331D01*
X14161484Y-15076331D02*
X14151960Y-15066808D01*
X14151960Y-15066808D02*
X14132912Y-15057284D01*
X14132912Y-15057284D02*
X14094817Y-15057284D01*
X14094817Y-15057284D02*
X14075769Y-15066808D01*
X14075769Y-15066808D02*
X14066246Y-15076331D01*
X14066246Y-15076331D02*
X14056722Y-15095379D01*
X14056722Y-15095379D02*
X14056722Y-15142998D01*
X14056722Y-15142998D02*
X14066246Y-15162046D01*
X14066246Y-15162046D02*
X14075769Y-15171569D01*
X14075769Y-15171569D02*
X14094817Y-15181093D01*
X14094817Y-15181093D02*
X14132912Y-15181093D01*
X14132912Y-15181093D02*
X14151960Y-15171569D01*
X14151960Y-15171569D02*
X14161484Y-15162046D01*
X14161484Y-15162046D02*
X14171007Y-15142998D01*
X14237674Y-15057284D02*
X14371007Y-15057284D01*
X14371007Y-15057284D02*
X14285293Y-15257284D01*
X14437674Y-15057284D02*
X14437674Y-15095379D01*
X14513865Y-15057284D02*
X14513865Y-15095379D01*
X14809103Y-15333474D02*
X14799579Y-15323950D01*
X14799579Y-15323950D02*
X14780531Y-15295379D01*
X14780531Y-15295379D02*
X14771008Y-15276331D01*
X14771008Y-15276331D02*
X14761484Y-15247760D01*
X14761484Y-15247760D02*
X14751960Y-15200141D01*
X14751960Y-15200141D02*
X14751960Y-15162046D01*
X14751960Y-15162046D02*
X14761484Y-15114427D01*
X14761484Y-15114427D02*
X14771008Y-15085855D01*
X14771008Y-15085855D02*
X14780531Y-15066808D01*
X14780531Y-15066808D02*
X14799579Y-15038236D01*
X14799579Y-15038236D02*
X14809103Y-15028712D01*
X14990055Y-15257284D02*
X14875769Y-15257284D01*
X14932912Y-15257284D02*
X14932912Y-15057284D01*
X14932912Y-15057284D02*
X14913865Y-15085855D01*
X14913865Y-15085855D02*
X14894817Y-15104903D01*
X14894817Y-15104903D02*
X14875769Y-15114427D01*
X15228150Y-15257284D02*
X15228150Y-15057284D01*
X15313865Y-15257284D02*
X15313865Y-15152522D01*
X15313865Y-15152522D02*
X15304341Y-15133474D01*
X15304341Y-15133474D02*
X15285293Y-15123950D01*
X15285293Y-15123950D02*
X15256722Y-15123950D01*
X15256722Y-15123950D02*
X15237674Y-15133474D01*
X15237674Y-15133474D02*
X15228150Y-15142998D01*
X15437674Y-15257284D02*
X15418627Y-15247760D01*
X15418627Y-15247760D02*
X15409103Y-15238236D01*
X15409103Y-15238236D02*
X15399579Y-15219188D01*
X15399579Y-15219188D02*
X15399579Y-15162046D01*
X15399579Y-15162046D02*
X15409103Y-15142998D01*
X15409103Y-15142998D02*
X15418627Y-15133474D01*
X15418627Y-15133474D02*
X15437674Y-15123950D01*
X15437674Y-15123950D02*
X15466246Y-15123950D01*
X15466246Y-15123950D02*
X15485293Y-15133474D01*
X15485293Y-15133474D02*
X15494817Y-15142998D01*
X15494817Y-15142998D02*
X15504341Y-15162046D01*
X15504341Y-15162046D02*
X15504341Y-15219188D01*
X15504341Y-15219188D02*
X15494817Y-15238236D01*
X15494817Y-15238236D02*
X15485293Y-15247760D01*
X15485293Y-15247760D02*
X15466246Y-15257284D01*
X15466246Y-15257284D02*
X15437674Y-15257284D01*
X15618627Y-15257284D02*
X15599579Y-15247760D01*
X15599579Y-15247760D02*
X15590055Y-15228712D01*
X15590055Y-15228712D02*
X15590055Y-15057284D01*
X15771008Y-15247760D02*
X15751960Y-15257284D01*
X15751960Y-15257284D02*
X15713865Y-15257284D01*
X15713865Y-15257284D02*
X15694817Y-15247760D01*
X15694817Y-15247760D02*
X15685293Y-15228712D01*
X15685293Y-15228712D02*
X15685293Y-15152522D01*
X15685293Y-15152522D02*
X15694817Y-15133474D01*
X15694817Y-15133474D02*
X15713865Y-15123950D01*
X15713865Y-15123950D02*
X15751960Y-15123950D01*
X15751960Y-15123950D02*
X15771008Y-15133474D01*
X15771008Y-15133474D02*
X15780531Y-15152522D01*
X15780531Y-15152522D02*
X15780531Y-15171569D01*
X15780531Y-15171569D02*
X15685293Y-15190617D01*
X15847198Y-15333474D02*
X15856722Y-15323950D01*
X15856722Y-15323950D02*
X15875770Y-15295379D01*
X15875770Y-15295379D02*
X15885293Y-15276331D01*
X15885293Y-15276331D02*
X15894817Y-15247760D01*
X15894817Y-15247760D02*
X15904341Y-15200141D01*
X15904341Y-15200141D02*
X15904341Y-15162046D01*
X15904341Y-15162046D02*
X15894817Y-15114427D01*
X15894817Y-15114427D02*
X15885293Y-15085855D01*
X15885293Y-15085855D02*
X15875770Y-15066808D01*
X15875770Y-15066808D02*
X15856722Y-15038236D01*
X15856722Y-15038236D02*
X15847198Y-15028712D01*
D11*
X11184040Y-15379800D02*
X11184040Y-15479800D01*
X11134040Y-15429800D02*
X11234040Y-15429800D01*
D10*
X11599579Y-15521284D02*
X11485293Y-15521284D01*
X11542436Y-15521284D02*
X11542436Y-15321284D01*
X11542436Y-15321284D02*
X11523388Y-15349855D01*
X11523388Y-15349855D02*
X11504341Y-15368903D01*
X11504341Y-15368903D02*
X11485293Y-15378427D01*
X11685293Y-15502236D02*
X11694817Y-15511760D01*
X11694817Y-15511760D02*
X11685293Y-15521284D01*
X11685293Y-15521284D02*
X11675769Y-15511760D01*
X11675769Y-15511760D02*
X11685293Y-15502236D01*
X11685293Y-15502236D02*
X11685293Y-15521284D01*
X11818626Y-15321284D02*
X11837674Y-15321284D01*
X11837674Y-15321284D02*
X11856722Y-15330808D01*
X11856722Y-15330808D02*
X11866245Y-15340331D01*
X11866245Y-15340331D02*
X11875769Y-15359379D01*
X11875769Y-15359379D02*
X11885293Y-15397474D01*
X11885293Y-15397474D02*
X11885293Y-15445093D01*
X11885293Y-15445093D02*
X11875769Y-15483188D01*
X11875769Y-15483188D02*
X11866245Y-15502236D01*
X11866245Y-15502236D02*
X11856722Y-15511760D01*
X11856722Y-15511760D02*
X11837674Y-15521284D01*
X11837674Y-15521284D02*
X11818626Y-15521284D01*
X11818626Y-15521284D02*
X11799579Y-15511760D01*
X11799579Y-15511760D02*
X11790055Y-15502236D01*
X11790055Y-15502236D02*
X11780531Y-15483188D01*
X11780531Y-15483188D02*
X11771007Y-15445093D01*
X11771007Y-15445093D02*
X11771007Y-15397474D01*
X11771007Y-15397474D02*
X11780531Y-15359379D01*
X11780531Y-15359379D02*
X11790055Y-15340331D01*
X11790055Y-15340331D02*
X11799579Y-15330808D01*
X11799579Y-15330808D02*
X11818626Y-15321284D01*
X12009102Y-15321284D02*
X12028150Y-15321284D01*
X12028150Y-15321284D02*
X12047198Y-15330808D01*
X12047198Y-15330808D02*
X12056722Y-15340331D01*
X12056722Y-15340331D02*
X12066245Y-15359379D01*
X12066245Y-15359379D02*
X12075769Y-15397474D01*
X12075769Y-15397474D02*
X12075769Y-15445093D01*
X12075769Y-15445093D02*
X12066245Y-15483188D01*
X12066245Y-15483188D02*
X12056722Y-15502236D01*
X12056722Y-15502236D02*
X12047198Y-15511760D01*
X12047198Y-15511760D02*
X12028150Y-15521284D01*
X12028150Y-15521284D02*
X12009102Y-15521284D01*
X12009102Y-15521284D02*
X11990055Y-15511760D01*
X11990055Y-15511760D02*
X11980531Y-15502236D01*
X11980531Y-15502236D02*
X11971007Y-15483188D01*
X11971007Y-15483188D02*
X11961483Y-15445093D01*
X11961483Y-15445093D02*
X11961483Y-15397474D01*
X11961483Y-15397474D02*
X11971007Y-15359379D01*
X11971007Y-15359379D02*
X11980531Y-15340331D01*
X11980531Y-15340331D02*
X11990055Y-15330808D01*
X11990055Y-15330808D02*
X12009102Y-15321284D01*
X12199579Y-15321284D02*
X12218626Y-15321284D01*
X12218626Y-15321284D02*
X12237674Y-15330808D01*
X12237674Y-15330808D02*
X12247198Y-15340331D01*
X12247198Y-15340331D02*
X12256722Y-15359379D01*
X12256722Y-15359379D02*
X12266245Y-15397474D01*
X12266245Y-15397474D02*
X12266245Y-15445093D01*
X12266245Y-15445093D02*
X12256722Y-15483188D01*
X12256722Y-15483188D02*
X12247198Y-15502236D01*
X12247198Y-15502236D02*
X12237674Y-15511760D01*
X12237674Y-15511760D02*
X12218626Y-15521284D01*
X12218626Y-15521284D02*
X12199579Y-15521284D01*
X12199579Y-15521284D02*
X12180531Y-15511760D01*
X12180531Y-15511760D02*
X12171007Y-15502236D01*
X12171007Y-15502236D02*
X12161483Y-15483188D01*
X12161483Y-15483188D02*
X12151960Y-15445093D01*
X12151960Y-15445093D02*
X12151960Y-15397474D01*
X12151960Y-15397474D02*
X12161483Y-15359379D01*
X12161483Y-15359379D02*
X12171007Y-15340331D01*
X12171007Y-15340331D02*
X12180531Y-15330808D01*
X12180531Y-15330808D02*
X12199579Y-15321284D01*
X12351960Y-15521284D02*
X12351960Y-15387950D01*
X12351960Y-15406998D02*
X12361483Y-15397474D01*
X12361483Y-15397474D02*
X12380531Y-15387950D01*
X12380531Y-15387950D02*
X12409103Y-15387950D01*
X12409103Y-15387950D02*
X12428150Y-15397474D01*
X12428150Y-15397474D02*
X12437674Y-15416522D01*
X12437674Y-15416522D02*
X12437674Y-15521284D01*
X12437674Y-15416522D02*
X12447198Y-15397474D01*
X12447198Y-15397474D02*
X12466245Y-15387950D01*
X12466245Y-15387950D02*
X12494817Y-15387950D01*
X12494817Y-15387950D02*
X12513864Y-15397474D01*
X12513864Y-15397474D02*
X12523388Y-15416522D01*
X12523388Y-15416522D02*
X12523388Y-15521284D01*
X12618626Y-15521284D02*
X12618626Y-15387950D01*
X12618626Y-15406998D02*
X12628150Y-15397474D01*
X12628150Y-15397474D02*
X12647198Y-15387950D01*
X12647198Y-15387950D02*
X12675769Y-15387950D01*
X12675769Y-15387950D02*
X12694817Y-15397474D01*
X12694817Y-15397474D02*
X12704341Y-15416522D01*
X12704341Y-15416522D02*
X12704341Y-15521284D01*
X12704341Y-15416522D02*
X12713864Y-15397474D01*
X12713864Y-15397474D02*
X12732912Y-15387950D01*
X12732912Y-15387950D02*
X12761483Y-15387950D01*
X12761483Y-15387950D02*
X12780531Y-15397474D01*
X12780531Y-15397474D02*
X12790055Y-15416522D01*
X12790055Y-15416522D02*
X12790055Y-15521284D01*
X13180531Y-15311760D02*
X13009103Y-15568903D01*
X13437674Y-15321284D02*
X13456722Y-15321284D01*
X13456722Y-15321284D02*
X13475769Y-15330808D01*
X13475769Y-15330808D02*
X13485293Y-15340331D01*
X13485293Y-15340331D02*
X13494817Y-15359379D01*
X13494817Y-15359379D02*
X13504341Y-15397474D01*
X13504341Y-15397474D02*
X13504341Y-15445093D01*
X13504341Y-15445093D02*
X13494817Y-15483188D01*
X13494817Y-15483188D02*
X13485293Y-15502236D01*
X13485293Y-15502236D02*
X13475769Y-15511760D01*
X13475769Y-15511760D02*
X13456722Y-15521284D01*
X13456722Y-15521284D02*
X13437674Y-15521284D01*
X13437674Y-15521284D02*
X13418626Y-15511760D01*
X13418626Y-15511760D02*
X13409103Y-15502236D01*
X13409103Y-15502236D02*
X13399579Y-15483188D01*
X13399579Y-15483188D02*
X13390055Y-15445093D01*
X13390055Y-15445093D02*
X13390055Y-15397474D01*
X13390055Y-15397474D02*
X13399579Y-15359379D01*
X13399579Y-15359379D02*
X13409103Y-15340331D01*
X13409103Y-15340331D02*
X13418626Y-15330808D01*
X13418626Y-15330808D02*
X13437674Y-15321284D01*
X13590055Y-15502236D02*
X13599579Y-15511760D01*
X13599579Y-15511760D02*
X13590055Y-15521284D01*
X13590055Y-15521284D02*
X13580531Y-15511760D01*
X13580531Y-15511760D02*
X13590055Y-15502236D01*
X13590055Y-15502236D02*
X13590055Y-15521284D01*
X13723388Y-15321284D02*
X13742436Y-15321284D01*
X13742436Y-15321284D02*
X13761484Y-15330808D01*
X13761484Y-15330808D02*
X13771007Y-15340331D01*
X13771007Y-15340331D02*
X13780531Y-15359379D01*
X13780531Y-15359379D02*
X13790055Y-15397474D01*
X13790055Y-15397474D02*
X13790055Y-15445093D01*
X13790055Y-15445093D02*
X13780531Y-15483188D01*
X13780531Y-15483188D02*
X13771007Y-15502236D01*
X13771007Y-15502236D02*
X13761484Y-15511760D01*
X13761484Y-15511760D02*
X13742436Y-15521284D01*
X13742436Y-15521284D02*
X13723388Y-15521284D01*
X13723388Y-15521284D02*
X13704341Y-15511760D01*
X13704341Y-15511760D02*
X13694817Y-15502236D01*
X13694817Y-15502236D02*
X13685293Y-15483188D01*
X13685293Y-15483188D02*
X13675769Y-15445093D01*
X13675769Y-15445093D02*
X13675769Y-15397474D01*
X13675769Y-15397474D02*
X13685293Y-15359379D01*
X13685293Y-15359379D02*
X13694817Y-15340331D01*
X13694817Y-15340331D02*
X13704341Y-15330808D01*
X13704341Y-15330808D02*
X13723388Y-15321284D01*
X13856722Y-15321284D02*
X13980531Y-15321284D01*
X13980531Y-15321284D02*
X13913865Y-15397474D01*
X13913865Y-15397474D02*
X13942436Y-15397474D01*
X13942436Y-15397474D02*
X13961484Y-15406998D01*
X13961484Y-15406998D02*
X13971007Y-15416522D01*
X13971007Y-15416522D02*
X13980531Y-15435569D01*
X13980531Y-15435569D02*
X13980531Y-15483188D01*
X13980531Y-15483188D02*
X13971007Y-15502236D01*
X13971007Y-15502236D02*
X13961484Y-15511760D01*
X13961484Y-15511760D02*
X13942436Y-15521284D01*
X13942436Y-15521284D02*
X13885293Y-15521284D01*
X13885293Y-15521284D02*
X13866246Y-15511760D01*
X13866246Y-15511760D02*
X13856722Y-15502236D01*
X14075769Y-15521284D02*
X14113865Y-15521284D01*
X14113865Y-15521284D02*
X14132912Y-15511760D01*
X14132912Y-15511760D02*
X14142436Y-15502236D01*
X14142436Y-15502236D02*
X14161484Y-15473665D01*
X14161484Y-15473665D02*
X14171007Y-15435569D01*
X14171007Y-15435569D02*
X14171007Y-15359379D01*
X14171007Y-15359379D02*
X14161484Y-15340331D01*
X14161484Y-15340331D02*
X14151960Y-15330808D01*
X14151960Y-15330808D02*
X14132912Y-15321284D01*
X14132912Y-15321284D02*
X14094817Y-15321284D01*
X14094817Y-15321284D02*
X14075769Y-15330808D01*
X14075769Y-15330808D02*
X14066246Y-15340331D01*
X14066246Y-15340331D02*
X14056722Y-15359379D01*
X14056722Y-15359379D02*
X14056722Y-15406998D01*
X14056722Y-15406998D02*
X14066246Y-15426046D01*
X14066246Y-15426046D02*
X14075769Y-15435569D01*
X14075769Y-15435569D02*
X14094817Y-15445093D01*
X14094817Y-15445093D02*
X14132912Y-15445093D01*
X14132912Y-15445093D02*
X14151960Y-15435569D01*
X14151960Y-15435569D02*
X14161484Y-15426046D01*
X14161484Y-15426046D02*
X14171007Y-15406998D01*
X14342436Y-15387950D02*
X14342436Y-15521284D01*
X14294817Y-15311760D02*
X14247198Y-15454617D01*
X14247198Y-15454617D02*
X14371007Y-15454617D01*
X14437674Y-15321284D02*
X14437674Y-15359379D01*
X14513865Y-15321284D02*
X14513865Y-15359379D01*
X14809103Y-15597474D02*
X14799579Y-15587950D01*
X14799579Y-15587950D02*
X14780531Y-15559379D01*
X14780531Y-15559379D02*
X14771008Y-15540331D01*
X14771008Y-15540331D02*
X14761484Y-15511760D01*
X14761484Y-15511760D02*
X14751960Y-15464141D01*
X14751960Y-15464141D02*
X14751960Y-15426046D01*
X14751960Y-15426046D02*
X14761484Y-15378427D01*
X14761484Y-15378427D02*
X14771008Y-15349855D01*
X14771008Y-15349855D02*
X14780531Y-15330808D01*
X14780531Y-15330808D02*
X14799579Y-15302236D01*
X14799579Y-15302236D02*
X14809103Y-15292712D01*
X14875769Y-15340331D02*
X14885293Y-15330808D01*
X14885293Y-15330808D02*
X14904341Y-15321284D01*
X14904341Y-15321284D02*
X14951960Y-15321284D01*
X14951960Y-15321284D02*
X14971008Y-15330808D01*
X14971008Y-15330808D02*
X14980531Y-15340331D01*
X14980531Y-15340331D02*
X14990055Y-15359379D01*
X14990055Y-15359379D02*
X14990055Y-15378427D01*
X14990055Y-15378427D02*
X14980531Y-15406998D01*
X14980531Y-15406998D02*
X14866246Y-15521284D01*
X14866246Y-15521284D02*
X14990055Y-15521284D01*
X15171008Y-15321284D02*
X15075769Y-15321284D01*
X15075769Y-15321284D02*
X15066246Y-15416522D01*
X15066246Y-15416522D02*
X15075769Y-15406998D01*
X15075769Y-15406998D02*
X15094817Y-15397474D01*
X15094817Y-15397474D02*
X15142436Y-15397474D01*
X15142436Y-15397474D02*
X15161484Y-15406998D01*
X15161484Y-15406998D02*
X15171008Y-15416522D01*
X15171008Y-15416522D02*
X15180531Y-15435569D01*
X15180531Y-15435569D02*
X15180531Y-15483188D01*
X15180531Y-15483188D02*
X15171008Y-15502236D01*
X15171008Y-15502236D02*
X15161484Y-15511760D01*
X15161484Y-15511760D02*
X15142436Y-15521284D01*
X15142436Y-15521284D02*
X15094817Y-15521284D01*
X15094817Y-15521284D02*
X15075769Y-15511760D01*
X15075769Y-15511760D02*
X15066246Y-15502236D01*
X15418627Y-15521284D02*
X15418627Y-15321284D01*
X15504341Y-15521284D02*
X15504341Y-15416522D01*
X15504341Y-15416522D02*
X15494817Y-15397474D01*
X15494817Y-15397474D02*
X15475770Y-15387950D01*
X15475770Y-15387950D02*
X15447198Y-15387950D01*
X15447198Y-15387950D02*
X15428150Y-15397474D01*
X15428150Y-15397474D02*
X15418627Y-15406998D01*
X15628150Y-15521284D02*
X15609103Y-15511760D01*
X15609103Y-15511760D02*
X15599579Y-15502236D01*
X15599579Y-15502236D02*
X15590055Y-15483188D01*
X15590055Y-15483188D02*
X15590055Y-15426046D01*
X15590055Y-15426046D02*
X15599579Y-15406998D01*
X15599579Y-15406998D02*
X15609103Y-15397474D01*
X15609103Y-15397474D02*
X15628150Y-15387950D01*
X15628150Y-15387950D02*
X15656722Y-15387950D01*
X15656722Y-15387950D02*
X15675770Y-15397474D01*
X15675770Y-15397474D02*
X15685293Y-15406998D01*
X15685293Y-15406998D02*
X15694817Y-15426046D01*
X15694817Y-15426046D02*
X15694817Y-15483188D01*
X15694817Y-15483188D02*
X15685293Y-15502236D01*
X15685293Y-15502236D02*
X15675770Y-15511760D01*
X15675770Y-15511760D02*
X15656722Y-15521284D01*
X15656722Y-15521284D02*
X15628150Y-15521284D01*
X15809103Y-15521284D02*
X15790055Y-15511760D01*
X15790055Y-15511760D02*
X15780531Y-15492712D01*
X15780531Y-15492712D02*
X15780531Y-15321284D01*
X15961484Y-15511760D02*
X15942436Y-15521284D01*
X15942436Y-15521284D02*
X15904341Y-15521284D01*
X15904341Y-15521284D02*
X15885293Y-15511760D01*
X15885293Y-15511760D02*
X15875770Y-15492712D01*
X15875770Y-15492712D02*
X15875770Y-15416522D01*
X15875770Y-15416522D02*
X15885293Y-15397474D01*
X15885293Y-15397474D02*
X15904341Y-15387950D01*
X15904341Y-15387950D02*
X15942436Y-15387950D01*
X15942436Y-15387950D02*
X15961484Y-15397474D01*
X15961484Y-15397474D02*
X15971008Y-15416522D01*
X15971008Y-15416522D02*
X15971008Y-15435569D01*
X15971008Y-15435569D02*
X15875770Y-15454617D01*
X16047198Y-15511760D02*
X16066246Y-15521284D01*
X16066246Y-15521284D02*
X16104341Y-15521284D01*
X16104341Y-15521284D02*
X16123389Y-15511760D01*
X16123389Y-15511760D02*
X16132912Y-15492712D01*
X16132912Y-15492712D02*
X16132912Y-15483188D01*
X16132912Y-15483188D02*
X16123389Y-15464141D01*
X16123389Y-15464141D02*
X16104341Y-15454617D01*
X16104341Y-15454617D02*
X16075770Y-15454617D01*
X16075770Y-15454617D02*
X16056722Y-15445093D01*
X16056722Y-15445093D02*
X16047198Y-15426046D01*
X16047198Y-15426046D02*
X16047198Y-15416522D01*
X16047198Y-15416522D02*
X16056722Y-15397474D01*
X16056722Y-15397474D02*
X16075770Y-15387950D01*
X16075770Y-15387950D02*
X16104341Y-15387950D01*
X16104341Y-15387950D02*
X16123389Y-15397474D01*
X16199579Y-15597474D02*
X16209103Y-15587950D01*
X16209103Y-15587950D02*
X16228151Y-15559379D01*
X16228151Y-15559379D02*
X16237674Y-15540331D01*
X16237674Y-15540331D02*
X16247198Y-15511760D01*
X16247198Y-15511760D02*
X16256722Y-15464141D01*
X16256722Y-15464141D02*
X16256722Y-15426046D01*
X16256722Y-15426046D02*
X16247198Y-15378427D01*
X16247198Y-15378427D02*
X16237674Y-15349855D01*
X16237674Y-15349855D02*
X16228151Y-15330808D01*
X16228151Y-15330808D02*
X16209103Y-15302236D01*
X16209103Y-15302236D02*
X16199579Y-15292712D01*
X11204751Y-15764511D02*
X11204751Y-15623089D01*
X11063329Y-15623089D01*
X11063329Y-15764511D01*
X11204751Y-15764511D01*
X11475769Y-15585284D02*
X11599579Y-15585284D01*
X11599579Y-15585284D02*
X11532912Y-15661474D01*
X11532912Y-15661474D02*
X11561483Y-15661474D01*
X11561483Y-15661474D02*
X11580531Y-15670998D01*
X11580531Y-15670998D02*
X11590055Y-15680522D01*
X11590055Y-15680522D02*
X11599579Y-15699569D01*
X11599579Y-15699569D02*
X11599579Y-15747188D01*
X11599579Y-15747188D02*
X11590055Y-15766236D01*
X11590055Y-15766236D02*
X11580531Y-15775760D01*
X11580531Y-15775760D02*
X11561483Y-15785284D01*
X11561483Y-15785284D02*
X11504341Y-15785284D01*
X11504341Y-15785284D02*
X11485293Y-15775760D01*
X11485293Y-15775760D02*
X11475769Y-15766236D01*
X11685293Y-15766236D02*
X11694817Y-15775760D01*
X11694817Y-15775760D02*
X11685293Y-15785284D01*
X11685293Y-15785284D02*
X11675769Y-15775760D01*
X11675769Y-15775760D02*
X11685293Y-15766236D01*
X11685293Y-15766236D02*
X11685293Y-15785284D01*
X11771007Y-15604331D02*
X11780531Y-15594808D01*
X11780531Y-15594808D02*
X11799579Y-15585284D01*
X11799579Y-15585284D02*
X11847198Y-15585284D01*
X11847198Y-15585284D02*
X11866245Y-15594808D01*
X11866245Y-15594808D02*
X11875769Y-15604331D01*
X11875769Y-15604331D02*
X11885293Y-15623379D01*
X11885293Y-15623379D02*
X11885293Y-15642427D01*
X11885293Y-15642427D02*
X11875769Y-15670998D01*
X11875769Y-15670998D02*
X11761483Y-15785284D01*
X11761483Y-15785284D02*
X11885293Y-15785284D01*
X12009102Y-15585284D02*
X12028150Y-15585284D01*
X12028150Y-15585284D02*
X12047198Y-15594808D01*
X12047198Y-15594808D02*
X12056722Y-15604331D01*
X12056722Y-15604331D02*
X12066245Y-15623379D01*
X12066245Y-15623379D02*
X12075769Y-15661474D01*
X12075769Y-15661474D02*
X12075769Y-15709093D01*
X12075769Y-15709093D02*
X12066245Y-15747188D01*
X12066245Y-15747188D02*
X12056722Y-15766236D01*
X12056722Y-15766236D02*
X12047198Y-15775760D01*
X12047198Y-15775760D02*
X12028150Y-15785284D01*
X12028150Y-15785284D02*
X12009102Y-15785284D01*
X12009102Y-15785284D02*
X11990055Y-15775760D01*
X11990055Y-15775760D02*
X11980531Y-15766236D01*
X11980531Y-15766236D02*
X11971007Y-15747188D01*
X11971007Y-15747188D02*
X11961483Y-15709093D01*
X11961483Y-15709093D02*
X11961483Y-15661474D01*
X11961483Y-15661474D02*
X11971007Y-15623379D01*
X11971007Y-15623379D02*
X11980531Y-15604331D01*
X11980531Y-15604331D02*
X11990055Y-15594808D01*
X11990055Y-15594808D02*
X12009102Y-15585284D01*
X12199579Y-15585284D02*
X12218626Y-15585284D01*
X12218626Y-15585284D02*
X12237674Y-15594808D01*
X12237674Y-15594808D02*
X12247198Y-15604331D01*
X12247198Y-15604331D02*
X12256722Y-15623379D01*
X12256722Y-15623379D02*
X12266245Y-15661474D01*
X12266245Y-15661474D02*
X12266245Y-15709093D01*
X12266245Y-15709093D02*
X12256722Y-15747188D01*
X12256722Y-15747188D02*
X12247198Y-15766236D01*
X12247198Y-15766236D02*
X12237674Y-15775760D01*
X12237674Y-15775760D02*
X12218626Y-15785284D01*
X12218626Y-15785284D02*
X12199579Y-15785284D01*
X12199579Y-15785284D02*
X12180531Y-15775760D01*
X12180531Y-15775760D02*
X12171007Y-15766236D01*
X12171007Y-15766236D02*
X12161483Y-15747188D01*
X12161483Y-15747188D02*
X12151960Y-15709093D01*
X12151960Y-15709093D02*
X12151960Y-15661474D01*
X12151960Y-15661474D02*
X12161483Y-15623379D01*
X12161483Y-15623379D02*
X12171007Y-15604331D01*
X12171007Y-15604331D02*
X12180531Y-15594808D01*
X12180531Y-15594808D02*
X12199579Y-15585284D01*
X12351960Y-15785284D02*
X12351960Y-15651950D01*
X12351960Y-15670998D02*
X12361483Y-15661474D01*
X12361483Y-15661474D02*
X12380531Y-15651950D01*
X12380531Y-15651950D02*
X12409103Y-15651950D01*
X12409103Y-15651950D02*
X12428150Y-15661474D01*
X12428150Y-15661474D02*
X12437674Y-15680522D01*
X12437674Y-15680522D02*
X12437674Y-15785284D01*
X12437674Y-15680522D02*
X12447198Y-15661474D01*
X12447198Y-15661474D02*
X12466245Y-15651950D01*
X12466245Y-15651950D02*
X12494817Y-15651950D01*
X12494817Y-15651950D02*
X12513864Y-15661474D01*
X12513864Y-15661474D02*
X12523388Y-15680522D01*
X12523388Y-15680522D02*
X12523388Y-15785284D01*
X12618626Y-15785284D02*
X12618626Y-15651950D01*
X12618626Y-15670998D02*
X12628150Y-15661474D01*
X12628150Y-15661474D02*
X12647198Y-15651950D01*
X12647198Y-15651950D02*
X12675769Y-15651950D01*
X12675769Y-15651950D02*
X12694817Y-15661474D01*
X12694817Y-15661474D02*
X12704341Y-15680522D01*
X12704341Y-15680522D02*
X12704341Y-15785284D01*
X12704341Y-15680522D02*
X12713864Y-15661474D01*
X12713864Y-15661474D02*
X12732912Y-15651950D01*
X12732912Y-15651950D02*
X12761483Y-15651950D01*
X12761483Y-15651950D02*
X12780531Y-15661474D01*
X12780531Y-15661474D02*
X12790055Y-15680522D01*
X12790055Y-15680522D02*
X12790055Y-15785284D01*
X13180531Y-15575760D02*
X13009103Y-15832903D01*
X13437674Y-15585284D02*
X13456722Y-15585284D01*
X13456722Y-15585284D02*
X13475769Y-15594808D01*
X13475769Y-15594808D02*
X13485293Y-15604331D01*
X13485293Y-15604331D02*
X13494817Y-15623379D01*
X13494817Y-15623379D02*
X13504341Y-15661474D01*
X13504341Y-15661474D02*
X13504341Y-15709093D01*
X13504341Y-15709093D02*
X13494817Y-15747188D01*
X13494817Y-15747188D02*
X13485293Y-15766236D01*
X13485293Y-15766236D02*
X13475769Y-15775760D01*
X13475769Y-15775760D02*
X13456722Y-15785284D01*
X13456722Y-15785284D02*
X13437674Y-15785284D01*
X13437674Y-15785284D02*
X13418626Y-15775760D01*
X13418626Y-15775760D02*
X13409103Y-15766236D01*
X13409103Y-15766236D02*
X13399579Y-15747188D01*
X13399579Y-15747188D02*
X13390055Y-15709093D01*
X13390055Y-15709093D02*
X13390055Y-15661474D01*
X13390055Y-15661474D02*
X13399579Y-15623379D01*
X13399579Y-15623379D02*
X13409103Y-15604331D01*
X13409103Y-15604331D02*
X13418626Y-15594808D01*
X13418626Y-15594808D02*
X13437674Y-15585284D01*
X13590055Y-15766236D02*
X13599579Y-15775760D01*
X13599579Y-15775760D02*
X13590055Y-15785284D01*
X13590055Y-15785284D02*
X13580531Y-15775760D01*
X13580531Y-15775760D02*
X13590055Y-15766236D01*
X13590055Y-15766236D02*
X13590055Y-15785284D01*
X13790055Y-15785284D02*
X13675769Y-15785284D01*
X13732912Y-15785284D02*
X13732912Y-15585284D01*
X13732912Y-15585284D02*
X13713865Y-15613855D01*
X13713865Y-15613855D02*
X13694817Y-15632903D01*
X13694817Y-15632903D02*
X13675769Y-15642427D01*
X13866246Y-15604331D02*
X13875769Y-15594808D01*
X13875769Y-15594808D02*
X13894817Y-15585284D01*
X13894817Y-15585284D02*
X13942436Y-15585284D01*
X13942436Y-15585284D02*
X13961484Y-15594808D01*
X13961484Y-15594808D02*
X13971007Y-15604331D01*
X13971007Y-15604331D02*
X13980531Y-15623379D01*
X13980531Y-15623379D02*
X13980531Y-15642427D01*
X13980531Y-15642427D02*
X13971007Y-15670998D01*
X13971007Y-15670998D02*
X13856722Y-15785284D01*
X13856722Y-15785284D02*
X13980531Y-15785284D01*
X14151960Y-15585284D02*
X14113865Y-15585284D01*
X14113865Y-15585284D02*
X14094817Y-15594808D01*
X14094817Y-15594808D02*
X14085293Y-15604331D01*
X14085293Y-15604331D02*
X14066246Y-15632903D01*
X14066246Y-15632903D02*
X14056722Y-15670998D01*
X14056722Y-15670998D02*
X14056722Y-15747188D01*
X14056722Y-15747188D02*
X14066246Y-15766236D01*
X14066246Y-15766236D02*
X14075769Y-15775760D01*
X14075769Y-15775760D02*
X14094817Y-15785284D01*
X14094817Y-15785284D02*
X14132912Y-15785284D01*
X14132912Y-15785284D02*
X14151960Y-15775760D01*
X14151960Y-15775760D02*
X14161484Y-15766236D01*
X14161484Y-15766236D02*
X14171007Y-15747188D01*
X14171007Y-15747188D02*
X14171007Y-15699569D01*
X14171007Y-15699569D02*
X14161484Y-15680522D01*
X14161484Y-15680522D02*
X14151960Y-15670998D01*
X14151960Y-15670998D02*
X14132912Y-15661474D01*
X14132912Y-15661474D02*
X14094817Y-15661474D01*
X14094817Y-15661474D02*
X14075769Y-15670998D01*
X14075769Y-15670998D02*
X14066246Y-15680522D01*
X14066246Y-15680522D02*
X14056722Y-15699569D01*
X14294817Y-15585284D02*
X14313865Y-15585284D01*
X14313865Y-15585284D02*
X14332912Y-15594808D01*
X14332912Y-15594808D02*
X14342436Y-15604331D01*
X14342436Y-15604331D02*
X14351960Y-15623379D01*
X14351960Y-15623379D02*
X14361484Y-15661474D01*
X14361484Y-15661474D02*
X14361484Y-15709093D01*
X14361484Y-15709093D02*
X14351960Y-15747188D01*
X14351960Y-15747188D02*
X14342436Y-15766236D01*
X14342436Y-15766236D02*
X14332912Y-15775760D01*
X14332912Y-15775760D02*
X14313865Y-15785284D01*
X14313865Y-15785284D02*
X14294817Y-15785284D01*
X14294817Y-15785284D02*
X14275769Y-15775760D01*
X14275769Y-15775760D02*
X14266246Y-15766236D01*
X14266246Y-15766236D02*
X14256722Y-15747188D01*
X14256722Y-15747188D02*
X14247198Y-15709093D01*
X14247198Y-15709093D02*
X14247198Y-15661474D01*
X14247198Y-15661474D02*
X14256722Y-15623379D01*
X14256722Y-15623379D02*
X14266246Y-15604331D01*
X14266246Y-15604331D02*
X14275769Y-15594808D01*
X14275769Y-15594808D02*
X14294817Y-15585284D01*
X14437674Y-15585284D02*
X14437674Y-15623379D01*
X14513865Y-15585284D02*
X14513865Y-15623379D01*
X14809103Y-15861474D02*
X14799579Y-15851950D01*
X14799579Y-15851950D02*
X14780531Y-15823379D01*
X14780531Y-15823379D02*
X14771008Y-15804331D01*
X14771008Y-15804331D02*
X14761484Y-15775760D01*
X14761484Y-15775760D02*
X14751960Y-15728141D01*
X14751960Y-15728141D02*
X14751960Y-15690046D01*
X14751960Y-15690046D02*
X14761484Y-15642427D01*
X14761484Y-15642427D02*
X14771008Y-15613855D01*
X14771008Y-15613855D02*
X14780531Y-15594808D01*
X14780531Y-15594808D02*
X14799579Y-15566236D01*
X14799579Y-15566236D02*
X14809103Y-15556712D01*
X14866246Y-15585284D02*
X14990055Y-15585284D01*
X14990055Y-15585284D02*
X14923388Y-15661474D01*
X14923388Y-15661474D02*
X14951960Y-15661474D01*
X14951960Y-15661474D02*
X14971008Y-15670998D01*
X14971008Y-15670998D02*
X14980531Y-15680522D01*
X14980531Y-15680522D02*
X14990055Y-15699569D01*
X14990055Y-15699569D02*
X14990055Y-15747188D01*
X14990055Y-15747188D02*
X14980531Y-15766236D01*
X14980531Y-15766236D02*
X14971008Y-15775760D01*
X14971008Y-15775760D02*
X14951960Y-15785284D01*
X14951960Y-15785284D02*
X14894817Y-15785284D01*
X14894817Y-15785284D02*
X14875769Y-15775760D01*
X14875769Y-15775760D02*
X14866246Y-15766236D01*
X15228150Y-15785284D02*
X15228150Y-15585284D01*
X15313865Y-15785284D02*
X15313865Y-15680522D01*
X15313865Y-15680522D02*
X15304341Y-15661474D01*
X15304341Y-15661474D02*
X15285293Y-15651950D01*
X15285293Y-15651950D02*
X15256722Y-15651950D01*
X15256722Y-15651950D02*
X15237674Y-15661474D01*
X15237674Y-15661474D02*
X15228150Y-15670998D01*
X15437674Y-15785284D02*
X15418627Y-15775760D01*
X15418627Y-15775760D02*
X15409103Y-15766236D01*
X15409103Y-15766236D02*
X15399579Y-15747188D01*
X15399579Y-15747188D02*
X15399579Y-15690046D01*
X15399579Y-15690046D02*
X15409103Y-15670998D01*
X15409103Y-15670998D02*
X15418627Y-15661474D01*
X15418627Y-15661474D02*
X15437674Y-15651950D01*
X15437674Y-15651950D02*
X15466246Y-15651950D01*
X15466246Y-15651950D02*
X15485293Y-15661474D01*
X15485293Y-15661474D02*
X15494817Y-15670998D01*
X15494817Y-15670998D02*
X15504341Y-15690046D01*
X15504341Y-15690046D02*
X15504341Y-15747188D01*
X15504341Y-15747188D02*
X15494817Y-15766236D01*
X15494817Y-15766236D02*
X15485293Y-15775760D01*
X15485293Y-15775760D02*
X15466246Y-15785284D01*
X15466246Y-15785284D02*
X15437674Y-15785284D01*
X15618627Y-15785284D02*
X15599579Y-15775760D01*
X15599579Y-15775760D02*
X15590055Y-15756712D01*
X15590055Y-15756712D02*
X15590055Y-15585284D01*
X15771008Y-15775760D02*
X15751960Y-15785284D01*
X15751960Y-15785284D02*
X15713865Y-15785284D01*
X15713865Y-15785284D02*
X15694817Y-15775760D01*
X15694817Y-15775760D02*
X15685293Y-15756712D01*
X15685293Y-15756712D02*
X15685293Y-15680522D01*
X15685293Y-15680522D02*
X15694817Y-15661474D01*
X15694817Y-15661474D02*
X15713865Y-15651950D01*
X15713865Y-15651950D02*
X15751960Y-15651950D01*
X15751960Y-15651950D02*
X15771008Y-15661474D01*
X15771008Y-15661474D02*
X15780531Y-15680522D01*
X15780531Y-15680522D02*
X15780531Y-15699569D01*
X15780531Y-15699569D02*
X15685293Y-15718617D01*
X15856722Y-15775760D02*
X15875770Y-15785284D01*
X15875770Y-15785284D02*
X15913865Y-15785284D01*
X15913865Y-15785284D02*
X15932912Y-15775760D01*
X15932912Y-15775760D02*
X15942436Y-15756712D01*
X15942436Y-15756712D02*
X15942436Y-15747188D01*
X15942436Y-15747188D02*
X15932912Y-15728141D01*
X15932912Y-15728141D02*
X15913865Y-15718617D01*
X15913865Y-15718617D02*
X15885293Y-15718617D01*
X15885293Y-15718617D02*
X15866246Y-15709093D01*
X15866246Y-15709093D02*
X15856722Y-15690046D01*
X15856722Y-15690046D02*
X15856722Y-15680522D01*
X15856722Y-15680522D02*
X15866246Y-15661474D01*
X15866246Y-15661474D02*
X15885293Y-15651950D01*
X15885293Y-15651950D02*
X15913865Y-15651950D01*
X15913865Y-15651950D02*
X15932912Y-15661474D01*
X16009103Y-15861474D02*
X16018627Y-15851950D01*
X16018627Y-15851950D02*
X16037674Y-15823379D01*
X16037674Y-15823379D02*
X16047198Y-15804331D01*
X16047198Y-15804331D02*
X16056722Y-15775760D01*
X16056722Y-15775760D02*
X16066246Y-15728141D01*
X16066246Y-15728141D02*
X16066246Y-15690046D01*
X16066246Y-15690046D02*
X16056722Y-15642427D01*
X16056722Y-15642427D02*
X16047198Y-15613855D01*
X16047198Y-15613855D02*
X16037674Y-15594808D01*
X16037674Y-15594808D02*
X16018627Y-15566236D01*
X16018627Y-15566236D02*
X16009103Y-15556712D01*
M02*
